<svg width="28" height="34" viewBox="0 0 28 34" fill="none" xmlns="http://www.w3.org/2000/svg">
<path d="M23.3294 32.2837C21.5202 34.0375 19.5448 33.7606 17.6434 32.9298C15.6311 32.0806 13.785 32.0437 11.662 32.9298C9.00359 34.0744 7.60055 33.7421 6.0129 32.2837C-2.99608 22.9978 -1.66689 8.85661 8.56053 8.3397C11.0528 8.46893 12.7881 9.70582 14.2465 9.81659C16.4249 9.37352 18.511 8.09971 20.8371 8.26586C23.6247 8.48739 25.7293 9.59505 27.1139 11.5888C21.354 15.0411 22.7201 22.6285 28 24.7516C26.9477 27.5207 25.5816 30.2714 23.3109 32.3021L23.3294 32.2837ZM14.0619 8.22894C13.785 4.11213 17.1264 0.715294 20.9663 0.382996C21.5017 5.14594 16.6465 8.69046 14.0619 8.22894Z" fill="black"/>
</svg>
