<svg width="25" height="25" viewBox="0 0 25 25" fill="none" xmlns="http://www.w3.org/2000/svg">
<path d="M5.98067 4.86816C5.52656 4.92187 5.00899 5.05859 4.49141 5.24902C3.49531 5.62499 2.82149 5.64452 2.17696 5.32226C2.01582 5.23925 1.83028 5.17577 1.75703 5.17577C1.49336 5.17577 1.47383 5.24902 1.36153 6.6162C1.26875 7.74413 1.26387 7.96874 1.3127 8.63769C1.38106 9.54589 1.55196 10.4883 1.77656 11.2353C1.86934 11.543 1.96699 11.9336 2.00117 12.1094C2.15254 13.0078 2.53828 13.7842 3.14864 14.4434C3.30489 14.6094 3.42207 14.7559 3.41231 14.7607C3.1291 14.9463 2.55781 15.4248 2.25996 15.7373C1.21992 16.8213 0.624221 18.1201 0.467971 19.6631C0.438674 19.9267 0.44844 19.9805 0.536331 20.0684C0.756057 20.2881 1.12227 20.1269 1.12227 19.8047C1.12227 19.3896 1.43965 18.1787 1.64961 17.7881L1.73262 17.6269L2.36739 18.0078L3.00215 18.3887L3.02656 19.209C3.05098 19.9463 3.06074 20.0342 3.14375 20.0976C3.28047 20.1953 3.5002 20.1807 3.6125 20.0684C3.70528 19.9756 3.71016 19.9072 3.71016 19.0625C3.71016 18.5498 3.69063 18.1201 3.66133 18.0664C3.63203 18.0176 3.26094 17.7637 2.83125 17.5049L2.05 17.0361L2.20625 16.8066C2.45528 16.4502 3.30977 15.6201 3.6711 15.3906L3.99336 15.1807L4.33028 15.3516C5.09688 15.7471 5.78535 15.8984 6.67891 15.8545C7.35274 15.8252 7.92891 15.6738 8.49043 15.3809C8.89571 15.166 8.87129 15.166 9.30098 15.4687C9.77949 15.8105 10.7902 16.8701 10.7902 17.0264C10.7902 17.0459 10.4777 17.251 10.092 17.4805C9.71113 17.71 9.34981 17.9443 9.29121 18.0029C9.18379 18.1055 9.17891 18.1396 9.17891 19.043C9.17891 19.9072 9.18379 19.9756 9.27656 20.0684C9.40352 20.1953 9.62813 20.1953 9.74531 20.0635C9.82832 19.9756 9.84297 19.8584 9.8625 19.1748L9.88692 18.3887L10.5217 18.0078L11.1564 17.6269L11.2688 17.8809C11.4689 18.3301 11.6105 18.8232 11.6936 19.3701C11.7424 19.6582 11.7961 19.9463 11.8205 20.0049C11.8645 20.1318 12.05 20.1904 12.2307 20.1465C12.3869 20.1074 12.426 20.0049 12.4943 19.4726C12.5578 18.9697 12.7385 18.3301 12.924 17.9199L13.0607 17.6269L13.6955 18.0078L14.3303 18.3887L14.3547 19.209C14.384 20.1221 14.3986 20.166 14.7258 20.166C15.009 20.166 15.0383 20.0684 15.0383 19.0527C15.0383 18.5449 15.0188 18.1201 14.9895 18.0664C14.9602 18.0176 14.5891 17.7637 14.1594 17.5049L13.3781 17.0361L13.5344 16.8066C13.7834 16.4453 14.5891 15.6641 14.9602 15.415L15.2971 15.1904L15.5949 15.3564C16.342 15.7715 17.382 15.9766 18.2365 15.874C18.7883 15.8105 19.4621 15.6006 19.9064 15.3564L20.2092 15.1904L20.4924 15.3809C21.0197 15.7324 21.5178 16.2109 21.9621 16.7773C22.05 16.8896 22.1184 17.0019 22.1184 17.0215C22.1184 17.0459 21.801 17.251 21.4201 17.4805C21.0393 17.71 20.6779 17.9443 20.6193 18.0029C20.5119 18.1055 20.507 18.1396 20.507 19.043C20.507 19.9072 20.5119 19.9756 20.6047 20.0684C20.7902 20.2539 21.1076 20.166 21.1662 19.9072C21.1809 19.8486 21.1955 19.4824 21.2053 19.0967L21.215 18.3887L21.6301 18.1396C21.8596 18.0029 22.1477 17.8271 22.2697 17.7588L22.4992 17.6221L22.6701 18.0517C22.8654 18.5547 23.0314 19.1797 23.0754 19.6289C23.1145 20.0342 23.1926 20.166 23.4025 20.166C23.715 20.166 23.7883 20.0195 23.7297 19.5264C23.549 18.0908 22.9973 16.8652 22.0695 15.8594C21.7619 15.5225 21.2248 15.0537 20.8977 14.834L20.7756 14.7559L21.0002 14.5166C21.3078 14.1943 21.4934 13.9453 21.6936 13.584L21.8645 13.2715L21.9182 13.4424C22.0012 13.6816 22.3088 14.0185 22.592 14.1748C22.9484 14.3652 23.383 14.4531 24.0178 14.4531H24.5744L24.5402 13.9746C24.4914 13.1885 24.3205 12.7051 23.9543 12.3144C23.6125 11.9482 23.0461 11.7187 22.4846 11.7187C22.2111 11.7187 22.2063 11.6846 22.4309 11.0449C22.6506 10.4101 22.7238 9.94628 22.6799 9.45312C22.5871 8.34472 22.2404 7.52929 21.5373 6.77734C20.8195 6.01073 19.9797 5.56152 18.8518 5.33691C18.2512 5.21972 17.1623 5.22948 16.552 5.35644C14.3986 5.81542 12.9973 7.3828 12.8557 9.47265C12.8215 10.0293 12.8752 10.3906 13.1096 11.1377C13.2023 11.4355 13.2805 11.6846 13.2805 11.6894C13.2805 11.6992 13.1096 11.7187 12.8996 11.7334C12.3771 11.7725 12.0207 11.9141 11.6936 12.2119C11.2443 12.6269 10.9904 13.3154 10.9855 14.1455V14.4531H11.5373C12.592 14.4531 13.2902 14.1455 13.549 13.5742C13.5979 13.4668 13.6516 13.3789 13.6662 13.3789C13.6809 13.3789 13.7932 13.5449 13.9152 13.75C14.0324 13.9502 14.2668 14.2627 14.4328 14.4434L14.7307 14.7705L14.3596 15.0439C13.4367 15.7324 12.5969 16.8408 12.2307 17.8467C12.1379 18.1006 12.0598 18.2275 12.0598 18.125C12.0598 18.0908 11.9914 17.8906 11.9133 17.6855C11.5471 16.7285 10.717 15.6836 9.79414 15.0049C9.62813 14.8828 9.48653 14.7754 9.47676 14.7656C9.46699 14.7559 9.57442 14.624 9.71113 14.4726C10.341 13.7842 10.717 13.0273 10.8684 12.1435C10.9074 11.8945 10.9953 11.5234 11.0588 11.3184C11.3908 10.2637 11.5715 9.13085 11.5715 8.14452C11.5715 7.35839 11.508 7.0703 11.2248 6.63573C11.0344 6.33788 10.4924 5.83007 10.1408 5.62499C9.2668 5.10253 8.09492 4.82909 6.81074 4.84374C6.43477 4.84374 6.06367 4.85839 5.98067 4.86816ZM7.54317 5.51757C9.13496 5.69335 10.3703 6.34277 10.7805 7.20702C10.9074 7.48534 10.9123 7.52441 10.9074 8.22753C10.9025 8.97948 10.8293 9.55077 10.634 10.3564C10.5754 10.5957 10.5119 10.7861 10.4924 10.7812C10.468 10.7715 10.1799 10.3809 9.85274 9.9121C9.14961 8.91601 9.20332 8.9453 8.48067 9.1748C7.92891 9.35058 7.1916 9.50683 6.68867 9.55077C6.20528 9.58984 5.38496 9.47265 4.64766 9.24804C4.33516 9.15038 3.97383 9.06249 3.85176 9.04784L3.62715 9.02343L2.99727 9.92675C2.65059 10.4248 2.3625 10.8252 2.35762 10.8203C2.32344 10.791 2.17696 10.1416 2.09883 9.64355C1.95723 8.80859 1.92793 7.96386 2.00117 6.92382L2.06465 6.02538L2.38692 6.11327C3.07539 6.28905 3.925 6.20116 4.78926 5.85937C5.64863 5.51757 6.53242 5.40527 7.54317 5.51757ZM19.0178 6.05468C19.5402 6.1914 20.3166 6.57714 20.673 6.87499C21.4982 7.56347 21.9523 8.46679 22.0061 9.52636C22.0305 9.99023 22.0207 10.0928 21.9035 10.5029C21.8303 10.7568 21.7521 10.9814 21.7326 11.001C21.6838 11.0498 20.9953 10.7959 20.4338 10.5225C19.2863 9.96093 18.5002 9.20898 18.1828 8.35937C18.0363 7.97363 17.9484 7.86132 17.7873 7.86132C17.5969 7.86132 17.4895 7.94433 17.426 8.13964C17.0598 9.27734 16.0539 10.166 14.4279 10.8008C13.7199 11.0791 13.7883 11.0889 13.6662 10.708C13.5051 10.2051 13.4855 9.42382 13.6174 8.87206C13.7932 8.13964 14.1545 7.51952 14.6965 7.01171C15.1994 6.54784 15.8586 6.21093 16.5764 6.04003C17.1086 5.91308 17.1184 5.91308 17.8947 5.93261C18.4514 5.94238 18.7199 5.97167 19.0178 6.05468ZM17.9289 9.33593C18.4904 10.1807 19.4426 10.8789 20.6975 11.3721C21.0393 11.5039 21.3762 11.6309 21.4494 11.6504C21.5861 11.6797 21.5861 11.6894 21.5568 11.9336C21.3908 13.1299 20.5559 14.2822 19.4572 14.834C18.8518 15.1367 18.5051 15.21 17.7238 15.2051C17.0891 15.2051 16.9768 15.1904 16.6252 15.0732C16.0588 14.8828 15.5705 14.5898 15.1506 14.1943C14.4621 13.54 14.091 12.8271 13.9396 11.8799L13.9055 11.6748L14.1057 11.6211C14.4328 11.5332 15.3801 11.1426 15.7219 10.9521C16.5031 10.5176 17.2209 9.90234 17.5627 9.37011C17.6652 9.21386 17.7482 9.08202 17.7531 9.08202C17.758 9.08202 17.8361 9.19921 17.9289 9.33593ZM4.42793 9.89257C4.66719 9.96093 5.12129 10.0586 5.44356 10.1172C6.40059 10.2783 7.46504 10.1953 8.49531 9.86816C8.6711 9.81445 8.83711 9.76562 8.87129 9.76562C8.90059 9.76562 9.22285 10.1904 9.58906 10.7129C10.0725 11.4062 10.2531 11.7041 10.2531 11.8066C10.2531 12.2363 9.90156 13.1396 9.54024 13.6328C9.08613 14.248 8.23653 14.8486 7.52363 15.0586C6.21016 15.4443 4.74043 15.0732 3.76387 14.1064C3.24141 13.584 2.93379 13.0615 2.7336 12.3389C2.55781 11.7139 2.55293 11.7334 3.28047 10.6885C3.63692 10.1807 3.94453 9.76562 3.96406 9.76562C3.9836 9.76562 4.19356 9.81933 4.42793 9.89257ZM13.0998 12.5146C13.134 12.7441 13.0559 13.1299 12.924 13.3154C12.8654 13.4033 12.7189 13.5303 12.5969 13.5937C12.3869 13.7109 11.7424 13.8574 11.6887 13.8037C11.635 13.75 11.7717 13.2519 11.9035 13.0127C12.1037 12.6465 12.4748 12.4365 13.0412 12.3584C13.0607 12.3535 13.0852 12.4268 13.0998 12.5146ZM23.0168 12.4853C23.4367 12.6172 23.7395 13.0371 23.8469 13.6426L23.8811 13.8281L23.6223 13.7939C23.0559 13.7158 22.7141 13.5351 22.5627 13.2373C22.4504 13.0273 22.3869 12.6465 22.4309 12.4756C22.4553 12.373 22.4797 12.3584 22.6213 12.3828C22.7043 12.3975 22.885 12.4463 23.0168 12.4853Z" fill="#747688"/>
<path d="M15.7807 12.8564C15.7514 12.8857 15.7172 12.9736 15.6976 13.042C15.6488 13.2373 15.8881 13.4717 16.3666 13.7158C17.2553 14.1601 18.2318 14.1748 19.1058 13.75C19.6088 13.5058 19.8236 13.3154 19.8236 13.1103C19.8236 12.7441 19.5355 12.6953 19.0912 12.9834C18.6273 13.2861 18.3734 13.3545 17.7484 13.3496C17.143 13.3496 16.8451 13.2617 16.4057 12.959C16.1517 12.7832 15.8783 12.7392 15.7807 12.8564Z" fill="#747688"/>
<path d="M4.58984 12.8027C4.44336 12.8564 4.39453 12.9248 4.39453 13.1006C4.39453 13.291 4.62402 13.4863 5.10254 13.7207C5.5957 13.9551 5.90332 14.0234 6.44531 14.0234C6.9873 14.0234 7.29492 13.9551 7.78809 13.7207C8.45703 13.3984 8.69141 13.0859 8.44727 12.8418C8.30566 12.7002 8.11035 12.7197 7.84668 12.9102C7.3291 13.2812 6.69434 13.4326 6.09375 13.335C5.75195 13.2812 5.18555 13.0566 5.0293 12.915C4.90234 12.8027 4.72168 12.7539 4.58984 12.8027Z" fill="#747688"/>
</svg>
