<svg width="22" height="22" viewBox="0 0 22 22" fill="none" xmlns="http://www.w3.org/2000/svg">
<path d="M4.52675 17.1903C4.44506 17.1903 4.36672 17.1579 4.30896 17.1001C4.2512 17.0424 4.21875 16.964 4.21875 16.8823V8.95223C4.21875 8.87054 4.2512 8.7922 4.30896 8.73444C4.36672 8.67668 4.44506 8.64423 4.52675 8.64423C4.60844 8.64423 4.68678 8.67668 4.74454 8.73444C4.8023 8.7922 4.83475 8.87054 4.83475 8.95223V16.8823C4.83475 16.964 4.8023 17.0424 4.74454 17.1001C4.68678 17.1579 4.60844 17.1903 4.52675 17.1903Z" fill="#807A7A"/>
<path d="M5.92519 17.1903C5.8435 17.1903 5.76516 17.1579 5.7074 17.1001C5.64964 17.0424 5.61719 16.964 5.61719 16.8823V8.95223C5.61719 8.87054 5.64964 8.7922 5.7074 8.73444C5.76516 8.67668 5.8435 8.64423 5.92519 8.64423C6.00687 8.64423 6.08522 8.67668 6.14298 8.73444C6.20074 8.7922 6.23319 8.87054 6.23319 8.95223V16.8823C6.23319 16.964 6.20074 17.0424 6.14298 17.1001C6.08522 17.1579 6.00687 17.1903 5.92519 17.1903Z" fill="#807A7A"/>
<path d="M5.829 9.23557H4.619C4.10926 9.23557 3.68092 8.83165 3.62262 8.29617L3.54474 7.58491C3.53599 7.50369 3.55986 7.42232 3.6111 7.3587C3.66235 7.29508 3.73676 7.25442 3.81798 7.24567C3.8992 7.23692 3.98057 7.26079 4.04419 7.31203C4.10781 7.36327 4.14847 7.43769 4.15722 7.51891L4.23488 8.22973C4.2593 8.45237 4.4243 8.62001 4.619 8.62001H5.829C6.0237 8.62001 6.18892 8.45237 6.21312 8.22995L6.29012 7.52595C6.2935 7.48499 6.30505 7.44513 6.32407 7.4087C6.3431 7.37227 6.36922 7.34002 6.4009 7.31385C6.43258 7.28767 6.46918 7.2681 6.50854 7.25629C6.5479 7.24447 6.58923 7.24066 6.63009 7.24506C6.67095 7.24946 6.71051 7.262 6.74645 7.28193C6.78239 7.30186 6.81398 7.32878 6.83935 7.36111C6.86473 7.39344 6.88338 7.43051 6.8942 7.47016C6.90503 7.5098 6.90781 7.55121 6.90238 7.59195L6.82538 8.29595C6.76598 8.83165 6.33764 9.23557 5.829 9.23557Z" fill="#807A7A"/>
<path d="M3.87859 18.5957C3.86979 18.5957 3.86077 18.5957 3.85175 18.5957C3.81144 18.5922 3.77222 18.5808 3.73632 18.5622C3.70042 18.5435 3.66855 18.518 3.64252 18.487C3.61649 18.4561 3.59682 18.4203 3.58463 18.3817C3.57244 18.3431 3.56797 18.3025 3.57147 18.2622L3.64803 17.378C3.66572 17.1588 3.76558 16.9543 3.92761 16.8055C4.08965 16.6567 4.3019 16.5746 4.52187 16.5757H5.92371C6.14345 16.5747 6.35547 16.6566 6.51739 16.8052C6.67932 16.9537 6.77921 17.1579 6.79711 17.3769L6.87235 18.2455C6.87941 18.3269 6.85385 18.4078 6.80128 18.4703C6.74872 18.5328 6.67346 18.572 6.59207 18.579C6.51067 18.5861 6.42981 18.5605 6.36726 18.5079C6.30471 18.4554 6.26561 18.3801 6.25855 18.2987L6.18353 17.43C6.17831 17.3646 6.1486 17.3036 6.10034 17.2592C6.05208 17.2148 5.98884 17.1903 5.92327 17.1906H4.52187C4.45634 17.1904 4.39315 17.2149 4.34493 17.2593C4.29672 17.3037 4.26704 17.3646 4.26183 17.43L4.18527 18.3144C4.17861 18.3911 4.14342 18.4626 4.08665 18.5147C4.02987 18.5668 3.95564 18.5957 3.87859 18.5957Z" fill="#807A7A"/>
<path d="M14.5463 17.2012C14.4646 17.2012 14.3863 17.1687 14.3285 17.1109C14.2707 17.0532 14.2383 16.9748 14.2383 16.8932V9.24507C14.2383 9.16339 14.2707 9.08504 14.3285 9.02728C14.3863 8.96952 14.4646 8.93707 14.5463 8.93707C14.628 8.93707 14.7063 8.96952 14.7641 9.02728C14.8218 9.08504 14.8543 9.16339 14.8543 9.24507V16.8932C14.8543 16.9748 14.8218 17.0532 14.7641 17.1109C14.7063 17.1687 14.628 17.2012 14.5463 17.2012Z" fill="#807A7A"/>
<path d="M15.8939 17.2012C15.8123 17.2012 15.7339 17.1687 15.6761 17.1109C15.6184 17.0532 15.5859 16.9748 15.5859 16.8932V9.24507C15.5859 9.16339 15.6184 9.08504 15.6761 9.02728C15.7339 8.96952 15.8123 8.93707 15.8939 8.93707C15.9756 8.93707 16.054 8.96952 16.1117 9.02728C16.1695 9.08504 16.2019 9.16339 16.2019 9.24507V16.8932C16.2019 16.9748 16.1695 17.0532 16.1117 17.1109C16.054 17.1687 15.9756 17.2012 15.8939 17.2012Z" fill="#807A7A"/>
<path d="M15.8849 9.21801H14.5522C14.0763 9.21801 13.677 8.82861 13.6236 8.31249L13.5485 7.59067C13.5443 7.55044 13.5481 7.50978 13.5596 7.471C13.5712 7.43223 13.5902 7.39611 13.6157 7.3647C13.6412 7.33329 13.6726 7.30721 13.7082 7.28795C13.7437 7.26868 13.7828 7.25661 13.823 7.25242C13.8632 7.24823 13.9039 7.252 13.9426 7.26353C13.9814 7.27506 14.0175 7.2941 14.0489 7.31959C14.0804 7.34507 14.1064 7.3765 14.1257 7.41206C14.145 7.44763 14.157 7.48664 14.1612 7.52687L14.2363 8.25001C14.2583 8.45131 14.3929 8.60311 14.5522 8.60311H15.8849C16.044 8.60311 16.1797 8.45131 16.2009 8.24979L16.2759 7.52797V7.52335V7.51631C16.2838 7.43752 16.3217 7.36479 16.3818 7.31324C16.4419 7.26168 16.5196 7.23526 16.5986 7.23945C16.6777 7.24364 16.7521 7.27812 16.8065 7.33574C16.8608 7.39336 16.8908 7.46968 16.8903 7.54887C16.8903 7.56115 16.8895 7.57341 16.8881 7.58561V7.59397L16.8133 8.31337C16.759 8.82971 16.3599 9.21801 15.8849 9.21801Z" fill="#807A7A"/>
<path d="M16.562 18.599C16.4849 18.5989 16.4107 18.57 16.354 18.5178C16.2973 18.4657 16.2621 18.3942 16.2555 18.3174L16.1787 17.43C16.1736 17.3646 16.1439 17.3036 16.0957 17.2592C16.0475 17.2149 15.9842 17.1903 15.9187 17.1906H14.5164C14.4509 17.1904 14.3877 17.2149 14.3395 17.2593C14.2913 17.3037 14.2616 17.3646 14.2564 17.43L14.1814 18.2987C14.1743 18.3801 14.1352 18.4554 14.0726 18.5079C14.0101 18.5605 13.9292 18.5861 13.8478 18.579C13.7664 18.572 13.6912 18.5328 13.6386 18.4703C13.5861 18.4078 13.5605 18.3269 13.5676 18.2455L13.6428 17.3767C13.6605 17.1575 13.7603 16.9531 13.9223 16.8043C14.0843 16.6556 14.2965 16.5735 14.5164 16.5746H15.9187C16.1386 16.5735 16.3508 16.6556 16.5128 16.8043C16.6748 16.9531 16.7746 17.1575 16.7923 17.3767L16.8693 18.2644C16.8728 18.3048 16.8683 18.3454 16.856 18.384C16.8438 18.4226 16.824 18.4584 16.798 18.4893C16.7719 18.5203 16.7399 18.5458 16.704 18.5644C16.668 18.583 16.6287 18.5943 16.5884 18.5977C16.5799 18.5986 16.5711 18.599 16.562 18.599Z" fill="#807A7A"/>
<path d="M18.1239 20.658H2.33534C2.25366 20.658 2.17532 20.6255 2.11755 20.5678C2.05979 20.51 2.02734 20.4317 2.02734 20.35V19.9278C2.02793 19.4121 2.23303 18.9177 2.59767 18.5531C2.96231 18.1885 3.45669 17.9834 3.97236 17.9828H16.4871C17.0027 17.9834 17.4971 18.1885 17.8617 18.5531C18.2263 18.9178 18.4313 19.4122 18.4319 19.9278V20.35C18.4319 20.4317 18.3994 20.51 18.3417 20.5678C18.2839 20.6255 18.2056 20.658 18.1239 20.658ZM2.64334 20.042H17.8159V19.9278C17.8155 19.5755 17.6754 19.2377 17.4263 18.9885C17.1772 18.7394 16.8394 18.5992 16.4871 18.5988H3.97236C3.62001 18.5992 3.28221 18.7393 3.03305 18.9885C2.7839 19.2376 2.64375 19.5755 2.64334 19.9278V20.042Z" fill="#807A7A"/>
<path d="M3.59714 6.23175C3.53139 6.23176 3.46737 6.21074 3.41443 6.17175C3.36149 6.13277 3.32241 6.07787 3.30292 6.01508C3.28342 5.95229 3.28453 5.88491 3.30608 5.82279C3.32763 5.76068 3.36849 5.70709 3.42268 5.66987L9.31076 1.62802C9.58199 1.44332 9.90254 1.34454 10.2307 1.34454C10.5588 1.34454 10.8794 1.44332 11.1506 1.62802L17.0372 5.66987C17.1035 5.7165 17.1488 5.78743 17.1632 5.86726C17.1776 5.94709 17.1599 6.02936 17.114 6.09623C17.0681 6.16309 16.9976 6.20914 16.9179 6.22438C16.8383 6.23962 16.7558 6.22282 16.6885 6.17762L10.8019 2.13534C10.6334 2.02069 10.4344 1.95938 10.2306 1.95938C10.0268 1.95938 9.82772 2.02069 9.65924 2.13534L3.77116 6.17762C3.71994 6.21281 3.65928 6.23167 3.59714 6.23175Z" fill="#807A7A"/>
<path d="M18.1436 7.85667H2.30998C2.08778 7.85632 1.87481 7.76781 1.71782 7.61057C1.56083 7.45333 1.47266 7.24022 1.47266 7.01803V6.45263C1.47289 6.23051 1.56123 6.01756 1.71829 5.8605C1.87535 5.70344 2.0883 5.6151 2.31042 5.61487H18.1436C18.3657 5.6151 18.5787 5.70344 18.7357 5.8605C18.8928 6.01756 18.9811 6.23051 18.9814 6.45263V7.01803C18.9814 7.2403 18.8931 7.45347 18.736 7.61072C18.5789 7.76798 18.3659 7.85643 18.1436 7.85667ZM2.30998 6.23175C2.25126 6.23192 2.195 6.25536 2.15352 6.29692C2.11204 6.33848 2.08871 6.39479 2.08866 6.45351V7.01803C2.08871 7.07682 2.1121 7.1332 2.15367 7.17477C2.19525 7.21635 2.25162 7.23973 2.31042 7.23979H18.1436C18.2024 7.23973 18.2588 7.21635 18.3003 7.17477C18.3419 7.1332 18.3653 7.07682 18.3654 7.01803V6.45263C18.3653 6.39383 18.3419 6.33746 18.3003 6.29588C18.2588 6.25431 18.2024 6.23093 18.1436 6.23087L2.30998 6.23175Z" fill="#807A7A"/>
<path d="M12.5122 12.5998C12.4305 12.5998 12.3522 12.5674 12.2944 12.5096C12.2366 12.4519 12.2042 12.3735 12.2042 12.2918V11.264H8.24881V12.293C8.24881 12.3746 8.21636 12.453 8.1586 12.5107C8.10084 12.5685 8.0225 12.601 7.94081 12.601C7.85913 12.601 7.78078 12.5685 7.72302 12.5107C7.66526 12.453 7.63281 12.3746 7.63281 12.293V10.956C7.63281 10.8743 7.66526 10.796 7.72302 10.7382C7.78078 10.6805 7.85913 10.648 7.94081 10.648H12.5122C12.5939 10.648 12.6722 10.6805 12.73 10.7382C12.7877 10.796 12.8202 10.8743 12.8202 10.956V12.293C12.8199 12.3744 12.7873 12.4525 12.7296 12.51C12.6719 12.5676 12.5937 12.5999 12.5122 12.5998Z" fill="#807A7A"/>
<path d="M7.97319 13.79H7.91225C7.59584 13.7896 7.2925 13.6637 7.06877 13.44C6.84503 13.2163 6.71916 12.9129 6.71875 12.5965V12.2918C6.71875 12.2101 6.7512 12.1318 6.80896 12.074C6.86672 12.0163 6.94506 11.9838 7.02675 11.9838H8.85891C8.9406 11.9838 9.01894 12.0163 9.0767 12.074C9.13446 12.1318 9.16691 12.2101 9.16691 12.2918V12.5965C9.1665 12.913 9.0406 13.2163 8.81681 13.4401C8.59303 13.6638 8.28964 13.7897 7.97319 13.79ZM7.33519 12.5998C7.33629 12.7523 7.39759 12.8983 7.50575 13.0058C7.61391 13.1133 7.76017 13.1738 7.91269 13.174H7.97363C8.12619 13.1739 8.27251 13.1135 8.38069 13.0059C8.48888 12.8984 8.55014 12.7524 8.55113 12.5998H7.33519Z" fill="#807A7A"/>
<path d="M12.5435 13.79H12.4826C12.1662 13.7896 11.8628 13.6637 11.6391 13.44C11.4153 13.2163 11.2895 12.9129 11.2891 12.5965V12.2918C11.2891 12.2101 11.3215 12.1318 11.3793 12.074C11.437 12.0163 11.5154 11.9838 11.5971 11.9838H13.429C13.5107 11.9838 13.589 12.0163 13.6468 12.074C13.7046 12.1318 13.737 12.2101 13.737 12.2918V12.5965C13.7367 12.913 13.6108 13.2163 13.387 13.4401C13.1633 13.6638 12.8599 13.7897 12.5435 13.79ZM11.9055 12.5998C11.9065 12.7524 11.9678 12.8983 12.076 13.0059C12.1842 13.1134 12.3305 13.1739 12.483 13.174H12.5439C12.6965 13.1739 12.8428 13.1134 12.9509 13.0059C13.0591 12.8983 13.1204 12.7524 13.1214 12.5998H11.9055Z" fill="#807A7A"/>
<path d="M10.2299 14.5053C10.1482 14.5053 10.0698 14.4728 10.0121 14.4151C9.95432 14.3573 9.92188 14.279 9.92188 14.1973V10.956C9.92188 10.8743 9.95432 10.796 10.0121 10.7382C10.0698 10.6805 10.1482 10.648 10.2299 10.648C10.3116 10.648 10.3899 10.6805 10.4477 10.7382C10.5054 10.796 10.5379 10.8743 10.5379 10.956V14.1973C10.5379 14.279 10.5054 14.3573 10.4477 14.4151C10.3899 14.4728 10.3116 14.5053 10.2299 14.5053Z" fill="#807A7A"/>
<path d="M10.7038 14.5053H9.74941C9.66772 14.5053 9.58938 14.4728 9.53162 14.4151C9.47386 14.3573 9.44141 14.279 9.44141 14.1973C9.44141 14.1156 9.47386 14.0373 9.53162 13.9795C9.58938 13.9217 9.66772 13.8893 9.74941 13.8893H10.7038C10.7855 13.8893 10.8638 13.9217 10.9216 13.9795C10.9793 14.0373 11.0118 14.1156 11.0118 14.1973C11.0118 14.279 10.9793 14.3573 10.9216 14.4151C10.8638 14.4728 10.7855 14.5053 10.7038 14.5053Z" fill="#807A7A"/>
</svg>
