<svg width="20" height="20" viewBox="0 0 20 20" fill="none" xmlns="http://www.w3.org/2000/svg">
<path d="M10 12.5024C11.3807 12.5024 12.5 11.3832 12.5 10.0024C12.5 8.62173 11.3807 7.50244 10 7.50244C8.61929 7.50244 7.5 8.62173 7.5 10.0024C7.5 11.3832 8.61929 12.5024 10 12.5024Z" fill="#979797"/>
<path fill-rule="evenodd" clip-rule="evenodd" d="M0.664255 10.5928C0.517392 10.2112 0.517518 9.78808 0.66461 9.40652C2.10878 5.66032 5.7433 3.00244 9.99859 3.00244C14.256 3.00244 17.892 5.66295 19.3347 9.41207C19.4816 9.79371 19.4814 10.2168 19.3344 10.5984C17.8902 14.3446 14.2557 17.0024 10.0004 17.0024C5.74298 17.0024 2.10698 14.3419 0.664255 10.5928ZM14.0004 10.0024C14.0004 12.2116 12.2095 14.0024 10.0004 14.0024C7.79123 14.0024 6.00037 12.2116 6.00037 10.0024C6.00037 7.7933 7.79123 6.00244 10.0004 6.00244C12.2095 6.00244 14.0004 7.7933 14.0004 10.0024Z" fill="#979797"/>
</svg>
