<svg width="25" height="24" viewBox="0 0 25 24" fill="none" xmlns="http://www.w3.org/2000/svg">
<path d="M19.8662 9.85034C21.0163 11.0086 21.7093 11.9809 21.7227 11.9998C21.7227 11.9998 17.4906 17.9998 12.4121 17.9998C12.0908 17.9998 11.779 17.9855 11.4766 17.9597L19.8662 9.85034Z" fill="#979797"/>
<path d="M12.416 6C13.3117 6 14.1804 6.18864 15.0049 6.49609L12.416 9C10.7023 9.00002 9.31305 10.3426 9.3125 11.999L5.71973 15.4717C3.8823 13.8319 3.10547 12 3.10547 12C3.10547 12 5.64471 6.00003 12.416 6Z" fill="#979797"/>
<rect opacity="0.3" width="19.3306" height="2.0348" transform="matrix(0.718997 -0.695013 0.718997 0.695013 5.27734 18.4351)" fill="#979797"/>
</svg>
