<svg width="28" height="28" viewBox="0 0 28 28" fill="none" xmlns="http://www.w3.org/2000/svg">
<g clip-path="url(#clip0_995_3155)">
<path d="M27.7283 14.3225C27.7283 13.3708 27.6511 12.414 27.4865 11.4777H14.2812V16.8689H21.8433C21.5295 18.6076 20.5212 20.1457 19.0448 21.1231V24.6212H23.5563C26.2056 22.1828 27.7283 18.5819 27.7283 14.3225Z" fill="#4285F4"/>
<path d="M14.2803 28.0009C18.0561 28.0009 21.2404 26.7612 23.5605 24.6212L19.049 21.1231C17.7938 21.9771 16.1734 22.4606 14.2854 22.4606C10.633 22.4606 7.5362 19.9965 6.42505 16.6837H1.76953V20.2898C4.14616 25.0173 8.98688 28.0009 14.2803 28.0009Z" fill="#34A853"/>
<path d="M6.42088 16.6837C5.83444 14.9449 5.83444 13.0621 6.42088 11.3234V7.71729H1.7705C-0.215167 11.6732 -0.215167 16.3339 1.7705 20.2898L6.42088 16.6837Z" fill="#FBBC04"/>
<path d="M14.2803 5.54127C16.2762 5.51041 18.2053 6.26146 19.6508 7.64012L23.6479 3.64305C21.1169 1.26642 17.7578 -0.0402103 14.2803 0.000943444C8.98687 0.000943444 4.14616 2.98459 1.76953 7.71728L6.41991 11.3234C7.52591 8.00536 10.6279 5.54127 14.2803 5.54127Z" fill="#EA4335"/>
</g>
<defs>
<clipPath id="clip0_995_3155">
<rect width="28" height="28" fill="white"/>
</clipPath>
</defs>
</svg>
