<svg width="63" height="63" viewBox="0 0 63 63" fill="none" xmlns="http://www.w3.org/2000/svg">
<path d="M31.5003 58.1367C26.3533 58.1367 21.3848 56.6753 17.0875 53.9038L8.91575 57.1219C8.04828 57.4639 7.06144 57.2587 6.40192 56.5991C5.74226 55.9395 5.53707 54.9526 5.8792 54.0848L9.09718 45.9136C6.32567 41.6163 4.86426 36.6477 4.86426 31.5007C4.86426 27.9054 5.56869 24.417 6.95792 21.1324C8.29955 17.9605 10.2199 15.112 12.6658 12.6663C15.1115 10.2205 17.96 8.30005 21.1319 6.95848C24.4166 5.56918 27.905 4.86475 31.5002 4.86475C35.0955 4.86475 38.5839 5.56918 41.8685 6.95848C45.0404 8.30011 47.8889 10.2205 50.3347 12.6663C52.7805 15.112 54.7009 17.9605 56.0425 21.1324C57.4318 24.417 58.1362 27.9054 58.1362 31.5007C58.1362 35.0961 57.4318 38.5844 56.0425 41.869C54.7009 45.041 52.7805 47.8895 50.3347 50.3352C47.8889 52.7811 45.0405 54.7014 41.8685 56.0431C38.5839 57.4324 35.0955 58.1367 31.5003 58.1367Z" fill="#0E81BC"/>
<path d="M32.4162 24.0106C34.4981 24.0106 36.1859 22.3229 36.1859 20.2409C36.1859 18.1589 34.4981 16.4712 32.4162 16.4712C30.3342 16.4712 28.6465 18.1589 28.6465 20.2409C28.6465 22.3229 30.3342 24.0106 32.4162 24.0106Z" fill="white"/>
<path d="M38.002 43.5668C37.324 44.5604 35.4133 46.53 30.9284 46.53C27.2578 46.53 25.7767 43.9091 26.2202 41.2479L28.1194 29.8535C28.2657 28.976 27.5887 28.1774 26.6993 28.1774H25.993C25.3765 28.1774 24.877 27.6779 24.877 27.0614C24.877 26.7529 25.002 26.4741 25.2039 26.2722C25.4057 26.0703 25.6845 25.9453 25.993 25.9453H33.5369C35.014 25.9453 36.1251 27.291 35.8459 28.7418L33.3212 41.8475C33.1605 42.6808 33.7993 43.4546 34.6485 43.4546C35.2194 43.4546 35.6945 43.3411 36.08 43.1824C36.4654 43.0237 36.7605 42.8203 36.9714 42.6407C37.2323 42.4185 37.6147 42.415 37.8766 42.6357C38.1517 42.868 38.2049 43.2698 38.002 43.5668Z" fill="white"/>
<path d="M58.1351 31.5006C58.1351 35.0958 57.4308 38.5843 56.0412 41.869C54.6999 45.0406 52.7794 47.8895 50.3337 50.3352C47.888 52.781 45.039 54.7015 41.8675 56.0428C38.5828 57.4323 35.0944 58.1366 31.4991 58.1366C26.3525 58.1366 21.3836 56.6753 17.0866 53.9038L8.91437 57.1218C8.04684 57.4641 7.06055 57.259 6.40075 56.5992C5.85902 56.0574 5.62407 55.2953 5.74661 54.5599C5.9073 54.5332 6.06607 54.4894 6.22167 54.4284L14.3933 51.2104C18.6902 53.9819 23.6591 55.4432 28.8058 55.4432C32.401 55.4432 35.8895 54.7389 39.1741 53.35C42.3463 52.0081 45.1946 50.0876 47.6403 47.6419C50.086 45.1961 52.0065 42.3478 53.3485 39.1756C54.7373 35.8909 55.4417 32.4025 55.4417 28.8072C55.4417 25.212 54.7374 21.7235 53.3485 18.4388C52.2542 15.8521 50.7751 13.4808 48.9398 11.3672C49.418 11.7819 49.8829 12.215 50.3337 12.6659C52.7794 15.1116 54.6999 17.9599 56.0412 21.1322C57.4308 24.4169 58.1351 27.9054 58.1351 31.5006Z" fill="#8EC7E4"/>
<path d="M31.5 63.0001C26.2184 63.0001 20.9938 61.6673 16.391 59.1457C15.7757 58.8087 15.5502 58.0367 15.8872 57.4216C16.2243 56.8063 16.9963 56.5809 17.6114 56.9178C21.8413 59.235 26.6438 60.4597 31.5 60.4597C35.4102 60.4597 39.2026 59.6942 42.7721 58.1845C46.2205 56.726 49.3176 54.6377 51.9776 51.9777C54.6376 49.3177 56.7259 46.2205 58.1844 42.7721C59.6942 39.2027 60.4597 35.4102 60.4597 31.5001C60.4597 27.5899 59.6941 23.7975 58.1844 20.228C56.7259 16.7796 54.6377 13.6824 51.9776 11.0225C49.3176 8.36246 46.2204 6.27417 42.7721 4.81565C39.2026 3.30587 35.4102 2.54042 31.5 2.54042C27.5899 2.54042 23.7974 3.30594 20.228 4.81565C16.7796 6.27417 13.6824 8.36239 11.0224 11.0225C8.36245 13.6824 6.27416 16.7797 4.81564 20.228C3.3058 23.7974 2.54034 27.5898 2.54034 31.5C2.54034 36.3554 3.76495 41.1579 6.08165 45.3882C6.4186 46.0034 6.19295 46.7754 5.57765 47.1123C4.96242 47.4491 4.19056 47.2237 3.85353 46.6083C1.33254 42.0051 0 36.7807 0 31.5C0 27.2481 0.833028 23.1226 2.47594 19.2383C4.06251 15.4872 6.33354 12.1186 9.22606 9.22607C12.1185 6.33361 15.4871 4.06252 19.2383 2.47595C23.1226 0.83303 27.248 0 31.5 0C35.7519 0 39.8773 0.83303 43.7616 2.47595C47.5128 4.06252 50.8814 6.33361 53.7739 9.22607C56.6664 12.1186 58.9374 15.4872 60.524 19.2383C62.1669 23.1227 62.9999 27.2481 62.9999 31.5C62.9999 35.7519 62.1669 39.8773 60.524 43.7617C58.9374 47.5128 56.6664 50.8815 53.7739 53.7739C50.8814 56.6665 47.5128 58.9375 43.7616 60.5241C39.8774 62.167 35.752 63.0001 31.5 63.0001Z" fill="#202C4C"/>
<path d="M31.9412 8.15715C20.2328 11.0177 11.0167 20.2338 8.15617 31.9422C7.91241 32.9401 6.45333 32.7704 6.44355 31.7432C6.4428 31.6624 6.44238 31.5816 6.44238 31.5006C6.44231 17.67 17.6687 6.44343 31.4994 6.44336C31.5804 6.44336 31.6614 6.44377 31.7422 6.44453C32.7694 6.45424 32.9391 7.91332 31.9412 8.15715Z" fill="#2999FF"/>
</svg>
