<svg width="22" height="22" viewBox="0 0 22 22" fill="none" xmlns="http://www.w3.org/2000/svg">
<path d="M9.77734 0.0816422C8.93086 0.23633 8.38516 0.421095 7.65469 0.794924C5.67813 1.80469 4.30742 3.61367 3.81758 5.84375C3.73164 6.24766 3.71875 6.40664 3.71875 7.34766C3.72305 8.525 3.77031 8.86016 4.0668 9.75391C4.49648 11.0516 5.17539 12.1258 7.20352 14.7297C7.80508 15.4988 8.28633 16.1348 8.27773 16.1434C8.26914 16.152 7.98555 16.2164 7.6418 16.2852C5.67383 16.6848 4.31602 17.4066 3.84336 18.3047C3.72734 18.5195 3.71875 18.5797 3.71875 18.9922C3.71875 19.4219 3.72305 19.4563 3.86484 19.7141C4.34609 20.5992 5.76406 21.3383 7.71914 21.7164C8.91367 21.9441 9.31758 21.9785 11.002 21.9785C12.6863 21.9785 13.0902 21.9441 14.2848 21.7164C16.2484 21.334 17.6578 20.6035 18.1391 19.7141C18.2809 19.4563 18.2852 19.4219 18.2852 18.9922C18.2852 18.5625 18.2809 18.5281 18.1391 18.2703C17.6578 17.3852 16.3172 16.6805 14.3621 16.2852C14.0184 16.2164 13.7348 16.152 13.7262 16.1434C13.7176 16.1348 13.9367 15.8383 14.2117 15.4859C16.5449 12.5168 17.2711 11.4383 17.7738 10.1793C18.0059 9.60352 18.1949 8.89024 18.2637 8.32305C18.341 7.7043 18.298 6.37227 18.1777 5.82227C17.5676 2.95195 15.3676 0.751955 12.4844 0.124611C11.8613 -0.00859261 10.3961 -0.0343723 9.77734 0.0816422ZM11.8828 0.949612C13.825 1.20313 15.5996 2.42344 16.6137 4.19805C16.8715 4.64922 17.1293 5.32383 17.2668 5.90391C17.3742 6.34649 17.3828 6.44961 17.3828 7.32617C17.3785 8.19414 17.3699 8.31016 17.2668 8.74414C17.0434 9.69805 16.6352 10.5875 15.9563 11.623C15.4836 12.3406 14.9895 13.0023 13.5844 14.8027C12.957 15.6063 12.1277 16.6891 11.741 17.209C11.35 17.7289 11.0191 18.1543 10.9977 18.1543C10.9805 18.1543 10.7957 17.9223 10.5895 17.6387C10.0996 16.9684 9.16289 15.7438 8.17031 14.4805C7.73203 13.9262 7.18203 13.2086 6.94141 12.8906C5.48047 10.9527 4.90039 9.80547 4.66406 8.3875C4.55234 7.73438 4.59102 6.51406 4.74141 5.88242C5.0293 4.6793 5.61797 3.63086 6.49023 2.76289C7.93398 1.33203 9.85469 0.687502 11.8828 0.949612ZM9.24023 17.3508C9.39062 17.557 9.75586 18.0512 10.048 18.4551C10.7441 19.4133 10.7527 19.4219 11.002 19.4219C11.2426 19.4219 11.2898 19.3789 11.8613 18.584C12.0848 18.2746 12.4457 17.7934 12.6648 17.5055L13.0602 16.9855L13.4426 17.0414C15.6855 17.3766 17.4043 18.2145 17.4043 18.9836C17.4043 19.2328 17.327 19.3617 17.0262 19.641C16.0766 20.5176 13.666 21.102 11.002 21.102C8.81484 21.102 6.87266 20.7324 5.61367 20.075C5.21406 19.8688 4.77148 19.4992 4.65977 19.2887C4.57812 19.1254 4.58242 18.8203 4.67266 18.6914C5.19687 17.9008 6.68359 17.3078 8.93945 16.9813C8.95234 16.977 9.08555 17.1445 9.24023 17.3508Z" fill="#807A7A"/>
<path d="M10.7555 1.79609C10.6395 1.88203 10.5707 2.08828 10.6008 2.24726C10.6653 2.57383 11.125 2.70273 11.3571 2.45781C11.5246 2.28593 11.5203 1.99804 11.3528 1.83476C11.2067 1.69297 10.9102 1.67578 10.7555 1.79609Z" fill="#807A7A"/>
<path d="M12.4181 2.13984C12.1817 2.38047 12.272 2.75 12.5985 2.87891C14.1196 3.48047 15.1638 4.64492 15.5591 6.17891C15.6063 6.35938 15.6622 6.7418 15.6837 7.02109C15.7181 7.49375 15.7309 7.54102 15.8384 7.65273C15.9372 7.75586 15.9931 7.77734 16.1563 7.77734C16.3196 7.77734 16.3755 7.75586 16.47 7.65703C16.5774 7.54531 16.586 7.51094 16.586 7.12422C16.586 6.40234 16.3626 5.48281 16.0231 4.80391C15.645 4.04766 14.9575 3.23555 14.2786 2.7543C13.763 2.38477 13.0755 2.05391 12.779 2.02812C12.5684 2.01094 12.5384 2.01953 12.4181 2.13984Z" fill="#807A7A"/>
<path d="M10.248 4.36562C10.1063 4.4 9.82695 4.50742 9.625 4.60625C9.32852 4.75234 9.18672 4.85977 8.87305 5.17773C8.2457 5.80078 7.99219 6.41094 7.99219 7.30469C7.99219 7.86328 8.06953 8.20703 8.30156 8.67969C8.44766 8.97617 8.55508 9.11797 8.87305 9.43164C9.49609 10.059 10.1063 10.3125 11 10.3125C11.5586 10.3125 11.9023 10.2352 12.375 10.0031C12.6715 9.85703 12.8133 9.74961 13.127 9.43164C13.7543 8.80859 14.0078 8.19844 14.0078 7.30469C14.0078 6.74609 13.9305 6.40234 13.6984 5.92969C13.5523 5.6332 13.4449 5.49141 13.127 5.17773C12.4953 4.5418 11.8895 4.29688 10.9785 4.30117C10.7207 4.30117 10.3898 4.33125 10.248 4.36562ZM11.8723 5.37969C12.332 5.59883 12.7059 5.97266 12.9207 6.43242C13.0668 6.7332 13.084 6.81055 13.0969 7.18008C13.127 7.85039 12.9422 8.33594 12.4867 8.79141C12.216 9.06211 11.8551 9.27695 11.5242 9.36719C11.2707 9.43164 10.6777 9.42305 10.4371 9.35C9.83984 9.16523 9.3457 8.73984 9.075 8.17695C8.91602 7.84609 8.91602 7.8375 8.91602 7.30469C8.91602 6.77187 8.91602 6.76328 9.075 6.43242C9.33711 5.88242 9.83125 5.45273 10.4199 5.25938C10.5316 5.2207 10.7594 5.20352 11.0645 5.21211C11.5113 5.2207 11.5543 5.2293 11.8723 5.37969Z" fill="#807A7A"/>
</svg>
