<svg width="304" height="18" viewBox="0 0 304 18" fill="none" xmlns="http://www.w3.org/2000/svg">
<path d="M0 9L98 8.5V9.5L0 9Z" fill="url(#paint0_linear_995_3148)" fill-opacity="0.75"/>
<path d="M109.144 9.68C109.144 10.32 109.04 10.91 108.832 11.45C108.624 11.99 108.33 12.456 107.95 12.848C107.574 13.236 107.12 13.54 106.588 13.76C106.06 13.98 105.472 14.09 104.824 14.09C104.18 14.09 103.592 13.98 103.06 13.76C102.532 13.54 102.078 13.236 101.698 12.848C101.318 12.456 101.024 11.99 100.816 11.45C100.608 10.91 100.504 10.32 100.504 9.68C100.504 9.04 100.608 8.45 100.816 7.91C101.024 7.37 101.318 6.904 101.698 6.512C102.078 6.12 102.532 5.814 103.06 5.594C103.592 5.374 104.18 5.264 104.824 5.264C105.472 5.264 106.06 5.374 106.588 5.594C107.12 5.814 107.574 6.12 107.95 6.512C108.33 6.904 108.624 7.37 108.832 7.91C109.04 8.45 109.144 9.04 109.144 9.68ZM107.71 9.68C107.71 9.184 107.642 8.738 107.506 8.342C107.374 7.946 107.182 7.61 106.93 7.334C106.682 7.058 106.38 6.846 106.024 6.698C105.668 6.55 105.268 6.476 104.824 6.476C104.384 6.476 103.986 6.55 103.63 6.698C103.274 6.846 102.97 7.058 102.718 7.334C102.466 7.61 102.272 7.946 102.136 8.342C102 8.738 101.932 9.184 101.932 9.68C101.932 10.18 102 10.628 102.136 11.024C102.272 11.42 102.466 11.756 102.718 12.032C102.97 12.304 103.274 12.514 103.63 12.662C103.986 12.806 104.384 12.878 104.824 12.878C105.268 12.878 105.668 12.806 106.024 12.662C106.38 12.514 106.682 12.304 106.93 12.032C107.182 11.756 107.374 11.42 107.506 11.024C107.642 10.628 107.71 10.18 107.71 9.68ZM111.555 9.014C111.747 8.626 111.979 8.322 112.251 8.102C112.523 7.878 112.849 7.766 113.229 7.766C113.361 7.766 113.485 7.782 113.601 7.814C113.717 7.842 113.821 7.886 113.913 7.946L113.823 8.918C113.807 8.986 113.781 9.034 113.745 9.062C113.713 9.086 113.669 9.098 113.613 9.098C113.553 9.098 113.467 9.088 113.355 9.068C113.243 9.044 113.125 9.032 113.001 9.032C112.821 9.032 112.661 9.058 112.521 9.11C112.385 9.162 112.261 9.238 112.149 9.338C112.041 9.438 111.945 9.56 111.861 9.704C111.777 9.848 111.699 10.012 111.627 10.196V14H110.337V7.88H111.087C111.223 7.88 111.317 7.906 111.369 7.958C111.421 8.006 111.457 8.092 111.477 8.216L111.555 9.014ZM121.823 9.08C121.783 9.132 121.745 9.172 121.709 9.2C121.673 9.228 121.621 9.242 121.553 9.242C121.485 9.242 121.413 9.218 121.337 9.17C121.265 9.122 121.177 9.07 121.073 9.014C120.973 8.954 120.851 8.9 120.707 8.852C120.563 8.804 120.383 8.78 120.167 8.78C119.887 8.78 119.641 8.83 119.429 8.93C119.221 9.03 119.045 9.174 118.901 9.362C118.761 9.546 118.655 9.772 118.583 10.04C118.515 10.304 118.481 10.602 118.481 10.934C118.481 11.278 118.519 11.584 118.595 11.852C118.671 12.12 118.779 12.346 118.919 12.53C119.063 12.714 119.235 12.854 119.435 12.95C119.639 13.046 119.867 13.094 120.119 13.094C120.367 13.094 120.569 13.064 120.725 13.004C120.881 12.944 121.011 12.878 121.115 12.806C121.219 12.734 121.307 12.668 121.379 12.608C121.455 12.548 121.535 12.518 121.619 12.518C121.723 12.518 121.803 12.558 121.859 12.638L122.225 13.112C122.077 13.292 121.913 13.444 121.733 13.568C121.553 13.692 121.363 13.794 121.163 13.874C120.963 13.95 120.755 14.004 120.539 14.036C120.323 14.072 120.105 14.09 119.885 14.09C119.505 14.09 119.149 14.02 118.817 13.88C118.489 13.736 118.201 13.53 117.953 13.262C117.709 12.99 117.515 12.66 117.371 12.272C117.231 11.88 117.161 11.434 117.161 10.934C117.161 10.482 117.225 10.064 117.353 9.68C117.481 9.292 117.667 8.958 117.911 8.678C118.159 8.398 118.465 8.18 118.829 8.024C119.193 7.864 119.613 7.784 120.089 7.784C120.533 7.784 120.923 7.856 121.259 8C121.599 8.144 121.901 8.348 122.165 8.612L121.823 9.08ZM125.803 7.784C126.255 7.784 126.663 7.858 127.027 8.006C127.395 8.154 127.707 8.364 127.963 8.636C128.223 8.908 128.423 9.238 128.563 9.626C128.703 10.014 128.773 10.45 128.773 10.934C128.773 11.418 128.703 11.854 128.563 12.242C128.423 12.63 128.223 12.962 127.963 13.238C127.707 13.51 127.395 13.72 127.027 13.868C126.663 14.016 126.255 14.09 125.803 14.09C125.347 14.09 124.935 14.016 124.567 13.868C124.203 13.72 123.891 13.51 123.631 13.238C123.371 12.962 123.171 12.63 123.031 12.242C122.891 11.854 122.821 11.418 122.821 10.934C122.821 10.45 122.891 10.014 123.031 9.626C123.171 9.238 123.371 8.908 123.631 8.636C123.891 8.364 124.203 8.154 124.567 8.006C124.935 7.858 125.347 7.784 125.803 7.784ZM125.803 13.082C126.355 13.082 126.765 12.898 127.033 12.53C127.305 12.158 127.441 11.628 127.441 10.94C127.441 10.252 127.305 9.722 127.033 9.35C126.765 8.974 126.355 8.786 125.803 8.786C125.243 8.786 124.827 8.974 124.555 9.35C124.283 9.722 124.147 10.252 124.147 10.94C124.147 11.628 124.283 12.158 124.555 12.53C124.827 12.898 125.243 13.082 125.803 13.082ZM131.219 8.69C131.351 8.554 131.487 8.432 131.627 8.324C131.771 8.212 131.923 8.116 132.083 8.036C132.243 7.956 132.413 7.894 132.593 7.85C132.773 7.806 132.969 7.784 133.181 7.784C133.517 7.784 133.811 7.84 134.063 7.952C134.319 8.064 134.533 8.222 134.705 8.426C134.881 8.63 135.013 8.876 135.101 9.164C135.189 9.448 135.233 9.762 135.233 10.106V14H133.949V10.106C133.949 9.694 133.853 9.374 133.661 9.146C133.473 8.918 133.185 8.804 132.797 8.804C132.509 8.804 132.241 8.87 131.993 9.002C131.749 9.134 131.519 9.314 131.303 9.542V14H130.013V7.88H130.793C130.969 7.88 131.081 7.962 131.129 8.126L131.219 8.69ZM142.597 14H141.307V8.894H138.325V12.368C138.325 12.588 138.379 12.756 138.487 12.872C138.595 12.988 138.739 13.046 138.919 13.046C139.019 13.046 139.105 13.034 139.177 13.01C139.249 12.982 139.311 12.954 139.363 12.926C139.415 12.894 139.459 12.866 139.495 12.842C139.535 12.814 139.573 12.8 139.609 12.8C139.681 12.8 139.739 12.84 139.783 12.92L140.167 13.55C139.967 13.726 139.731 13.862 139.459 13.958C139.187 14.05 138.907 14.096 138.619 14.096C138.111 14.096 137.719 13.954 137.443 13.67C137.171 13.382 137.035 12.978 137.035 12.458V8.894H136.363C136.291 8.894 136.229 8.872 136.177 8.828C136.125 8.78 136.099 8.71 136.099 8.618V8.096L137.089 7.952L137.371 6.182C137.391 6.114 137.425 6.06 137.473 6.02C137.521 5.976 137.585 5.954 137.665 5.954H138.325V7.964H142.597V14ZM142.861 6.002C142.861 6.118 142.837 6.228 142.789 6.332C142.745 6.432 142.683 6.522 142.603 6.602C142.523 6.678 142.429 6.74 142.321 6.788C142.217 6.832 142.107 6.854 141.991 6.854C141.875 6.854 141.765 6.832 141.661 6.788C141.561 6.74 141.471 6.678 141.391 6.602C141.315 6.522 141.253 6.432 141.205 6.332C141.161 6.228 141.139 6.118 141.139 6.002C141.139 5.882 141.161 5.77 141.205 5.666C141.253 5.558 141.315 5.466 141.391 5.39C141.471 5.31 141.561 5.248 141.661 5.204C141.765 5.156 141.875 5.132 141.991 5.132C142.107 5.132 142.217 5.156 142.321 5.204C142.429 5.248 142.523 5.31 142.603 5.39C142.683 5.466 142.745 5.558 142.789 5.666C142.837 5.77 142.861 5.882 142.861 6.002ZM145.433 8.69C145.565 8.554 145.701 8.432 145.841 8.324C145.985 8.212 146.137 8.116 146.297 8.036C146.457 7.956 146.627 7.894 146.807 7.85C146.987 7.806 147.183 7.784 147.395 7.784C147.731 7.784 148.025 7.84 148.277 7.952C148.533 8.064 148.747 8.222 148.919 8.426C149.095 8.63 149.227 8.876 149.315 9.164C149.403 9.448 149.447 9.762 149.447 10.106V14H148.163V10.106C148.163 9.694 148.067 9.374 147.875 9.146C147.687 8.918 147.399 8.804 147.011 8.804C146.723 8.804 146.455 8.87 146.207 9.002C145.963 9.134 145.733 9.314 145.517 9.542V14H144.227V7.88H145.007C145.183 7.88 145.295 7.962 145.343 8.126L145.433 8.69ZM156.114 7.88V14H155.334C155.162 14 155.052 13.918 155.004 13.754L154.908 13.184C154.78 13.32 154.644 13.444 154.5 13.556C154.36 13.668 154.21 13.764 154.05 13.844C153.89 13.924 153.718 13.986 153.534 14.03C153.354 14.074 153.16 14.096 152.952 14.096C152.616 14.096 152.32 14.04 152.064 13.928C151.808 13.816 151.592 13.658 151.416 13.454C151.244 13.25 151.114 13.006 151.026 12.722C150.938 12.434 150.894 12.118 150.894 11.774V7.88H152.184V11.774C152.184 12.186 152.278 12.506 152.466 12.734C152.658 12.962 152.948 13.076 153.336 13.076C153.62 13.076 153.884 13.012 154.128 12.884C154.376 12.752 154.608 12.572 154.824 12.344V7.88H156.114ZM161.695 10.25C161.695 10.034 161.663 9.834 161.599 9.65C161.539 9.462 161.449 9.3 161.329 9.164C161.209 9.024 161.059 8.916 160.879 8.84C160.703 8.76 160.499 8.72 160.267 8.72C159.799 8.72 159.431 8.854 159.163 9.122C158.895 9.39 158.725 9.766 158.653 10.25H161.695ZM158.617 11.042C158.633 11.39 158.687 11.692 158.779 11.948C158.871 12.2 158.993 12.41 159.145 12.578C159.301 12.746 159.485 12.872 159.697 12.956C159.913 13.036 160.153 13.076 160.417 13.076C160.669 13.076 160.887 13.048 161.071 12.992C161.255 12.932 161.415 12.868 161.551 12.8C161.687 12.728 161.803 12.664 161.899 12.608C161.995 12.548 162.083 12.518 162.163 12.518C162.267 12.518 162.347 12.558 162.403 12.638L162.769 13.112C162.617 13.292 162.445 13.444 162.253 13.568C162.061 13.692 161.857 13.794 161.641 13.874C161.425 13.95 161.203 14.004 160.975 14.036C160.747 14.072 160.525 14.09 160.309 14.09C159.885 14.09 159.491 14.02 159.127 13.88C158.767 13.736 158.453 13.526 158.185 13.25C157.921 12.974 157.713 12.632 157.561 12.224C157.413 11.816 157.339 11.346 157.339 10.814C157.339 10.39 157.405 9.994 157.537 9.626C157.673 9.258 157.865 8.938 158.113 8.666C158.365 8.394 158.669 8.18 159.025 8.024C159.385 7.864 159.791 7.784 160.243 7.784C160.619 7.784 160.967 7.846 161.287 7.97C161.607 8.09 161.883 8.268 162.115 8.504C162.347 8.74 162.527 9.03 162.655 9.374C162.787 9.714 162.853 10.102 162.853 10.538C162.853 10.738 162.831 10.872 162.787 10.94C162.743 11.008 162.663 11.042 162.547 11.042H158.617ZM175.396 7.88L173.434 14H172.408C172.288 14 172.204 13.922 172.156 13.766L170.938 9.956C170.906 9.848 170.876 9.74 170.848 9.632C170.824 9.524 170.802 9.418 170.782 9.314C170.738 9.53 170.684 9.746 170.62 9.962L169.384 13.766C169.34 13.922 169.246 14 169.102 14H168.124L166.162 7.88H167.182C167.282 7.88 167.364 7.906 167.428 7.958C167.496 8.006 167.54 8.064 167.56 8.132L168.58 11.696C168.62 11.86 168.654 12.02 168.682 12.176C168.714 12.328 168.742 12.48 168.766 12.632C168.806 12.48 168.848 12.328 168.892 12.176C168.936 12.02 168.982 11.86 169.03 11.696L170.176 8.114C170.196 8.042 170.236 7.984 170.296 7.94C170.36 7.892 170.436 7.868 170.524 7.868H171.088C171.18 7.868 171.258 7.892 171.322 7.94C171.386 7.984 171.428 8.042 171.448 8.114L172.564 11.696C172.612 11.86 172.656 12.02 172.696 12.176C172.74 12.332 172.78 12.488 172.816 12.644C172.844 12.492 172.874 12.338 172.906 12.182C172.938 12.026 172.976 11.864 173.02 11.696L174.058 8.132C174.082 8.06 174.126 8 174.19 7.952C174.254 7.904 174.332 7.88 174.424 7.88H175.396ZM177.681 7.88V14H176.391V7.88H177.681ZM177.897 6.032C177.897 6.148 177.873 6.258 177.825 6.362C177.781 6.466 177.719 6.558 177.639 6.638C177.559 6.714 177.465 6.776 177.357 6.824C177.253 6.868 177.141 6.89 177.021 6.89C176.905 6.89 176.795 6.868 176.691 6.824C176.591 6.776 176.503 6.714 176.427 6.638C176.351 6.558 176.289 6.466 176.241 6.362C176.197 6.258 176.175 6.148 176.175 6.032C176.175 5.912 176.197 5.8 176.241 5.696C176.289 5.592 176.351 5.502 176.427 5.426C176.503 5.346 176.591 5.284 176.691 5.24C176.795 5.192 176.905 5.168 177.021 5.168C177.141 5.168 177.253 5.192 177.357 5.24C177.465 5.284 177.559 5.346 177.639 5.426C177.719 5.502 177.781 5.592 177.825 5.696C177.873 5.8 177.897 5.912 177.897 6.032ZM181.264 14.096C180.756 14.096 180.364 13.954 180.088 13.67C179.816 13.382 179.68 12.978 179.68 12.458V8.894H179.008C178.936 8.894 178.874 8.872 178.822 8.828C178.77 8.78 178.744 8.71 178.744 8.618V8.096L179.734 7.952L180.016 6.182C180.036 6.114 180.07 6.06 180.118 6.02C180.166 5.976 180.23 5.954 180.31 5.954H180.97V7.964H182.668V8.894H180.97V12.368C180.97 12.588 181.024 12.756 181.132 12.872C181.24 12.988 181.384 13.046 181.564 13.046C181.664 13.046 181.75 13.034 181.822 13.01C181.894 12.982 181.956 12.954 182.008 12.926C182.06 12.894 182.104 12.866 182.14 12.842C182.18 12.814 182.218 12.8 182.254 12.8C182.326 12.8 182.384 12.84 182.428 12.92L182.812 13.55C182.612 13.726 182.376 13.862 182.104 13.958C181.832 14.05 181.552 14.096 181.264 14.096ZM184.974 8.606C185.226 8.358 185.502 8.16 185.802 8.012C186.102 7.86 186.452 7.784 186.852 7.784C187.188 7.784 187.482 7.84 187.734 7.952C187.99 8.064 188.204 8.222 188.376 8.426C188.552 8.63 188.684 8.876 188.772 9.164C188.86 9.448 188.904 9.762 188.904 10.106V14H187.62V10.106C187.62 9.694 187.524 9.374 187.332 9.146C187.144 8.918 186.856 8.804 186.468 8.804C186.18 8.804 185.912 8.87 185.664 9.002C185.42 9.134 185.19 9.314 184.974 9.542V14H183.684V5.12H184.974V8.606Z" fill="#D3CBCB"/>
<path d="M192 8.5L290 9L192 9.5V8.5Z" fill="url(#paint1_linear_995_3148)" fill-opacity="0.75"/>
<defs>
<linearGradient id="paint0_linear_995_3148" x1="98" y1="9.50019" x2="5.5" y2="9.50013" gradientUnits="userSpaceOnUse">
<stop stop-color="#D9D9D9"/>
<stop offset="1" stop-color="#D9D9D9" stop-opacity="0"/>
</linearGradient>
<linearGradient id="paint1_linear_995_3148" x1="192" y1="9.50005" x2="295.5" y2="8.49999" gradientUnits="userSpaceOnUse">
<stop stop-color="#D9D9D9"/>
<stop offset="1" stop-color="#D9D9D9" stop-opacity="0"/>
</linearGradient>
</defs>
</svg>
