<svg width="67" height="59" viewBox="0 0 67 59" fill="none" xmlns="http://www.w3.org/2000/svg">
<path d="M34.311 5.88682C17.8965 -6.47629 -6.88653 0.302564 1.79308 29.3664C8.64986 52.3262 31.6104 58.4949 33.1685 58.456C37.324 58.3519 78.205 38.6127 64.0242 8.6922C55.1934 -6.47629 34.311 5.88682 34.311 5.88682Z" fill="#FFD9E1"/>
<mask id="mask0_2501_5624" style="mask-type:luminance" maskUnits="userSpaceOnUse" x="0" y="0" width="67" height="59">
<path d="M34.311 5.88682C17.8965 -6.47629 -6.88653 0.302564 1.79308 29.3664C8.64986 52.3262 31.6104 58.4949 33.1685 58.456C37.324 58.3519 78.205 38.6127 64.0242 8.6922C55.1934 -6.47629 34.311 5.88682 34.311 5.88682Z" fill="white"/>
</mask>
<g mask="url(#mask0_2501_5624)">
<path d="M43.2194 25.6384C44.0237 28.5328 39.28 35.3668 46.0336 36.8139C47.8025 35.3668 48.124 33.196 48.124 33.196C48.124 33.196 47.3201 25.0755 46.9985 24.8344C46.6767 24.5934 43.2194 25.6384 43.2194 25.6384Z" fill="#1F130A"/>
<path d="M47.2796 32.6735C46.1942 35.6887 41.6919 40.9546 42.8978 43.6884C44.1038 46.4221 45.8726 51.2055 43.5813 54.1002C50.2948 52.331 55.4805 46.3417 55.6415 45.9797C56.566 42.7235 56.0431 35.6486 55.6815 34.3218C55.3193 32.995 51.3395 27.6484 47.2796 32.6735Z" fill="#5B7835"/>
<path d="M44.4253 9.71924C40.7266 10.8447 36.2644 8.95565 34.174 11.9302C32.0836 14.905 34.6565 18.6838 39.1988 16.553C43.7015 14.302 44.4253 9.71924 44.4253 9.71924Z" fill="#332113"/>
<path d="M45.4707 24.7938C46.2747 27.1656 47.0786 30.3818 46.9982 31.4669C49.2495 31.0249 51.38 29.256 51.38 29.256L49.1286 22.5425L45.4707 24.7938Z" fill="#F8BE8C"/>
<g opacity="0.5">
<path d="M45.4707 24.7943C46.2747 27.1661 47.0786 30.3823 46.9982 31.4674C49.2495 31.0254 51.38 29.2565 51.38 29.2565L49.1286 22.543L45.4707 24.7943Z" fill="#CC865D"/>
</g>
<path d="M46.5956 11.6083C42.2943 9.15603 36.2242 11.3673 36.8675 17.2361C37.792 20.1308 39.2394 21.7791 37.6715 23.1457C37.2695 23.5477 38.9178 24.392 39.5208 24.191C40.244 27.0053 43.3397 30.5026 49.8118 22.5427C51.0579 20.2113 51.5002 13.1361 46.5956 11.6083Z" fill="#F8BE8C"/>
<path d="M14.5162 21.0557C13.1496 25.558 11.2198 27.6484 10.6573 29.5781C10.0944 31.5076 17.8129 33.196 18.4562 33.1159C17.0092 28.9348 18.9387 24.5129 18.9387 24.5129L14.5162 21.0557Z" fill="#F8BE8C"/>
<g opacity="0.5">
<path d="M14.5162 21.0557C14.1186 22.3657 13.6731 23.4676 13.2275 24.4246C14.9573 26.1915 16.5681 27.3388 18.0334 28.0163C18.3003 25.9773 18.9383 24.5129 18.9383 24.5129L14.5162 21.0557Z" fill="#CC865D"/>
</g>
<path d="M21.9934 7.78915C25.7993 8.05703 29.9747 11.7718 28.546 16.8742C27.4205 20.8944 29.1392 21.6551 29.1089 22.0199C29.0285 22.9848 27.5411 23.1053 27.5411 23.1053C26.3622 26.4821 20.6537 30.2476 12.7209 21.0285C11.1663 15.4004 11.756 6.77062 21.9934 7.78915Z" fill="#F8BE8C"/>
<path d="M14.9185 8.00369C15.6155 4.46596 20.1548 3.77684 22.5297 4.2514C26.282 5.00205 26.8178 3.07227 26.8178 3.07227C26.8178 3.07227 28.3721 4.84113 26.6569 6.0739C28.5863 6.23451 29.1761 4.30536 29.1761 4.30536C31.4807 5.80602 33.1962 10.6838 28.3185 12.3987C24.4106 13.7728 19.9569 11.6484 19.9569 11.6484C21.4039 14.2212 20.1175 19.2063 19.4745 19.2599C18.8308 19.3136 17.3304 18.8308 17.3304 17.4374C17.0626 15.5076 14.1682 15.2401 13.8464 17.3304C13.5245 19.4211 15.347 20.7072 15.347 20.7072C14.6503 23.7089 12.5312 22.2221 11.7695 21.0155C9.84007 17.9599 8.004 7.78944 14.9185 8.00369Z" fill="#602A02"/>
<path d="M27.086 24.1911C27.1245 24.2267 27.0225 24.4337 26.7667 24.7108C26.63 24.842 26.4682 25.0064 26.1977 25.1137C26.0602 25.1572 25.8832 25.1967 25.7062 25.1298C25.5238 25.0768 25.3979 24.9414 25.2963 24.8124C24.9587 24.2646 24.9284 23.749 24.8997 23.3843C24.8814 23.0167 24.9139 22.7895 24.9684 22.7838C25.0281 22.7775 25.0991 22.9943 25.1903 23.3382C25.2821 23.6736 25.3881 24.1788 25.6348 24.571C25.7712 24.7527 25.8945 24.7944 26.0782 24.7499C26.2599 24.6988 26.4325 24.5789 26.5754 24.488C26.8582 24.2873 27.0408 24.1485 27.086 24.1911Z" fill="#CC865D"/>
<path d="M11.3807 27.4873C12.0237 29.2025 15.1863 31.6952 17.9734 31.1591C22.476 41.4505 24.03 53.1885 23.1727 56.9941C19.6889 57.7981 10.4161 56.4047 8.5936 53.0279C5.53801 45.6846 9.61182 30.1135 11.3807 27.4873Z" fill="#5F8FA0"/>
<path d="M31.4005 32.7135C31.3602 30.6632 31.1191 25.558 33.0886 24.8745C34.134 30.3821 34.0135 34.201 34.0135 34.201C34.0135 34.201 31.9635 34.0404 31.4005 32.7135Z" fill="#F8BE8C"/>
<path d="M37.9131 11.528C38.7171 16.3121 43.3402 21.2968 48.124 18.6035C49.8527 15.0257 52.2647 20.131 48.9683 21.2568C49.2094 24.6336 44.5061 28.6534 45.9531 32.3117C47.4004 35.9699 49.37 33.8795 50.7769 33.0352C52.3849 32.3517 55.4402 33.156 56.0832 38.9851C61.9928 38.2212 61.3494 32.7941 57.6511 28.5329C53.9527 24.2717 51.3395 20.4528 51.5004 15.9502C51.6614 11.4476 48.8071 8.07107 44.5862 9.55848C40.3651 11.0456 37.9131 11.528 37.9131 11.528Z" fill="#332113"/>
<path d="M41.8924 24.5135C41.9226 24.5605 41.8311 24.6845 41.6459 24.8391C41.461 24.9925 41.1714 25.1768 40.7994 25.2891C40.4242 25.4068 40.0481 25.3519 39.8099 25.2743C39.5754 25.1673 39.4571 25.0666 39.4804 25.0161C39.5044 24.9625 39.6584 24.9622 39.8708 24.9865C40.09 24.9802 40.3734 24.9868 40.6864 24.8887C41.3058 24.6946 41.8255 24.4031 41.8924 24.5135Z" fill="#FF5762"/>
<path d="M41.7988 24.5671C41.8304 24.6148 41.7489 24.7328 41.5899 24.8845C41.4299 25.0357 41.1898 25.2297 40.8721 25.3843C40.554 25.5449 40.2243 25.5825 39.9984 25.5882C39.7684 25.5737 39.6305 25.5348 39.628 25.4777C39.6239 25.3509 40.1464 25.2764 40.6935 25.0085C40.9702 24.8741 41.2255 24.7284 41.4258 24.6403C41.6265 24.5513 41.7669 24.5192 41.7988 24.5671Z" fill="#FF5762"/>
<path d="M41.8924 20.2915C41.9322 20.3272 41.8533 20.5045 41.6577 20.7415C41.4602 20.9737 41.1595 21.287 40.6997 21.4959C40.4726 21.5959 40.2062 21.6587 39.9507 21.5842C39.6932 21.5104 39.5313 21.2999 39.4831 21.1403C39.4228 20.9778 39.4143 20.8453 39.4247 20.7557C39.4332 20.6654 39.4521 20.6168 39.4805 20.613C39.5455 20.6004 39.6004 20.7932 39.7437 21.004C39.8125 21.1132 39.9166 21.1905 40.0441 21.2125C40.1737 21.2368 40.3514 21.1968 40.5341 21.1144C40.9033 20.9491 41.2204 20.6957 41.4551 20.5285C41.6911 20.3568 41.8473 20.2505 41.8924 20.2915Z" fill="black"/>
<path d="M41.8436 21.7432C41.8363 21.8483 41.4987 21.9284 41.1409 21.7016C40.969 21.5883 40.8522 21.429 40.8156 21.298C40.7762 21.1677 40.7967 21.0768 40.8472 21.0554C40.9611 21.0147 41.1283 21.2059 41.3681 21.3526C41.6041 21.5113 41.8597 21.6233 41.8436 21.7432Z" fill="black"/>
<path d="M42.7244 20.9273C42.7566 21.027 42.4742 21.2318 42.0369 21.2094C41.8198 21.1908 41.6241 21.0958 41.5219 20.985C41.4175 20.8718 41.408 20.7658 41.4503 20.7329C41.4973 20.6948 41.5781 20.7162 41.6806 20.7374C41.7854 20.7579 41.9144 20.7796 42.0712 20.7951C42.3861 20.8143 42.6916 20.8099 42.7244 20.9273Z" fill="black"/>
<path d="M41.2501 18.1611C41.2315 18.2147 41.0636 18.2084 40.8172 18.1434C40.5711 18.0806 40.2505 17.9604 39.9085 17.873C39.7371 17.832 39.5781 17.8093 39.4358 17.8046C39.2948 17.8039 39.1708 17.8229 39.066 17.8538C38.8578 17.9163 38.7233 18.0049 38.6773 17.9601C38.6404 17.9289 38.6975 17.7557 38.9373 17.5894C39.0569 17.5089 39.2241 17.4449 39.4134 17.4221C39.6018 17.4029 39.8072 17.4209 40.0072 17.4692C40.4061 17.572 40.7172 17.7427 40.932 17.8727C41.1463 18.0059 41.269 18.1062 41.2501 18.1611Z" fill="#332113"/>
<path d="M33.0892 24.8744C34.0945 24.7134 35.019 26.4823 35.7024 29.7386C36.3859 32.9948 36.6272 33.3164 36.6272 33.3164L34.6975 33.9995C34.6975 33.9995 32.6875 30.3415 33.0892 24.8744Z" fill="#F8BE8C"/>
<path d="M33.0888 24.8742C32.2852 23.9093 30.7173 24.0301 30.8779 24.3917C31.0388 24.7533 32.4859 25.3162 32.4859 25.3162C30.5965 24.9944 30.3554 25.8791 30.7571 25.9997C31.1591 26.1202 32.1243 26.1603 32.1243 26.1603" fill="#F8BE8C"/>
<path d="M33.0889 25.0752C33.5713 24.1103 34.8177 23.5878 34.9783 23.9093C35.1392 24.2311 33.8127 25.2765 33.8127 25.2765C33.8127 25.2765 35.2196 24.6732 35.5816 25.0752C35.7825 25.6381 33.9733 25.8391 33.9733 25.8391" fill="#F8BE8C"/>
<path d="M34.0137 34.2005C34.4961 32.7936 36.5865 31.7482 37.1895 32.5118C39.0789 36.8939 42.6983 42.3068 44.3451 41.7581C45.6716 41.3158 49.1676 32.9107 51.5407 32.9946C54.9579 33.1151 54.556 46.7025 46.757 49.5167C38.9583 52.3306 34.8173 42.4419 34.0137 34.2005Z" fill="#65853B"/>
<path d="M34.8572 25.5574C34.8704 25.583 34.7896 25.6565 34.6319 25.7676C34.4826 25.884 34.234 26.0238 34.0302 26.2541C33.832 26.4785 33.7058 26.841 33.7197 27.2619C33.7213 27.4844 33.7228 27.7179 33.7247 27.9599C33.732 28.2029 33.7522 28.4565 33.7635 28.7156C33.7796 29.235 33.868 29.6912 33.9573 30.144C34.0406 30.5895 34.1147 30.9994 34.127 31.3541C34.169 32.0678 33.9737 32.4915 33.9327 32.472C33.8648 32.4534 33.9469 32.0419 33.8345 31.384C33.7872 31.0546 33.6869 30.6653 33.5827 30.2245C33.5278 30.0045 33.4774 29.7688 33.4303 29.5202C33.3896 29.269 33.3556 28.9986 33.3483 28.7396C33.3366 28.4761 33.3193 28.2202 33.3174 27.97C33.324 27.7188 33.3306 27.4765 33.3366 27.2455C33.3429 26.7631 33.5323 26.3084 33.8203 26.0481C34.1062 25.7941 34.3779 25.7029 34.5555 25.625C34.7376 25.5575 34.8439 25.5322 34.8572 25.5574Z" fill="#CC865D"/>
<path d="M34.4552 25.1157C34.487 25.228 34.0087 25.4685 33.4461 25.7919C33.1694 25.9585 32.9198 26.1065 32.7462 26.2245C32.5718 26.3387 32.4563 26.417 32.4052 26.3819C32.3607 26.3539 32.3992 26.2015 32.544 26.0109C32.6863 25.8184 32.9371 25.6117 33.2382 25.4316C33.8481 25.0816 34.4268 25.0065 34.4552 25.1157Z" fill="#CC865D"/>
<path d="M33.2091 25.9199C33.1934 25.9725 33.0892 25.9937 32.9337 25.9558C32.7807 25.9154 32.5954 25.8056 32.4317 25.6621C32.2701 25.5188 32.149 25.3831 32.0657 25.2765C31.9824 25.173 31.9357 25.0872 31.9628 25.0354C31.9887 24.9856 32.0931 24.9834 32.238 25.0383C32.3803 25.0944 32.5491 25.2105 32.7049 25.3484C32.8605 25.4844 32.9839 25.605 33.0754 25.6977C33.1662 25.787 33.2268 25.8634 33.2091 25.9199Z" fill="#CC865D"/>
<path d="M33.732 25.4369C33.6509 25.518 33.4411 25.4492 33.2635 25.2826C33.0858 25.1164 33.0076 24.9151 33.0887 24.834C33.1701 24.7526 33.3799 24.8217 33.5575 24.9883C33.7352 25.1549 33.8134 25.3555 33.732 25.4369Z" fill="#CC865D"/>
<path d="M28.1036 16.231C27.8357 15.9896 25.5844 16.3382 24.8877 16.8475C25.6645 14.8104 27.4129 14.7499 28.1569 15.2664C28.4052 15.4383 28.3178 16.1773 28.1036 16.231Z" fill="#602A02"/>
<path d="M16.4866 19.207C16.4951 19.2341 16.4493 19.273 16.3487 19.32C16.2483 19.3547 16.0799 19.4011 15.8688 19.3313C15.6602 19.2739 15.4264 19.0578 15.3816 18.7425C15.3614 18.5867 15.3964 18.4194 15.4737 18.2708C15.5564 18.1266 15.6804 18.0048 15.8161 17.9234C15.8631 17.8919 15.8552 17.8976 15.8546 17.8982L15.8555 17.8985C15.8565 17.8988 15.858 17.8995 15.8565 17.8925C15.8606 17.8995 15.8476 17.8695 15.835 17.8401L15.8 17.7594C15.7769 17.7063 15.7526 17.6568 15.7287 17.6085C15.6331 17.417 15.5223 17.2731 15.4239 17.2255C15.3286 17.175 15.2093 17.2119 15.1222 17.2422C15.0386 17.2804 14.979 17.2977 14.9585 17.2769C14.9386 17.257 14.9588 17.1999 15.0266 17.1116C15.0679 17.074 15.1127 17.0194 15.1954 16.9832C15.2711 16.9396 15.3876 16.921 15.5084 16.944C15.7552 17.0046 15.9281 17.2088 16.0612 17.4183C16.0944 17.4719 16.1269 17.5278 16.1565 17.5849L16.2007 17.6716C16.2143 17.6988 16.2278 17.7259 16.2562 17.7915L16.3307 17.9619L16.3689 18.0512L16.3881 18.0963C16.3916 18.1102 16.3638 18.1121 16.3534 18.1206L16.1758 18.2046C16.1149 18.233 16.0455 18.2645 16.0388 18.2746C15.8489 18.3885 15.7596 18.5485 15.7624 18.7053C15.7713 18.8599 15.8628 18.9956 15.9836 19.0606C16.2307 19.2013 16.4752 19.1373 16.4866 19.207Z" fill="#CC865D"/>
<path d="M26.6305 20.6534C26.5169 20.6117 26.556 20.2249 26.6239 19.7648C26.6832 19.3035 26.7523 18.9208 26.8719 18.9113C26.981 18.9012 27.1012 19.313 27.0359 19.8216C26.9608 20.3293 26.7318 20.6922 26.6305 20.6534Z" fill="black"/>
<path d="M27.2046 20.39C27.2302 20.4017 27.2321 20.4499 27.1996 20.5411C27.1648 20.6273 27.062 20.7339 26.9077 20.803C26.5975 20.928 26.1397 20.893 25.7298 20.6762C25.3121 20.4739 25.0164 20.0972 24.9618 19.7712C24.9366 19.6116 24.9505 19.4772 24.9927 19.398C25.0287 19.3162 25.0612 19.2803 25.089 19.2875C25.1543 19.3036 25.1426 19.4784 25.2436 19.6857C25.3436 19.8915 25.5774 20.1376 25.9201 20.3058C26.2545 20.4843 26.6038 20.5433 26.825 20.5206C27.0453 20.497 27.1437 20.3644 27.2046 20.39Z" fill="black"/>
<path opacity="0.2" d="M23.8163 22.5294C23.8163 23.6543 22.9044 24.5665 21.7792 24.5665C20.6544 24.5665 19.7422 23.6546 19.7422 22.5294C19.7422 21.4046 20.6541 20.4927 21.7792 20.4927C22.9044 20.4927 23.8163 21.4046 23.8163 22.5294Z" fill="#C1272D"/>
<path opacity="0.2" d="M46.9185 23.0656C46.9185 24.1904 46.0067 25.1026 44.8818 25.1026C43.7566 25.1026 42.8447 24.1907 42.8447 23.0656C42.8447 21.9407 43.7566 21.0288 44.8818 21.0288C46.0067 21.0288 46.9185 21.9407 46.9185 23.0656Z" fill="#C1272D"/>
<path d="M13.2304 33.3968C15.7496 30.1812 20.0644 31.9097 22.3154 36.4656C24.5667 41.0216 27.4308 41.3822 28.225 38.4623C29.471 33.8795 30.0876 32.3921 30.0876 32.3921C31.374 31.5345 33.9465 32.6603 34.3756 33.9464C35.1796 42.5222 31.1061 48.9007 24.7813 49.2761C18.4565 49.651 11.14 37.6312 13.2304 33.3968Z" fill="#5FA3BA"/>
<path d="M49.0618 20.1711C49.081 20.1462 49.1296 20.1547 49.1646 20.1096C49.2041 20.073 49.2647 19.9789 49.3167 19.8515C49.3675 19.7246 49.4183 19.5561 49.4224 19.3911C49.4259 19.3113 49.4073 19.2308 49.3858 19.2106C49.3729 19.1964 49.3543 19.1822 49.265 19.1901L49.2344 19.1939C49.2262 19.1939 49.1864 19.2078 49.1643 19.2138C49.1104 19.2314 49.0637 19.2403 49.0002 19.2702C48.8844 19.3188 48.7702 19.3668 48.6582 19.4141C48.6674 19.2507 48.6721 19.0746 48.6973 18.915C48.7115 18.8332 48.7342 18.7449 48.7589 18.6717C48.7753 18.6256 48.7945 18.5818 48.8144 18.5395C48.8958 18.3719 48.9999 18.2322 49.1214 18.1432C49.2426 18.0539 49.3735 18.023 49.4562 18.0394C49.5385 18.0526 49.5736 18.0851 49.5704 18.1075C49.5625 18.1634 49.4164 18.1719 49.3028 18.3357C49.2435 18.4152 49.1886 18.5322 49.1444 18.6717C49.1343 18.7067 49.1236 18.7433 49.1151 18.7812C49.1141 18.7922 49.1176 18.7894 49.1189 18.7941C49.1227 18.7985 49.1258 18.8001 49.1306 18.7957L49.1347 18.7906C49.1324 18.791 49.1416 18.7884 49.146 18.7872C49.1526 18.7859 49.1422 18.7869 49.1634 18.784L49.2214 18.7764C49.2981 18.7664 49.3883 18.7705 49.4805 18.7979C49.5751 18.8263 49.667 18.8973 49.7209 18.9787C49.8269 19.1488 49.8159 19.2999 49.8042 19.423C49.7692 19.6707 49.6726 19.8546 49.571 19.9988C49.466 20.1386 49.347 20.2433 49.217 20.2626C49.1542 20.2733 49.0993 20.25 49.0775 20.2266C49.0558 20.2001 49.0536 20.1825 49.0618 20.1711Z" fill="#CC865D"/>
</g>
</svg>
