<svg width="22" height="22" viewBox="0 0 22 22" fill="none" xmlns="http://www.w3.org/2000/svg">
<path d="M9.99594 17.9829C7.37087 18.3624 4.73057 18 2.20098 17.2631C2.16229 17.253 2.12792 17.2306 2.10296 17.1993C2.07801 17.1681 2.06382 17.1296 2.0625 17.0896V12.9784C2.06298 12.1076 2.35921 11.2629 2.90264 10.5825C3.44607 9.90218 4.20447 9.4266 5.05357 9.2337C5.16628 9.33283 5.28429 9.42577 5.40708 9.5121L7.45323 13.5762C7.48243 13.6324 7.52648 13.6795 7.58059 13.7124C7.63471 13.7453 7.69681 13.7627 7.76013 13.7627C7.82345 13.7628 7.88556 13.7454 7.93971 13.7126C7.99386 13.6798 8.03796 13.6327 8.06721 13.5766L10.1139 9.51178C10.2363 9.42572 10.3539 9.3331 10.4663 9.23431C11.0089 9.32222 11.383 9.63203 11.7902 9.7504C11.8487 9.75043 11.9063 9.73551 11.9575 9.70707C12.0087 9.67862 12.0517 9.63759 12.0826 9.58786C12.3686 9.05161 11.3517 8.82882 11.0017 8.67026C11.572 7.94732 11.8822 7.05337 11.8822 6.13257C11.6573 0.667453 3.86527 0.662617 3.63839 6.1326C3.63843 7.05286 3.94823 7.94632 4.51791 8.66906C3.6055 8.96246 2.80968 9.53772 2.24492 10.3121C1.68016 11.0864 1.37559 12.02 1.375 12.9784V17.0896C1.37638 17.2813 1.44077 17.4672 1.55825 17.6187C1.67572 17.7702 1.83976 17.8788 2.02507 17.9279L3.24062 18.2404C5.47314 18.8253 7.79827 18.9693 10.0859 18.6644C10.1754 18.6515 10.2563 18.6038 10.3109 18.5317C10.3655 18.4596 10.3895 18.3688 10.3777 18.2792C10.3658 18.1895 10.3191 18.1081 10.2477 18.0526C10.1762 17.9972 10.0858 17.9721 9.99594 17.9829ZM7.76022 12.6574L6.43904 10.0334C7.29563 10.3254 8.2248 10.3254 9.08139 10.0334L7.76022 12.6574ZM7.76022 2.6981C8.43951 2.69807 9.10355 2.89947 9.66837 3.27683C10.2332 3.6542 10.6734 4.19058 10.9334 4.81815C11.1934 5.44571 11.2614 6.13628 11.1289 6.80251C10.9964 7.46875 10.6693 8.08073 10.189 8.56106C9.70868 9.0414 9.09672 9.36852 8.43049 9.50105C7.76426 9.63359 7.07369 9.56558 6.44611 9.30564C5.81853 9.0457 5.28213 8.60549 4.90474 8.04069C4.52735 7.47589 4.32591 6.81186 4.32592 6.13258C4.32696 5.22205 4.68912 4.3491 5.33294 3.70524C5.97677 3.06138 6.84969 2.69919 7.76022 2.6981Z" fill="#807A7A"/>
<path d="M18.7901 12.5676C19.1651 12.1729 19.3722 11.648 19.3677 11.1036C19.3631 10.5592 19.1473 10.0379 18.7658 9.6495C18.3842 9.26115 17.8668 9.03614 17.3226 9.02195C16.7783 9.00777 16.2499 9.2055 15.8486 9.57345C15.4474 9.20546 14.919 9.00766 14.3748 9.02176C13.8306 9.03586 13.3132 9.26076 12.9316 9.64902C12.55 10.0373 12.3341 10.5586 12.3295 11.1029C12.3248 11.6473 12.5318 12.1722 12.9066 12.5669C12.3545 12.8582 11.8921 13.2944 11.5693 13.8287C11.2464 14.363 11.0753 14.9752 11.0742 15.5995V18.6086C11.073 18.7709 11.1262 18.9288 11.2253 19.0573C11.3244 19.1858 11.4637 19.2773 11.6209 19.3173C14.0736 20.093 16.6933 20.1732 19.1888 19.5489L20.0849 19.3159C20.24 19.2732 20.3768 19.181 20.4746 19.0533C20.5724 18.9256 20.6258 18.7695 20.6266 18.6086V15.5995C20.6249 14.9749 20.4531 14.3626 20.1295 13.8284C19.806 13.2942 19.3429 12.8583 18.7901 12.5676ZM13.3452 10.1952C14.0364 9.41198 15.2121 9.66702 15.5497 10.2815C15.5823 10.331 15.6266 10.3716 15.6788 10.3997C15.731 10.4278 15.7894 10.4426 15.8486 10.4426C15.9079 10.4426 15.9662 10.4278 16.0184 10.3997C16.0706 10.3716 16.115 10.3309 16.1476 10.2814C16.8632 9.10124 19.1355 9.86013 18.607 11.5323C18.4587 11.8782 18.2505 12.1954 17.9921 12.469C17.3923 13.1781 16.6957 13.7991 15.9227 14.3138C15.9007 14.3283 15.875 14.336 15.8487 14.3361C15.8224 14.3361 15.7966 14.3285 15.7746 14.3141C14.784 13.6694 13.9278 12.8388 13.2534 11.8682C13.08 11.619 12.9949 11.319 13.0116 11.0159C13.0282 10.7128 13.1456 10.4239 13.3452 10.1952ZM19.9391 18.6086C19.939 18.6183 19.9358 18.6277 19.9301 18.6355C19.9243 18.6433 19.9162 18.649 19.907 18.6519L19.0167 18.8832C16.6231 19.4991 14.1019 19.4037 11.7617 18.6087V15.5995C11.7632 15.0765 11.9144 14.565 12.1973 14.1252C12.4802 13.6854 12.8831 13.3358 13.3584 13.1176C13.9588 13.7891 14.6413 14.3825 15.3897 14.8838C15.5251 14.9757 15.685 15.0248 15.8487 15.0248C16.0123 15.0247 16.1722 14.9755 16.3075 14.8834C17.0557 14.3825 17.7379 13.7894 18.3382 13.1183C18.814 13.3359 19.2176 13.6852 19.5013 14.1249C19.7849 14.5646 19.9369 15.0762 19.9391 15.5995V18.6086Z" fill="#807A7A"/>
</svg>
