<svg width="22" height="22" viewBox="0 0 22 22" fill="none" xmlns="http://www.w3.org/2000/svg">
<path d="M14.4366 5.5C14.4366 6.41168 14.0744 7.28602 13.4298 7.93068C12.7851 8.57534 11.9108 8.9375 10.9991 8.9375C10.0874 8.9375 9.21306 8.57534 8.5684 7.93068C7.92375 7.28602 7.56158 6.41168 7.56158 5.5C7.56158 4.58832 7.92375 3.71398 8.5684 3.06932C9.21306 2.42466 10.0874 2.0625 10.9991 2.0625C11.9108 2.0625 12.7851 2.42466 13.4298 3.06932C14.0744 3.71398 14.4366 4.58832 14.4366 5.5ZM4.125 18.4415C4.15446 16.6378 4.89164 14.918 6.17758 13.6529C7.46352 12.3878 9.19516 11.6788 10.9991 11.6788C12.803 11.6788 14.5347 12.3878 15.8206 13.6529C17.1065 14.918 17.8437 16.6378 17.8732 18.4415C15.7166 19.4304 13.3716 19.9407 10.9991 19.9375C8.54608 19.9375 6.21775 19.4022 4.125 18.4415Z" stroke="#747688" stroke-width="1.5" stroke-linecap="round" stroke-linejoin="round"/>
</svg>
