<svg width="440" height="460" viewBox="0 0 440 460" fill="none" xmlns="http://www.w3.org/2000/svg">
<path fill-rule="evenodd" clip-rule="evenodd" d="M287.11 113.761C290.822 115.904 292.095 120.652 289.952 124.364C287.809 128.075 283.06 129.348 279.348 127.205C275.636 125.062 274.364 120.314 276.507 116.602C278.65 112.89 283.398 111.617 287.11 113.761ZM257.134 105.417C266.599 115.186 273.111 126.535 271.715 140.425C283.047 132.272 296.131 132.236 309.324 135.549C295.688 138.498 275.033 140.383 263.235 163.327C262.619 164.627 260.464 162.26 259.494 161.593L255.719 159.796C255.905 159.54 256.018 159.37 256.122 159.221C270.093 137.531 260.878 117.482 257.134 105.417Z" fill="#FFE293"/>
<path fill-rule="evenodd" clip-rule="evenodd" d="M152.89 346.239C156.602 348.383 161.35 347.11 163.494 343.398C165.637 339.686 164.364 334.938 160.652 332.795C156.941 330.652 152.192 331.924 150.049 335.636C147.906 339.348 149.178 344.096 152.89 346.239ZM130.676 324.451C143.869 327.764 156.953 327.728 168.285 319.575C166.89 333.465 173.401 344.814 182.867 354.583C178.602 341.299 169.907 322.469 183.879 300.779C184.696 299.596 181.569 298.913 180.507 298.406L177.063 296.035C176.935 296.324 176.843 296.508 176.766 296.672C164.968 319.617 142.997 321.661 130.676 324.451Z" fill="#A788BE"/>
<path fill-rule="evenodd" clip-rule="evenodd" d="M354.222 230C354.222 234.286 350.746 237.762 346.46 237.762C342.174 237.762 338.698 234.286 338.698 230C338.698 225.714 342.174 222.238 346.46 222.238C350.746 222.238 354.222 225.714 354.222 230ZM346.46 199.868C342.732 212.95 336.159 224.263 323.433 230C336.159 235.737 342.732 247.05 346.46 260.133C337.088 249.797 325.128 232.852 299.358 234.107C297.925 234.224 298.898 231.174 298.99 230L298.658 225.832C298.973 225.866 299.177 225.879 299.358 225.893C325.128 227.148 337.883 209.143 346.46 199.868Z" fill="#FCBC86"/>
<path fill-rule="evenodd" clip-rule="evenodd" d="M85.7773 230C85.7773 234.286 89.2535 237.762 93.5395 237.762C97.8255 237.762 101.302 234.286 101.302 230C101.302 225.714 97.8255 222.238 93.5395 222.238C89.2535 222.238 85.7773 225.714 85.7773 230ZM93.5395 199.868C97.2674 212.95 103.84 224.263 116.567 230C103.84 235.737 97.2674 247.05 93.5395 260.133C102.912 249.797 114.872 232.852 140.642 234.107C142.074 234.224 141.102 231.174 141.01 230L141.342 225.832C141.027 225.866 140.822 225.879 140.642 225.893C114.872 227.148 102.117 209.143 93.5395 199.868Z" fill="#00C0F3"/>
<path fill-rule="evenodd" clip-rule="evenodd" d="M287.112 346.239C283.4 348.383 278.652 347.11 276.509 343.398C274.366 339.686 275.638 334.938 279.35 332.795C283.062 330.652 287.81 331.924 289.953 335.636C292.096 339.348 290.824 344.096 287.112 346.239ZM309.326 324.451C296.133 327.764 283.049 327.728 271.717 319.575C273.112 333.465 266.601 344.814 257.135 354.583C261.4 341.299 270.095 322.469 256.123 300.779C255.305 299.596 258.433 298.913 259.496 298.406L262.939 296.035C263.067 296.324 263.158 296.508 263.236 296.672C275.034 319.617 297.005 321.661 309.326 324.451Z" fill="#E9866A"/>
<path fill-rule="evenodd" clip-rule="evenodd" d="M152.89 113.761C149.178 115.904 147.906 120.652 150.049 124.364C152.192 128.075 156.941 129.348 160.652 127.205C164.364 125.062 165.636 120.314 163.493 116.602C161.35 112.89 156.602 111.617 152.89 113.761ZM182.866 105.417C173.401 115.186 166.89 126.535 168.285 140.425C156.953 132.272 143.869 132.236 130.676 135.549C144.313 138.498 164.967 140.383 176.766 163.327C177.38 164.627 179.536 162.26 180.506 161.593L184.281 159.796C184.095 159.54 183.981 159.37 183.878 159.221C169.907 137.531 179.123 117.482 182.866 105.417Z" fill="#D1E39B"/>
<path fill-rule="evenodd" clip-rule="evenodd" d="M219.999 120.61C214.369 120.61 209.802 125.176 209.802 130.806C209.802 136.437 214.369 141.002 219.999 141.002C225.629 141.002 230.195 136.436 230.195 130.806C230.195 125.176 225.629 120.61 219.999 120.61ZM259.579 130.806C242.395 135.703 227.534 144.337 219.999 161.054C212.463 144.337 197.602 135.703 180.418 130.807C193.994 143.118 216.252 158.828 214.604 192.678C214.451 194.56 218.457 193.283 219.999 193.162L225.473 193.598C225.429 193.184 225.413 192.916 225.394 192.678C223.745 158.828 247.396 142.073 259.579 130.806Z" fill="#E8B909"/>
<path fill-rule="evenodd" clip-rule="evenodd" d="M219.999 339.39C214.369 339.39 209.802 334.823 209.802 329.194C209.802 323.563 214.369 318.997 219.999 318.997C225.629 318.997 230.195 323.563 230.195 329.194C230.195 334.823 225.629 339.39 219.999 339.39ZM259.579 329.194C242.395 324.297 227.534 315.663 219.999 298.946C212.463 315.663 197.602 324.297 180.418 329.193C193.994 316.882 216.252 301.172 214.604 267.322C214.451 265.439 218.457 266.717 219.999 266.837L225.474 266.402C225.429 266.816 225.413 267.084 225.394 267.322C223.745 301.172 247.396 317.927 259.579 329.194Z" fill="#91499C"/>
<path fill-rule="evenodd" clip-rule="evenodd" d="M314.734 175.305C311.919 170.43 305.682 168.758 300.806 171.573C295.93 174.388 294.259 180.626 297.074 185.502C299.889 190.378 306.127 192.049 311.002 189.234C315.878 186.418 317.549 180.181 314.734 175.305ZM325.694 214.681C312.861 202.247 297.954 193.694 279.709 195.527C290.418 180.643 290.465 163.456 286.114 146.126C282.24 164.038 279.764 191.17 249.624 206.667C247.918 207.475 251.027 210.307 251.903 211.581L254.263 216.54C254.599 216.295 254.823 216.146 255.019 216.011C283.51 197.658 309.846 209.763 325.694 214.681Z" fill="#F58220"/>
<path fill-rule="evenodd" clip-rule="evenodd" d="M125.265 284.695C122.45 279.819 124.121 273.582 128.997 270.766C133.873 267.951 140.11 269.623 142.925 274.498C145.74 279.374 144.069 285.612 139.193 288.427C134.317 291.242 128.08 289.57 125.265 284.695ZM153.885 313.875C149.534 296.544 149.58 279.357 160.29 264.473C142.045 266.305 127.137 257.752 114.305 245.319C131.754 250.92 156.489 262.342 184.98 243.989C186.533 242.915 187.43 247.023 188.097 248.419L191.211 252.942C190.831 253.111 190.591 253.23 190.375 253.333C160.236 268.83 157.551 297.69 153.885 313.875Z" fill="#0072BC"/>
<path fill-rule="evenodd" clip-rule="evenodd" d="M314.736 284.695C317.55 279.819 315.879 273.581 311.003 270.766C306.127 267.951 299.89 269.623 297.075 274.499C294.26 279.375 295.931 285.612 300.807 288.427C305.683 291.242 311.92 289.57 314.736 284.695ZM286.115 313.875C290.466 296.544 290.42 279.358 279.71 264.473C297.955 266.305 312.863 257.752 325.695 245.319C308.246 250.92 283.511 262.341 255.02 243.989C253.467 242.915 252.57 247.023 251.903 248.419L248.789 252.942C249.169 253.111 249.41 253.23 249.625 253.333C279.764 268.83 282.449 297.69 286.115 313.875Z" fill="#D93933"/>
<path fill-rule="evenodd" clip-rule="evenodd" d="M125.265 175.305C128.08 170.429 134.318 168.758 139.193 171.573C144.069 174.388 145.74 180.625 142.925 185.501C140.11 190.377 133.873 192.048 128.997 189.233C124.121 186.418 122.45 180.181 125.265 175.305ZM114.305 214.681C127.138 202.247 142.045 193.694 160.29 195.527C149.581 180.642 149.534 163.456 153.885 146.125C157.759 164.038 160.235 191.169 190.375 206.667C192.081 207.475 188.972 210.306 188.097 211.581L185.737 216.54C185.401 216.295 185.177 216.146 184.98 216.011C156.49 197.658 130.154 209.763 114.305 214.681Z" fill="#96BC33"/>
</svg>
