<svg width="303" height="316" viewBox="0 0 303 316" fill="none" xmlns="http://www.w3.org/2000/svg">
<path d="M151.752 315.109C228.383 315.109 290.504 305.011 290.504 292.555C290.504 280.098 228.383 270 151.752 270C75.1214 270 13 280.098 13 292.555C13 305.011 75.1214 315.109 151.752 315.109Z" fill="#F0E6DE"/>
<path d="M268.304 114.639H263.43V165.532H268.304V114.639Z" fill="#71573A"/>
<path d="M265.981 114.802C266.97 114.861 268.086 114.8 269.138 114.691C270.204 114.584 271.264 114.396 272.311 114.168C274.403 113.699 276.443 113.018 278.395 112.157C278.885 111.946 279.372 111.729 279.844 111.479C280.318 111.232 280.801 111.016 281.261 110.736L282.728 109.906C283.339 109.59 283.928 109.351 284.591 109.163C285.255 108.987 285.946 108.83 286.755 108.861C287.54 108.891 288.461 109.051 289.269 109.599C289.696 109.827 289.998 110.197 290.336 110.529C290.584 110.881 290.862 111.268 291.027 111.637C291.171 112 291.354 112.393 291.437 112.748L291.666 113.816C291.903 114.913 291.204 115.995 290.106 116.231C289.008 116.468 287.926 115.769 287.69 114.671C287.67 114.578 287.657 114.486 287.65 114.394L287.64 114.255C287.584 113.429 287.385 112.834 287.166 112.702C287 112.47 286.269 112.333 285.417 112.506C285.001 112.578 284.54 112.718 284.147 112.877C284.075 112.908 284.111 112.885 284.02 112.928L283.824 113.018L283.43 113.198L282.645 113.556C282.129 113.806 281.577 113.999 281.043 114.217C280.51 114.439 279.962 114.626 279.413 114.807C277.223 115.544 274.969 116.073 272.688 116.37C271.547 116.512 270.4 116.609 269.249 116.62C268.085 116.629 266.972 116.601 265.753 116.416C265.309 116.348 265.004 115.933 265.072 115.489C265.136 115.071 265.507 114.776 265.921 114.799L265.981 114.802Z" fill="#C49E53"/>
<path d="M265.98 116.414C264.762 116.6 263.649 116.628 262.486 116.618C261.334 116.608 260.188 116.511 259.046 116.369C256.765 116.072 254.511 115.543 252.321 114.806C251.773 114.625 251.225 114.438 250.691 114.216C250.157 113.998 249.606 113.805 249.09 113.555L248.304 113.196L247.91 113.016L247.714 112.926C247.623 112.884 247.66 112.906 247.588 112.876C247.195 112.717 246.734 112.577 246.318 112.505C245.465 112.332 244.735 112.469 244.568 112.7C244.35 112.832 244.151 113.428 244.094 114.253L244.085 114.381C244.008 115.501 243.038 116.348 241.918 116.271C240.798 116.194 239.951 115.223 240.028 114.103C240.034 114.009 240.05 113.904 240.069 113.814L240.298 112.746C240.381 112.393 240.564 111.998 240.708 111.636C240.873 111.266 241.151 110.88 241.399 110.527C241.737 110.195 242.039 109.826 242.467 109.598C243.274 109.049 244.195 108.888 244.98 108.86C245.789 108.829 246.48 108.985 247.144 109.161C247.807 109.35 248.396 109.59 249.007 109.904L250.474 110.735C250.935 111.014 251.417 111.231 251.891 111.477C252.364 111.727 252.85 111.944 253.34 112.156C255.292 113.018 257.332 113.698 259.425 114.167C260.471 114.395 261.531 114.583 262.596 114.689C263.648 114.799 264.764 114.86 265.754 114.801L265.809 114.797C266.257 114.771 266.642 115.113 266.669 115.561C266.695 115.984 266.39 116.351 265.98 116.414Z" fill="#C49E53"/>
<path d="M269.277 115.608C269.277 117.492 267.75 119.019 265.867 119.019C263.984 119.019 262.457 117.492 262.457 115.608C262.457 113.725 263.984 112.198 265.867 112.198C267.75 112.198 269.277 113.724 269.277 115.608Z" fill="#B58617"/>
<path d="M269.202 106.969C269.202 108.963 267.709 110.578 265.868 110.578C264.027 110.578 262.535 108.963 262.535 106.969C262.535 104.976 264.028 98.3435 265.868 98.3435C267.709 98.3435 269.202 104.976 269.202 106.969Z" fill="#B58617"/>
<path d="M267.579 112.771H264.151C263.26 112.771 262.531 112.042 262.531 111.152C262.531 110.261 263.26 109.532 264.151 109.532H267.579C268.47 109.532 269.198 110.261 269.198 111.152C269.198 112.042 268.47 112.771 267.579 112.771Z" fill="#C49E53"/>
<path d="M278.95 164.958H253.145C251.087 164.958 249.418 166.627 249.418 168.686H282.677C282.677 166.627 281.008 164.958 278.95 164.958Z" fill="#71573A"/>
<path d="M272.678 161.804H259.415C257.357 161.804 255.688 163.473 255.688 165.532H276.405C276.406 163.473 274.738 161.804 272.678 161.804Z" fill="#7D6144"/>
<path d="M267.767 115.608C267.767 116.659 266.916 117.51 265.866 117.51C264.816 117.51 263.965 116.659 263.965 115.608C263.965 114.558 264.816 113.707 265.866 113.707C266.916 113.707 267.767 114.558 267.767 115.608Z" fill="#787777"/>
<path d="M290.432 114.28C290.432 114.736 290.063 115.106 289.607 115.106C289.151 115.106 288.781 114.736 288.781 114.28C288.781 113.824 289.151 113.455 289.607 113.455C290.063 113.455 290.432 113.824 290.432 114.28Z" fill="#717175"/>
<path d="M242.671 114.393C242.671 114.85 242.301 115.219 241.845 115.219C241.389 115.219 241.02 114.85 241.02 114.393C241.02 113.937 241.389 113.568 241.845 113.568C242.301 113.568 242.671 113.937 242.671 114.393Z" fill="#717175"/>
<path d="M241.115 126.958L229.766 149.773L231.077 150.426L242.427 127.61L241.115 126.958Z" fill="#B5B5BA"/>
<path d="M242.412 126.949L241.117 127.634L253.178 150.448L254.473 149.764L242.412 126.949Z" fill="#B5B5BA"/>
<path d="M242.484 124.683H241.02V150.104H242.484V124.683Z" fill="#B5B5BA"/>
<path d="M247.065 157.3H236.626C233.189 157.3 230.402 154.514 230.402 151.076H253.29C253.289 154.513 250.503 157.3 247.065 157.3Z" fill="#C49E53"/>
<path d="M253.892 151.075H229.49C228.918 151.075 228.449 150.607 228.449 150.034C228.449 149.461 228.918 148.993 229.49 148.993H253.892C254.464 148.993 254.933 149.461 254.933 150.034C254.933 150.607 254.464 151.075 253.892 151.075Z" fill="#B58617"/>
<path d="M241.846 124.986C240.334 124.986 239.105 123.757 239.105 122.245C239.105 120.734 240.335 119.504 241.846 119.504C243.357 119.504 244.587 120.734 244.587 122.245C244.587 123.757 243.357 124.986 241.846 124.986ZM241.846 120.692C240.989 120.692 240.292 121.389 240.292 122.245C240.292 123.102 240.989 123.799 241.846 123.799C242.702 123.799 243.4 123.102 243.4 122.245C243.4 121.389 242.702 120.692 241.846 120.692Z" fill="#B5B5BA"/>
<path d="M242.131 114.752C242.203 115.688 242.258 116.623 242.29 117.558L242.329 118.962L242.342 119.663C242.354 119.94 242.304 120.256 242.207 120.527C242.026 121.092 241.552 121.593 241.006 121.815C240.459 122.05 239.914 122.091 239.385 122.039C238.861 121.99 238.26 121.796 237.867 121.328C237.472 120.868 237.367 120.271 237.51 119.758C237.532 119.677 237.615 119.631 237.694 119.653C237.747 119.667 237.786 119.708 237.799 119.758L237.806 119.781C237.92 120.199 238.138 120.565 238.422 120.757C238.704 120.958 239.062 121.036 239.462 121.055C239.861 121.068 240.281 121.037 240.593 120.888C240.909 120.745 241.133 120.51 241.256 120.186C241.317 120.016 241.349 119.863 241.345 119.672L241.358 118.968L241.398 117.563C241.43 116.625 241.484 115.688 241.557 114.751C241.569 114.593 241.707 114.475 241.866 114.487C242.01 114.499 242.12 114.613 242.131 114.752Z" fill="#B5B5BA"/>
<path d="M290.347 126.837L289.035 127.489L300.384 150.302L301.696 149.65L290.347 126.837Z" fill="#B5B5BA"/>
<path d="M289.065 126.824L277.004 149.638L278.299 150.323L290.36 127.508L289.065 126.824Z" fill="#B5B5BA"/>
<path d="M290.433 124.57H288.969V149.991H290.433V124.57Z" fill="#B5B5BA"/>
<path d="M284.389 157.187H294.827C298.265 157.187 301.051 154.4 301.051 150.963H278.164C278.165 154.4 280.951 157.187 284.389 157.187Z" fill="#C49E53"/>
<path d="M277.561 150.963H301.962C302.535 150.963 303.003 150.494 303.003 149.921C303.003 149.349 302.535 148.88 301.962 148.88H277.561C276.988 148.88 276.52 149.349 276.52 149.921C276.52 150.494 276.988 150.963 277.561 150.963Z" fill="#B58617"/>
<path d="M289.608 124.874C288.097 124.874 286.867 123.644 286.867 122.133C286.867 120.621 288.097 119.392 289.608 119.392C291.12 119.392 292.349 120.622 292.349 122.133C292.35 123.644 291.12 124.874 289.608 124.874ZM289.608 120.579C288.752 120.579 288.055 121.276 288.055 122.133C288.055 122.989 288.752 123.686 289.608 123.686C290.465 123.686 291.162 122.989 291.162 122.133C291.162 121.276 290.465 120.579 289.608 120.579Z" fill="#B5B5BA"/>
<path d="M289.896 114.639C289.969 115.576 290.023 116.514 290.055 117.451L290.095 118.857L290.108 119.559C290.104 119.75 290.136 119.903 290.198 120.073C290.32 120.398 290.544 120.633 290.86 120.776C291.172 120.925 291.592 120.956 291.992 120.942C292.391 120.924 292.749 120.845 293.031 120.644C293.315 120.453 293.534 120.085 293.648 119.668L293.654 119.645C293.676 119.565 293.758 119.518 293.839 119.54C293.891 119.554 293.93 119.596 293.944 119.645C294.086 120.158 293.981 120.756 293.586 121.216C293.193 121.684 292.593 121.877 292.068 121.926C291.539 121.978 290.994 121.937 290.447 121.703C289.901 121.48 289.427 120.98 289.246 120.414C289.15 120.144 289.099 119.828 289.111 119.55L289.124 118.849L289.163 117.446C289.196 116.51 289.25 115.575 289.323 114.639C289.335 114.481 289.473 114.363 289.632 114.375C289.775 114.386 289.885 114.501 289.896 114.639Z" fill="#B5B5BA"/>
<path d="M122.508 17.8635L150.429 1.48525C151.099 1.09169 151.93 1.09169 152.601 1.48388L180.607 17.8635H122.508Z" fill="#C7C7C8"/>
<path d="M122.508 17.8635L150.375 1.32453C151.104 0.891823 152.012 0.891823 152.74 1.32453L180.608 17.8635" stroke="#8F8E93" stroke-width="1.73172" stroke-miterlimit="10"/>
<path d="M154.876 11.2239C154.876 13.079 153.372 14.5839 151.516 14.5839C149.66 14.5839 148.156 13.0797 148.156 11.2239C148.156 9.36806 149.66 7.86389 151.516 7.86389C153.372 7.86389 154.876 9.36806 154.876 11.2239Z" fill="#8F8E93"/>
<path d="M153.896 11.2239C153.896 12.5357 152.832 13.5997 151.52 13.5997C150.208 13.5997 149.145 12.5357 149.145 11.2239C149.145 9.91204 150.208 8.84813 151.52 8.84813C152.832 8.84813 153.896 9.91135 153.896 11.2239Z" fill="#C7C7C8"/>
<path d="M180.724 20.9763H122.313C121.575 20.9763 120.977 20.378 120.977 19.6397V17.5407C120.977 16.8024 121.575 16.2041 122.313 16.2041H180.724C181.462 16.2041 182.06 16.8024 182.06 17.5407V19.6397C182.06 20.378 181.462 20.9763 180.724 20.9763Z" fill="#B5B5BA"/>
<path d="M182.06 51.0631H120.977V54.1758H182.06V51.0631Z" fill="#B5B5BA"/>
<path d="M186.131 54.1758H116.906V58.5331H186.131V54.1758Z" fill="#C7C7C8"/>
<path d="M135.72 20.9763H126.797V23.8809H135.72V20.9763Z" fill="#8F8E93"/>
<path d="M135.72 48.1584H126.797V51.0631H135.72V48.1584Z" fill="#8F8E93"/>
<path d="M176.871 20.9763H167.949V23.8809H176.871V20.9763Z" fill="#8F8E93"/>
<path d="M176.871 48.1584H167.949V51.0631H176.871V48.1584Z" fill="#8F8E93"/>
<path d="M134.267 23.8809H128.25V48.1585H134.267V23.8809Z" fill="#B5B5BA"/>
<path d="M175.42 23.8809H169.402V48.1585H175.42V23.8809Z" fill="#B5B5BA"/>
<path d="M156.298 20.9763H147.375V23.8809H156.298V20.9763Z" fill="#8F8E93"/>
<path d="M156.298 48.1584H147.375V51.0631H156.298V48.1584Z" fill="#8F8E93"/>
<path d="M154.845 23.8809H148.828V48.1585H154.845V23.8809Z" fill="#B5B5BA"/>
<path d="M129.98 23.8809V48.1585" stroke="#8F8E93" stroke-width="0.622479" stroke-miterlimit="10"/>
<path d="M132.367 23.8809V48.1585" stroke="#8F8E93" stroke-width="0.622479" stroke-miterlimit="10"/>
<path d="M150.641 23.8809V48.1585" stroke="#8F8E93" stroke-width="0.622479" stroke-miterlimit="10"/>
<path d="M153.027 23.8809V48.1585" stroke="#8F8E93" stroke-width="0.622479" stroke-miterlimit="10"/>
<path d="M171.219 23.8809V48.1585" stroke="#8F8E93" stroke-width="0.622479" stroke-miterlimit="10"/>
<path d="M173.605 23.8809V48.1585" stroke="#8F8E93" stroke-width="0.622479" stroke-miterlimit="10"/>
<path d="M16.4488 112.315C16.1782 107.961 12.2797 104.66 7.74175 104.941C3.20383 105.224 -0.25576 108.982 0.0148531 113.336C0.036145 113.682 0.0883439 114.018 0.15428 114.349L16.4364 113.336C16.4604 113.001 16.4701 112.661 16.4488 112.315Z" fill="#D2C192"/>
<path d="M7.91406 104.931L11.3187 159.702C11.5893 164.057 14.9514 167.391 18.8279 167.15L50.8406 165.16L47.5204 111.749C47.2031 106.644 42.8067 102.762 37.7014 103.08L7.91406 104.931Z" fill="#F0E5B7"/>
<path d="M26.2554 157.752C26.3145 158.084 26.3619 158.42 26.3838 158.765C26.6545 163.12 23.732 166.845 19.8555 167.086L53.4088 165C53.4088 165 59.7215 164.264 58.6754 155.737L26.2554 157.752Z" fill="#E4D5A4"/>
<path d="M41.0077 119.081L39.0977 131.348L41.6328 128.761L44.6377 131.003L41.0077 119.081Z" fill="#A01127"/>
<path d="M43.9002 119.056C43.9957 120.589 42.8301 121.91 41.2971 122.004C39.7641 122.1 38.444 120.934 38.3492 119.401C38.2538 117.868 39.4193 116.549 40.9523 116.453C42.4847 116.358 43.8048 117.523 43.9002 119.056Z" fill="#F0D142"/>
<path d="M42.2998 119.156C42.3404 119.804 41.8472 120.363 41.1988 120.403C40.5505 120.444 39.9921 119.951 39.9515 119.302C39.911 118.654 40.4042 118.096 41.0525 118.055C41.7009 118.015 42.26 118.508 42.2998 119.156Z" fill="#BB9628"/>
<path d="M13.8125 121.062L35.3826 119.721" stroke="#716858" stroke-width="1.02915" stroke-miterlimit="10" stroke-linecap="round"/>
<path d="M14.0898 125.513L35.6599 124.172" stroke="#716858" stroke-width="1.02915" stroke-miterlimit="10" stroke-linecap="round"/>
<path d="M14.3672 129.964L35.9366 128.623" stroke="#716858" stroke-width="1.02915" stroke-miterlimit="10" stroke-linecap="round"/>
<path d="M14.6445 134.415L44.7396 132.544" stroke="#716858" stroke-width="1.02915" stroke-miterlimit="10" stroke-linecap="round"/>
<path d="M14.9219 138.865L45.0169 136.995" stroke="#716858" stroke-width="1.02915" stroke-miterlimit="10" stroke-linecap="round"/>
<path d="M15.1953 143.317L45.2904 141.446" stroke="#716858" stroke-width="1.02915" stroke-miterlimit="10" stroke-linecap="round"/>
<path d="M15.4727 147.768L45.5677 145.897" stroke="#716858" stroke-width="1.02915" stroke-miterlimit="10" stroke-linecap="round"/>
<path d="M15.75 152.218L45.8451 150.347" stroke="#716858" stroke-width="1.02915" stroke-miterlimit="10" stroke-linecap="round"/>
<path d="M57.853 125.177C57.0879 125.094 56.355 124.711 55.9553 124.061C55.4896 123.302 55.5343 122.339 55.7094 121.467C56.0714 119.666 57.0185 117.468 57.9691 115.901C58.2645 116.211 58.5605 116.52 58.8558 116.83C58.2899 116.237 60.1017 113.163 60.509 112.663C61.2831 111.713 62.2062 111.023 63.0792 110.168C63.2474 110.462 63.5016 110.707 63.8017 110.864C63.3422 110.624 64.2207 108.731 64.4027 108.47C65.1898 107.338 66.4646 106.297 67.5202 105.417C67.6707 105.697 67.9138 105.928 68.203 106.063C68.0491 105.427 68.2558 104.746 68.6144 104.199C69.1659 103.357 70.0327 102.712 70.6962 101.955C72.9359 99.3971 74.9195 96.5742 75.8261 93.2678C75.8502 93.1799 75.9038 93.0714 75.9937 93.0837C76.059 93.0927 76.0954 93.1627 76.1194 93.2238C76.8042 94.9876 76.3468 97.5015 75.9099 99.2817C75.6201 100.463 75.0356 101.627 74.2718 102.572C74.3934 102.653 74.5706 102.637 74.675 102.536C74.5315 102.94 71.736 108.279 71.3562 107.738C71.4654 107.893 71.6838 107.961 71.8617 107.895C70.8287 109.666 69.4908 112.356 67.422 113.145C67.2654 113.205 67.0704 113.308 67.0999 113.472C67.3746 113.46 67.6501 113.448 67.9248 113.435C67.1377 114.581 66.3279 115.718 65.5147 116.835C65.1987 117.269 63.8052 119.891 63.2921 119.885C63.516 119.887 63.7399 119.89 63.9638 119.893C63.1451 121.188 62.1485 122.503 61.1375 123.649C60.4699 124.405 59.588 125.016 58.5907 125.164C58.3476 125.199 58.0989 125.204 57.853 125.177Z" fill="#D2C192"/>
<path d="M52.6084 138.23C52.3632 137.245 52.6826 136.375 52.879 135.485C53.0857 134.595 53.3179 133.71 53.5844 132.835C54.1167 131.086 54.7293 129.36 55.4526 127.682C56.1696 126 56.9492 124.346 57.818 122.739C58.6814 121.129 59.5921 119.543 60.6004 118.016C61.6052 116.488 62.6801 115.002 63.8787 113.606L67.499 109.555C69.8754 106.853 71.815 103.789 73.7313 100.712L73.824 100.766C72.9682 102.364 72.1008 103.957 71.1674 105.519C70.2388 107.083 69.1797 108.581 68.0498 110.012C66.9234 111.441 65.7324 112.821 64.5792 114.2C63.4405 115.573 62.413 117.048 61.4541 118.564C59.5454 121.605 57.9279 124.83 56.5419 128.141C55.8338 129.792 55.2142 131.477 54.6071 133.167C54.3234 134.019 54.0143 134.864 53.7595 135.726C53.4422 136.574 53.3934 137.479 52.7121 138.253L52.6084 138.23Z" fill="#93825E"/>
<path d="M78.5295 75.7933C78.4533 75.8695 78.377 75.9458 78.3008 76.022" stroke="#93825E" stroke-width="0.686836" stroke-miterlimit="10"/>
<path d="M116.018 78.3312C119.486 78.3312 122.298 75.5196 122.298 72.0514C122.298 68.5832 119.486 65.7717 116.018 65.7717C112.55 65.7717 109.738 68.5832 109.738 72.0514C109.738 75.5196 112.55 78.3312 116.018 78.3312Z" fill="#7D532C"/>
<path d="M182.901 78.3312C186.369 78.3312 189.181 75.5196 189.181 72.0514C189.181 68.5832 186.369 65.7717 182.901 65.7717C179.433 65.7717 176.621 68.5832 176.621 72.0514C176.621 75.5196 179.433 78.3312 182.901 78.3312Z" fill="#7D532C"/>
<path d="M123.087 83.6693H108.957V164.367H123.087V83.6693Z" fill="#7D532C"/>
<path d="M121.671 83.6693H110.367V79.0338C110.367 77.6052 111.525 76.4472 112.954 76.4472H119.085C120.514 76.4472 121.672 77.6052 121.672 79.0338V83.6693H121.671Z" fill="#8E6432"/>
<path d="M188.554 83.6693H177.25V78.9054C177.25 77.5475 178.35 76.4472 179.708 76.4472H186.096C187.454 76.4472 188.554 77.5475 188.554 78.9054V83.6693Z" fill="#8E6432"/>
<path d="M189.966 83.6693H175.836V164.367H189.966V83.6693Z" fill="#7D532C"/>
<path d="M155.833 83.6693H143.091C132.043 83.6693 123.086 92.6256 123.086 103.675V164.367H175.838V103.675C175.838 92.6256 166.881 83.6693 155.833 83.6693Z" fill="#664428"/>
<path d="M155.485 87.7188H143.692C134.706 87.7188 127.422 95.0034 127.422 103.989V164.367H171.756V103.989C171.756 95.0034 164.471 87.7188 155.485 87.7188Z" fill="#97354B"/>
<path d="M149.716 151.275C159.286 151.275 167.044 143.517 167.044 133.946C167.044 124.376 159.286 116.617 149.716 116.617C140.145 116.617 132.387 124.376 132.387 133.946C132.387 143.517 140.145 151.275 149.716 151.275Z" fill="#86848E"/>
<path d="M171.723 169.02H126.875L131.892 148.794C133.342 142.947 138.656 138.834 144.762 138.834H154.331C160.551 138.834 165.933 143.098 167.27 149.086L171.723 169.02Z" fill="#494444"/>
<path d="M154.032 157.269H145.211V169.02H154.032V157.269Z" fill="#333132"/>
<path d="M152.639 158.32C152.242 158.32 151.885 158.505 151.631 158.799C151.377 158.505 151.02 158.32 150.623 158.32C150.225 158.32 149.869 158.505 149.614 158.799C149.36 158.505 149.004 158.32 148.606 158.32C148.208 158.32 147.852 158.505 147.598 158.799C147.344 158.505 146.987 158.32 146.59 158.32C145.82 158.32 145.195 159.008 145.195 159.856C145.195 160.705 145.82 161.393 146.59 161.393C146.987 161.393 147.344 161.207 147.598 160.913C147.852 161.207 148.208 161.393 148.606 161.393C149.004 161.393 149.36 161.207 149.614 160.913C149.869 161.207 150.225 161.393 150.623 161.393C151.02 161.393 151.377 161.207 151.631 160.913C151.885 161.207 152.242 161.393 152.639 161.393C153.409 161.393 154.034 160.705 154.034 159.856C154.034 159.008 153.41 158.32 152.639 158.32Z" fill="#D9D9E4"/>
<path d="M148.119 140.343C147.896 140.668 145.428 151.749 144.221 157.205C143.883 158.736 145.085 160.18 146.697 160.18H152.661C154.255 160.18 155.452 158.767 155.146 157.247L151.742 140.343H148.119V140.343Z" fill="#B8B3BF"/>
<path d="M150.84 140.229H149.153C146.923 140.229 145.098 138.405 145.098 136.174V131.718C145.098 129.488 146.923 127.663 149.153 127.663H150.84C153.07 127.663 154.895 129.488 154.895 131.718V136.174C154.894 138.405 153.07 140.229 150.84 140.229Z" fill="#DEA476"/>
<path d="M134.562 110.207C133.439 114.027 134.011 118.439 134.748 122.083C135.001 123.336 135.307 124.583 135.711 125.808C136.092 126.965 136.614 127.852 137.294 128.883C138.592 130.852 140.045 132.821 142.158 134.229C146.318 137.001 152.13 137.253 156.69 135.091C162.622 132.279 163.817 125.401 164.396 120.214C164.728 117.242 164.885 114.165 164.192 111.224C163.47 108.16 161.725 105.404 159.005 103.307C157.283 101.98 155.222 100.916 152.932 100.506C146.844 99.4129 141.012 101.579 137.137 105.647C135.869 106.978 135.053 108.535 134.562 110.207Z" fill="#E3B484"/>
<path d="M149.086 141.944L146.648 157.547C146.604 157.83 146.338 158.023 146.055 157.979C145.772 157.935 145.579 157.67 145.623 157.387C145.624 157.381 145.625 157.374 145.627 157.368L148.661 141.869C148.683 141.752 148.797 141.676 148.913 141.699C149.029 141.721 149.104 141.83 149.086 141.944Z" fill="#A29C9C"/>
<path d="M150.815 141.869L153.848 157.368C153.903 157.649 153.721 157.921 153.44 157.976C153.159 158.031 152.887 157.848 152.832 157.567C152.83 157.561 152.829 157.554 152.828 157.548L150.389 141.945C150.371 141.827 150.451 141.716 150.569 141.698C150.684 141.679 150.792 141.756 150.815 141.869Z" fill="#A29C9C"/>
<path d="M150.034 140.687L150.133 158.435C150.135 158.721 149.905 158.954 149.618 158.955C149.332 158.957 149.099 158.727 149.098 158.44C149.098 158.435 149.098 158.428 149.098 158.422L149.603 140.681C149.607 140.563 149.705 140.469 149.825 140.472C149.94 140.476 150.032 140.572 150.034 140.687Z" fill="#A29C9C"/>
<path d="M145.85 118.556C145.85 119.396 145.514 120.076 145.099 120.076C144.684 120.076 144.348 119.396 144.348 118.556C144.348 117.717 144.684 117.036 145.099 117.036C145.514 117.036 145.85 117.717 145.85 118.556Z" fill="#434142"/>
<path d="M156.366 118.556C156.366 119.396 156.03 120.076 155.615 120.076C155.2 120.076 154.863 119.396 154.863 118.556C154.863 117.717 155.2 117.036 155.615 117.036C156.03 117.036 156.366 117.717 156.366 118.556Z" fill="#434142"/>
<path d="M140.996 118.558L134.508 118.257" stroke="#9E721E" stroke-width="1.29372" stroke-miterlimit="10" stroke-linecap="round"/>
<path d="M159.566 118.558L166.054 118.257" stroke="#9E721E" stroke-width="1.29372" stroke-miterlimit="10" stroke-linecap="round"/>
<path d="M147.102 129.706C147.102 129.706 150.19 130.353 153.722 129.706" stroke="#C57857" stroke-width="0.862459" stroke-miterlimit="10" stroke-linecap="round"/>
<path d="M158.154 127.527C157.889 127.792 157.456 127.885 157.092 127.776C156.611 127.632 156.241 127.224 155.962 126.789C155.682 126.353 155.465 125.872 155.149 125.463C153.528 123.369 149.987 123.89 147.74 124.052C146.147 124.166 145.389 124.914 144.674 126.43C144.347 127.125 144.025 127.852 143.47 128.364C142.915 128.875 142.049 129.11 141.43 128.687C141.478 129.621 142.042 130.474 142.784 130.992C143.527 131.511 144.428 131.728 145.319 131.779C146.484 131.845 147.694 131.625 148.672 130.957C149.651 130.289 150.363 129.128 150.343 127.902C150.744 129.213 151.595 130.393 152.754 131.036C154.374 131.935 157.124 131.738 158.151 129.953C158.618 129.141 158.695 128.094 158.35 127.218C158.308 127.338 158.24 127.442 158.154 127.527Z" fill="#ECF2F8"/>
<path d="M148.627 121.012C148.173 121.62 147.711 122.244 147.546 122.929C147.38 123.614 147.561 124.384 148.239 124.866C148.967 125.382 150.082 125.456 151.083 125.373C151.47 125.341 151.86 125.289 152.203 125.152C152.992 124.837 153.371 124.123 153.336 123.46C153.301 122.797 152.924 122.173 152.52 121.58C152.221 121.142 151.903 120.712 151.567 120.289C151.34 120.004 150.869 119.149 150.477 119.019C149.895 118.826 148.908 120.635 148.627 121.012Z" fill="#C57857"/>
<path d="M145.31 136.974L149.515 139.74C149.857 139.964 149.971 140.412 149.779 140.771L148.487 143.197C148.264 143.616 147.725 143.745 147.335 143.474L143.242 140.626C142.918 140.402 142.81 139.974 142.987 139.622L144.167 137.28C144.379 136.856 144.914 136.713 145.31 136.974Z" fill="#D9D9E4"/>
<path d="M154.456 136.974L150.233 139.74C149.89 139.964 149.775 140.412 149.968 140.771L151.266 143.197C151.49 143.616 152.032 143.745 152.423 143.474L156.534 140.626C156.859 140.402 156.967 139.974 156.79 139.622L155.605 137.28C155.39 136.856 154.853 136.713 154.456 136.974Z" fill="#D9D9E4"/>
<path d="M140.073 148.085L133.739 141.226C132.929 142.026 125.756 149.598 123.107 168.781C123.096 168.861 123.093 168.941 123.086 169.02H132.347C134.647 153.934 140.065 148.096 140.122 148.037L140.073 148.085Z" fill="#5B5857"/>
<path d="M176.592 168.781C173.943 149.598 166.77 142.026 165.96 141.226L159.626 148.085L159.578 148.037C159.634 148.096 165.052 153.935 167.352 169.02H176.614C176.605 168.941 176.603 168.861 176.592 168.781Z" fill="#5B5857"/>
<path d="M145.784 122.469H144.64C142.865 122.469 141.426 121.03 141.426 119.254C141.426 117.479 142.865 116.04 144.64 116.04H145.784C147.559 116.04 148.999 117.479 148.999 119.254C148.998 121.03 147.559 122.469 145.784 122.469Z" stroke="#B48419" stroke-width="0.920909" stroke-miterlimit="10"/>
<path d="M156.187 122.469H155.043C153.268 122.469 151.828 121.03 151.828 119.254C151.828 117.479 153.267 116.04 155.043 116.04H156.187C157.962 116.04 159.401 117.479 159.401 119.254C159.401 121.03 157.962 122.469 156.187 122.469Z" stroke="#B48419" stroke-width="0.920909" stroke-miterlimit="10"/>
<path d="M149 118.556H151.83" stroke="#B48419" stroke-width="0.920909" stroke-miterlimit="10"/>
<path d="M170.719 131.374C171.965 129.881 172.959 127.923 172.792 125.879C172.626 123.861 171.37 122.171 169.974 120.899C170.005 120.859 170.051 120.787 170.099 120.727C171.366 119.155 171.786 116.873 171.548 114.761C171.402 113.463 171.019 112.181 170.32 111.138C169.623 110.098 168.711 109.021 167.342 109.213C167.277 105.196 165.139 101.344 161.985 98.8552C157.704 95.478 152.106 94.2383 146.78 95.3372C139.632 96.8126 134.017 101.304 132.158 108.473C132.119 108.627 132.074 108.792 131.95 108.892C131.85 108.973 131.716 108.996 131.59 109.025C129.32 109.546 128.077 112.753 127.851 114.76C127.613 116.872 128.033 119.153 129.301 120.726C129.348 120.785 129.394 120.857 129.426 120.897C128.029 122.169 126.773 123.859 126.607 125.877C126.44 127.923 127.434 129.88 128.68 131.373C126.702 133.49 125.514 137.258 126.098 140.304C126.414 141.952 127.237 143.526 128.726 144.035C128.097 147.095 127.614 150.345 129.399 153.084C131.084 155.668 134.124 155.125 136.389 153.812C138.793 152.417 140.512 149.395 140.525 146.313C140.532 144.776 140.079 143.265 139.409 141.942C139.254 141.635 137.323 138.69 137.154 138.9C138.192 137.611 138.725 135.874 138.734 134.14C138.739 133.298 138.623 132.451 138.378 131.655C138.302 131.407 137.359 129.666 137.382 129.612C138.38 127.231 138.07 124.218 136.615 122.16C137.278 121.429 138.109 120.483 138.394 119.466C138.488 119.132 138.505 115.918 137.97 116.042C138.918 115.821 139.611 114.838 139.882 113.787C140.153 112.736 140.078 111.615 139.997 110.525C141.754 110.74 143.505 109.008 143.552 107.007C143.537 107.616 146.891 108.127 147.342 108.202C148.842 108.45 150.456 108.553 151.952 108.268C152.375 108.188 155.864 107.607 155.849 107.007C155.897 109.008 157.647 110.74 159.405 110.525C159.323 111.616 159.249 112.736 159.519 113.787C159.79 114.839 160.484 115.821 161.431 116.042C160.896 115.917 160.914 119.132 161.007 119.466C161.291 120.482 162.123 121.429 162.786 122.16C161.33 124.219 161.021 127.234 162.021 129.616C160.122 132.235 160.234 136.442 162.269 138.927C162.529 139.245 160.322 141.905 160.117 142.232C159.249 143.617 158.795 145.343 158.896 147.042C159.054 149.671 160.327 152.342 162.497 153.441C164.438 154.424 167.004 154.391 168.602 152.634C169.354 151.807 169.835 150.722 170.302 149.66C171.122 147.794 171.11 145.995 170.645 144.015C172.107 143.686 172.986 141.952 173.302 140.303C173.885 137.259 172.697 133.491 170.719 131.374Z" fill="#ECEDEF"/>
<path d="M154.91 112.735C155.67 112.76 156.279 113.045 156.812 113.388C157.346 113.742 157.795 114.202 158.125 114.729C158.252 114.931 158.191 115.198 157.989 115.326C157.807 115.44 157.574 115.402 157.436 115.247L157.43 115.24C157.1 114.868 156.692 114.575 156.253 114.381C155.816 114.187 155.331 114.085 154.969 114.15C154.581 114.22 154.21 113.963 154.14 113.575C154.07 113.187 154.328 112.816 154.716 112.746C154.765 112.738 154.813 112.734 154.862 112.735H154.91Z" fill="#626269"/>
<path d="M145.199 114.149C144.837 114.084 144.352 114.187 143.915 114.38C143.476 114.573 143.068 114.867 142.738 115.239L142.732 115.245C142.574 115.424 142.3 115.439 142.122 115.282C141.962 115.139 141.932 114.904 142.043 114.729C142.374 114.201 142.822 113.741 143.356 113.387C143.889 113.044 144.498 112.759 145.258 112.735L145.303 112.733C145.697 112.721 146.026 113.03 146.039 113.424C146.052 113.817 145.743 114.147 145.349 114.16C145.299 114.162 145.247 114.157 145.199 114.149Z" fill="#626269"/>
<path d="M211.789 175.357H88.0739C86.773 175.357 85.7188 174.303 85.7188 173.002V166.722C85.7188 165.421 86.773 164.367 88.0739 164.367H211.789C213.09 164.367 214.145 165.421 214.145 166.722V173.002C214.145 174.303 213.09 175.357 211.789 175.357Z" fill="#8E6432"/>
<path d="M206.924 175.357H96.082V287.567H206.924V175.357Z" fill="#7D532C"/>
<path d="M196.119 179.439H105.688V287.567H196.119V179.439Z" fill="#613819"/>
<path d="M191.41 183.521H110.398V287.567H191.41V183.521Z" fill="#7D532C"/>
<path d="M170.003 195.52H151.848H133.692C133.692 195.52 118.17 223.275 151.848 241.744C185.525 223.275 170.003 195.52 170.003 195.52Z" fill="#CAAB51" stroke="#B58617" stroke-width="2.25845" stroke-miterlimit="10"/>
<path d="M156.698 223.842L152.016 220.275C151.685 220.023 151.23 220.012 150.888 220.249L146.049 223.6C145.284 224.129 144.29 223.371 144.597 222.494L146.542 216.939C146.68 216.547 146.549 216.11 146.218 215.858L141.536 212.291C140.797 211.728 141.211 210.548 142.139 210.568L148.024 210.702C148.439 210.712 148.814 210.452 148.951 210.06L150.897 204.505C151.204 203.628 152.455 203.656 152.721 204.547L154.412 210.185C154.532 210.583 154.894 210.86 155.309 210.868L161.194 211.002C162.123 211.024 162.483 212.222 161.718 212.75L156.879 216.101C156.537 216.337 156.386 216.767 156.506 217.165L158.197 222.804C158.466 223.694 157.438 224.405 156.698 223.842Z" fill="#B58617"/>
<path d="M212.478 287.567H87.3836C86.464 287.567 85.7188 286.821 85.7188 285.902V283.738C85.7188 282.819 86.464 282.073 87.3836 282.073H212.479C213.399 282.073 214.145 282.819 214.145 283.738V285.902C214.144 286.821 213.399 287.567 212.478 287.567Z" fill="#8E6432"/>
<path d="M118.224 164.561H96.5462C96.2358 164.561 95.9844 164.31 95.9844 163.999V162.998C95.9844 162.688 96.2358 162.436 96.5462 162.436H118.224C118.535 162.436 118.786 162.688 118.786 162.998V163.999C118.786 164.309 118.534 164.561 118.224 164.561Z" fill="#8E5E24"/>
<path d="M113.605 161.787H101.168V160.823C101.168 160.312 101.582 159.897 102.093 159.897H112.679C113.19 159.897 113.605 160.311 113.605 160.823V161.787Z" fill="#6B3B1B"/>
<path d="M115.751 162.436H99.0195C99.0195 161.849 99.6164 161.373 100.352 161.373H114.418C115.155 161.373 115.751 161.849 115.751 162.436Z" fill="#D3AB5B"/>
<path d="M130.796 148.968L122.238 146.653L118.594 160.128L127.152 162.442L130.796 148.968Z" fill="#A26429"/>
<path d="M130.476 150.158L121.918 147.843L118.917 158.938L127.475 161.253L130.476 150.158Z" fill="#DCA436"/>
<path d="M132.042 147.181L122.056 144.48C121.375 144.295 120.673 144.698 120.488 145.38C120.376 145.796 120.622 146.225 121.038 146.337L131.985 149.298C132.401 149.411 132.829 149.165 132.942 148.749C133.127 148.068 132.724 147.365 132.042 147.181Z" fill="#8F5726"/>
<path d="M153.386 160.078L130.43 153.838L129.703 158.145L152.266 164.22C153.428 164.584 154.66 163.908 154.978 162.732V162.731C155.297 161.555 154.573 160.35 153.386 160.078Z" fill="#874F24"/>
<path d="M117.327 161.815L127.313 164.516C127.995 164.7 128.697 164.298 128.881 163.615C128.994 163.199 128.748 162.771 128.332 162.659L117.384 159.697C116.968 159.584 116.54 159.83 116.428 160.247C116.243 160.929 116.645 161.631 117.327 161.815Z" fill="#8F5726"/>
<path d="M129.509 150.599L122.446 148.688C121.296 148.377 120.111 149.057 119.8 150.207L118.271 155.862C117.96 157.012 118.64 158.196 119.79 158.507L126.853 160.418C128.003 160.729 129.188 160.049 129.499 158.899L131.029 153.244C131.339 152.095 130.659 150.91 129.509 150.599Z" fill="#B3742D"/>
<path d="M195.521 155.038H170.688V163.681H195.521V155.038Z" fill="#ECEDEE"/>
<path d="M195.521 156.773H170.688" stroke="#999CA5" stroke-width="0.482914" stroke-miterlimit="10"/>
<path d="M195.521 158.162H170.688" stroke="#999CA5" stroke-width="0.482914" stroke-miterlimit="10"/>
<path d="M195.521 159.55H170.688" stroke="#999CA5" stroke-width="0.482914" stroke-miterlimit="10"/>
<path d="M195.521 160.939H170.688" stroke="#999CA5" stroke-width="0.482914" stroke-miterlimit="10"/>
<path d="M195.52 164.561H172.364C170.774 164.561 169.48 163.173 169.48 161.467V156.673C169.48 154.967 170.774 153.579 172.364 153.579H195.52C196.06 153.579 196.498 154.049 196.498 154.628C196.498 155.208 196.06 155.678 195.52 155.678H172.364C171.853 155.678 171.437 156.124 171.437 156.672V161.466C171.437 162.015 171.853 162.461 172.364 162.461H195.52C196.06 162.461 196.498 162.931 196.498 163.51C196.498 164.091 196.06 164.561 195.52 164.561Z" fill="#A01127"/>
<path d="M179.092 168.686L177.298 167.312L175.133 168.686V160.939H179.092V168.686Z" fill="#C49E53"/>
<path d="M255.133 26.9703V36.5853" stroke="#F1F1F1" stroke-width="2.08146" stroke-miterlimit="10" stroke-linecap="round"/>
<path d="M255.133 44.6075V54.2232" stroke="#F1F1F1" stroke-width="2.08146" stroke-miterlimit="10" stroke-linecap="round"/>
<path d="M241.508 40.5964H251.123" stroke="#F1F1F1" stroke-width="2.08146" stroke-miterlimit="10" stroke-linecap="round"/>
<path d="M259.145 40.5964H268.76" stroke="#F1F1F1" stroke-width="2.08146" stroke-miterlimit="10" stroke-linecap="round"/>
<path d="M47.9883 26.9703V36.5853" stroke="#F1F1F1" stroke-width="2.08146" stroke-miterlimit="10" stroke-linecap="round"/>
<path d="M47.9883 44.6075V54.2232" stroke="#F1F1F1" stroke-width="2.08146" stroke-miterlimit="10" stroke-linecap="round"/>
<path d="M34.3633 40.5964H43.9783" stroke="#F1F1F1" stroke-width="2.08146" stroke-miterlimit="10" stroke-linecap="round"/>
<path d="M52 40.5964H61.615" stroke="#F1F1F1" stroke-width="2.08146" stroke-miterlimit="10" stroke-linecap="round"/>
<path d="M25.5469 218.793V228.125" stroke="#F1F1F1" stroke-width="2.01991" stroke-miterlimit="10" stroke-linecap="round"/>
<path d="M25.5469 235.909V245.24" stroke="#F1F1F1" stroke-width="2.01991" stroke-miterlimit="10" stroke-linecap="round"/>
<path d="M12.3242 232.017H21.6556" stroke="#F1F1F1" stroke-width="2.01991" stroke-miterlimit="10" stroke-linecap="round"/>
<path d="M29.4414 232.017H38.7728" stroke="#F1F1F1" stroke-width="2.01991" stroke-miterlimit="10" stroke-linecap="round"/>
<path d="M280.773 218.793V228.125" stroke="#F1F1F1" stroke-width="2.01991" stroke-miterlimit="10" stroke-linecap="round"/>
<path d="M280.773 235.909V245.24" stroke="#F1F1F1" stroke-width="2.01991" stroke-miterlimit="10" stroke-linecap="round"/>
<path d="M267.551 232.017H276.882" stroke="#F1F1F1" stroke-width="2.01991" stroke-miterlimit="10" stroke-linecap="round"/>
<path d="M284.668 232.017H293.999" stroke="#F1F1F1" stroke-width="2.01991" stroke-miterlimit="10" stroke-linecap="round"/>
<path d="M78.5243 252.156C54.0489 234.204 36.5723 207.271 30.9492 176.213" stroke="#F1F1F1" stroke-width="2.74734" stroke-miterlimit="10" stroke-linecap="round" stroke-dasharray="7.71 7.71"/>
<path d="M47.9883 91.0218C62.6481 68.0911 84.8267 50.4298 111.047 41.5154" stroke="#F1F1F1" stroke-width="2.74734" stroke-miterlimit="10" stroke-linecap="round" stroke-dasharray="7.71 7.71"/>
<path d="M226.383 252.156C250.858 234.204 268.335 207.271 273.959 176.213" stroke="#F1F1F1" stroke-width="2.74734" stroke-miterlimit="10" stroke-linecap="round" stroke-dasharray="7.71 7.71"/>
<path d="M256.918 91.0218C242.259 68.0911 220.08 50.4298 193.859 41.5154" stroke="#F1F1F1" stroke-width="2.74734" stroke-miterlimit="10" stroke-linecap="round" stroke-dasharray="7.71 7.71"/>
</svg>
