<svg width="17" height="17" viewBox="0 0 17 17" fill="none" xmlns="http://www.w3.org/2000/svg">
<path d="M10.5816 6.37256L10.3438 12.5589M7.05261 12.5589L6.81478 6.37256M13.6665 4.16609C13.9016 4.20183 14.1353 4.23964 14.369 4.28019M13.6665 4.16609L12.9324 13.7089C12.9025 14.0974 12.7269 14.4603 12.441 14.725C12.155 14.9897 11.7796 15.1367 11.39 15.1366H6.00643C5.61675 15.1367 5.2414 14.9897 4.95542 14.725C4.66944 14.4603 4.49392 14.0974 4.46396 13.7089L3.72984 4.16609M13.6665 4.16609C12.8732 4.04615 12.0758 3.95513 11.2758 3.8932M3.72984 4.16609C3.49476 4.20115 3.26105 4.23895 3.02734 4.27951M3.72984 4.16609C4.52316 4.04615 5.32059 3.95513 6.12053 3.8932M11.2758 3.8932V3.26357C11.2758 2.45246 10.6503 1.77608 9.83923 1.75065C9.07873 1.72635 8.31765 1.72635 7.55715 1.75065C6.74604 1.77608 6.12053 2.45315 6.12053 3.26357V3.8932M11.2758 3.8932C9.55997 3.76059 7.83641 3.76059 6.12053 3.8932" stroke="#FF0000" stroke-width="1.03106" stroke-linecap="round" stroke-linejoin="round"/>
</svg>
