<svg width="17" height="17" viewBox="0 0 17 17" fill="none" xmlns="http://www.w3.org/2000/svg">
<path d="M11.7706 3.27025L12.9302 2.10996C13.1719 1.86823 13.4998 1.73242 13.8416 1.73242C14.1835 1.73242 14.5114 1.86823 14.7531 2.10996C14.9948 2.3517 15.1306 2.67956 15.1306 3.02142C15.1306 3.36328 14.9948 3.69115 14.7531 3.93288L7.45387 11.2321C7.09047 11.5953 6.64233 11.8623 6.14992 12.0089L4.30431 12.5588L4.85421 10.7132C5.00082 10.2207 5.26776 9.7726 5.63095 9.4092L11.7706 3.27025ZM11.7706 3.27025L13.5839 5.08355M12.5528 9.80925V13.0743C12.5528 13.4845 12.3899 13.8779 12.0998 14.1679C11.8098 14.4579 11.4164 14.6209 11.0062 14.6209H3.78878C3.3786 14.6209 2.98522 14.4579 2.69517 14.1679C2.40513 13.8779 2.24219 13.4845 2.24219 13.0743V5.85684C2.24219 5.44666 2.40513 5.05328 2.69517 4.76324C2.98522 4.47319 3.3786 4.31025 3.78878 4.31025H7.05382" stroke="#1D3856" stroke-width="1.03106" stroke-linecap="round" stroke-linejoin="round"/>
</svg>
