<svg width="25" height="16" viewBox="0 0 25 16" fill="none" xmlns="http://www.w3.org/2000/svg">
<path d="M11.0824 0.203926C6.77252 0.738858 3.02192 3.34665 1.11926 7.1398C0.699829 7.97867 0.699829 8.16103 1.11926 8.9999C2.77877 12.3128 5.96404 14.8112 9.60522 15.6622C10.9608 15.9783 12.8452 16.0695 14.1825 15.8811C18.3526 15.2914 21.9816 12.708 23.8417 8.9999C24.2611 8.16103 24.2611 7.96651 23.8417 7.13372C22.0363 3.56549 18.6808 1.08535 14.5959 0.313344C14.1096 0.216084 11.5991 0.143139 11.0824 0.203926ZM14.5473 2.35581C16.7235 2.79956 18.62 3.85119 20.2188 5.51069C20.8874 6.20975 21.6655 7.26138 21.939 7.83886C22.0424 8.05769 22.0424 8.08201 21.939 8.29477C21.7384 8.72028 20.9421 9.85701 20.4923 10.3615C18.8146 12.2399 16.4742 13.5103 14.0366 13.8751C13.2403 13.9906 11.7206 13.9906 10.9608 13.8751C9.78151 13.6988 8.41378 13.2429 7.44118 12.708C5.68442 11.7353 4.05531 10.1427 3.11918 8.47713C2.99152 8.24614 2.93682 8.08201 2.96113 7.99083C2.97937 7.9118 3.14957 7.60786 3.33193 7.31001C4.98536 4.67182 7.57491 2.89074 10.5839 2.31934C11.7267 2.1005 13.3801 2.11874 14.5473 2.35581Z" fill="#68B961"/>
<path d="M11.4847 4.15034C10.044 4.51506 8.89515 5.68827 8.55474 7.14717C8.40885 7.76112 8.46356 8.81883 8.67024 9.39631C9.08359 10.5817 10.0015 11.4874 11.2051 11.9129C11.5455 12.0345 11.7157 12.0527 12.4816 12.0527C13.2475 12.0527 13.4178 12.0345 13.7582 11.9129C14.9557 11.4874 15.8979 10.5452 16.3234 9.34768C16.4389 9.00727 16.4632 8.83099 16.4632 8.07114C16.4632 7.26874 16.445 7.15325 16.2991 6.74597C16.0681 6.11378 15.7946 5.68219 15.3326 5.2202C14.8584 4.75214 14.4268 4.47251 13.8068 4.25976C13.436 4.12602 13.2354 4.09563 12.6032 4.08347C12.0743 4.06523 11.7339 4.08955 11.4847 4.15034ZM13.3813 6.27791C13.7521 6.47851 14.1107 6.84931 14.3174 7.23227C14.4329 7.45111 14.4572 7.58484 14.4572 8.07114C14.4572 8.59392 14.439 8.67902 14.2809 8.9708C14.0743 9.3416 13.7035 9.70025 13.3205 9.90693C13.1017 10.0224 12.9679 10.0467 12.4816 10.0467C11.9953 10.0467 11.8616 10.0224 11.6428 9.90693C11.2598 9.70025 10.889 9.3416 10.6823 8.9708C10.5243 8.67902 10.506 8.59392 10.506 8.07114C10.506 7.42679 10.5972 7.17756 10.9984 6.73381C11.4422 6.24143 11.892 6.05299 12.5728 6.08338C12.974 6.10162 13.1199 6.13202 13.3813 6.27791Z" fill="#68B961"/>
</svg>
