<svg width="24" height="24" viewBox="0 0 24 24" fill="none" xmlns="http://www.w3.org/2000/svg">
<g clip-path="url(#clip0_995_11475)">
<path d="M1.52585 0.990854C1.24186 1.12193 1.00156 1.36223 0.870484 1.64622L0.765625 1.86905V12.0709V22.2728L0.870484 22.4956C1.00156 22.7796 1.24186 23.0199 1.52585 23.151L1.74868 23.2559H9.59124H17.4338L17.6566 23.151C17.9406 23.0199 18.1809 22.7796 18.312 22.4956C18.4081 22.2859 18.4168 22.2247 18.4168 21.4645V20.6606L19.6315 21.8665C20.75 22.9806 20.8636 23.0767 21.1039 23.1685C21.4665 23.3039 22.0083 23.2777 22.3272 23.116C22.6025 22.9719 22.8515 22.7272 22.9869 22.4607C23.0787 22.2815 23.0918 22.1942 23.0918 21.7835C23.0918 21.4034 23.0743 21.2723 23 21.115C22.9345 20.9664 22.4583 20.464 21.0951 19.0965L19.2776 17.2745L19.4523 16.8901C19.6751 16.4138 19.8412 15.8895 19.9242 15.4046C20.0116 14.9152 20.0072 13.9496 19.9198 13.4516C19.7451 12.4467 19.2863 11.4724 18.6309 10.7121L18.4168 10.4631V7.9159V5.36434L16.1755 3.12735L13.9385 0.885996H7.84359H1.74868L1.52585 0.990854ZM13.2613 3.40697C13.2613 5.05413 13.2613 5.0585 13.3661 5.28132C13.4972 5.56532 13.7375 5.80562 14.0215 5.93669C14.2443 6.04155 14.2487 6.04155 15.874 6.04155H17.4993V7.85473C17.4993 8.85089 17.4906 9.66791 17.4775 9.66791C17.4644 9.66791 17.2852 9.57179 17.0799 9.45383C16.6692 9.2179 16.1449 9.01255 15.5988 8.87274C15.092 8.74603 13.9472 8.71545 13.3749 8.81157C10.95 9.22663 9.10626 11.0704 8.6912 13.4953C8.58634 14.1113 8.62566 15.2167 8.76984 15.7716L8.8747 16.1779H6.12653H3.37836L3.25165 16.3046C3.15116 16.4095 3.12495 16.4706 3.12495 16.6235C3.12495 16.7808 3.15116 16.842 3.26039 16.9469L3.39146 17.0736L6.32751 17.0823L9.25918 17.0954L9.45142 17.41C10.1243 18.5241 11.2297 19.4067 12.4749 19.8217C13.1084 20.0315 13.5977 20.1101 14.3099 20.1101C15.2318 20.1101 15.9483 19.9528 16.7697 19.5727L17.1542 19.3979L17.3246 19.564L17.4993 19.7344V20.9228V22.1068L17.3857 22.2204C17.3158 22.2903 17.2022 22.3427 17.093 22.3602C16.9925 22.3733 13.5497 22.382 9.43832 22.3733C3.12932 22.3602 1.95402 22.3515 1.87538 22.299C1.64819 22.1461 1.66129 22.7927 1.64819 12.2238C1.63945 6.81488 1.64819 2.31033 1.66129 2.20984C1.68751 2.01323 1.8448 1.82099 2.00208 1.7904C2.05451 1.78166 4.61045 1.76856 7.68193 1.76419L13.2613 1.75982V3.40697ZM15.8085 5.15899C15.2361 5.16773 14.6856 5.15899 14.5851 5.14588C14.371 5.1153 14.2007 4.96238 14.1613 4.77014C14.1482 4.69149 14.1351 4.13662 14.1351 3.53368V2.43703L15.4895 3.79146L16.844 5.14588L15.8085 5.15899ZM15.1706 9.73345C16.6386 10.0131 17.8751 10.9393 18.5567 12.2675C18.928 12.9972 19.0722 13.6001 19.0722 14.4302C19.0722 15.2604 18.928 15.8633 18.5567 16.593C17.8751 17.9212 16.6386 18.8474 15.1706 19.127C14.7249 19.2101 13.8948 19.2101 13.4492 19.127C11.5049 18.76 9.98009 17.2352 9.61308 15.291C9.53007 14.8453 9.53007 14.0152 9.61308 13.5695C9.98009 11.6384 11.4918 10.1179 13.4186 9.73782C13.8336 9.65481 14.7424 9.65481 15.1706 9.73345ZM20.4834 19.7955L22.218 21.5344V21.766C22.218 21.9801 22.2049 22.015 22.0476 22.1679C21.8947 22.3252 21.8597 22.3383 21.6456 22.3383H21.4141L19.6708 20.5994L17.9275 18.8562L18.3164 18.4629C18.5261 18.2445 18.7096 18.0654 18.7227 18.061C18.7358 18.061 19.5266 18.8387 20.4834 19.7955Z" fill="white"/>
<path d="M3.44616 4.06229C3.12721 4.12346 3.01362 4.58221 3.25392 4.82251L3.38062 4.94922H7.75847H12.1363L12.263 4.82251C12.5164 4.56474 12.3897 4.12783 12.0358 4.05792C11.8873 4.02734 3.59908 4.03171 3.44616 4.06229Z" fill="white"/>
<path d="M3.25209 7.21596C3.07296 7.3951 3.07296 7.67909 3.24772 7.84075C3.57977 8.16406 4.0997 7.8757 4.00795 7.41694C3.94678 7.08926 3.50113 6.97129 3.25209 7.21596Z" fill="white"/>
<path d="M5.15292 7.16893C4.85145 7.40924 4.93447 7.85925 5.2971 7.95974C5.47624 8.01217 11.7896 8.02965 12.0343 7.98159C12.3882 7.91168 12.5149 7.47477 12.2615 7.21699L12.1348 7.09029H8.68754C5.48934 7.09029 5.23593 7.09903 5.15292 7.16893Z" fill="white"/>
<path d="M3.3653 10.1564C3.21238 10.2394 3.125 10.3836 3.125 10.554C3.125 10.7593 3.22112 10.9123 3.39589 10.9734C3.48764 11.004 4.26534 11.0215 5.68967 11.0215C8.00967 11.0215 8.03588 11.0171 8.15385 10.7987C8.21502 10.6807 8.21502 10.4448 8.15385 10.3268C8.03152 10.104 8.01404 10.104 5.65035 10.104C4.13863 10.1083 3.42647 10.1214 3.3653 10.1564Z" fill="white"/>
<path d="M3.44616 13.1502C3.12721 13.2113 3.01362 13.6701 3.25392 13.9104L3.38062 14.0371H5.52586H7.67109L7.80653 13.9148C7.92013 13.8143 7.94635 13.7575 7.94635 13.6177C7.94635 13.5216 7.92013 13.3992 7.89392 13.3424C7.77595 13.1283 7.69294 13.1196 5.54333 13.124C4.44232 13.1283 3.49859 13.1414 3.44616 13.1502Z" fill="white"/>
<path d="M3.3653 19.2452C3.21238 19.3282 3.125 19.4723 3.125 19.6427C3.125 19.8481 3.22112 20.001 3.39589 20.0622C3.58813 20.1277 7.33246 20.1277 7.46353 20.0622C7.68636 19.9486 7.78685 19.6296 7.66888 19.4068C7.55528 19.1971 7.49848 19.1927 5.41005 19.1927C4.0731 19.1971 3.42647 19.2102 3.3653 19.2452Z" fill="white"/>
<path d="M8.83862 19.261C8.68134 19.344 8.62891 19.4488 8.62891 19.6717C8.62891 19.8027 8.65512 19.877 8.73376 19.9556C9.0265 20.2484 9.50273 20.0736 9.50273 19.6717C9.50273 19.4445 9.44593 19.3396 9.28427 19.2566C9.12699 19.1736 8.99154 19.1736 8.83862 19.261Z" fill="white"/>
<path d="M13.4889 10.6502C12.9122 10.7769 12.4709 10.9866 11.951 11.3755C11.2388 11.9129 10.7145 12.7474 10.531 13.6212C10.448 14.0363 10.448 14.8227 10.531 15.2378C10.7932 16.5048 11.7369 17.5971 12.9733 18.0558C13.751 18.3486 14.8695 18.3486 15.6472 18.0558C16.4555 17.7544 17.1808 17.1558 17.6221 16.4218C17.9847 15.8276 18.1551 15.1853 18.1551 14.4295C18.1551 14.163 18.1245 13.8003 18.0896 13.6212C17.9061 12.7343 17.3862 11.9172 16.6609 11.3711C16.141 10.9779 15.704 10.7769 15.1142 10.6502C14.7385 10.5716 13.8603 10.5716 13.4889 10.6502ZM15.1623 11.6114C16.1497 11.9566 16.8051 12.6163 17.1371 13.5993C17.2507 13.9401 17.2507 14.9188 17.1371 15.2596C16.8007 16.2514 16.1322 16.9199 15.1404 17.2563C14.9526 17.3175 14.7691 17.3349 14.3103 17.3349C13.8515 17.3349 13.668 17.3175 13.4802 17.2563C12.4971 16.9242 11.833 16.2645 11.4922 15.2815C11.3917 14.9975 11.3568 14.211 11.4223 13.8571C11.6408 12.7648 12.5146 11.8517 13.6331 11.5633C13.9477 11.4803 14.8783 11.5109 15.1623 11.6114Z" fill="white"/>
<path d="M13.9886 12.5778C13.8968 12.6695 13.875 12.7351 13.875 12.9011C13.875 13.1938 14.0017 13.3118 14.3818 13.373C14.9498 13.4647 15.2775 13.7924 15.3692 14.3604C15.4304 14.7405 15.5484 14.8672 15.8411 14.8672C16.0071 14.8672 16.0727 14.8453 16.1644 14.7536C16.2649 14.6487 16.278 14.6007 16.278 14.3429C16.278 13.3467 15.3955 12.4642 14.3993 12.4642C14.1415 12.4642 14.0935 12.4773 13.9886 12.5778Z" fill="white"/>
</g>
<defs>
<clipPath id="clip0_995_11475">
<rect width="22.3699" height="22.3699" fill="white" transform="translate(0.722656 0.884766)"/>
</clipPath>
</defs>
</svg>
