<svg width="21" height="21" viewBox="0 0 21 21" fill="none" xmlns="http://www.w3.org/2000/svg">
<g clip-path="url(#clip0_995_12932)" filter="url(#filter0_d_995_12932)">
<path d="M9.89062 0.849414C8.17676 1.07285 6.71934 1.96914 5.79766 3.36309C5.58945 3.67539 5.32031 4.20098 5.21621 4.48789C5.18574 4.57676 5.15273 4.6377 5.14258 4.62754C5.13242 4.61738 4.99023 4.26953 4.82773 3.8582C4.64492 3.39863 4.50527 3.08379 4.46465 3.04062C4.29961 2.86543 4 2.98477 4 3.22598C4 3.29199 4.13711 3.66777 4.43164 4.40918C4.67031 5.00586 4.87852 5.52129 4.89375 5.55176C4.93691 5.63555 5.03086 5.68887 5.1375 5.69141C5.27207 5.69141 7.39219 4.72656 7.4709 4.62754C7.62832 4.43203 7.43281 4.11973 7.19414 4.1832C7.16113 4.19082 6.81582 4.34316 6.4248 4.5209C6.03379 4.69863 5.71133 4.84082 5.70625 4.83574C5.69355 4.82305 5.85352 4.44219 5.97793 4.1959C6.57461 3.00508 7.64355 2.08086 8.91309 1.6543C11.6756 0.725 14.6615 2.20781 15.5527 4.95C15.6746 5.32324 15.7 5.36641 15.8193 5.40703C15.9971 5.46543 16.1875 5.33848 16.1875 5.1582C16.1875 5.10996 16.152 4.95762 16.1113 4.82051C15.6111 3.20312 14.3771 1.86758 12.7852 1.23027C12.3129 1.04238 11.8355 0.917968 11.315 0.849414C10.9672 0.80371 10.2359 0.80371 9.89062 0.849414Z" fill="#92C9E3"/>
<path d="M14.6644 7.80973C14.0728 8.08141 13.5675 8.32263 13.5421 8.34802C13.4355 8.45466 13.4431 8.65016 13.5599 8.75934C13.6818 8.8736 13.7681 8.85075 14.5628 8.48766C14.9614 8.30485 15.2915 8.16013 15.2966 8.1652C15.3144 8.18044 15.1646 8.54098 15.03 8.80251C14.6872 9.48044 14.1667 10.1025 13.5599 10.5646C12.9759 11.009 12.2472 11.3441 11.5286 11.5015C9.91125 11.8519 8.26594 11.4381 6.98879 10.359C6.27531 9.7572 5.69133 8.86598 5.42219 7.97223C5.34347 7.70817 5.30539 7.6447 5.19875 7.59899C5.12765 7.56852 5.08703 7.56598 5.01594 7.58884C4.81027 7.64977 4.77219 7.79704 4.87629 8.13727C5.38156 9.7902 6.61047 11.1232 8.22277 11.7707C9.42375 12.2531 10.7872 12.3216 12.0339 11.9611C13.7198 11.4736 15.1062 10.2218 15.746 8.60954C15.8323 8.38864 15.8552 8.35309 15.8755 8.39372C15.8907 8.41911 16.0304 8.76696 16.1878 9.16559C16.5128 9.98063 16.5433 10.0289 16.7286 10.0289C16.8226 10.0289 16.8581 10.0136 16.9216 9.95016C17.0587 9.81559 17.0486 9.78259 16.5585 8.55622C16.2894 7.88337 16.0913 7.4238 16.0532 7.38063C15.9999 7.32223 15.972 7.31208 15.8679 7.31462C15.7638 7.31462 15.5759 7.39333 14.6644 7.80973Z" fill="#92C9E3"/>
</g>
<defs>
<filter id="filter0_d_995_12932" x="0" y="0" width="21" height="21" filterUnits="userSpaceOnUse" color-interpolation-filters="sRGB">
<feFlood flood-opacity="0" result="BackgroundImageFix"/>
<feColorMatrix in="SourceAlpha" type="matrix" values="0 0 0 0 0 0 0 0 0 0 0 0 0 0 0 0 0 0 127 0" result="hardAlpha"/>
<feOffset dy="4"/>
<feGaussianBlur stdDeviation="2"/>
<feComposite in2="hardAlpha" operator="out"/>
<feColorMatrix type="matrix" values="0 0 0 0 0 0 0 0 0 0 0 0 0 0 0 0 0 0 0.25 0"/>
<feBlend mode="normal" in2="BackgroundImageFix" result="effect1_dropShadow_995_12932"/>
<feBlend mode="normal" in="SourceGraphic" in2="effect1_dropShadow_995_12932" result="shape"/>
</filter>
<clipPath id="clip0_995_12932">
<rect width="13" height="13" fill="white" transform="translate(4)"/>
</clipPath>
</defs>
</svg>
