<svg width="14" height="14" viewBox="0 0 14 14" fill="none" xmlns="http://www.w3.org/2000/svg">
<g clip-path="url(#clip0_1476_1529)">
<path d="M3.31226 2.69689C3.06069 2.72664 2.77395 2.80238 2.48721 2.90788C1.93537 3.11617 1.56207 3.12699 1.205 2.94846C1.11573 2.90247 1.01294 2.86731 0.972365 2.86731C0.826291 2.86731 0.815471 2.90788 0.753254 3.6653C0.701858 4.29018 0.699153 4.41461 0.726203 4.78521C0.764074 5.28835 0.858752 5.81043 0.983186 6.22431C1.03458 6.39473 1.08868 6.61113 1.10762 6.70852C1.19148 7.20625 1.40518 7.63636 1.74331 8.00154C1.82988 8.09352 1.8948 8.17467 1.88939 8.17737C1.73249 8.28017 1.416 8.54527 1.25099 8.71839C0.674807 9.31892 0.344787 10.0385 0.258225 10.8933C0.241994 11.0393 0.247405 11.0691 0.296096 11.1178C0.417824 11.2395 0.620705 11.1503 0.620705 10.9717C0.620705 10.7418 0.796535 10.0709 0.912854 9.85452L0.95884 9.76526L1.3105 9.97625L1.66216 10.1872L1.67569 10.6417C1.68921 11.0502 1.69462 11.0989 1.74061 11.134C1.81635 11.1881 1.93808 11.18 2.0003 11.1178C2.05169 11.0664 2.0544 11.0285 2.0544 10.5605C2.0544 10.2765 2.04358 10.0385 2.02735 10.0087C2.01112 9.98166 1.80553 9.841 1.56748 9.69763L1.13467 9.43794L1.22123 9.3108C1.35919 9.11333 1.83258 8.65347 2.03276 8.52633L2.21129 8.41001L2.39794 8.50469C2.82264 8.7238 3.20405 8.80766 3.69908 8.78331C4.07239 8.76708 4.39158 8.68322 4.70267 8.52092C4.92719 8.4019 4.91366 8.4019 5.15171 8.56961C5.41681 8.75897 5.97676 9.34597 5.97676 9.43253C5.97676 9.44335 5.80364 9.55696 5.58993 9.6841C5.37894 9.81124 5.17876 9.94109 5.1463 9.97355C5.08679 10.0304 5.08408 10.0493 5.08408 10.5497C5.08408 11.0285 5.08679 11.0664 5.13819 11.1178C5.20852 11.1881 5.33295 11.1881 5.39787 11.1151C5.44386 11.0664 5.45197 11.0015 5.4628 10.6228L5.47632 10.1872L5.82798 9.97625L6.17964 9.76526L6.24186 9.90592C6.35277 10.1548 6.43121 10.428 6.4772 10.731C6.50425 10.8906 6.53401 11.0502 6.54753 11.0826C6.57188 11.153 6.67467 11.1854 6.77476 11.1611C6.86132 11.1394 6.88296 11.0826 6.92083 10.7878C6.956 10.5092 7.05609 10.1548 7.15888 9.92756L7.23462 9.76526L7.58628 9.97625L7.93794 10.1872L7.95147 10.6417C7.9677 11.1476 7.97581 11.1719 8.15705 11.1719C8.31395 11.1719 8.33018 11.1178 8.33018 10.5551C8.33018 10.2738 8.31936 10.0385 8.30313 10.0087C8.2869 9.98166 8.08131 9.841 7.84326 9.69763L7.41045 9.43794L7.49701 9.3108C7.63497 9.11063 8.08131 8.67781 8.2869 8.53986L8.47355 8.41542L8.63856 8.50739C9.05243 8.73733 9.62862 8.85094 10.102 8.79413C10.4077 8.75897 10.781 8.64265 11.0271 8.50739L11.1949 8.41542L11.3518 8.52092C11.6439 8.71569 11.9198 8.98078 12.166 9.29457C12.2147 9.35679 12.2525 9.41901 12.2525 9.42983C12.2525 9.44335 12.0767 9.55696 11.8657 9.6841C11.6547 9.81124 11.4545 9.94109 11.4221 9.97355C11.3626 10.0304 11.3599 10.0493 11.3599 10.5497C11.3599 11.0285 11.3626 11.0664 11.414 11.1178C11.5168 11.2206 11.6926 11.1719 11.7251 11.0285C11.7332 10.9961 11.7413 10.7932 11.7467 10.5795L11.7521 10.1872L11.982 10.0493C12.1092 9.97355 12.2688 9.87616 12.3364 9.83829L12.4635 9.76255L12.5582 10.0006C12.6664 10.2792 12.7584 10.6255 12.7827 10.8743C12.8044 11.0989 12.8477 11.1719 12.964 11.1719C13.1371 11.1719 13.1777 11.0907 13.1452 10.8175C13.0451 10.0222 12.7395 9.34326 12.2255 8.78602C12.0551 8.59937 11.7575 8.33968 11.5763 8.21795L11.5086 8.17467L11.6331 8.04212C11.8035 7.86359 11.9063 7.72563 12.0172 7.52545L12.1119 7.35233L12.1416 7.447C12.1876 7.57955 12.358 7.7662 12.5149 7.85277C12.7124 7.95826 12.9532 8.00695 13.3048 8.00695H13.6132L13.5943 7.74186C13.5672 7.30634 13.4725 7.03854 13.2697 6.82213C13.0803 6.61925 12.7665 6.49211 12.4554 6.49211C12.3039 6.49211 12.3012 6.47318 12.4257 6.11881C12.5474 5.76715 12.588 5.51017 12.5636 5.23695C12.5122 4.6229 12.3202 4.17115 11.9306 3.75457C11.533 3.32987 11.0677 3.08101 10.4428 2.95657C10.1101 2.89165 9.50689 2.89706 9.16875 2.96739C7.97581 3.22167 7.19946 4.09 7.12101 5.24777C7.10207 5.55615 7.13183 5.75633 7.26167 6.17021C7.31307 6.33522 7.35635 6.47318 7.35635 6.47588C7.35635 6.48129 7.26167 6.49211 7.14535 6.50023C6.85591 6.52187 6.65844 6.60031 6.4772 6.76532C6.22833 6.99526 6.08767 7.37667 6.08496 7.83653V8.00695H6.39064C6.97493 8.00695 7.36176 7.83653 7.50513 7.52004C7.53218 7.46053 7.56194 7.41184 7.57005 7.41184C7.57817 7.41184 7.64038 7.50381 7.70801 7.61742C7.77293 7.72833 7.90278 7.90146 7.99475 8.00154L8.15976 8.18278L7.95417 8.33427C7.44291 8.71569 6.97764 9.32974 6.77476 9.88698C6.72336 10.0276 6.68008 10.098 6.68008 10.0412C6.68008 10.0222 6.64221 9.91133 6.59893 9.79772C6.39605 9.26752 5.93618 8.68863 5.42492 8.31263C5.33295 8.245 5.2545 8.18549 5.24909 8.18008C5.24368 8.17467 5.3032 8.10163 5.37894 8.01778C5.72789 7.63636 5.93618 7.21707 6.02004 6.72745C6.04168 6.58949 6.09037 6.38391 6.12554 6.27029C6.30948 5.686 6.40957 5.05842 6.40957 4.51199C6.40957 4.07648 6.37441 3.91688 6.21751 3.67612C6.11201 3.51111 5.81175 3.22979 5.61698 3.11617C5.13278 2.82673 4.48356 2.67525 3.77212 2.68336C3.56383 2.68336 3.35824 2.69148 3.31226 2.69689ZM4.17788 3.05666C5.05974 3.15404 5.74412 3.51382 5.97135 3.99262C6.04168 4.14681 6.04439 4.16845 6.04168 4.55798C6.03898 4.97456 5.9984 5.29106 5.8902 5.73739C5.85774 5.86994 5.82257 5.97544 5.81175 5.97274C5.79822 5.96733 5.63863 5.75092 5.45739 5.49123C5.06785 4.9394 5.09761 4.95563 4.69726 5.08277C4.39158 5.18015 3.98312 5.26671 3.70449 5.29106C3.43669 5.3127 2.98224 5.24777 2.57377 5.12334C2.40065 5.06924 2.20047 5.02055 2.13284 5.01243L2.00841 4.99891L1.65946 5.49935C1.46739 5.77527 1.3078 5.99708 1.30509 5.99438C1.28615 5.97815 1.205 5.61837 1.16172 5.34245C1.08327 4.87988 1.06704 4.41191 1.10762 3.83572L1.14279 3.33799L1.32132 3.38668C1.70274 3.48406 2.17342 3.43537 2.65222 3.24602C3.12831 3.05666 3.61793 2.99444 4.17788 3.05666ZM10.5348 3.35422C10.8243 3.42996 11.2544 3.64366 11.4518 3.80867C11.909 4.19009 12.1606 4.69053 12.1903 5.27753C12.2038 5.53451 12.1984 5.59132 12.1335 5.81855C12.0929 5.95921 12.0497 6.08364 12.0388 6.09446C12.0118 6.12152 11.6304 5.98085 11.3193 5.82937C10.6836 5.51828 10.2481 5.1017 10.0722 4.63102C9.9911 4.41732 9.9424 4.3551 9.85314 4.3551C9.74764 4.3551 9.68813 4.40109 9.65296 4.50929C9.45008 5.13957 8.89283 5.6319 7.99204 5.98356C7.59981 6.13775 7.63768 6.14316 7.57005 5.93216C7.48078 5.65354 7.46996 5.22072 7.543 4.91505C7.64038 4.50929 7.84056 4.16574 8.14082 3.88442C8.41945 3.62743 8.78463 3.44078 9.18228 3.3461C9.47713 3.27577 9.48254 3.27577 9.91265 3.28659C10.221 3.292 10.3698 3.30823 10.5348 3.35422ZM9.93158 5.17203C10.2427 5.64001 10.7702 6.02684 11.4654 6.30005C11.6547 6.37309 11.8414 6.44342 11.8819 6.45424C11.9577 6.47047 11.9577 6.47588 11.9415 6.61113C11.8495 7.27388 11.3869 7.91228 10.7783 8.21795C10.4428 8.38567 10.2508 8.42624 9.81797 8.42354C9.46631 8.42354 9.40409 8.41542 9.20933 8.3505C8.89554 8.245 8.62503 8.0827 8.3924 7.86359C8.01098 7.50111 7.80539 7.10616 7.72154 6.58138L7.7026 6.46777L7.81351 6.43801C7.99475 6.38932 8.51953 6.17291 8.70889 6.06741C9.1417 5.82666 9.53935 5.48582 9.7287 5.19097C9.78551 5.10441 9.8315 5.03137 9.8342 5.03137C9.83691 5.03137 9.88019 5.09629 9.93158 5.17203ZM2.45204 5.48041C2.58459 5.51828 2.83616 5.57238 3.0147 5.60485C3.54489 5.69411 4.1346 5.64813 4.70537 5.46689C4.80276 5.43713 4.89473 5.41008 4.91366 5.41008C4.92989 5.41008 5.10843 5.64542 5.31131 5.93486C5.57911 6.31899 5.6792 6.484 5.6792 6.5408C5.6792 6.77885 5.48444 7.27929 5.28426 7.5525C5.03269 7.89334 4.562 8.22607 4.16706 8.34238C3.4394 8.55609 2.62517 8.3505 2.08415 7.81489C1.79471 7.52545 1.62429 7.23601 1.51338 6.83566C1.416 6.48941 1.41329 6.50023 1.81635 5.92134C2.01382 5.64001 2.18424 5.41008 2.19506 5.41008C2.20588 5.41008 2.3222 5.43984 2.45204 5.48041ZM7.25626 6.93304C7.2752 7.06018 7.23192 7.27388 7.15888 7.37667C7.12642 7.42536 7.04527 7.49569 6.97764 7.53086C6.86132 7.59578 6.50425 7.67694 6.47449 7.64718C6.44474 7.61742 6.52048 7.34151 6.59352 7.20896C6.70443 7.00608 6.91001 6.88976 7.2238 6.84648C7.23462 6.84377 7.24815 6.88435 7.25626 6.93304ZM12.7503 6.91681C12.9829 6.98985 13.1506 7.22248 13.2101 7.55791L13.2291 7.6607L13.0857 7.64177C12.7719 7.59849 12.5826 7.4984 12.4987 7.33339C12.4365 7.21707 12.4013 7.00608 12.4257 6.9114C12.4392 6.85459 12.4527 6.84648 12.5312 6.86C12.5772 6.86812 12.6772 6.89517 12.7503 6.91681Z" fill="#21C033"/>
<path d="M8.74085 7.12279C8.72462 7.13902 8.70568 7.18772 8.69486 7.22559C8.66781 7.33379 8.80036 7.46363 9.06546 7.59889C9.55778 7.84505 10.0988 7.85317 10.583 7.61782C10.8616 7.48257 10.9807 7.37707 10.9807 7.26346C10.9807 7.06058 10.8211 7.03353 10.5749 7.19313C10.3179 7.36084 10.1772 7.39871 9.83099 7.39601C9.49556 7.39601 9.33055 7.34732 9.0871 7.1796C8.94643 7.08222 8.79495 7.05787 8.74085 7.12279Z" fill="#21C033"/>
<path d="M2.5418 7.09326C2.46064 7.12302 2.43359 7.16089 2.43359 7.25827C2.43359 7.36377 2.56073 7.47197 2.82583 7.60182C3.09904 7.73166 3.26946 7.76953 3.56973 7.76953C3.86999 7.76953 4.04041 7.73166 4.31362 7.60182C4.68422 7.42328 4.81406 7.25016 4.67881 7.1149C4.60036 7.03646 4.49216 7.04728 4.34608 7.15277C4.05935 7.35836 3.70769 7.44222 3.37496 7.38812C3.18561 7.35836 2.87182 7.23393 2.78525 7.15548C2.71492 7.09326 2.61483 7.06621 2.5418 7.09326Z" fill="#21C033"/>
</g>
<defs>
<clipPath id="clip0_1476_1529">
<rect width="13.85" height="13.85" fill="white"/>
</clipPath>
</defs>
</svg>
