<svg width="14" height="14" viewBox="0 0 14 14" fill="none" xmlns="http://www.w3.org/2000/svg">
<path d="M9.08864 3.46268C9.08864 4.03657 8.86066 4.58695 8.45486 4.99276C8.04906 5.39856 7.49867 5.62653 6.92479 5.62653C6.3509 5.62653 5.80051 5.39856 5.39471 4.99276C4.98891 4.58695 4.76093 4.03657 4.76093 3.46268C4.76093 2.88879 4.98891 2.33841 5.39471 1.93261C5.80051 1.5268 6.3509 1.29883 6.92479 1.29883C7.49867 1.29883 8.04906 1.5268 8.45486 1.93261C8.86066 2.33841 9.08864 2.88879 9.08864 3.46268ZM2.59766 11.6092C2.6162 10.4738 3.08025 9.39115 3.88972 8.59479C4.6992 7.79842 5.78925 7.35212 6.92479 7.35212C8.06032 7.35212 9.15037 7.79842 9.95985 8.59479C10.7693 9.39115 11.2334 10.4738 11.2519 11.6092C9.89439 12.2316 8.41822 12.5529 6.92479 12.5509C5.38066 12.5509 3.91501 12.2139 2.59766 11.6092Z" stroke="#1D3856" stroke-width="0.738595" stroke-linecap="round" stroke-linejoin="round"/>
</svg>
