<svg width="21" height="24" viewBox="0 0 21 24" fill="none" xmlns="http://www.w3.org/2000/svg">
<path d="M12.6679 20.5707H10.6994C7.84903 20.5707 5.43002 19.5774 3.44238 17.5906C1.45475 15.6039 0.460938 13.1863 0.460938 10.3377C0.460938 7.48912 1.4543 5.06965 3.44102 3.07929C5.42774 1.08893 7.8463 0.09375 10.6967 0.09375C12.1219 0.09375 13.4552 0.360406 14.6965 0.893717C15.9379 1.42612 17.0223 2.15601 17.9496 3.08339C18.877 4.01077 19.6069 5.09332 20.1393 6.33104C20.6717 7.56876 20.9379 8.90249 20.9379 10.3322C20.9379 12.9442 20.2672 15.3395 18.9257 17.5183C17.5842 19.697 15.8765 21.5081 13.8024 22.9515C13.6804 23.0216 13.5576 23.0603 13.4338 23.0676C13.3118 23.0739 13.1949 23.0466 13.0829 22.9856C12.971 22.9247 12.8818 22.8469 12.8154 22.7522C12.7489 22.6576 12.713 22.5379 12.7075 22.3932L12.6679 20.5707ZM14.1123 21.0485C15.7277 19.6834 17.0418 18.0853 18.0548 16.2542C19.0677 14.4231 19.5737 12.4491 19.5728 10.3322C19.5728 7.85225 18.7137 5.75359 16.9954 4.03625C15.2772 2.31891 13.1785 1.45979 10.6994 1.45888C8.22035 1.45797 6.12168 2.31709 4.40344 4.03625C2.68519 5.75541 1.82607 7.85407 1.82607 10.3322C1.82607 12.8104 2.68519 14.9095 4.40344 16.6296C6.12168 18.3497 8.22035 19.2083 10.6994 19.2056H14.1123V21.0485ZM10.7486 17.2548C11.0271 17.2548 11.2637 17.1565 11.4584 16.96C11.6532 16.7634 11.7501 16.5254 11.7492 16.246C11.7483 15.9666 11.65 15.73 11.4543 15.5361C11.2587 15.3423 11.0207 15.2449 10.7404 15.244C10.4601 15.2431 10.2234 15.3418 10.0305 15.5402C9.83757 15.7386 9.74019 15.9766 9.73837 16.2542C9.73655 16.5318 9.83484 16.7684 10.0332 16.964C10.2316 17.1597 10.4701 17.2566 10.7486 17.2548ZM7.91319 7.19516C8.07155 7.25614 8.22945 7.25205 8.38689 7.18288C8.54434 7.11371 8.67311 7.00223 8.77322 6.84842C8.95979 6.54081 9.22463 6.29509 9.56773 6.11125C9.91083 5.92923 10.3058 5.83822 10.7527 5.83822C11.4225 5.83822 11.9672 6.01342 12.3867 6.3638C12.8063 6.71418 13.0156 7.18834 13.0147 7.78627C13.0147 8.15576 12.925 8.5016 12.7458 8.82377C12.5665 9.14503 12.2607 9.5218 11.8284 9.95409C11.2423 10.5247 10.8214 11.0143 10.5656 11.423C10.3099 11.8316 10.1825 12.2284 10.1834 12.6134C10.1834 12.7927 10.2417 12.9456 10.3581 13.0721C10.4746 13.1986 10.6157 13.2623 10.7813 13.2632C10.947 13.2641 11.0858 13.2004 11.1977 13.0721C11.3096 12.9465 11.3761 12.7913 11.397 12.6065C11.4416 12.3244 11.594 12.0109 11.8543 11.666C12.1146 11.321 12.4313 10.9625 12.8045 10.5902C13.3177 10.077 13.685 9.59325 13.9061 9.13911C14.1273 8.68407 14.2378 8.22948 14.2378 7.77535C14.2378 6.83887 13.9148 6.08577 13.2686 5.51605C12.6224 4.94634 11.8011 4.66148 10.8045 4.66148C10.1347 4.66148 9.51768 4.82484 8.95342 5.15156C8.38917 5.47828 7.96507 5.8678 7.68112 6.32012C7.58101 6.50486 7.55143 6.68142 7.59238 6.84979C7.63334 7.01815 7.74027 7.13328 7.91319 7.19516Z" fill="#1D3856"/>
</svg>
