<svg width="22" height="22" viewBox="0 0 22 22" fill="none" xmlns="http://www.w3.org/2000/svg">
    <g clip-path="url(#clip0_995_16934)">
        <path d="M4.95195 0.778788C4.64688 0.899099 4.3332 1.21277 4.21719 1.52644C4.14414 1.7198 4.12695 1.8659 4.12695 2.25691V2.74676L3.02266 2.75965L1.91406 2.77254L1.65625 2.89715C1.32539 3.06043 0.998828 3.38699 0.835547 3.71785L0.710938 3.97566V11.3448V18.7139L0.835547 18.9718C0.998828 19.3026 1.32539 19.6292 1.65625 19.7925L1.91406 19.9171L7.05742 19.93C12.1664 19.9386 12.2051 19.9386 12.291 19.8526C12.3941 19.7495 12.407 19.4788 12.3168 19.3542C12.2566 19.2725 12.1406 19.2725 7.23359 19.2511C2.51992 19.2296 2.20625 19.2253 2.04297 19.1522C1.81094 19.0491 1.60039 18.8386 1.48867 18.6065L1.39844 18.4132L1.38555 12.9862L1.37695 7.56355H11.002H20.627V10.5714C20.627 13.5233 20.627 13.5792 20.7129 13.6651C20.8289 13.7811 21.1125 13.7811 21.2285 13.6651C21.3145 13.5792 21.3145 13.5405 21.3059 8.77527L21.293 3.97566L21.1684 3.71785C21.0051 3.38699 20.6785 3.06043 20.3477 2.89715L20.0898 2.77254L18.9855 2.75965L17.877 2.74676V2.25691C17.877 1.63816 17.791 1.38035 17.4902 1.07527C16.8027 0.392069 15.548 0.636992 15.2172 1.52644C15.1441 1.7198 15.127 1.8659 15.127 2.25691V2.75105H13.752H12.377V2.25691C12.377 1.8659 12.3598 1.7198 12.2867 1.52644C11.9559 0.636992 10.7012 0.392069 10.0137 1.07527C9.70859 1.38035 9.62695 1.63816 9.62695 2.25691V2.75105H8.25195H6.87695V2.25691C6.87695 1.63816 6.79531 1.38035 6.49023 1.07527C6.10781 0.697147 5.48047 0.576834 4.95195 0.778788ZM5.8457 1.51785C5.92734 1.56941 6.03047 1.68113 6.07773 1.76277C6.16367 1.90457 6.16797 1.98191 6.16797 3.0948C6.16797 4.2077 6.16367 4.28504 6.07773 4.42684C5.80703 4.8866 5.19688 4.8866 4.92617 4.42684C4.84023 4.28504 4.83594 4.2077 4.83594 3.0948C4.83594 1.98191 4.84023 1.90457 4.92617 1.76277C5.05508 1.54363 5.26133 1.41902 5.50195 1.41902C5.63945 1.41902 5.75117 1.4491 5.8457 1.51785ZM11.3457 1.51785C11.4273 1.56941 11.5305 1.68113 11.5777 1.76277C11.6637 1.90457 11.668 1.98191 11.668 3.0948C11.668 4.2077 11.6637 4.28504 11.5777 4.42684C11.307 4.8866 10.6969 4.8866 10.4262 4.42684C10.3402 4.28504 10.3359 4.2077 10.3359 3.0948C10.3359 1.98191 10.3402 1.90457 10.4262 1.76277C10.5551 1.54363 10.7613 1.41902 11.002 1.41902C11.1395 1.41902 11.2512 1.4491 11.3457 1.51785ZM16.8457 1.51785C16.9273 1.56941 17.0305 1.68113 17.0777 1.76277C17.1637 1.90457 17.168 1.98191 17.168 3.0948C17.168 4.2077 17.1637 4.28504 17.0777 4.42684C16.807 4.8866 16.1969 4.8866 15.9262 4.42684C15.8402 4.28504 15.8359 4.2077 15.8359 3.0948C15.8359 1.98191 15.8402 1.90457 15.9262 1.76277C16.0551 1.54363 16.2613 1.41902 16.502 1.41902C16.6395 1.41902 16.7512 1.4491 16.8457 1.51785ZM4.12695 3.9327C4.12695 4.55145 4.20859 4.80926 4.51367 5.11434C5.20117 5.79754 6.45586 5.55262 6.78672 4.66316C6.85977 4.4698 6.87695 4.32371 6.87695 3.9327V3.43855H8.25195H9.62695V3.9327C9.62695 4.32371 9.64414 4.4698 9.71719 4.66316C10.048 5.55262 11.3027 5.79754 11.9902 5.11434C12.2953 4.80926 12.377 4.55145 12.377 3.9327V3.43855H13.752H15.127V3.9327C15.127 4.55145 15.2086 4.80926 15.5137 5.11434C16.2012 5.79754 17.4559 5.55262 17.7867 4.66316C17.8598 4.4698 17.877 4.32371 17.877 3.9284V3.42996L18.8352 3.44715C19.9008 3.46434 20.034 3.49441 20.3133 3.7866C20.5926 4.08309 20.6012 4.13894 20.6184 5.5741L20.6355 6.87605H11.002H1.36836L1.38555 5.5741C1.40273 4.13894 1.41133 4.07879 1.69063 3.7909C1.98281 3.48582 2.15039 3.45144 3.28047 3.44285L4.12695 3.43855V3.9327Z" fill="#747688"/>
        <path d="M3.74688 9.36719C3.46758 9.53906 3.4375 9.64219 3.4375 10.4844C3.4375 11.3266 3.46758 11.4297 3.74688 11.6016C3.87578 11.6789 3.96602 11.6875 4.8125 11.6875C5.65898 11.6875 5.74922 11.6789 5.87812 11.6016C6.15742 11.4297 6.1875 11.3266 6.1875 10.4844C6.1875 9.64219 6.15742 9.53906 5.87812 9.36719C5.74922 9.28984 5.65898 9.28125 4.8125 9.28125C3.96602 9.28125 3.87578 9.28984 3.74688 9.36719ZM5.5 10.4844V11H4.8125H4.125V10.4844V9.96875H4.8125H5.5V10.4844Z" fill="#747688"/>
        <path d="M7.87188 9.36719C7.59258 9.53906 7.5625 9.64219 7.5625 10.4844C7.5625 11.3266 7.59258 11.4297 7.87188 11.6016C8.00078 11.6789 8.09102 11.6875 8.9375 11.6875C9.78398 11.6875 9.87422 11.6789 10.0031 11.6016C10.2824 11.4297 10.3125 11.3266 10.3125 10.4844C10.3125 9.64219 10.2824 9.53906 10.0031 9.36719C9.87422 9.28984 9.78398 9.28125 8.9375 9.28125C8.09102 9.28125 8.00078 9.28984 7.87188 9.36719ZM9.625 10.4844V11H8.9375H8.25V10.4844V9.96875H8.9375H9.625V10.4844Z" fill="#747688"/>
        <path d="M11.9969 9.36719C11.7176 9.53906 11.6875 9.64219 11.6875 10.4844C11.6875 11.3266 11.7176 11.4297 11.9969 11.6016C12.1258 11.6789 12.216 11.6875 13.0625 11.6875C13.909 11.6875 13.9992 11.6789 14.1281 11.6016C14.4074 11.4297 14.4375 11.3266 14.4375 10.4844C14.4375 9.64219 14.4074 9.53906 14.1281 9.36719C13.9992 9.28984 13.909 9.28125 13.0625 9.28125C12.216 9.28125 12.1258 9.28984 11.9969 9.36719ZM13.75 10.4844V11H13.0625H12.375V10.4844V9.96875H13.0625H13.75V10.4844Z" fill="#747688"/>
        <path d="M16.1219 9.36719C15.8426 9.53906 15.8125 9.64219 15.8125 10.4844C15.8125 11.3266 15.8426 11.4297 16.1219 11.6016C16.2508 11.6789 16.341 11.6875 17.1875 11.6875C18.034 11.6875 18.1242 11.6789 18.2531 11.6016C18.5324 11.4297 18.5625 11.3266 18.5625 10.4844C18.5625 9.64219 18.5324 9.53906 18.2531 9.36719C18.1242 9.28984 18.034 9.28125 17.1875 9.28125C16.341 9.28125 16.2508 9.28984 16.1219 9.36719ZM17.875 10.4844V11H17.1875H16.5V10.4844V9.96875H17.1875H17.875V10.4844Z" fill="#747688"/>
        <path d="M3.74688 12.4609C3.46758 12.6328 3.4375 12.7359 3.4375 13.5781C3.4375 14.4203 3.46758 14.5234 3.74688 14.6953C3.87578 14.7727 3.96602 14.7812 4.8125 14.7812C5.65898 14.7812 5.74922 14.7727 5.87812 14.6953C6.15742 14.5234 6.1875 14.4203 6.1875 13.5781C6.1875 12.7359 6.15742 12.6328 5.87812 12.4609C5.74922 12.3836 5.65898 12.375 4.8125 12.375C3.96602 12.375 3.87578 12.3836 3.74688 12.4609ZM5.5 13.5781V14.0938H4.8125H4.125V13.5781V13.0625H4.8125H5.5V13.5781Z" fill="#747688"/>
        <path d="M7.87188 12.4609C7.59258 12.6328 7.5625 12.7359 7.5625 13.5781C7.5625 14.4203 7.59258 14.5234 7.87188 14.6953C8.00078 14.7727 8.09102 14.7812 8.9375 14.7812C9.78398 14.7812 9.87422 14.7727 10.0031 14.6953C10.2824 14.5234 10.3125 14.4203 10.3125 13.5781C10.3125 12.7359 10.2824 12.6328 10.0031 12.4609C9.87422 12.3836 9.78398 12.375 8.9375 12.375C8.09102 12.375 8.00078 12.3836 7.87188 12.4609ZM9.625 13.5781V14.0938H8.9375H8.25V13.5781V13.0625H8.9375H9.625V13.5781Z" fill="#747688"/>
        <path d="M11.9969 12.4638C11.7176 12.6356 11.6875 12.7388 11.6875 13.581C11.6875 14.4231 11.7176 14.5263 11.9969 14.6981C12.1902 14.8142 12.5168 14.8142 12.6328 14.6981C12.8176 14.5134 12.6973 14.0966 12.4609 14.0966C12.3793 14.0966 12.375 14.0665 12.375 13.581V13.0653H13.1484C13.866 13.0653 13.9262 13.061 14.0078 12.9794C14.0637 12.9235 14.0938 12.8376 14.0938 12.7216C14.0938 12.6056 14.0637 12.5196 14.0078 12.4638C13.9262 12.3821 13.866 12.3778 13.0324 12.3778C12.216 12.3778 12.1258 12.3864 11.9969 12.4638Z" fill="#747688"/>
        <path d="M15.9005 12.4585C15.0196 12.6519 14.3407 13.0257 13.6833 13.6831C13.013 14.3534 12.6434 15.0323 12.4544 15.9433C12.3298 16.5363 12.3641 17.5202 12.5231 18.0616C12.7594 18.8609 13.1376 19.4882 13.7177 20.0511C14.2848 20.6054 14.8563 20.9363 15.6298 21.1683C16.1712 21.3273 17.1551 21.3616 17.7481 21.237C18.6591 21.048 19.338 20.6784 20.0083 20.0081C20.6786 19.3378 21.0481 18.6589 21.2372 17.748C21.3618 17.155 21.3274 16.171 21.1684 15.6296C20.9364 14.8562 20.6055 14.2847 20.0512 13.7175C19.4884 13.1374 18.861 12.7636 18.0618 12.523C17.5419 12.3683 16.4591 12.3339 15.9005 12.4585ZM17.7911 13.2148C18.2165 13.3222 18.8911 13.6659 19.2305 13.9538C20.9149 15.3718 21.0524 17.864 19.5356 19.4581C18.427 20.6226 16.5622 20.9277 15.1356 20.1757C14.1516 19.6558 13.4469 18.7577 13.1934 17.705C13.0774 17.2066 13.0774 16.4847 13.1934 15.9863C13.3782 15.2214 13.8594 14.4523 14.4739 13.9409C14.8005 13.6702 15.488 13.3179 15.9005 13.2105C16.4634 13.0644 17.2153 13.0644 17.7911 13.2148Z" fill="#747688"/>
        <path d="M17.5227 16.659L16.1562 18.0211L15.5203 17.3895C14.9102 16.7879 14.8758 16.7578 14.7082 16.7578C14.4805 16.7578 14.3516 16.891 14.3516 17.123C14.3516 17.2863 14.3859 17.3293 15.1594 18.0984C15.9629 18.9062 15.9672 18.9062 16.1562 18.9062H16.3496L17.8836 17.368C19.4004 15.8555 19.4219 15.8297 19.4219 15.6578C19.4219 15.4258 19.2887 15.2969 19.0566 15.2969C18.8934 15.2969 18.8461 15.3355 17.5227 16.659Z" fill="#747688"/>
        <path d="M3.74688 15.5547C3.46758 15.7266 3.4375 15.8297 3.4375 16.6719C3.4375 17.5141 3.46758 17.6172 3.74688 17.7891C3.87578 17.8664 3.96602 17.875 4.8125 17.875C5.65898 17.875 5.74922 17.8664 5.87812 17.7891C6.15742 17.6172 6.1875 17.5141 6.1875 16.6719C6.1875 15.8297 6.15742 15.7266 5.87812 15.5547C5.74922 15.4773 5.65898 15.4688 4.8125 15.4688C3.96602 15.4688 3.87578 15.4773 3.74688 15.5547ZM5.5 16.6719V17.1875H4.8125H4.125V16.6719V16.1562H4.8125H5.5V16.6719Z" fill="#747688"/>
        <path d="M7.87188 15.5547C7.59258 15.7266 7.5625 15.8297 7.5625 16.6719C7.5625 17.5141 7.59258 17.6172 7.87188 17.7891C8.00078 17.8664 8.09102 17.875 8.9375 17.875C9.78398 17.875 9.87422 17.8664 10.0031 17.7891C10.2824 17.6172 10.3125 17.5141 10.3125 16.6719C10.3125 15.8297 10.2824 15.7266 10.0031 15.5547C9.87422 15.4773 9.78398 15.4688 8.9375 15.4688C8.09102 15.4688 8.00078 15.4773 7.87188 15.5547ZM9.625 16.6719V17.1875H8.9375H8.25V16.6719V16.1562H8.9375H9.625V16.6719Z" fill="#747688"/>
    </g>
    <defs>
        <clipPath id="clip0_995_16934">
            <rect width="22" height="22" fill="white"/>
        </clipPath>
    </defs>
</svg>
