<svg width="22" height="22" viewBox="0 0 22 22" fill="none" xmlns="http://www.w3.org/2000/svg">
    <g clip-path="url(#clip0_995_16910)">
        <path d="M3.84557 0.0601559C3.55338 0.154688 3.21393 0.34375 2.92174 0.580078C2.47486 0.945312 0.89791 2.56953 0.652988 2.91758C0.408066 3.26562 0.206113 3.75117 0.102988 4.22383C0.0170508 4.63203 0.0170508 5.66758 0.107285 6.21758C0.390879 7.99219 1.33189 10.1836 2.68541 12.2461C4.56314 15.0992 6.99947 17.5484 9.69791 19.2844C12.4608 21.0633 14.9358 22 16.8694 22C17.8577 22 18.5022 21.8023 19.1682 21.2996C19.5292 21.0289 21.4155 19.0781 21.6131 18.773C21.8495 18.4078 21.9612 18.0254 21.9612 17.5914C21.9655 17.1746 21.9096 16.9598 21.7077 16.5645C21.5745 16.298 21.3639 16.0703 19.9417 14.6352C17.9737 12.6543 17.7975 12.5211 17.0155 12.4738C16.603 12.4437 16.2764 12.5125 15.8897 12.7102C15.619 12.8434 15.4471 12.9937 14.5963 13.8316L13.6124 14.8027L13.2428 14.6094C12.319 14.1281 11.1588 13.2516 10.1663 12.2891C8.8815 11.0387 7.89752 9.78828 7.3776 8.74844L7.18854 8.36602L8.09947 7.45937C8.6194 6.93945 9.08346 6.43672 9.18658 6.27773C9.67213 5.53867 9.67213 4.64062 9.18229 3.89726C8.94166 3.53203 6.0026 0.588671 5.63307 0.352343C5.25064 0.0988274 4.894 0 4.40846 0.00429726C4.19361 0.00429726 3.9401 0.030077 3.84557 0.0601559ZM4.85104 1.25469C5.15182 1.39219 8.11236 4.36133 8.27135 4.6793C8.43033 4.99726 8.41315 5.31094 8.21549 5.61601C8.14244 5.73203 7.644 6.25625 7.11119 6.78477C6.544 7.34766 6.10143 7.82031 6.04986 7.91914C5.89947 8.21992 5.95104 8.51211 6.28619 9.18672C6.85768 10.3383 7.69557 11.4598 8.95885 12.7574C10.2307 14.068 11.4897 15.0305 12.8174 15.7223C13.3331 15.9887 13.4362 16.0273 13.6381 16.0273C13.7628 16.0273 13.9432 15.9973 14.0335 15.9586C14.1452 15.9113 14.5405 15.5547 15.2323 14.8672C15.8768 14.227 16.3366 13.8059 16.4569 13.7457C16.7276 13.6039 17.0671 13.6125 17.3206 13.7629C17.4237 13.823 18.21 14.575 19.0651 15.4344C20.7323 17.1059 20.7924 17.1832 20.7967 17.5957C20.7967 17.9996 20.6721 18.1758 19.671 19.1984C18.3862 20.5047 18.3389 20.5434 17.7889 20.7281C17.2046 20.9215 16.603 20.9172 15.5803 20.7066C13.8186 20.3457 11.1975 19.0352 9.15221 17.4883C6.34635 15.3656 3.89713 12.448 2.47057 9.51758C1.15143 6.81055 0.846348 4.8125 1.57682 3.65234C1.79166 3.31289 3.75104 1.3707 3.99596 1.25469C4.25377 1.13008 4.59322 1.13008 4.85104 1.25469Z" fill="#747688"/>
    </g>
    <defs>
        <clipPath id="clip0_995_16910">
            <rect width="22" height="22" fill="white"/>
        </clipPath>
    </defs>
</svg>
