<svg width="22" height="22" viewBox="0 0 22 22" fill="none" xmlns="http://www.w3.org/2000/svg">
    <g clip-path="url(#clip0_995_16753)">
        <path d="M0.79328 0.0578127C0.419451 0.203906 0.144451 0.491796 0.0456233 0.839844C0.00695144 0.964453 -0.00164231 1.94844 0.00695144 4.49219C0.0198421 7.85234 0.0241389 7.97695 0.10578 8.14453C0.213201 8.35938 0.44953 8.5957 0.664373 8.70312C0.831951 8.78477 0.94367 8.78906 4.40265 8.78906C7.86164 8.78906 7.97336 8.78477 8.14094 8.70312C8.35578 8.5957 8.59211 8.35938 8.69953 8.14453C8.78117 7.97695 8.78547 7.86523 8.78547 4.40625C8.78547 0.947266 8.78117 0.835546 8.69953 0.667969C8.59211 0.453125 8.35578 0.216797 8.14094 0.109375C7.97336 0.0277338 7.85305 0.0234375 4.44562 0.0148439C1.82023 0.0105467 0.887811 0.0191402 0.79328 0.0578127ZM7.51789 4.40625V7.52148H4.40265H1.28742V4.40625V1.29102H4.40265H7.51789V4.40625Z" fill="#747688"/>
        <path d="M16.7168 0.0637703C15.8059 0.27002 15.1527 0.618067 14.5125 1.23682C13.9453 1.78252 13.5758 2.40127 13.3309 3.20049C13.2234 3.56143 13.2148 3.63877 13.2148 4.36064C13.2148 5.06104 13.2277 5.17275 13.3266 5.55088C13.5414 6.3415 13.9195 7.00752 14.4523 7.54463C16.1324 9.22471 19.0543 9.22471 20.7344 7.54463C21.2672 7.00752 21.6453 6.3415 21.8602 5.55088C21.959 5.17275 21.9719 5.06104 21.9719 4.36064C21.9719 3.63877 21.9633 3.56143 21.8559 3.20049C21.6109 2.40127 21.2414 1.78252 20.6742 1.23682C20.1156 0.695411 19.557 0.373145 18.7965 0.145411C18.4613 0.0465832 18.3195 0.0293951 17.7008 0.0165043C17.1938 0.00361443 16.9145 0.0208015 16.7168 0.0637703ZM18.5387 1.47744C19.8105 1.88994 20.5883 2.92119 20.6527 4.279C20.6828 4.86768 20.6012 5.27158 20.3648 5.74854C19.4625 7.54033 17.2066 8.04307 15.6555 6.79697C15.316 6.52197 15.0195 6.14814 14.8219 5.73564C14.607 5.29736 14.5211 4.93213 14.5211 4.44658C14.5211 2.92549 15.4707 1.72666 16.9445 1.3915C17.357 1.29697 18.1133 1.33994 18.5387 1.47744Z" fill="#747688"/>
        <path d="M10.4691 7.65273C9.88046 7.79023 9.37343 8.25859 9.1414 8.87305C9.04257 9.13086 9.04257 9.13945 9.02968 12.173C9.01679 15.0219 9.01249 15.2152 8.94374 15.1895C7.71054 14.6867 6.43007 14.7855 5.4289 15.4516C4.50507 16.0746 4.29882 16.3711 4.48358 16.818C4.54804 16.977 9.24882 21.5102 9.55819 21.7121C9.65702 21.7766 9.84608 21.8668 9.97929 21.9141C10.2113 21.9957 10.3445 22 13.3824 22C16.4633 22 16.5492 21.9957 16.807 21.9098C17.4258 21.7035 17.8984 21.1965 18.066 20.5605C18.1605 20.191 18.1605 16.1691 18.066 15.7996C17.9199 15.2367 17.5719 14.8027 17.0648 14.5535C16.9058 14.4719 15.9133 14.0637 14.8562 13.6383L12.9312 12.8691V11.0859C12.9312 9.12227 12.9226 9.02344 12.6648 8.54219C12.4414 8.12109 12.0203 7.79883 11.5348 7.67422C11.2598 7.60117 10.7312 7.59258 10.4691 7.65273ZM11.3371 9.04922C11.4144 9.10938 11.4961 9.20391 11.5262 9.25547C11.5648 9.31992 11.582 9.9 11.5992 11.4512L11.6207 13.5566L11.7195 13.6984C11.7754 13.7758 11.8742 13.8617 11.9344 13.8961C11.9988 13.9305 13.0473 14.3559 14.2633 14.8457C15.6598 15.4086 16.5191 15.7738 16.5922 15.8426C16.6523 15.9027 16.7297 16.0016 16.7555 16.066C16.7855 16.1434 16.7984 16.8094 16.7898 18.2273C16.7769 20.234 16.7769 20.277 16.6867 20.3973C16.6351 20.4617 16.532 20.5562 16.4504 20.6035C16.3086 20.6852 16.2269 20.6895 13.3824 20.6895C10.5336 20.6895 10.4562 20.6852 10.3273 20.6035C10.2543 20.5562 9.2746 19.6367 8.15311 18.5625L6.1164 16.6074L6.26679 16.5129C6.58905 16.3109 6.94569 16.2207 7.43124 16.225C7.98554 16.225 8.1789 16.2895 8.92226 16.7191C9.21015 16.8824 9.51522 17.0328 9.60116 17.0457C9.81171 17.0801 10.1125 16.9555 10.2328 16.7879L10.3316 16.6504L10.3531 12.998C10.3746 9.56914 10.3789 9.33281 10.4519 9.22539C10.6453 8.92891 11.0922 8.83867 11.3371 9.04922Z" fill="#747688"/>
    </g>
    <defs>
        <clipPath id="clip0_995_16753">
            <rect width="22" height="22" fill="white"/>
        </clipPath>
    </defs>
</svg>
