<svg width="27" height="27" viewBox="0 0 27 27" fill="none" xmlns="http://www.w3.org/2000/svg">
    <path d="M6.72508 2.45742C6.52469 2.49961 6.13445 2.64726 5.86023 2.7791C5.44891 2.97422 5.28543 3.09023 4.92684 3.44883C4.56824 3.80742 4.45223 3.9709 4.25711 4.38223C3.80359 5.3209 3.73504 6.27539 4.05672 7.20879L4.20965 7.65703L3.98289 7.9418C3.1075 9.0123 2.63289 10.5311 2.70672 11.9971C2.77 13.1889 3.1075 14.175 3.76141 15.082C4.01453 15.4301 12.837 24.2842 13.0374 24.3949C13.1165 24.4371 13.2325 24.4688 13.3011 24.4688C13.3907 24.4688 14.6036 23.2875 17.9997 19.8967C22.9145 14.9818 22.9831 14.9133 23.3575 14.0062C24.1854 12.0182 23.8321 9.52383 22.4979 7.88906L22.2975 7.64648L22.4083 7.34062C22.577 6.87129 22.6298 6.56015 22.6298 5.98535C22.6245 5.39472 22.5401 4.99394 22.3081 4.49824C21.7333 3.25898 20.5942 2.47851 19.2284 2.38886C18.5692 2.34668 17.9997 2.46269 17.3563 2.7791C16.945 2.97422 16.7815 3.09023 16.4282 3.44883C15.4895 4.3875 15.152 5.64785 15.4737 7.01367C15.5001 7.12969 15.4684 7.1666 15.2153 7.31953C14.804 7.56738 14.1554 8.05254 13.6702 8.48496L13.2483 8.8541L12.9161 8.55879C12.4151 8.11054 11.8825 7.70449 11.429 7.40918L11.0177 7.14551L11.0493 6.93457C11.2286 5.84297 11.1495 5.16269 10.7593 4.37695C10.3216 3.50156 9.56219 2.85293 8.62352 2.55234C8.08035 2.37832 7.26297 2.33613 6.72508 2.45742ZM8.11727 3.34863C8.54441 3.44883 9.00848 3.69668 9.35125 4.00781C10.5061 5.0414 10.543 6.85019 9.43562 7.95761C8.51277 8.88574 7.0784 9.02812 5.99734 8.31094C5.19051 7.77304 4.6948 6.80273 4.76336 5.87988C4.88992 4.16601 6.4825 2.96367 8.11727 3.34863ZM19.6134 3.34863C20.0352 3.44883 20.5046 3.69668 20.8368 3.99199C21.997 5.0414 22.0444 6.85019 20.9317 7.95761C20.0194 8.87519 18.5692 9.02812 17.5145 8.32676C16.1698 7.43027 15.8534 5.65312 16.8079 4.3875C17.1296 3.9709 17.5936 3.62285 18.063 3.45937C18.643 3.24844 19.0649 3.22207 19.6134 3.34863ZM11.4764 8.55879C11.7823 8.78555 12.2358 9.17051 12.4942 9.41836C12.9741 9.87715 13.1745 9.99316 13.3643 9.93515C13.4223 9.91406 13.7018 9.69258 13.9761 9.44473C14.6352 8.84355 14.9147 8.6168 15.4421 8.2582L15.8798 7.96289L16.1171 8.26348C16.5864 8.87519 17.2825 9.33398 18.063 9.55019C18.6536 9.7084 19.6239 9.67676 20.1882 9.47637C20.6733 9.30762 21.0688 9.07031 21.4643 8.71172L21.7702 8.4375L21.96 8.6959C22.8038 9.84551 23.1202 11.5594 22.7511 12.999C22.6245 13.5 22.2501 14.2277 21.902 14.6602C21.7227 14.8764 20.5362 16.0945 19.2653 17.3654L16.945 19.6752L16.5495 19.2533C16.2595 18.9475 16.1382 18.7734 16.096 18.61C16.0643 18.4887 16.0485 18.3674 16.0591 18.3305C16.0696 18.2988 16.0907 18.1986 16.1118 18.1143C16.1382 17.9982 16.8184 17.2811 18.7802 15.3193C21.322 12.7723 21.4116 12.6721 21.4116 12.4822C21.4116 12.208 21.227 12.0234 20.9528 12.0234C20.763 12.0234 20.6733 12.1025 18.5059 14.2699L16.2595 16.5164L15.98 16.432C15.8218 16.3846 15.6425 16.3477 15.5686 16.3477C15.4526 16.3477 15.4579 16.3318 15.6846 16.0787C15.9641 15.7676 16.2595 15.198 16.3755 14.7393C16.4757 14.3385 16.4757 13.6107 16.3755 13.21C16.1856 12.4717 15.6583 11.7123 15.0466 11.3062C14.8831 11.1955 14.5403 11.0373 14.2925 10.9477C13.897 10.8053 13.7757 10.7895 13.2641 10.7895C12.9477 10.7895 12.5786 10.8211 12.4468 10.858C11.4026 11.1533 10.522 11.9865 10.2108 12.9727C9.86805 14.059 10.0737 15.177 10.7804 16.0418L11.0124 16.3266L10.6063 16.4162L10.2055 16.5059L7.96434 14.2646C5.84969 12.1553 5.7073 12.0234 5.53328 12.0234C5.28543 12.0234 5.09559 12.2186 5.09559 12.477C5.09559 12.651 5.24852 12.8145 7.69012 15.2561C9.47781 17.0437 10.3057 17.9139 10.3637 18.0457C10.543 18.4834 10.4429 18.7471 9.91551 19.2744L9.54637 19.6436L7.11531 17.2178C5.78113 15.8836 4.58406 14.6496 4.4575 14.4703C3.59793 13.2838 3.36062 11.6543 3.83523 10.1514C3.98816 9.67676 4.25711 9.10722 4.50496 8.7539C4.59461 8.62734 4.68426 8.50078 4.70008 8.47441C4.72117 8.44805 4.83719 8.52715 4.96375 8.64844C5.41199 9.08086 5.93406 9.37617 6.57215 9.55019C7.1575 9.7084 8.13309 9.67676 8.69207 9.47637C9.38816 9.23379 10.0843 8.72226 10.4481 8.18965L10.6063 7.96289L10.7645 8.05254C10.8542 8.10527 11.1759 8.33203 11.4764 8.55879ZM13.6649 11.707C14.3768 11.8389 15.0149 12.3398 15.3366 13.0201C15.5001 13.3576 15.5317 13.4789 15.5475 13.8639C15.6372 15.9311 13.2325 17.0596 11.6979 15.6727C11.1337 15.1611 10.8384 14.3332 10.9649 13.6266C11.1389 12.7037 11.8034 11.9812 12.7157 11.7387C13.0637 11.6437 13.2905 11.6385 13.6649 11.707ZM15.4368 17.223L15.5581 17.2547L15.4526 17.4023C15.2733 17.6502 15.1889 17.9719 15.1889 18.3832C15.1889 18.9896 15.3208 19.2797 15.8639 19.8387L16.3175 20.308L14.7882 21.8373L13.2641 23.3613L11.7401 21.8373L10.2108 20.308L10.6221 19.8809C11.1811 19.2955 11.313 19.0055 11.313 18.3727C11.313 17.9402 11.2971 17.8611 11.1495 17.5711C11.0018 17.2916 10.9913 17.2441 11.0704 17.2283C11.2022 17.1914 15.305 17.1914 15.4368 17.223Z" fill="#747688"/>
</svg>
