<svg width="22" height="22" viewBox="0 0 22 22" fill="none" xmlns="http://www.w3.org/2000/svg">
    <g clip-path="url(#clip0_995_16986)">
        <path d="M9.96807 0.676172C9.88643 0.680468 9.58564 0.719141 9.30205 0.757812C5.03525 1.3207 1.52041 4.56055 0.605176 8.77148C0.308691 10.1551 0.308691 11.848 0.605176 13.2316C1.15088 15.741 2.65908 17.9969 4.79033 19.4879C6.25557 20.5105 7.97861 21.1422 9.76611 21.3055L10.1399 21.3398V18.4781V15.6121L9.86494 15.5648C7.98291 15.2168 6.47471 13.6828 6.13955 11.775C6.0708 11.3797 6.0708 10.602 6.13955 10.2281C6.4876 8.30742 7.98291 6.78633 9.86494 6.43828L10.1399 6.39102V3.51641C10.1399 1.93945 10.1356 0.650391 10.1313 0.654688C10.1228 0.654688 10.0497 0.667578 9.96807 0.676172ZM9.48682 3.61094L9.47393 5.84961L9.03564 5.9957C8.25791 6.25781 7.66494 6.61445 7.08486 7.16445C5.99346 8.2043 5.44346 9.49336 5.44346 11.0016C5.44346 12.5141 5.99346 13.7945 7.09346 14.843C7.65205 15.3801 8.2708 15.7496 9.03564 16.0074L9.47393 16.1535L9.48682 18.3965L9.49541 20.6352L9.31494 20.6051C7.54893 20.3258 5.82588 19.5566 4.51533 18.4566C4.06416 18.0828 3.38525 17.3738 3.01572 16.8969C2.079 15.6766 1.45596 14.2672 1.15518 12.6773C1.06494 12.1961 1.05205 12.0156 1.05205 11.0016C1.05205 9.99609 1.06494 9.80273 1.15088 9.34727C1.5333 7.34492 2.38408 5.68203 3.75049 4.27266C4.99658 2.98359 6.45752 2.11563 8.19346 1.63437C8.61455 1.51836 9.2333 1.38945 9.42236 1.38086C9.49111 1.37656 9.49541 1.50117 9.48682 3.61094Z" fill="#747688"/>
        <path d="M11.3008 3.52773V6.39375L11.4855 6.42383C12.1559 6.53555 12.9164 6.86641 13.475 7.2832C13.677 7.43789 13.866 7.5625 13.8918 7.5625C13.9219 7.5625 14.8414 6.66016 15.9414 5.56016L17.9395 3.56211L17.7676 3.41172C16.9125 2.65977 16.2035 2.17852 15.3184 1.74023C14.0938 1.13438 12.9766 0.816406 11.6574 0.696094L11.3008 0.661718V3.52773ZM12.6328 1.48672C14.0121 1.76172 15.3957 2.38906 16.5773 3.27422L16.9813 3.5793L15.4215 5.13906C14.5621 5.99844 13.8445 6.70312 13.8273 6.70312C13.8145 6.70312 13.6984 6.63437 13.5695 6.54844C13.2473 6.33359 12.7617 6.10586 12.332 5.96836L11.9668 5.85234L11.9539 3.60938L11.9453 1.36641L12.1258 1.39648C12.2289 1.41367 12.4566 1.45234 12.6328 1.48672Z" fill="#747688"/>
        <path d="M17.2395 6.45899L15.207 8.49141L15.4434 8.98125C15.7141 9.54844 15.8301 9.96094 15.8988 10.5711C15.9762 11.2715 15.8473 12.1266 15.5594 12.784L15.4305 13.0848L17.4973 15.1559L19.5641 17.2227L19.7273 16.9992C20.6727 15.6758 21.3258 13.9957 21.5492 12.3199C21.6352 11.6539 21.6352 10.3477 21.5492 9.68164C21.3172 7.91563 20.6426 6.24414 19.607 4.84336C19.4352 4.61563 19.2891 4.42656 19.2848 4.42656C19.2762 4.42656 18.3566 5.3418 17.2395 6.45899ZM19.4609 5.78438C20.2602 7.05625 20.75 8.43125 20.9219 9.875C20.982 10.3777 20.9863 11.641 20.9262 12.0965C20.75 13.4672 20.3418 14.7004 19.6887 15.8434C19.577 16.041 19.4781 16.2 19.4652 16.2C19.4523 16.2 18.7133 15.4695 17.8152 14.5715C16.3543 13.1105 16.1953 12.9387 16.2383 12.8613C16.3371 12.6723 16.5004 11.916 16.5434 11.452C16.6207 10.6527 16.4875 9.75899 16.191 9.05C16.1223 8.88242 16.0535 8.71055 16.0406 8.66328C16.0191 8.60313 16.3758 8.225 17.6004 7.00039C18.4727 6.12813 19.1945 5.41484 19.2074 5.41484C19.2203 5.41484 19.332 5.58242 19.4609 5.78438Z" fill="#747688"/>
        <path d="M10.2044 7.02949C10.1571 7.03809 9.98522 7.08105 9.82194 7.11543C8.98405 7.30879 8.15905 7.85449 7.61765 8.57207C6.79265 9.66777 6.60358 11.2018 7.1321 12.4736C7.62194 13.6467 8.65319 14.5146 9.90788 14.8068C10.3719 14.9186 11.1969 14.9186 11.661 14.8068C13.1348 14.4631 14.2692 13.3459 14.6387 11.8721C14.7505 11.4209 14.7419 10.3982 14.6173 9.94707C14.5098 9.56465 14.252 8.99316 14.0458 8.69668C13.5301 7.94902 12.7223 7.38184 11.7942 7.11973C11.502 7.03809 10.4235 6.97793 10.2044 7.02949ZM11.4848 7.71699C11.6567 7.75137 11.9962 7.88027 12.2454 8.00059C12.645 8.19394 12.7395 8.2627 13.1091 8.63223C13.4614 8.98457 13.5516 9.10488 13.7192 9.45293C13.9684 9.95566 14.0501 10.2564 14.0801 10.785C14.1962 12.7314 12.5161 14.3857 10.561 14.2482C8.7778 14.1236 7.38132 12.5553 7.48874 10.785C7.51882 10.2564 7.60046 9.95566 7.84968 9.45293C8.01725 9.10488 8.10749 8.98457 8.45983 8.63223C8.81218 8.27988 8.93249 8.18965 9.28483 8.01348C9.51257 7.90176 9.84343 7.77285 10.0153 7.73418C10.4192 7.63535 11.0766 7.62676 11.4848 7.71699Z" fill="#747688"/>
        <path d="M10.6241 8.67969C10.4909 8.73555 10.4394 8.85586 10.4394 9.10508C10.4394 9.27266 10.4222 9.32422 10.3749 9.32422C10.246 9.32422 9.97529 9.49609 9.8249 9.67227C9.49834 10.0504 9.51982 10.5875 9.87646 10.9699C10.0655 11.1762 10.2116 11.2277 10.6886 11.2578C11.0452 11.2793 11.144 11.2965 11.2128 11.3652C11.3546 11.5113 11.3632 11.6574 11.2343 11.8078L11.1183 11.9453H10.5425C9.98389 11.9453 9.9581 11.9496 9.85928 12.0527C9.73037 12.1816 9.72178 12.3277 9.84209 12.4781C9.91943 12.577 9.9624 12.5898 10.1858 12.5898H10.4394V12.8262C10.4394 13.1141 10.5339 13.2344 10.7573 13.2344C10.9636 13.2344 11.0839 13.0754 11.0839 12.8047V12.5984L11.2687 12.5555C11.6726 12.4523 11.9604 12.0656 11.9604 11.623C11.9647 10.9828 11.5222 10.6133 10.7487 10.6133C10.4265 10.6133 10.3405 10.5746 10.2718 10.4027C10.2288 10.2996 10.2288 10.2566 10.2847 10.1449C10.3749 9.97305 10.5554 9.92578 11.1397 9.92578C11.3976 9.92578 11.6425 9.90859 11.6854 9.88281C11.8401 9.80117 11.8315 9.46602 11.6683 9.35859C11.6425 9.34141 11.5007 9.32422 11.3546 9.32422H11.0839V9.09219C11.0839 8.75273 10.8862 8.57227 10.6241 8.67969Z" fill="#747688"/>
        <path d="M13.9648 14.293C13.3762 14.9031 12.4438 15.393 11.5715 15.5605L11.3008 15.6121V18.4738V21.3398L11.6574 21.3055C13.6082 21.125 15.5203 20.3816 17.007 19.2172C17.5184 18.8219 18.2188 18.1859 18.2188 18.1172C18.2188 18.057 14.2613 14.0953 14.2012 14.0953C14.1754 14.0953 14.068 14.1855 13.9648 14.293ZM15.7609 16.5574L17.3207 18.1172L17.093 18.3105C15.6535 19.5437 14.0035 20.3086 12.1258 20.6051L11.9453 20.6352L11.9539 18.3922L11.9668 16.1492L12.3363 16.0289C12.9723 15.8184 13.7328 15.4102 14.0508 15.1008C14.1066 15.0449 14.1668 14.9977 14.1797 14.9977C14.1926 14.9977 14.9016 15.698 15.7609 16.5574Z" fill="#747688"/>
    </g>
    <defs>
        <clipPath id="clip0_995_16986">
            <rect width="22" height="22" fill="white"/>
        </clipPath>
    </defs>
</svg>
