<svg width="23" height="22" viewBox="0 0 23 22" fill="none" xmlns="http://www.w3.org/2000/svg">
    <path d="M10.2386 0.0133076C8.77401 0.166054 7.65087 0.485027 6.46482 1.08703C3.44581 2.61451 1.4556 5.39093 0.934457 8.81427C0.885039 9.13325 0.858083 9.77569 0.840113 11.0156L0.81765 12.7677L0.646932 12.9924C0.39984 13.3248 0.265062 13.5809 0.1213 13.9807C0.00898516 14.3087 0 14.3941 0 14.9691C0 15.5217 0.0134777 15.6385 0.116807 15.944C0.29651 16.4876 0.530125 16.8605 0.93895 17.2648C1.23546 17.5613 1.38821 17.6692 1.72964 17.8399C1.98572 17.9657 2.3002 18.078 2.52483 18.1274C2.89322 18.2083 2.90221 18.2083 2.98307 18.3925C3.09988 18.653 3.36494 18.9316 3.63001 19.0708C3.83217 19.1787 3.90855 19.1921 4.28592 19.1921C4.64533 19.1921 4.74417 19.1742 4.9059 19.0888C5.20241 18.9316 5.44052 18.6935 5.57529 18.4149L5.70109 18.1588V14.9691V11.7794L5.59776 11.5727C5.43602 11.2493 5.2069 11.0111 4.92387 10.8719C4.70373 10.7641 4.61388 10.7461 4.28592 10.7461C3.95796 10.7461 3.86811 10.7641 3.64798 10.8719C3.50421 10.9438 3.31103 11.0875 3.2077 11.2043L3.028 11.411V10.809C3.03249 9.98684 3.09988 9.17817 3.2122 8.61211C3.70189 6.19061 5.34617 4.07909 7.58797 2.99638C9.01661 2.30902 10.5441 2.05294 12.0716 2.2551C15.5084 2.70436 18.2399 5.26064 18.9362 8.68399C19.0171 9.08383 19.0396 9.37135 19.0575 10.2654L19.0755 11.3616L18.8643 11.1504C18.5589 10.8404 18.3207 10.7461 17.8535 10.7461C17.557 10.7461 17.4222 10.7685 17.265 10.8404C16.9685 10.9797 16.7079 11.2313 16.5641 11.5233L16.4384 11.7794V14.9691C16.4384 18.1319 16.4384 18.1588 16.5327 18.3655C16.6675 18.653 16.928 18.9271 17.1976 19.0708C17.3998 19.1787 17.4761 19.1921 17.8535 19.1921C18.2129 19.1921 18.3118 19.1742 18.4735 19.0888C18.77 18.9316 19.0081 18.6935 19.1429 18.4149C19.2867 18.1139 19.3136 18.1633 19.2822 18.6845C19.2462 19.3179 18.8599 19.875 18.2579 20.1715L17.9658 20.3153L15.7106 20.3288C13.8911 20.3377 13.4508 20.3288 13.4508 20.2838C13.4508 20.1266 13.343 19.8705 13.2127 19.7223C12.9656 19.4437 12.9386 19.4392 11.3123 19.4392H9.84325L9.65006 19.5515C9.54674 19.6144 9.41196 19.7402 9.35355 19.8301C9.2637 19.9828 9.25023 20.0637 9.23225 20.6028C9.21428 21.2902 9.25472 21.4744 9.46587 21.717C9.70847 21.9955 9.74441 22 11.3168 22C12.4939 22 12.7634 21.9865 12.9027 21.9326C13.2082 21.8023 13.3699 21.5912 13.4283 21.2497L13.4598 21.0566H15.6701C18.1231 21.0566 18.15 21.0521 18.7116 20.76C19.2867 20.459 19.7719 19.8346 19.9426 19.1876C19.9785 19.0394 20.01 18.7294 20.01 18.4733L20.0145 18.0241L20.3604 17.8578C21.1825 17.467 21.8295 16.6898 22.0631 15.8002C22.1709 15.3959 22.1709 14.5333 22.0586 14.138C21.9552 13.7696 21.7171 13.2844 21.497 13.0059L21.3263 12.7947L21.2993 11.0291C21.2724 9.15122 21.2409 8.8008 21.0118 7.82591C20.3244 4.88326 18.3163 2.3764 15.5848 1.04211C14.556 0.538939 13.6844 0.264891 12.5972 0.0986652C12.1434 0.0312767 10.616 -0.0271263 10.2386 0.0133076ZM12.5523 0.817478C13.4733 0.97472 14.3089 1.2308 15.0996 1.60368C18.1815 3.05478 20.2526 6.03786 20.5446 9.44324C20.585 9.90148 20.6165 12.1612 20.585 12.1612C20.576 12.1612 20.4008 12.0894 20.1897 12.004L19.8078 11.8513L19.7808 10.49C19.7494 8.83674 19.655 8.23024 19.2597 7.17448C17.3728 2.12482 11.4381 -0.0361118 6.74336 2.619C4.4207 3.93533 2.81685 6.29394 2.42599 8.97601C2.37658 9.31295 2.35411 9.80713 2.35411 10.6517C2.35411 11.7524 2.34962 11.8513 2.27774 11.8782C2.19687 11.9052 1.72066 12.0939 1.59487 12.1478C1.50501 12.1882 1.55443 9.49265 1.65776 8.83674C1.98572 6.76566 2.89322 4.97312 4.35331 3.51303C5.88977 1.96758 7.85303 1.01515 10.0364 0.75009C10.5351 0.691687 12.0491 0.732121 12.5523 0.817478ZM4.68576 11.5727C4.76214 11.6311 4.86547 11.7524 4.91488 11.8513C5.00474 12.022 5.00474 12.1028 4.99575 15.032C4.98227 18.0061 4.98227 18.042 4.88793 18.1678C4.73069 18.3745 4.51954 18.4958 4.2994 18.4958C4.05231 18.4958 3.8771 18.4059 3.71536 18.1948L3.58957 18.0331V14.9691V11.9052L3.71986 11.7389C3.79174 11.6446 3.91304 11.5413 3.98941 11.5053C4.18259 11.4155 4.51055 11.4514 4.68576 11.5727ZM18.141 11.5053C18.2219 11.5413 18.3477 11.6446 18.4196 11.7389L18.5499 11.9052V14.9691V18.0331L18.4241 18.1948C18.1051 18.6126 17.5705 18.5991 17.2515 18.1678C17.1572 18.042 17.1572 18.0151 17.1572 14.9736V11.9052L17.2785 11.7479C17.4941 11.4649 17.8266 11.375 18.141 11.5053ZM2.8483 14.9691C2.8483 16.4067 2.83033 17.4625 2.80786 17.4625C2.67758 17.4625 2.15644 17.2603 1.92732 17.1255C1.42864 16.8245 1.06474 16.3888 0.840113 15.8137C0.732291 15.5442 0.718813 15.4453 0.718813 14.9691C0.718813 14.4929 0.732291 14.3941 0.840113 14.1245C1.07822 13.509 1.50951 13.0283 2.0576 12.7498C2.28672 12.6285 2.6641 12.4982 2.81685 12.4802C2.83482 12.4757 2.8483 13.5989 2.8483 14.9691ZM19.7404 12.597C20.5266 12.8531 21.1825 13.5809 21.3802 14.412C21.6947 15.7553 20.8051 17.1435 19.4394 17.44L19.2911 17.4715V14.9736V12.4757L19.4169 12.5027C19.4843 12.5207 19.6281 12.5611 19.7404 12.597ZM12.6781 20.212C12.7499 20.2838 12.7499 21.1554 12.6781 21.2273C12.6017 21.3036 10.0769 21.3036 10.0005 21.2273C9.94208 21.1689 9.92411 20.3647 9.97353 20.2299C9.99599 20.167 10.1577 20.158 11.3123 20.158C12.2737 20.158 12.6376 20.1715 12.6781 20.212Z" fill="#747688"/>
    <path d="M6.94657 7.04665C6.71744 7.16346 6.51977 7.38809 6.44789 7.6217C6.41195 7.743 6.39847 8.57862 6.39847 10.4071C6.39847 13.2599 6.38949 13.1655 6.66353 13.4755C6.9241 13.7765 7.04091 13.799 8.36622 13.817L9.54777 13.8349L10.0869 14.4774C10.4283 14.8817 10.6844 15.1468 10.7742 15.1827C10.9584 15.2591 11.2415 15.2501 11.4077 15.1603C11.4841 15.1243 11.7851 14.7964 12.0816 14.4369L12.6207 13.7855H13.8067C14.9164 13.781 15.0108 13.7765 15.1905 13.6867C15.4196 13.5744 15.6217 13.3452 15.6936 13.1116C15.7655 12.869 15.7655 7.8643 15.6936 7.6217C15.6217 7.38809 15.4196 7.15896 15.1905 7.04665C14.9973 6.95231 14.9613 6.95231 11.0663 6.95231C7.15772 6.95231 7.13975 6.95231 6.94657 7.04665ZM14.9344 7.76097C15.0242 7.85082 15.0242 7.90923 15.0242 10.3622C15.0242 12.7657 15.0197 12.878 14.9389 12.9769L14.8535 13.0847L13.5417 13.1071L12.2298 13.1296L12.0591 13.3318C11.9603 13.4441 11.7042 13.7496 11.4886 14.0146C11.2729 14.2797 11.0842 14.4953 11.0708 14.4953C11.0573 14.4953 10.7877 14.1809 10.4732 13.8035L9.89819 13.1116L8.59534 13.0982L7.288 13.0847L7.20264 12.9769C7.12178 12.878 7.11728 12.7657 7.11728 10.3622C7.11728 7.90923 7.11728 7.85082 7.20714 7.76097C7.29699 7.67112 7.35539 7.67112 11.0708 7.67112C14.7861 7.67112 14.8445 7.67112 14.9344 7.76097Z" fill="#747688"/>
    <path d="M8.14688 8.69858C8.06602 8.76147 8.03906 8.82886 8.03906 8.97262C8.03906 9.11639 8.06602 9.18378 8.14688 9.24667C8.24572 9.32754 8.37151 9.33203 11.0716 9.33203C13.7716 9.33203 13.8974 9.32754 13.9962 9.24667C14.1445 9.12537 14.1445 8.81988 13.9962 8.69858C13.8974 8.61771 13.7716 8.61322 11.0716 8.61322C8.37151 8.61322 8.24572 8.61771 8.14688 8.69858Z" fill="#747688"/>
    <path d="M8.21154 10.1046C8.00039 10.2035 7.95996 10.491 8.12618 10.6572L8.23401 10.7695H11.0688H13.9036L14.0115 10.6572C14.1867 10.4865 14.1328 10.199 13.9126 10.1001C13.7689 10.0327 8.35081 10.0372 8.21154 10.1046Z" fill="#747688"/>
    <path d="M8.10997 11.65C8.05606 11.7173 8.01562 11.8162 8.01562 11.8701C8.01562 11.924 8.05606 12.0228 8.10997 12.0902L8.19982 12.207H9.61049C10.8954 12.207 11.0257 12.198 11.1155 12.1262C11.2413 12.0273 11.2503 11.7488 11.1335 11.6185C11.0616 11.5376 10.9852 11.5331 9.62846 11.5331H8.19982L8.10997 11.65Z" fill="#747688"/>
</svg>

