<svg width="22" height="22" viewBox="0 0 22 22" fill="none" xmlns="http://www.w3.org/2000/svg">
    <g clip-path="url(#clip0_995_16883)">
        <path d="M9.62679 0.0626621C5.32562 0.595474 1.71195 3.64196 0.457261 7.78844C0.104917 8.9529 -0.0196925 9.93258 0.0146825 11.3162C0.0576513 13.0521 0.384214 14.3927 1.14906 15.9267L1.42835 16.4896L0.710776 18.7197C0.0447607 20.7865 -0.00680184 20.9627 0.0103857 21.2076C0.0404638 21.6759 0.324058 21.9595 0.792417 21.9896C1.03734 22.0068 1.21351 21.9552 3.28031 21.2892L5.51039 20.5716L6.07328 20.8509C7.1346 21.3795 8.08851 21.6845 9.32601 21.8951C9.8846 21.9896 11.4873 22.024 12.1448 21.9552C16.5405 21.5084 20.2659 18.4404 21.5463 14.2037C21.8643 13.1595 22.0018 12.1927 22.0018 10.9982C22.0018 10.1002 21.9588 9.60602 21.8041 8.82829C21.0823 5.16735 18.5342 2.12516 15.0151 0.728678C14.233 0.415005 13.0815 0.135708 12.1963 0.0411777C11.6334 -0.0189781 10.1811 -0.00608826 9.62679 0.0626621ZM12.5272 1.86305C14.4952 2.22829 16.1494 3.08766 17.5287 4.47125C18.7061 5.6443 19.5311 7.06657 19.9393 8.60915C20.1842 9.54586 20.2186 9.80797 20.2186 10.9982C20.2186 12.1884 20.1842 12.4506 19.9393 13.3873C19.5311 14.9298 18.7061 16.3521 17.5287 17.5252C16.1494 18.9088 14.4866 19.7724 12.5272 20.1334C12.0159 20.2236 10.6022 20.2623 10.0178 20.1978C9.42054 20.1334 8.82757 20.0088 8.26468 19.8326C7.63734 19.6306 7.30218 19.4888 6.50296 19.0763C5.82835 18.724 5.82406 18.724 5.56625 18.7455C5.40726 18.7627 4.71117 18.9646 3.78304 19.2654C2.94515 19.5361 2.25765 19.7552 2.24906 19.7509C2.24476 19.7423 2.4639 19.0548 2.7346 18.217C3.03539 17.2888 3.23734 16.5927 3.25453 16.4338C3.27601 16.1888 3.26742 16.1588 3.07406 15.7892C2.55843 14.8181 2.39085 14.4357 2.16742 13.7353C1.99125 13.1724 1.86664 12.5795 1.80218 11.9822C1.73773 11.3978 1.7764 9.98415 1.86664 9.47282C2.22757 7.51344 3.09125 5.85055 4.47484 4.47125C5.2096 3.73219 5.97445 3.1779 6.87679 2.72672C7.88656 2.21969 8.72015 1.97047 10.035 1.78571C10.3616 1.73844 12.1577 1.7943 12.5272 1.86305Z" fill="#747688"/>
        <path d="M6.25195 10.0074C5.85664 10.1836 5.62891 10.5488 5.62891 11C5.62891 11.6359 6.06719 12.0742 6.70312 12.0742C7.33906 12.0742 7.77734 11.6359 7.77734 11C7.77734 10.3641 7.33906 9.92578 6.70312 9.92578C6.52266 9.92578 6.36367 9.95586 6.25195 10.0074Z" fill="#747688"/>
        <path d="M10.5488 10.0074C10.1535 10.1836 9.92578 10.5488 9.92578 11C9.92578 11.6359 10.3641 12.0742 11 12.0742C11.6359 12.0742 12.0742 11.6359 12.0742 11C12.0742 10.3641 11.6359 9.92578 11 9.92578C10.8195 9.92578 10.6605 9.95586 10.5488 10.0074Z" fill="#747688"/>
        <path d="M14.8457 10.0074C14.4504 10.1836 14.2227 10.5488 14.2227 11C14.2227 11.6359 14.6609 12.0742 15.2969 12.0742C15.9328 12.0742 16.3711 11.6359 16.3711 11C16.3711 10.3641 15.9328 9.92578 15.2969 9.92578C15.1164 9.92578 14.9574 9.95586 14.8457 10.0074Z" fill="#747688"/>
    </g>
    <defs>
        <clipPath id="clip0_995_16883">
            <rect width="22" height="22" fill="white"/>
        </clipPath>
    </defs>
</svg>
