<svg width="22" height="22" viewBox="0 0 22 22" fill="none" xmlns="http://www.w3.org/2000/svg">
    <g clip-path="url(#clip0_995_16855)">
        <path d="M14.1872 1.06977C13.0098 1.65844 11.9829 2.19125 11.9055 2.26C11.7036 2.43188 11.6434 2.60375 11.6434 3.02914V3.39438H9.41764C8.12428 3.39438 7.136 3.41157 7.05006 3.43735C6.78795 3.51039 6.71061 3.75532 6.87818 3.97016L6.96412 4.08188H9.29733H11.6305L11.6606 5.07875C11.6735 5.62875 11.695 6.15297 11.7122 6.23891L11.738 6.40219H8.96647H6.19068L6.10475 6.51391C6.05318 6.57836 6.01451 6.67289 6.01451 6.72446C6.01451 6.77602 6.05318 6.87055 6.10475 6.935L6.19068 7.04672H9.03951H11.884L11.9399 7.24868C11.9657 7.36469 12.0344 7.56664 12.0903 7.69985L12.1934 7.94907H9.20709H6.22506L6.12193 8.05649C5.98014 8.19399 5.98014 8.39164 6.12193 8.52914L6.22506 8.63657H9.37897H12.5329L12.6962 8.88149C12.7864 9.01899 12.9239 9.21235 13.0055 9.31118L13.1516 9.49164L11.2352 9.50453L9.31451 9.51743L9.23287 9.62055C9.12545 9.74946 9.12975 9.92993 9.24147 10.0717L9.3274 10.1834H11.5747C13.8219 10.1834 13.8219 10.1834 13.9036 10.278C14.1356 10.5401 15.2915 11.3952 15.979 11.812C16.2969 12.0053 16.37 12.0311 16.5719 12.0311C16.7008 12.0311 16.8598 12.001 16.9286 11.9666L17.0575 11.8979V15.7909V19.6795H12.868H8.67858V19.3573C8.67858 19.0178 8.60983 18.8116 8.48522 18.76C8.35631 18.7127 8.21881 18.7342 8.10279 18.8245L7.99108 18.9104V20.0877C7.99108 21.2092 7.98678 21.2694 7.90943 21.3123C7.8192 21.3596 1.3524 21.3768 1.22779 21.3295C1.16764 21.3038 1.15904 21.0545 1.15904 18.9276C1.15904 16.8006 1.16764 16.5514 1.22779 16.5256C1.26647 16.5127 2.77897 16.4998 4.59225 16.4998C7.09733 16.4998 7.90084 16.5127 7.93951 16.5514C7.97389 16.5858 7.99108 16.7877 7.99108 17.1702C7.99108 17.7331 7.99108 17.7416 8.10279 17.8276C8.31764 17.9952 8.59264 17.9049 8.65709 17.6471C8.67428 17.5913 8.67858 17.3034 8.66998 17.0026L8.65709 16.4569L11.3254 16.4483C13.8821 16.4354 14.0024 16.4311 14.0883 16.3538C14.2087 16.242 14.213 15.9756 14.0926 15.8553C14.0067 15.7694 13.9508 15.7694 10.827 15.7694H7.64733V15.3182V14.867H10.827C13.9508 14.867 14.0067 14.867 14.0926 14.7811C14.2258 14.6479 14.2087 14.3815 14.0669 14.2698C13.9551 14.1795 13.9251 14.1795 10.784 14.1795H7.61725L7.56568 13.8916C7.53561 13.737 7.48834 13.5436 7.45397 13.462L7.39381 13.3202H9.11256H10.8313L10.9344 13.2127C11.0762 13.0752 11.0762 12.8776 10.9344 12.7401L10.8313 12.6327H8.93209H7.03717L6.68053 12.2975C6.12193 11.7647 5.50318 11.494 4.74693 11.4424C4.32154 11.4166 3.81881 11.494 3.43209 11.6444C3.31608 11.6916 3.20865 11.7303 3.20006 11.7303C3.18717 11.7303 3.17858 10.0116 3.17858 7.9061V4.08188H4.48483H5.79537L5.88131 3.97016C6.07037 3.72953 5.94576 3.46313 5.6192 3.41586C5.51608 3.39867 4.85436 3.39438 4.14537 3.40297C2.74459 3.41586 2.72311 3.42016 2.57701 3.66508C2.49537 3.79828 2.49108 3.9186 2.49108 8.00493V12.203L2.23756 12.5038C2.10006 12.6713 1.91529 12.9463 1.82936 13.1182C1.56725 13.651 1.53287 13.8358 1.51568 14.8928L1.4942 15.8467L1.20631 15.8639C0.86256 15.8811 0.690685 15.9842 0.561778 16.2592C0.471544 16.444 0.471544 16.4784 0.480138 18.9791L0.493028 21.51L0.609044 21.6862C0.828185 22.017 0.591857 21.9998 4.57506 21.9998C8.46373 21.9998 8.24889 22.0127 8.47662 21.742C8.63561 21.553 8.67858 21.3596 8.67858 20.8053V20.3241H13.0399H17.4012L17.5645 20.178L17.7235 20.0319L17.7364 15.7393L17.745 11.451L18.0544 11.2362C18.9782 10.6045 19.945 9.67211 20.4219 8.95454C21.0192 8.05219 21.3544 7.11547 21.4833 5.95102C21.5047 5.73618 21.5262 4.91117 21.5262 4.11196C21.5262 2.51352 21.5219 2.47485 21.2641 2.26C21.1868 2.19125 20.1598 1.65844 18.9825 1.06977C16.9071 0.0342216 16.8297 -0.000154495 16.5848 -0.000154495C16.3399 -0.000154495 16.2626 0.0342216 14.1872 1.06977ZM18.7333 1.74008L20.8387 2.79281V4.18071C20.8387 5.64594 20.7958 6.15727 20.6239 6.83188C20.22 8.41743 19.1458 9.70649 17.1262 11.0213C16.8555 11.1975 16.6106 11.3436 16.5805 11.3436C16.5547 11.3436 16.2583 11.1631 15.9231 10.9397C14.127 9.74946 13.1172 8.59789 12.6532 7.19711C12.3911 6.42368 12.3653 6.17446 12.3438 4.41703L12.3223 2.79711L14.4235 1.74438C15.5751 1.1643 16.5462 0.691643 16.5762 0.691643C16.602 0.687346 17.5774 1.16 18.7333 1.74008ZM5.33561 12.2588C6.07037 12.5252 6.61178 13.101 6.8524 13.8788C6.90826 14.0549 6.92975 14.3385 6.94693 14.9831L6.97272 15.8553H6.66334H6.35826V15.1979C6.35397 14.0635 6.25084 13.6811 5.81256 13.2428C5.28404 12.71 4.44615 12.5725 3.77584 12.912C3.32467 13.1354 2.95084 13.6123 2.83912 14.0979C2.81334 14.201 2.79186 14.6393 2.79186 15.069V15.8553H2.49108H2.19029V15.0905C2.19029 14.1709 2.22897 13.9217 2.4524 13.462C2.68014 12.9807 3.05397 12.6112 3.53522 12.3791C3.72858 12.2846 3.98639 12.1901 4.1024 12.1643C4.44615 12.0956 5.00475 12.1385 5.33561 12.2588ZM4.90162 13.4706C5.16803 13.5608 5.39576 13.7627 5.52897 14.0248C5.64068 14.2354 5.64498 14.2784 5.66217 15.0475L5.67936 15.8553H4.57506H3.47076L3.48795 15.026C3.50084 14.1194 3.51803 14.0506 3.79733 13.7584C4.09381 13.4405 4.50201 13.3331 4.90162 13.4706Z" fill="#747688"/>
        <path d="M16.0028 2.26166C14.6708 2.54096 13.7298 3.41322 13.3774 4.68939C13.27 5.07182 13.27 5.93119 13.3774 6.31361C13.7169 7.55541 14.7095 8.48783 15.9298 8.72846C16.3036 8.79721 17.1716 8.75424 17.511 8.64682C17.7946 8.55658 18.2415 8.34174 18.4521 8.19564C18.697 8.02377 19.088 7.62846 19.2556 7.37494C19.4704 7.06557 19.6767 6.61439 19.6767 6.4683C19.6767 6.3265 19.4962 6.14603 19.3544 6.14603C19.161 6.14603 19.0837 6.22338 18.8946 6.6101C18.5638 7.289 17.9192 7.82182 17.1845 8.01517C16.8794 8.09682 16.2435 8.09682 15.9384 8.01517C14.6106 7.66283 13.7599 6.3351 14.0263 5.02455C14.1896 4.21244 14.7095 3.53353 15.4271 3.18978C15.6247 3.09525 15.8911 2.99642 16.0157 2.97064C16.3337 2.90619 16.8579 2.91478 17.1802 2.98783C18.0696 3.19838 18.8731 4.00619 19.0751 4.89564C19.1696 5.30385 19.4661 5.45853 19.6981 5.22221C19.8228 5.10189 19.8271 5.02455 19.7368 4.67221C19.4317 3.48627 18.4563 2.54955 17.2661 2.30033C16.9911 2.24017 16.2134 2.21869 16.0028 2.26166Z" fill="#747688"/>
        <path d="M17.093 5.18722L16.4184 5.86183L15.993 5.44503C15.5332 4.99386 15.443 4.95519 15.2367 5.11847C15.1508 5.18722 15.125 5.24308 15.125 5.38058C15.125 5.54816 15.1508 5.58253 15.632 6.06808C16.1777 6.62667 16.3195 6.7255 16.4957 6.68253C16.6203 6.65246 18.1027 5.20871 18.2016 5.01964C18.2359 4.95519 18.2617 4.86496 18.2617 4.81339C18.2617 4.6716 18.0727 4.51261 17.9094 4.51261C17.7848 4.51261 17.6902 4.58996 17.093 5.18722Z" fill="#747688"/>
        <path d="M6.19959 9.53906C6.00623 9.6207 5.95897 9.88281 6.10506 10.0719L6.191 10.1836H7.2824H8.37381L8.45975 10.0719C8.57147 9.93008 8.57576 9.74961 8.46834 9.6207C8.3867 9.51758 8.3824 9.51758 7.33826 9.50898C6.76678 9.50469 6.25115 9.51758 6.19959 9.53906Z" fill="#747688"/>
        <path d="M6.10448 11.1992C5.9412 11.4054 6.02284 11.6632 6.26776 11.7363C6.37089 11.7664 7.67284 11.775 10.208 11.7664C13.8646 11.7535 14.0021 11.7492 14.0881 11.6718C14.1525 11.6117 14.1783 11.5386 14.1783 11.4054C14.1783 11.066 14.4791 11.0875 10.092 11.0875H6.19042L6.10448 11.1992Z" fill="#747688"/>
        <path d="M11.623 12.7402C11.5543 12.8047 11.5156 12.8949 11.5156 12.9766C11.5156 13.0582 11.5543 13.1484 11.623 13.2129L11.7262 13.3203H12.8391C13.9004 13.3203 13.9605 13.316 14.068 13.2301C14.2098 13.1184 14.227 12.852 14.0938 12.7188C14.0121 12.6371 13.952 12.6328 12.8691 12.6328H11.7262L11.623 12.7402Z" fill="#747688"/>
    </g>
    <defs>
        <clipPath id="clip0_995_16855">
            <rect width="22" height="22" fill="white"/>
        </clipPath>
    </defs>
</svg>
