<svg width="22" height="22" viewBox="0 0 22 22" fill="none" xmlns="http://www.w3.org/2000/svg">
    <path d="M2.0625 7.5625H19.9375M2.0625 8.25H19.9375M4.8125 13.0625H10.3125M4.8125 15.125H7.5625M4.125 17.875H17.875C18.422 17.875 18.9466 17.6577 19.3334 17.2709C19.7202 16.8841 19.9375 16.3595 19.9375 15.8125V6.1875C19.9375 5.64049 19.7202 5.11589 19.3334 4.72909C18.9466 4.3423 18.422 4.125 17.875 4.125H4.125C3.57799 4.125 3.05339 4.3423 2.66659 4.72909C2.2798 5.11589 2.0625 5.64049 2.0625 6.1875V15.8125C2.0625 16.3595 2.2798 16.8841 2.66659 17.2709C3.05339 17.6577 3.57799 17.875 4.125 17.875Z" stroke="#747688" stroke-width="1.5" stroke-linecap="round" stroke-linejoin="round"/>
</svg>
