<svg width="22" height="22" viewBox="0 0 22 22" fill="none" xmlns="http://www.w3.org/2000/svg">
    <path d="M7.03906 4.83984C11.3951 4.83984 15.7511 4.83984 20.2391 4.83984C20.2391 9.92184 20.2391 15.0038 20.2391 20.2398C15.8831 20.2398 11.5271 20.2398 7.03906 20.2398C7.03906 15.1578 7.03906 10.0758 7.03906 4.83984ZM7.91906 5.71984C7.91906 10.221 7.91906 14.7222 7.91906 19.3598C11.6943 19.3598 15.4695 19.3598 19.3591 19.3598C19.3591 14.8586 19.3591 10.3574 19.3591 5.71984C15.5839 5.71984 11.8087 5.71984 7.91906 5.71984Z" fill="#747688"/>
    <path d="M1.76172 1.76172C6.11772 1.76172 10.4737 1.76172 14.9617 1.76172C14.9617 2.48772 14.9617 3.21372 14.9617 3.96172C14.6713 3.96172 14.3809 3.96172 14.0817 3.96172C14.0817 3.52612 14.0817 3.09052 14.0817 2.64172C10.3065 2.64172 6.53132 2.64172 2.64172 2.64172C2.64172 6.99772 2.64172 11.3537 2.64172 15.8417C3.80332 15.8417 4.96492 15.8417 6.16172 15.8417C6.16172 16.1321 6.16172 16.4225 6.16172 16.7217C4.70972 16.7217 3.25772 16.7217 1.76172 16.7217C1.76172 11.7849 1.76172 6.84812 1.76172 1.76172Z" fill="#747688"/>
    <path d="M9.67969 13.6406C12.4385 13.6406 15.1973 13.6406 18.0397 13.6406C18.0397 13.931 18.0397 14.2214 18.0397 14.5206C15.2809 14.5206 12.5221 14.5206 9.67969 14.5206C9.67969 14.2302 9.67969 13.9398 9.67969 13.6406Z" fill="#747688"/>
    <path d="M9.67969 8.35938C12.4385 8.35938 15.1973 8.35938 18.0397 8.35938C18.0397 8.64977 18.0397 8.94017 18.0397 9.23937C15.2809 9.23937 12.5221 9.23937 9.67969 9.23937C9.67969 8.94897 9.67969 8.65857 9.67969 8.35938Z" fill="#747688"/>
    <path d="M9.67969 16.2812C11.7125 16.2812 13.7453 16.2812 15.8397 16.2812C15.8397 16.5716 15.8397 16.862 15.8397 17.1612C13.8069 17.1612 11.7741 17.1612 9.67969 17.1612C9.67969 16.8708 9.67969 16.5804 9.67969 16.2812Z" fill="#747688"/>
    <path d="M9.67969 11C11.7125 11 13.7453 11 15.8397 11C15.8397 11.2904 15.8397 11.5808 15.8397 11.88C13.8069 11.88 11.7741 11.88 9.67969 11.88C9.67969 11.5896 9.67969 11.2992 9.67969 11Z" fill="#747688"/>
    <path d="M4.39844 12.7617C4.97924 12.7617 5.56004 12.7617 6.15844 12.7617C6.15844 13.0521 6.15844 13.3425 6.15844 13.6417C5.57764 13.6417 4.99684 13.6417 4.39844 13.6417C4.39844 13.3513 4.39844 13.0609 4.39844 12.7617Z" fill="#747688"/>
    <path d="M4.39844 10.1211C4.97924 10.1211 5.56004 10.1211 6.15844 10.1211C6.15844 10.4115 6.15844 10.7019 6.15844 11.0011C5.57764 11.0011 4.99684 11.0011 4.39844 11.0011C4.39844 10.7107 4.39844 10.4203 4.39844 10.1211Z" fill="#747688"/>
    <path d="M4.39844 7.48047C4.97924 7.48047 5.56004 7.48047 6.15844 7.48047C6.15844 7.77087 6.15844 8.06127 6.15844 8.36047C5.57764 8.36047 4.99684 8.36047 4.39844 8.36047C4.39844 8.07007 4.39844 7.77967 4.39844 7.48047Z" fill="#747688"/>
    <path d="M4.39844 4.83984C4.97924 4.83984 5.56004 4.83984 6.15844 4.83984C6.15844 5.13024 6.15844 5.42064 6.15844 5.71984C5.57764 5.71984 4.99684 5.71984 4.39844 5.71984C4.39844 5.42944 4.39844 5.13904 4.39844 4.83984Z" fill="#747688"/>
</svg>


