<svg width="16" height="16" viewBox="0 0 16 16" fill="none" xmlns="http://www.w3.org/2000/svg">
    <g clip-path="url(#clip0_995_8378)">
        <path d="M4.51597 0.165625C4.33159 0.26875 4.28159 0.39375 4.28159 0.740624V1.03125H3.69722C3.06597 1.03125 2.81909 1.05937 2.50034 1.1625C2.05347 1.30625 1.67534 1.54688 1.34097 1.89375C1.00347 2.25 0.815968 2.56875 0.665968 3.05312L0.578468 3.32812L0.569093 8.35C0.562843 13.2094 0.562843 13.3844 0.622218 13.6719C0.840968 14.7406 1.65972 15.5812 2.73784 15.8313C2.97222 15.8875 3.22222 15.8906 8.00034 15.8906C12.7753 15.8906 13.0285 15.8875 13.266 15.8313C14.3316 15.5875 15.1597 14.7406 15.3785 13.6781C15.4347 13.4031 15.4378 13.1844 15.4378 8.46875C15.4378 3.79062 15.4347 3.53438 15.3785 3.26562C15.166 2.2375 14.4347 1.44375 13.416 1.1375C13.1628 1.05937 13.0878 1.05312 12.4316 1.0375L11.7191 1.025V0.7375C11.7191 0.381249 11.6691 0.2625 11.4691 0.162499C11.3941 0.125 11.2878 0.09375 11.2347 0.09375C11.1035 0.09375 10.9347 0.190625 10.8535 0.3125C10.791 0.403125 10.7816 0.45625 10.7816 0.721875V1.03125H8.00034H5.21909V0.721875C5.21909 0.45625 5.20972 0.403125 5.15034 0.3125C5.00347 0.0999994 4.74097 0.0374994 4.51597 0.165625ZM4.28159 2.27812C4.28159 2.54375 4.29097 2.59688 4.35347 2.69063C4.54409 2.98125 4.97847 2.975 5.15659 2.68125C5.20659 2.59688 5.21909 2.52187 5.21909 2.27187V1.96875H8.00034H10.7816V2.27187C10.7816 2.52187 10.7941 2.59688 10.8441 2.68125C11.0222 2.975 11.4566 2.98125 11.6472 2.69063C11.7097 2.59688 11.7191 2.54375 11.7191 2.27187V1.95937L12.3191 1.97812C12.716 1.99062 12.9816 2.0125 13.0941 2.04375C13.6097 2.1875 14.0566 2.55625 14.2816 3.01562C14.441 3.3375 14.4691 3.51562 14.4691 4.1625V4.75H7.99722H1.52534L1.53784 4.08437C1.55034 3.49375 1.55972 3.4 1.62222 3.22812C1.80972 2.70937 2.25034 2.27187 2.76597 2.09062C3.01597 2.00313 3.24097 1.97812 3.80659 1.97188L4.28159 1.96875V2.27812ZM14.4691 9.51875C14.4691 12.9156 14.4628 13.3719 14.4191 13.5438C14.2878 14.0531 13.9066 14.5187 13.4316 14.7437C13.291 14.8125 13.0972 14.8844 13.0066 14.9031C12.7753 14.95 3.22534 14.95 2.99409 14.9031C2.90347 14.8844 2.70972 14.8125 2.56284 14.7437C2.08472 14.5156 1.71597 14.0625 1.58159 13.5406C1.53784 13.3719 1.53159 12.9 1.53159 9.51875V5.6875H8.00034H14.4691V9.51875Z" fill="#1D3856"/>
        <path d="M7.75703 7.59375C7.70078 7.62812 7.62891 7.7 7.59453 7.75625C7.53516 7.85313 7.53203 7.91563 7.53203 8.85V9.84375H6.53516C5.55703 9.84375 5.53828 9.84375 5.43828 9.9125C5.27266 10.0281 5.20703 10.1375 5.20703 10.3062C5.20703 10.4937 5.29141 10.6469 5.43828 10.7344C5.54141 10.7938 5.60703 10.7969 6.54141 10.8062L7.53203 10.8156V11.8062C7.53203 12.7438 7.53516 12.8031 7.59453 12.9C7.66328 13.0094 7.86953 13.125 8.00078 13.125C8.13203 13.125 8.33828 13.0094 8.40703 12.9C8.46641 12.8031 8.46953 12.7438 8.46953 11.8062V10.8156L9.46328 10.8062C10.3945 10.7969 10.4602 10.7938 10.5633 10.7344C10.7102 10.6469 10.7945 10.4937 10.7945 10.3062C10.7945 10.1375 10.7289 10.0281 10.5633 9.9125C10.4633 9.84375 10.4445 9.84375 9.46641 9.84375H8.46953V8.85C8.46953 7.91563 8.46641 7.85313 8.40703 7.75625C8.31953 7.61562 8.16953 7.53125 8.00078 7.53125C7.91641 7.53125 7.81953 7.55625 7.75703 7.59375Z" fill="#1D3856"/>
    </g>
    <defs>
        <clipPath id="clip0_995_8378">
            <rect width="16" height="16" fill="white"/>
        </clipPath>
    </defs>
</svg>
