<svg width="30" height="30" viewBox="0 0 30 30" fill="none" xmlns="http://www.w3.org/2000/svg">
    <path d="M8.23212 3.7773C5.73465 4.47815 3.8991 6.65856 3.63767 9.22834C3.5153 10.4242 3.75448 11.5812 4.5332 13.5669C5.66234 16.4537 7.32547 18.9623 9.57263 21.1594C12.0089 23.5512 14.7233 25.2032 17.9884 26.2823C19.2121 26.6828 19.7016 26.7773 20.6026 26.7773C21.932 26.7773 22.9611 26.4659 24.0791 25.7261C25.5475 24.7582 26.6878 22.9116 26.7657 21.3764C26.7935 20.7423 26.7267 20.3807 26.4764 19.9079C26.1594 19.3016 25.8479 19.0625 23.8788 17.8999C22.8887 17.3103 21.9265 16.7764 21.7429 16.7096C21.2924 16.5372 20.3913 16.4982 19.8684 16.6206C18.9173 16.8431 18.2887 17.3437 17.5267 18.4895C17.2541 18.9011 17.0094 19.2627 16.9816 19.2905C16.9315 19.3461 16.1361 18.9067 15.4297 18.4339C14.156 17.5773 12.9156 16.3425 12.0256 15.0409C11.5472 14.3401 11.0689 13.4835 11.1245 13.4334C11.1523 13.4056 11.5139 13.1609 11.9366 12.8772C12.3871 12.5713 12.821 12.232 13.0046 12.0317C13.3717 11.6368 13.7221 10.9526 13.8222 10.4354C13.9223 9.90694 13.8612 9.08928 13.6887 8.63317C13.4718 8.07138 11.5083 4.77851 11.1801 4.42809C10.991 4.22228 10.763 4.06098 10.4403 3.90523C9.9898 3.68274 9.95643 3.67162 9.35014 3.65493C8.82172 3.6438 8.65485 3.66049 8.23212 3.7773ZM9.70613 5.60173C9.85074 5.69629 10.1455 6.1524 10.902 7.4206C11.4582 8.35506 11.9422 9.20609 11.9755 9.31734C12.1368 9.84575 11.9755 10.4854 11.5862 10.847C11.4805 10.9415 10.902 11.3531 10.3013 11.7536C9.11096 12.5435 9.02196 12.6325 9.0164 13.0886C9.01084 13.5391 9.7395 14.9909 10.5794 16.2034C11.6307 17.7164 13.0212 19.068 14.6232 20.1193C15.3129 20.5698 16.837 21.3486 17.1262 21.3986C17.3654 21.4431 17.7269 21.3374 17.8994 21.1761C17.9828 21.1038 18.3499 20.5865 18.7226 20.0303C19.0897 19.4741 19.4735 18.9345 19.5681 18.8288C19.9574 18.4117 20.6861 18.2559 21.1922 18.484C21.3146 18.5396 22.1601 19.0291 23.0667 19.5686C24.88 20.6533 24.9412 20.7033 24.9412 21.1928C24.9412 21.5488 24.6854 22.2775 24.3794 22.7836C24.0624 23.3287 23.3115 24.0629 22.7719 24.3689C22.1156 24.736 21.5705 24.8973 20.8474 24.9307C20.497 24.9418 20.0742 24.9307 19.8684 24.8917C19.023 24.7471 17.1874 24.0685 15.9303 23.44C13.889 22.4221 12.3315 21.2929 10.7018 19.6632C8.44905 17.4049 6.8638 14.8351 5.87371 11.8148C5.54554 10.8192 5.46766 10.4354 5.46766 9.79013C5.47323 7.9212 6.70805 6.23583 8.53248 5.61842C9.06646 5.43486 9.45026 5.4293 9.70613 5.60173Z" fill="white"/>
    <path d="M20.3522 4.88438C19.668 5.17918 19.6624 6.22489 20.341 6.53082C20.5413 6.62538 20.7082 6.64207 21.5202 6.64207H22.4658L20.2298 8.8781C19.0061 10.1129 17.9715 11.1753 17.9381 11.2421C17.9048 11.3088 17.877 11.4979 17.877 11.6592C17.877 12.1988 18.2163 12.5381 18.7558 12.5381C18.9171 12.5381 19.1062 12.5103 19.173 12.4769C19.2397 12.4435 20.3021 11.4089 21.5369 10.1852L23.773 7.9492V8.89479C23.773 9.76807 23.7841 9.86263 23.9009 10.0907C24.2068 10.7081 25.0356 10.7526 25.4639 10.1797C25.5752 10.0295 25.5807 9.95162 25.5974 7.73227L25.6141 5.44061L25.4862 5.25149C25.4138 5.14581 25.2692 5.00119 25.1691 4.93444C24.98 4.80651 24.98 4.80651 22.7495 4.80651C21.0196 4.81207 20.4801 4.82876 20.3522 4.88438Z" fill="white"/>
</svg>
