<svg width="17" height="17" viewBox="0 0 17 17" fill="none" xmlns="http://www.w3.org/2000/svg">
    <path d="M1.51855 5.36607C1.51855 10.9568 6.05107 15.4893 11.6418 15.4893H13.1603C13.563 15.4893 13.9492 15.3293 14.234 15.0446C14.5188 14.7598 14.6788 14.3736 14.6788 13.9708V13.0449C14.6788 12.6966 14.4419 12.393 14.1038 12.3086L11.1188 11.5622C10.8218 11.4879 10.51 11.5993 10.3271 11.8436L9.67249 12.7162C9.48217 12.97 9.1535 13.082 8.85588 12.9727C7.75102 12.5665 6.74765 11.925 5.91527 11.0926C5.08289 10.2602 4.44139 9.25685 4.03519 8.15199C3.92586 7.85437 4.03789 7.5257 4.29165 7.33538L5.16427 6.68074C5.40925 6.49785 5.51993 6.18538 5.4457 5.88911L4.69928 2.9041C4.6582 2.7399 4.56344 2.59413 4.43003 2.48995C4.29663 2.38577 4.13224 2.32916 3.96298 2.3291H3.03704C2.63431 2.3291 2.24808 2.48908 1.96331 2.77386C1.67854 3.05863 1.51855 3.44486 1.51855 3.84759V5.36607Z" stroke="#1D3856" stroke-width="0.506162" stroke-linecap="round" stroke-linejoin="round"/>
</svg>

