<svg width="34" height="34" viewBox="0 0 34 34" fill="none" xmlns="http://www.w3.org/2000/svg">
    <path d="M0 11.9565C0 5.35311 5.35312 0 11.9565 0H21.4844C28.0878 0 33.4409 5.35312 33.4409 11.9565V21.4844C33.4409 28.0878 28.0878 33.4409 21.4844 33.4409H11.9565C5.35311 33.4409 0 28.0878 0 21.4844V11.9565Z" fill="#F3E8FF"/>
    <g clip-path="url(#clip0_2706_639)">
        <path d="M24.6863 20.6351V23.0248C24.6872 23.2467 24.6417 23.4663 24.5529 23.6695C24.464 23.8728 24.3336 24.0553 24.1702 24.2053C24.0067 24.3552 23.8137 24.4694 23.6035 24.5405C23.3934 24.6116 23.1707 24.638 22.9497 24.618C20.4985 24.3517 18.1439 23.5141 16.0752 22.1725C14.1505 20.9495 12.5187 19.3177 11.2957 17.393C9.94948 15.3149 9.11169 12.9489 8.85022 10.4866C8.83031 10.2663 8.85649 10.0443 8.92709 9.83472C8.99768 9.62511 9.11115 9.4325 9.26027 9.26915C9.40939 9.10579 9.59088 8.97528 9.7932 8.88591C9.99552 8.79655 10.2142 8.75029 10.4354 8.75008H12.8252C13.2117 8.74627 13.5865 8.88317 13.8796 9.13525C14.1728 9.38733 14.3642 9.7374 14.4183 10.1202C14.5192 10.885 14.7063 11.6359 14.9759 12.3586C15.0831 12.6437 15.1063 12.9536 15.0428 13.2515C14.9792 13.5494 14.8316 13.8228 14.6175 14.0394L13.6058 15.051C14.7398 17.0453 16.391 18.6966 18.3853 19.8305L19.397 18.8189C19.6136 18.6047 19.887 18.4571 20.1849 18.3936C20.4828 18.33 20.7926 18.3532 21.0778 18.4604C21.8005 18.7301 22.5514 18.9172 23.3162 19.018C23.7031 19.0726 24.0565 19.2675 24.3091 19.5657C24.5617 19.8638 24.696 20.2444 24.6863 20.6351Z" stroke="#0A0A0A" stroke-width="1.59316" stroke-linecap="round" stroke-linejoin="round"/>
    </g>
    <defs>
        <clipPath id="clip0_2706_639">
            <rect width="19.118" height="19.118" fill="white" transform="translate(7.16211 7.16016)"/>
        </clipPath>
    </defs>
</svg>
