<svg width="12" height="12" viewBox="0 0 12 12" fill="none" xmlns="http://www.w3.org/2000/svg">
    <path d="M9.6371 3.85156H1.92902C1.66295 3.85156 1.44727 4.06725 1.44727 4.33332V5.29683C1.44727 5.56289 1.66295 5.77858 1.92902 5.77858H9.6371C9.90317 5.77858 10.1189 5.56289 10.1189 5.29683V4.33332C10.1189 4.06725 9.90317 3.85156 9.6371 3.85156Z" stroke="white" stroke-width="0.96351" stroke-linecap="round" stroke-linejoin="round"/>
    <path d="M5.7832 3.85156V10.1144" stroke="white" stroke-width="0.96351" stroke-linecap="round" stroke-linejoin="round"/>
    <path d="M9.15473 5.78125V9.15354C9.15473 9.40907 9.05322 9.65415 8.87252 9.83484C8.69183 10.0155 8.44676 10.117 8.19122 10.117H3.37367C3.11813 10.117 2.87306 10.0155 2.69236 9.83484C2.51167 9.65415 2.41016 9.40907 2.41016 9.15354V5.78125" stroke="white" stroke-width="0.96351" stroke-linecap="round" stroke-linejoin="round"/>
    <path d="M3.61454 3.85039C3.29512 3.85039 2.98878 3.7235 2.76291 3.49764C2.53705 3.27177 2.41016 2.96543 2.41016 2.646C2.41016 2.32658 2.53705 2.02024 2.76291 1.79437C2.98878 1.56851 3.29512 1.44162 3.61454 1.44162C4.07929 1.43352 4.53471 1.65901 4.92142 2.08869C5.30813 2.51837 5.60818 3.13229 5.78244 3.85039C5.9567 3.13229 6.25676 2.51837 6.64347 2.08869C7.03018 1.65901 7.4856 1.43352 7.95034 1.44162C8.26976 1.44162 8.5761 1.56851 8.80197 1.79437C9.02784 2.02024 9.15473 2.32658 9.15473 2.646C9.15473 2.96543 9.02784 3.27177 8.80197 3.49764C8.5761 3.7235 8.26976 3.85039 7.95034 3.85039" stroke="white" stroke-width="0.96351" stroke-linecap="round" stroke-linejoin="round"/>
</svg>
