<svg width="48" height="48" viewBox="0 0 48 48" fill="none" xmlns="http://www.w3.org/2000/svg">
    <circle cx="23.8511" cy="23.8511" r="23.8511" fill="#CB93F3"/>
    <path d="M17.2645 12.8086C14.7725 13.5095 12.9313 15.69 12.6699 18.2599C12.5475 19.4558 12.7867 20.6128 13.5655 22.5986C14.6946 25.4856 16.3578 27.9943 18.6051 30.1914C21.0415 32.5833 23.756 34.2354 27.0211 35.3145C28.2449 35.715 28.7344 35.8096 29.6355 35.8096C30.965 35.8096 31.994 35.4981 33.1121 34.7583C34.9644 33.5401 36.1881 31.0147 35.7042 29.4238C35.5651 28.9677 35.2258 28.4281 34.9032 28.1667C34.5361 27.8719 31.2097 25.9083 30.8036 25.7526C30.3253 25.569 29.4464 25.5245 28.9013 25.6524C27.9445 25.8749 27.3271 26.3644 26.565 27.5159C26.2869 27.9331 26.0421 28.2946 26.0143 28.3224C25.9643 28.3781 25.1688 27.9386 24.4624 27.4658C23.1886 26.6092 21.9481 25.3743 21.0581 24.0727C20.5798 23.3718 20.1014 22.5152 20.157 22.4651C20.1848 22.4373 20.5464 22.1926 20.9691 21.9089C21.4197 21.6029 21.8536 21.2636 22.0371 21.0634C22.4043 20.6684 22.7547 19.9843 22.8548 19.4669C22.955 18.9385 22.8938 18.1208 22.7213 17.6647C22.5044 17.1029 20.5408 13.8099 20.2126 13.4594C20.018 13.2536 19.7955 13.0923 19.4617 12.931C19.0056 12.7029 18.9778 12.6974 18.377 12.6863C17.8653 12.6751 17.6761 12.6974 17.2645 12.8086ZM18.7386 14.6331C18.8832 14.7277 19.178 15.1838 19.9345 16.4521C20.4908 17.3866 20.9747 18.2376 21.0081 18.3489C21.1694 18.8773 21.0081 19.517 20.6187 19.8786C20.513 19.9731 19.9345 20.3848 19.3338 20.7853C18.5383 21.3137 18.2101 21.564 18.1434 21.6919C17.9821 21.9979 18.021 22.3205 18.2825 22.9046C19.3783 25.3743 21.2918 27.5993 23.6558 29.1513C24.3456 29.6018 25.8697 30.3806 26.159 30.4306C26.3981 30.4751 26.7597 30.3694 26.9321 30.2081C27.0156 30.1358 27.3827 29.6185 27.7554 29.0623C28.1225 28.506 28.5063 27.9664 28.6009 27.8608C28.9903 27.438 29.719 27.2878 30.2251 27.5159C30.3531 27.5715 31.193 28.061 32.0997 28.6006C33.9131 29.6853 33.9743 29.7409 33.9743 30.2248C33.9743 30.5808 33.7184 31.3095 33.4125 31.8157C33.0954 32.3608 32.3445 33.0951 31.8049 33.401C31.1485 33.7681 30.6034 33.9294 29.8803 33.9628C29.5298 33.9739 29.1071 33.9628 28.9013 33.9239C28.0669 33.7793 26.2313 33.1062 24.9908 32.4888C22.9605 31.4819 21.353 30.3194 19.7343 28.6951C17.4815 26.4368 15.8961 23.8669 14.906 20.8464C14.5778 19.8508 14.5 19.4669 14.5 18.8217C14.5055 16.9583 15.7181 15.2951 17.526 14.6665C18.0989 14.4663 18.4771 14.4551 18.7386 14.6331Z" fill="white"/>
    <path d="M33.6686 13.8096C33.6408 13.8208 33.5407 13.843 33.4461 13.8653C33.3237 13.8931 32.684 14.4938 30.9875 16.1904L28.6902 18.4821V17.4475C28.6902 16.4685 28.6846 16.4018 28.5622 16.2293C28.1951 15.6786 27.4052 15.6786 27.0381 16.2293C26.9102 16.4129 26.9102 16.4185 26.9102 18.6991C26.9102 20.8796 26.9157 20.9908 27.0214 21.1688C27.0826 21.269 27.2105 21.3969 27.3107 21.4581C27.4887 21.5638 27.5999 21.5693 29.7804 21.5693C32.061 21.5693 32.0666 21.5693 32.2502 21.4414C32.5116 21.269 32.6618 20.9908 32.6618 20.6793C32.6618 20.3678 32.5116 20.0897 32.2502 19.9173C32.0777 19.7949 32.011 19.7893 31.032 19.7893H29.9973L32.2891 17.492C33.9857 15.7955 34.5864 15.1558 34.6142 15.0334C34.6365 14.9388 34.6643 14.8331 34.6754 14.7886C34.7143 14.6718 34.5975 14.3103 34.4696 14.149C34.3027 13.932 33.8688 13.754 33.6686 13.8096Z" fill="white"/>
</svg>
