<svg width="24" height="24" viewBox="0 0 24 24" fill="none" xmlns="http://www.w3.org/2000/svg">
    <path d="M5.2655 0.808632C2.7735 1.50951 0.932314 3.69001 0.670877 6.25988C0.548502 7.45582 0.787689 8.61282 1.56644 10.5986C2.69563 13.4856 4.35881 15.9943 6.60606 18.1914C9.04244 20.5833 11.7569 22.2354 15.0221 23.3145C16.2459 23.715 16.7354 23.8096 17.6365 23.8096C18.9659 23.8096 19.995 23.4981 21.1131 22.7583C22.9654 21.5401 24.1891 19.0147 23.7052 17.4238C23.5661 16.9677 23.2268 16.4281 22.9042 16.1667C22.5371 15.8719 19.2107 13.9083 18.8046 13.7526C18.3263 13.569 17.4474 13.5245 16.9023 13.6524C15.9455 13.8749 15.3281 14.3644 14.566 15.5159C14.2879 15.9331 14.0431 16.2946 14.0153 16.3224C13.9653 16.3781 13.1698 15.9386 12.4634 15.4658C11.1896 14.6092 9.94913 13.3743 9.05913 12.0727C8.58075 11.3718 8.10238 10.5152 8.158 10.4651C8.18581 10.4373 8.54738 10.1926 8.97013 9.90888C9.42069 9.60295 9.85456 9.26363 10.0381 9.06338C10.4053 8.66844 10.7557 7.98426 10.8558 7.46695C10.9559 6.93851 10.8948 6.12082 10.7223 5.6647C10.5054 5.10288 8.54181 1.80988 8.21363 1.45944C8.01894 1.25363 7.79644 1.09232 7.46269 0.931007C7.00656 0.702946 6.97875 0.697382 6.378 0.686258C5.86625 0.675133 5.67713 0.697382 5.2655 0.808632ZM6.73956 2.63313C6.88419 2.7277 7.179 3.18382 7.9355 4.45207C8.49175 5.38657 8.97569 6.23763 9.00906 6.34888C9.17038 6.87732 9.00906 7.51701 8.61969 7.87857C8.514 7.97313 7.9355 8.38476 7.33475 8.78526C6.53931 9.31369 6.21113 9.56401 6.14438 9.69195C5.98306 9.99788 6.022 10.3205 6.28344 10.9046C7.37925 13.3743 9.29275 15.5993 11.6568 17.1513C12.3466 17.6018 13.8707 18.3806 14.1599 18.4306C14.3991 18.4751 14.7607 18.3694 14.9331 18.2081C15.0166 18.1358 15.3837 17.6185 15.7564 17.0623C16.1235 16.506 16.5073 15.9664 16.6019 15.8608C16.9913 15.438 17.7199 15.2878 18.2261 15.5159C18.3541 15.5715 19.194 16.061 20.1007 16.6006C21.9141 17.6853 21.9753 17.7409 21.9753 18.2248C21.9753 18.5808 21.7194 19.3095 21.4134 19.8157C21.0964 20.3608 20.3454 21.0951 19.8059 21.401C19.1495 21.7681 18.6044 21.9294 17.8813 21.9628C17.5308 21.9739 17.1081 21.9628 16.9023 21.9239C16.0679 21.7793 14.2323 21.1062 12.9918 20.4888C10.9615 19.4819 9.35394 18.3194 7.73525 16.6951C5.48244 14.4368 3.89713 11.8669 2.907 8.84645C2.57881 7.85076 2.50094 7.46695 2.50094 6.8217C2.5065 4.95826 3.71913 3.29507 5.52694 2.66651C6.09988 2.46626 6.47813 2.45513 6.73956 2.63313Z" fill="white"/>
    <path d="M21.6686 1.80965C21.6408 1.82077 21.5407 1.84302 21.4461 1.86527C21.3237 1.89309 20.684 2.49384 18.9875 4.1904L16.6902 6.48215V5.44752C16.6902 4.46852 16.6846 4.40177 16.5622 4.22934C16.1951 3.67865 15.4052 3.67865 15.0381 4.22934C14.9102 4.4129 14.9102 4.41846 14.9102 6.69909C14.9102 8.87959 14.9157 8.99084 15.0214 9.16884C15.0826 9.26896 15.2105 9.3969 15.3107 9.45809C15.4887 9.56377 15.5999 9.56934 17.7804 9.56934C20.061 9.56934 20.0666 9.56934 20.2502 9.4414C20.5116 9.26896 20.6618 8.99084 20.6618 8.67934C20.6618 8.36784 20.5116 8.08971 20.2502 7.91727C20.0777 7.7949 20.011 7.78934 19.032 7.78934H17.9973L20.2891 5.49202C21.9857 3.79546 22.5864 3.15577 22.6142 3.0334C22.6365 2.93884 22.6643 2.83315 22.6754 2.78865C22.7143 2.67184 22.5975 2.31027 22.4696 2.14896C22.3027 1.93202 21.8688 1.75402 21.6686 1.80965Z" fill="white"/>
</svg>
