<svg width="34" height="34" viewBox="0 0 34 34" fill="none" xmlns="http://www.w3.org/2000/svg">
    <path d="M0 11.9565C0 5.35311 5.35312 0 11.9565 0H21.4844C28.0878 0 33.4409 5.35312 33.4409 11.9565V21.4844C33.4409 28.0878 28.0878 33.4409 21.4844 33.4409H11.9565C5.35311 33.4409 0 28.0878 0 21.4844V11.9565Z" fill="#FCE7F3"/>
    <path d="M23.8873 19.1059C23.8873 19.5284 23.7195 19.9336 23.4207 20.2324C23.1219 20.5312 22.7167 20.699 22.2941 20.699H12.7352L9.54883 23.8854V11.14C9.54883 10.7175 9.71668 10.3123 10.0155 10.0135C10.3142 9.71473 10.7195 9.54688 11.142 9.54688H22.2941C22.7167 9.54688 23.1219 9.71473 23.4207 10.0135C23.7195 10.3123 23.8873 10.7175 23.8873 11.14V19.1059Z" stroke="#0A0A0A" stroke-width="1.59316" stroke-linecap="round" stroke-linejoin="round"/>
</svg>
