<svg width="48" height="48" viewBox="0 0 48 48" fill="none" xmlns="http://www.w3.org/2000/svg">
    <circle cx="23.8511" cy="23.8511" r="23.8511" fill="#90CAE2"/>
    <path d="M17.2321 12.7773C14.7347 13.4781 12.8991 15.6586 12.6377 18.2283C12.5153 19.4242 12.7545 20.5812 13.5332 22.5669C14.6623 25.4537 16.3255 27.9623 18.5726 30.1594C21.0089 32.5512 23.7233 34.2032 26.9884 35.2823C28.2121 35.6828 28.7016 35.7773 29.6026 35.7773C30.932 35.7773 31.9611 35.4659 33.0791 34.7261C34.5475 33.7582 35.6878 31.9116 35.7657 30.3764C35.7935 29.7423 35.7267 29.3807 35.4764 28.9079C35.1594 28.3016 34.8479 28.0625 32.8788 26.8999C31.8887 26.3103 30.9265 25.7764 30.7429 25.7096C30.2924 25.5372 29.3913 25.4982 28.8684 25.6206C27.9173 25.8431 27.2887 26.3437 26.5267 27.4895C26.2541 27.9011 26.0094 28.2627 25.9816 28.2905C25.9315 28.3461 25.1361 27.9067 24.4297 27.4339C23.156 26.5773 21.9156 25.3425 21.0256 24.0409C20.5472 23.3401 20.0689 22.4835 20.1245 22.4334C20.1523 22.4056 20.5139 22.1609 20.9366 21.8772C21.3871 21.5713 21.821 21.232 22.0046 21.0317C22.3717 20.6368 22.7221 19.9526 22.8222 19.4354C22.9223 18.9069 22.8612 18.0893 22.6887 17.6332C22.4718 17.0714 20.5083 13.7785 20.1801 13.4281C19.991 13.2223 19.763 13.061 19.4403 12.9052C18.9898 12.6827 18.9564 12.6716 18.3501 12.6549C17.8217 12.6438 17.6549 12.6605 17.2321 12.7773ZM18.7061 14.6017C18.8507 14.6963 19.1455 15.1524 19.902 16.4206C20.4582 17.3551 20.9422 18.2061 20.9755 18.3173C21.1368 18.8458 20.9755 19.4854 20.5862 19.847C20.4805 19.9415 19.902 20.3531 19.3013 20.7536C18.111 21.5435 18.022 21.6325 18.0164 22.0886C18.0108 22.5391 18.7395 23.9909 19.5794 25.2034C20.6307 26.7164 22.0212 28.068 23.6232 29.1193C24.3129 29.5698 25.837 30.3486 26.1262 30.3986C26.3654 30.4431 26.7269 30.3374 26.8994 30.1761C26.9828 30.1038 27.3499 29.5865 27.7226 29.0303C28.0897 28.4741 28.4735 27.9345 28.5681 27.8288C28.9574 27.4117 29.6861 27.2559 30.1922 27.484C30.3146 27.5396 31.1601 28.0291 32.0667 28.5686C33.88 29.6533 33.9412 29.7033 33.9412 30.1928C33.9412 30.5488 33.6854 31.2775 33.3794 31.7836C33.0624 32.3287 32.3115 33.0629 31.7719 33.3689C31.1156 33.736 30.5705 33.8973 29.8474 33.9307C29.497 33.9418 29.0742 33.9307 28.8684 33.8917C28.023 33.7471 26.1874 33.0685 24.9303 32.44C22.889 31.4221 21.3315 30.2929 19.7018 28.6632C17.449 26.4049 15.8638 23.8351 14.8737 20.8148C14.5455 19.8192 14.4677 19.4354 14.4677 18.7901C14.4732 16.9212 15.7081 15.2358 17.5325 14.6184C18.0665 14.4349 18.4503 14.4293 18.7061 14.6017Z" fill="white"/>
    <path d="M29.3522 13.8844C28.668 14.1792 28.6624 15.2249 29.341 15.5308C29.5413 15.6254 29.7082 15.6421 30.5202 15.6421H31.4658L29.2298 17.8781C28.0061 19.1129 26.9715 20.1753 26.9381 20.2421C26.9048 20.3088 26.877 20.4979 26.877 20.6592C26.877 21.1988 27.2163 21.5381 27.7558 21.5381C27.9171 21.5381 28.1062 21.5103 28.173 21.4769C28.2397 21.4435 29.3021 20.4089 30.5369 19.1852L32.773 16.9492V17.8948C32.773 18.7681 32.7841 18.8626 32.9009 19.0907C33.2068 19.7081 34.0356 19.7526 34.4639 19.1797C34.5752 19.0295 34.5807 18.9516 34.5974 16.7323L34.6141 14.4406L34.4862 14.2515C34.4138 14.1458 34.2692 14.0012 34.1691 13.9344C33.98 13.8065 33.98 13.8065 31.7495 13.8065C30.0196 13.8121 29.4801 13.8288 29.3522 13.8844Z" fill="white"/>
</svg>

