<svg width="14" height="14" viewBox="0 0 14 14" fill="none" xmlns="http://www.w3.org/2000/svg">
    <path d="M3.27592 2.04466C3.16828 2.09954 3.04587 2.23461 3.01632 2.33803C3.00155 2.38657 2.99733 4.06442 3.00155 7.44969L3.00774 12.3747C3.00783 12.4468 3.02998 12.517 3.0712 12.5761C3.10708 12.6268 3.17672 12.6964 3.22527 12.7323C3.34556 12.8167 3.5735 12.8336 3.71701 12.7703C3.90274 12.6859 12.2751 7.84013 12.3448 7.77681C12.4482 7.67762 12.4946 7.56576 12.4946 7.40325C12.4946 7.24074 12.4482 7.12889 12.3448 7.02969C12.2794 6.96849 3.91751 2.12697 3.72546 2.04044C3.60516 1.98557 3.39411 1.98768 3.27592 2.04466ZM7.75231 5.16611C9.87338 6.39021 11.6082 7.39692 11.6082 7.40325C11.6082 7.4117 5.73889 10.8075 3.7951 11.9261C3.74979 11.9516 3.6938 11.9188 3.6938 11.8668V7.40325V2.93967C3.6938 2.88768 3.74979 2.85494 3.7951 2.88043C3.85209 2.9142 5.63125 3.94201 7.75231 5.16611Z" fill="#333333"/>
    <rect x="12.3789" y="2" width="0.771845" height="10.8058" rx="0.385922" fill="#333333"/>
</svg>
