<svg width="14" height="14" viewBox="0 0 14 14" fill="none" xmlns="http://www.w3.org/2000/svg">
    <path d="M10.7241 2.04466C10.8317 2.09954 10.9541 2.23461 10.9837 2.33803C10.9984 2.38657 11.0027 4.06442 10.9984 7.44969L10.9923 12.3747C10.9922 12.4468 10.97 12.517 10.9288 12.5761C10.8929 12.6268 10.8233 12.6964 10.7747 12.7323C10.6544 12.8167 10.4265 12.8336 10.283 12.7703C10.0973 12.6859 1.72486 7.84013 1.65521 7.77681C1.5518 7.67762 1.50537 7.56576 1.50537 7.40325C1.50537 7.24074 1.5518 7.12889 1.65521 7.02969C1.72064 6.96849 10.0825 2.12697 10.2745 2.04044C10.3948 1.98557 10.6059 1.98768 10.7241 2.04466ZM6.24769 5.16611C4.12662 6.39021 2.39178 7.39692 2.39178 7.40325C2.39178 7.4117 8.26111 10.8075 10.2049 11.9261C10.2502 11.9516 10.3062 11.9188 10.3062 11.8668V7.40325V2.93967C10.3062 2.88768 10.2502 2.85494 10.2049 2.88043C10.1479 2.9142 8.36875 3.94201 6.24769 5.16611Z" fill="#333333"/>
    <rect width="0.771845" height="10.8058" rx="0.385922" transform="matrix(-1 0 0 1 1.62109 2)" fill="#333333"/>
</svg>
