<svg width="30" height="32" viewBox="0 0 30 32" fill="none" xmlns="http://www.w3.org/2000/svg">
    <path d="M1.76241 0.131874C1.44366 0.294374 1.08116 0.694374 0.993657 1.00062C0.949907 1.14437 0.937407 6.11312 0.949907 16.1381L0.968245 30.7229C0.968513 30.9363 1.03409 31.1444 1.15616 31.3194C1.26241 31.4694 1.46866 31.6756 1.61241 31.7819C1.96866 32.0319 2.64366 32.0819 3.06866 31.8944C3.61866 31.6444 28.4124 17.2944 28.6187 17.1069C28.9249 16.8131 29.0624 16.4819 29.0624 16.0006C29.0624 15.5194 28.9249 15.1881 28.6187 14.8944C28.4249 14.7131 3.66241 0.375624 3.09366 0.119375C2.73741 -0.0431252 2.11241 -0.0368767 1.76241 0.131874ZM15.0187 9.37562C21.2999 13.0006 26.4374 15.9819 26.4374 16.0006C26.4374 16.0256 9.05616 26.0819 3.29991 29.3944C3.16571 29.4699 2.99991 29.3729 2.99991 29.2189V16.0006V2.78233C2.99991 2.62836 3.16571 2.53139 3.29991 2.60687C3.46866 2.70687 8.73741 5.75062 15.0187 9.37562Z" fill="white"/>
</svg>

