<svg width="16" height="13" viewBox="0 0 16 13" fill="none" xmlns="http://www.w3.org/2000/svg">
    <path d="M12.9379 11.0866C13.0696 11.1807 13.2485 11.1431 13.352 10.9972C14.2085 9.76427 14.7214 8.21603 14.7214 6.53132C14.7214 4.84661 14.2085 3.29366 13.352 2.06542C13.2485 1.91483 13.0696 1.87719 12.9379 1.9713C12.8014 2.07013 12.7779 2.24895 12.8814 2.39954C13.6437 3.54778 14.1426 4.96896 14.1426 6.53132C14.1426 8.09368 13.6861 9.55251 12.8767 10.6631C12.7732 10.8137 12.7967 10.9878 12.9379 11.0866ZM6.64607 10.729C6.92372 10.729 7.10725 10.5266 7.10725 10.2537V2.77131C7.10725 2.49837 6.92372 2.27719 6.64137 2.27719C6.44372 2.27719 6.30254 2.3666 6.1096 2.55013L3.98724 4.58778C3.94959 4.62543 3.90253 4.64426 3.84136 4.64426H2.39665C1.82253 4.64426 1.47429 4.99249 1.47429 5.59485V7.44427C1.47429 8.04191 1.82253 8.39486 2.39665 8.39486H3.84136C3.90253 8.39486 3.94959 8.40897 3.98724 8.44662L6.1096 10.4749C6.28843 10.6396 6.44843 10.729 6.64607 10.729ZM11.0602 9.81133C11.2014 9.90545 11.3708 9.8678 11.4743 9.72663C12.1049 8.87015 12.4579 7.74074 12.4579 6.53132C12.4579 5.3172 12.1096 4.18778 11.4743 3.33131C11.3661 3.19013 11.2014 3.15249 11.0602 3.25131C10.919 3.34543 10.9002 3.51955 11.0084 3.67484C11.5308 4.46073 11.879 5.44426 11.879 6.53132C11.879 7.61838 11.559 8.63015 11.0037 9.3878C10.9002 9.53839 10.919 9.71721 11.0602 9.81133ZM9.19667 8.55015C9.32373 8.63486 9.49785 8.61133 9.60138 8.47015C9.96844 7.98544 10.199 7.27485 10.199 6.53132C10.199 5.78308 9.96844 5.0772 9.60138 4.59249C9.49785 4.45131 9.32844 4.42308 9.19667 4.51249C9.04608 4.61602 9.02255 4.79955 9.1402 4.95484C9.42726 5.34543 9.6202 5.92426 9.6202 6.53132C9.6202 7.14309 9.42255 7.72191 9.13079 8.11721C9.02255 8.2678 9.04608 8.44192 9.19667 8.55015Z" fill="url(#paint0_linear_995_8567)"/>
    <defs>
        <linearGradient id="paint0_linear_995_8567" x1="7.91667" y1="0.910156" x2="7.91667" y2="12.6131" gradientUnits="userSpaceOnUse">
            <stop stop-color="#36BBF2"/>
            <stop offset="1" stop-color="#7A32E6"/>
        </linearGradient>
    </defs>
</svg>
