<svg width="22" height="26" viewBox="0 0 22 26" fill="none" xmlns="http://www.w3.org/2000/svg">
    <path d="M13.7644 12.0741V4.46837C13.7644 2.22288 12.2916 0.532723 10.1065 0.532723C7.94548 0.532723 6.44849 2.18666 6.44849 4.37178V4.74603L13.7644 12.0741ZM20.3681 22.553C20.6579 22.8427 21.1166 22.8427 21.3943 22.553C21.684 22.2874 21.6719 21.8166 21.3943 21.5389L1.61948 1.77619C1.35389 1.49852 0.870986 1.49852 0.593318 1.77619C0.31565 2.05386 0.31565 2.52469 0.593318 2.80236L20.3681 22.553ZM4.55311 24.0862C4.16679 24.0862 3.84083 24.4242 3.84083 24.7985C3.84083 25.1727 4.16679 25.4987 4.55311 25.4987H15.6598C16.0341 25.4987 16.36 25.1727 16.36 24.7985C16.36 24.4242 16.0341 24.0862 15.6598 24.0862H10.8067V20.9111C12.5693 20.7904 14.0783 20.1989 15.2373 19.2572L14.2353 18.2552C13.1729 19.1123 11.7604 19.6073 10.1065 19.6073C6.14668 19.6073 3.45451 16.8427 3.45451 13.0761V10.4805C3.45451 10.0459 3.17684 9.7682 2.76637 9.7682C2.35591 9.7682 2.07824 10.0459 2.07824 10.4805V13.0761C2.07824 17.4222 4.97564 20.6093 9.39419 20.9111V24.0862H4.55311ZM18.1226 10.4805C18.1226 10.0459 17.845 9.7682 17.4345 9.7682C17.024 9.7682 16.7464 10.0459 16.7464 10.4805V13.0761C16.7464 13.6918 16.6618 14.2833 16.517 14.8266L17.6518 15.9614C17.9536 15.0801 18.1226 14.1143 18.1226 13.0761V10.4805ZM12.1105 16.1304L6.44849 10.4563V12.895C6.44849 15.1405 7.92134 16.8186 10.1065 16.8186C10.9033 16.8186 11.5914 16.565 12.1105 16.1304Z" fill="white"/>
</svg>
