<svg width="33" height="25" viewBox="0 0 33 25" fill="none" xmlns="http://www.w3.org/2000/svg">
    <path d="M26.9652 21.452C27.2399 21.6482 27.6126 21.5697 27.8283 21.2657C29.6134 18.6959 30.6825 15.4691 30.6825 11.9578C30.6825 8.4465 29.6134 5.20983 27.8283 2.64992C27.6126 2.33606 27.2399 2.2576 26.9652 2.45376C26.6808 2.65973 26.6318 3.03244 26.8475 3.3463C28.4364 5.73947 29.4761 8.70151 29.4761 11.9578C29.4761 15.2141 28.5247 18.2546 26.8377 20.5693C26.6219 20.8832 26.671 21.2461 26.9652 21.452ZM13.8518 20.7066C14.4305 20.7066 14.813 20.2849 14.813 19.716V4.12114C14.813 3.55227 14.4305 3.09129 13.842 3.09129C13.4301 3.09129 13.1358 3.27764 12.7337 3.66016L8.31025 7.90706C8.23179 7.98552 8.1337 8.02475 8.0062 8.02475H4.99512C3.79853 8.02475 3.07273 8.75055 3.07273 10.006V13.8606C3.07273 15.1062 3.79853 15.8418 4.99512 15.8418H8.0062C8.1337 15.8418 8.23179 15.8712 8.31025 15.9497L12.7337 20.177C13.1064 20.5203 13.4399 20.7066 13.8518 20.7066ZM23.0518 18.794C23.346 18.9902 23.6991 18.9117 23.9149 18.6175C25.2292 16.8324 25.9648 14.4785 25.9648 11.9578C25.9648 9.42731 25.239 7.07337 23.9149 5.2883C23.6893 4.99405 23.346 4.91559 23.0518 5.12156C22.7576 5.31772 22.7183 5.68062 22.9439 6.00429C24.0326 7.64224 24.7584 9.69213 24.7584 11.9578C24.7584 14.2235 24.0915 16.3322 22.9341 17.9113C22.7183 18.2252 22.7576 18.5979 23.0518 18.794ZM19.1678 16.1655C19.4326 16.342 19.7955 16.293 20.0113 15.9987C20.7763 14.9885 21.2569 13.5075 21.2569 11.9578C21.2569 10.3983 20.7763 8.9271 20.0113 7.91686C19.7955 7.62262 19.4424 7.56377 19.1678 7.75013C18.8539 7.9659 18.8049 8.34842 19.0501 8.67209C19.6484 9.48616 20.0505 10.6926 20.0505 11.9578C20.0505 13.2328 19.6386 14.4392 19.0305 15.2631C18.8049 15.577 18.8539 15.9399 19.1678 16.1655Z" fill="white"/>
</svg>
