<svg width="18" height="18" viewBox="0 0 18 18" fill="none" xmlns="http://www.w3.org/2000/svg">
    <path d="M13.8336 14.1016H13.3836C13.3296 12.19 12.1614 10.4998 10.4442 9.86437C10.0878 9.73298 9.84838 9.38558 9.84838 9.00038C9.84838 8.61517 10.0878 8.26777 10.4442 8.13638C12.1614 7.50097 13.3296 5.81078 13.3836 3.89917H13.8336C14.2746 3.89917 14.6346 3.53917 14.6346 3.09997C14.6346 2.65898 14.2746 2.30078 13.8336 2.30078H4.16038C3.71938 2.30078 3.35938 2.65898 3.35938 3.09997C3.35938 3.53917 3.71938 3.89917 4.16038 3.89917H4.61038C4.66438 5.81078 5.83258 7.50097 7.54978 8.13638C7.90618 8.26777 8.14558 8.61517 8.14558 9.00038C8.14558 9.38558 7.90618 9.73298 7.54978 9.86437C5.83258 10.4998 4.66438 12.19 4.61038 14.1016H4.16038C3.71938 14.1016 3.35938 14.4616 3.35938 14.9008C3.35938 15.3418 3.71938 15.7 4.16038 15.7H13.8336C14.2746 15.7 14.6346 15.3418 14.6346 14.9008C14.6346 14.4616 14.2746 14.1016 13.8336 14.1016ZM4.16038 3.61478C3.87418 3.61478 3.64378 3.38437 3.64378 3.09997C3.64378 2.81378 3.87418 2.58337 4.16038 2.58337H13.8336C14.1198 2.58337 14.3502 2.81378 14.3502 3.09997C14.3502 3.38437 14.1198 3.61478 13.8336 3.61478H4.16038ZM4.89298 3.89917H13.101C13.0758 4.71818 12.8346 5.49578 12.426 6.15277H5.56798C5.15938 5.49578 4.91818 4.71818 4.89298 3.89917ZM7.64698 10.1308C8.11498 9.95798 8.42818 9.50437 8.42818 9.00038C8.42818 8.49638 8.11498 8.04277 7.64698 7.86997C6.88378 7.58738 6.23578 7.08158 5.76058 6.43538H12.2334C11.7582 7.08158 11.1102 7.58738 10.347 7.86997C9.87898 8.04277 9.56578 8.49638 9.56578 9.00038C9.56578 9.50437 9.87898 9.95798 10.347 10.1308C11.8158 10.6726 12.8562 12.0442 13.065 13.648C12.1776 12.856 11.2794 12.2566 10.2642 11.7778C9.45958 11.398 8.53438 11.398 7.72978 11.7778C6.71458 12.2566 5.81638 12.856 4.92898 13.648C5.13778 12.0442 6.17818 10.6726 7.64698 10.1308ZM13.8336 15.4174H4.16038C3.87418 15.4174 3.64378 15.187 3.64378 14.9008C3.64378 14.6164 3.87418 14.386 4.16038 14.386H13.8336C14.1198 14.386 14.3502 14.6164 14.3502 14.9008C14.3502 15.187 14.1198 15.4174 13.8336 15.4174Z" fill="#1D3856"/>
    <path d="M8.85938 8.87012H9.14233V10.8897H8.85938V8.87012Z" fill="#1D3856"/>
    <path d="M2.15355 5.94222C1.7225 6.90474 1.50429 7.93146 1.50429 8.99997C1.50429 10.202 1.7804 11.3511 2.32507 12.4155L2.57695 12.2865C2.05301 11.2625 1.78731 10.1567 1.78731 8.99997C1.78731 7.9598 2.00227 6.96093 2.42652 6.02561L2.98831 7.72489L3.25696 7.63608L2.58534 5.60453L2.39168 5.52051L0.449219 6.41776L0.567882 6.67462L2.15355 5.94222Z" fill="#1D3856"/>
    <path d="M15.6075 12.4799L17.5499 11.5827L17.4313 11.3258L15.8456 12.0582C16.2767 11.0957 16.4949 10.069 16.4949 9.00048C16.4949 7.79847 16.2187 6.64933 15.6741 5.58496L15.4222 5.71394C15.9461 6.73796 16.2118 7.8437 16.2118 9.00048C16.2118 10.0407 15.9969 11.0395 15.5726 11.9748L15.0108 10.2756L14.7422 10.3644L15.4138 12.3959L15.6075 12.4799Z" fill="#1D3856"/>
</svg>
