<svg width="301" height="64" viewBox="0 0 301 64" fill="none" xmlns="http://www.w3.org/2000/svg">
    <path d="M0 21.0191C0 27.3489 0 33.6787 0 40.0085C0 40.9139 0 41.8193 0 42.7247C0 43.3045 2.24588 43.3054 2.24588 42.7247C2.24588 36.3949 2.24588 30.0652 2.24588 23.7354C2.24588 22.83 2.24588 21.9246 2.24588 21.0191C2.24588 20.4394 0 20.4385 0 21.0191Z" fill="url(#paint0_linear_995_8440)"/>
    <path d="M4.89062 27.0436C4.89062 30.2616 4.89062 33.4795 4.89062 36.6975C4.89062 37.2773 7.1365 37.2782 7.1365 36.6975C7.1365 33.4795 7.1365 30.2616 7.1365 27.0436C7.1365 26.4638 4.89062 26.4629 4.89062 27.0436Z" fill="url(#paint1_linear_995_8440)"/>
    <path d="M9.78125 19.9742C9.78125 26.9354 9.78125 33.8964 9.78125 40.8576C9.78125 41.828 9.78125 42.7985 9.78125 43.7689C9.78125 44.3486 12.0271 44.3496 12.0271 43.7689C12.0271 36.8078 12.0271 29.8467 12.0271 22.8856C12.0271 21.9152 12.0271 20.9447 12.0271 19.9743C12.0271 19.3945 9.78125 19.3935 9.78125 19.9742Z" fill="url(#paint2_linear_995_8440)"/>
    <path d="M14.6719 22.2076C14.6719 27.8406 14.6719 33.4736 14.6719 39.1066C14.6719 39.9157 14.6719 40.7249 14.6719 41.5341C14.6719 42.1139 16.9178 42.1148 16.9178 41.5341C16.9178 35.9012 16.9178 30.2682 16.9178 24.6352C16.9178 23.826 16.9178 23.0168 16.9178 22.2077C16.9178 21.6279 14.6719 21.6269 14.6719 22.2076Z" fill="url(#paint3_linear_995_8440)"/>
    <path d="M19.5625 26.4674C19.5625 30.0701 19.5625 33.6729 19.5625 37.2756C19.5625 37.8554 21.8084 37.8563 21.8084 37.2756C21.8084 33.6729 21.8084 30.0701 21.8084 26.4674C21.8084 25.8876 19.5625 25.8867 19.5625 26.4674Z" fill="url(#paint4_linear_995_8440)"/>
    <path d="M24.4531 22.7487C24.4531 28.069 24.4531 33.3894 24.4531 38.7097C24.4531 39.4717 24.4531 40.2336 24.4531 40.9955C24.4531 41.5753 26.699 41.5762 26.699 40.9955C26.699 35.6752 26.699 30.3548 26.699 25.0344C26.699 24.2725 26.699 23.5105 26.699 22.7487C26.699 22.1689 24.4531 22.1679 24.4531 22.7487Z" fill="url(#paint5_linear_995_8440)"/>
    <path d="M29.3438 10.2525C29.3438 15.1437 29.3438 20.0349 29.3438 24.9261C29.3438 32.6626 29.3438 40.3992 29.3438 48.1357C29.3438 49.9201 29.3438 51.7044 29.3438 53.4888C29.3438 54.0685 31.5896 54.0694 31.5896 53.4888C31.5896 48.5976 31.5896 43.7064 31.5896 38.8152C31.5896 31.0786 31.5896 23.3421 31.5896 15.6055C31.5896 13.8212 31.5896 12.0368 31.5896 10.2525C31.5896 9.6728 29.3438 9.67188 29.3438 10.2525Z" fill="url(#paint6_linear_995_8440)"/>
    <path d="M34.2344 14.2359C34.2344 18.2215 34.2344 22.2072 34.2344 26.1927C34.2344 32.5129 34.2344 38.8331 34.2344 45.1532C34.2344 46.6045 34.2344 48.0558 34.2344 49.5071C34.2344 50.0868 36.4803 50.0877 36.4803 49.5071C36.4803 45.5215 36.4803 41.5358 36.4803 37.5503C36.4803 31.2301 36.4803 24.91 36.4803 18.5898C36.4803 17.1385 36.4803 15.6872 36.4803 14.2359C36.4803 13.6562 34.2344 13.6553 34.2344 14.2359Z" fill="url(#paint7_linear_995_8440)"/>
    <path d="M39.125 21.4791C39.125 27.5403 39.125 33.6016 39.125 39.6627C39.125 40.5293 39.125 41.396 39.125 42.2626C39.125 42.8424 41.3709 42.8433 41.3709 42.2626C41.3709 36.2014 41.3709 30.1402 41.3709 24.079C41.3709 23.2124 41.3709 22.3457 41.3709 21.4791C41.3709 20.8994 39.125 20.8984 39.125 21.4791Z" fill="url(#paint8_linear_995_8440)"/>
    <path d="M44.0156 15.7135C44.0156 19.3521 44.0156 22.9906 44.0156 26.6293C44.0156 32.4297 44.0156 38.2301 44.0156 44.0306C44.0156 45.3632 44.0156 46.6958 44.0156 48.0284C44.0156 48.6081 46.2615 48.609 46.2615 48.0284C46.2615 44.3898 46.2615 40.7512 46.2615 37.1126C46.2615 31.3121 46.2615 25.5117 46.2615 19.7113C46.2615 18.3787 46.2615 17.0461 46.2615 15.7135C46.2615 15.1337 44.0156 15.1328 44.0156 15.7135Z" fill="url(#paint9_linear_995_8440)"/>
    <path d="M48.9062 21.7633C48.9062 27.6647 48.9062 33.5662 48.9062 39.4676C48.9062 40.3047 48.9062 41.1418 48.9062 41.9788C48.9062 42.5585 51.1521 42.5595 51.1521 41.9788C51.1521 36.0773 51.1521 30.1759 51.1521 24.2745C51.1521 23.4374 51.1521 22.6004 51.1521 21.7633C51.1521 21.1835 48.9062 21.1826 48.9062 21.7633Z" fill="white"/>
    <path d="M53.7969 23.6275C53.7969 28.4352 53.7969 33.243 53.7969 38.0507C53.7969 38.7386 53.7969 39.4265 53.7969 40.1143C53.7969 40.6941 56.0428 40.695 56.0428 40.1143C56.0428 35.3066 56.0428 30.4989 56.0428 25.6912C56.0428 25.0032 56.0428 24.3154 56.0428 23.6275C56.0428 23.0478 53.7969 23.0468 53.7969 23.6275Z" fill="white"/>
    <path d="M58.6836 25.4908C58.6836 29.7443 58.6836 33.9977 58.6836 38.2512C58.6836 38.8309 60.9295 38.8318 60.9295 38.2512C60.9295 33.9977 60.9295 29.7443 60.9295 25.4908C60.9295 24.9111 58.6836 24.9101 58.6836 25.4908Z" fill="white"/>
    <path d="M63.5742 16.2897C63.5742 19.8125 63.5742 23.3355 63.5742 26.8583C63.5742 32.4411 63.5742 38.024 63.5742 43.6069C63.5742 44.8892 63.5742 46.1716 63.5742 47.454C63.5742 48.0337 65.8201 48.0347 65.8201 47.454C65.8201 43.9311 65.8201 40.4082 65.8201 36.8853C65.8201 31.3025 65.8201 25.7197 65.8201 20.1368C65.8201 18.8544 65.8201 17.572 65.8201 16.2897C65.8201 15.7099 63.5742 15.7089 63.5742 16.2897Z" fill="white"/>
    <path d="M68.4688 22.278C68.4688 27.8891 68.4688 33.5003 68.4688 39.1115C68.4688 39.8957 68.4688 40.6799 68.4688 41.464C68.4688 42.0438 70.7146 42.0447 70.7146 41.464C70.7146 35.8529 70.7146 30.2417 70.7146 24.6305C70.7146 23.8463 70.7146 23.0621 70.7146 22.2779C70.7146 21.6982 68.4688 21.6972 68.4688 22.278Z" fill="white"/>
    <path d="M73.3555 19.5142C73.3555 26.7437 73.3555 33.9732 73.3555 41.2027C73.3555 42.2119 73.3555 43.221 73.3555 44.2302C73.3555 44.8099 75.6013 44.8109 75.6013 44.2302C75.6013 37.0007 75.6013 29.7712 75.6013 22.5418C75.6013 21.5326 75.6013 20.5235 75.6013 19.5143C75.6013 18.9345 73.3555 18.9336 73.3555 19.5142Z" fill="white"/>
    <path d="M78.2461 22.0416C78.2461 27.7771 78.2461 33.5127 78.2461 39.2483C78.2461 40.0658 78.2461 40.8833 78.2461 41.7008C78.2461 42.2806 80.492 42.2815 80.492 41.7008C80.492 35.9653 80.492 30.2297 80.492 24.4942C80.492 23.6767 80.492 22.8592 80.492 22.0416C80.492 21.4619 78.2461 21.4609 78.2461 22.0416Z" fill="white"/>
    <path d="M83.1367 16.6725C83.1367 20.091 83.1367 23.5096 83.1367 26.9282C83.1367 32.3826 83.1367 37.8371 83.1367 43.2915C83.1367 44.5511 83.1367 45.8108 83.1367 47.0703C83.1367 47.6501 85.3826 47.651 85.3826 47.0703C85.3826 43.6518 85.3826 40.2332 85.3826 36.8146C85.3826 31.3602 85.3826 25.9057 85.3826 20.4512C85.3826 19.1917 85.3826 17.932 85.3826 16.6725C85.3826 16.0927 83.1367 16.0918 83.1367 16.6725Z" fill="white"/>
    <path d="M88.0312 24.9186C88.0312 28.9646 88.0312 33.0106 88.0312 37.0565C88.0312 37.6453 88.0312 38.234 88.0312 38.8228C88.0312 39.4025 90.2771 39.4035 90.2771 38.8228C90.2771 34.7768 90.2771 30.7308 90.2771 26.6848C90.2771 26.0961 90.2771 25.5073 90.2771 24.9186C90.2771 24.3388 88.0312 24.3379 88.0312 24.9186Z" fill="white"/>
    <path d="M92.918 23.44C92.918 28.3705 92.918 33.301 92.918 38.2314C92.918 38.9217 92.918 39.612 92.918 40.3023C92.918 40.882 95.1638 40.8829 95.1638 40.3023C95.1638 35.3718 95.1638 30.4413 95.1638 25.5109C95.1638 24.8206 95.1638 24.1303 95.1638 23.4401C95.1638 22.8603 92.918 22.8593 92.918 23.44Z" fill="white"/>
    <path d="M97.8086 13.0758C97.8086 17.3241 97.8086 21.5725 97.8086 25.8209C97.8086 32.5584 97.8086 39.2959 97.8086 46.0334C97.8086 47.5785 97.8086 49.1237 97.8086 50.6688C97.8086 51.2485 100.054 51.2495 100.054 50.6688C100.054 46.4204 100.054 42.172 100.054 37.9237C100.054 31.1862 100.054 24.4487 100.054 17.7112C100.054 16.1661 100.054 14.6209 100.054 13.0759C100.054 12.4961 97.8086 12.4951 97.8086 13.0758Z" fill="white"/>
    <path d="M102.699 11.2359C102.699 15.8777 102.699 20.5196 102.699 25.1614C102.699 32.567 102.699 39.9726 102.699 47.3782C102.699 49.0876 102.699 50.7969 102.699 52.5062C102.699 53.0859 104.945 53.0869 104.945 52.5062C104.945 47.8644 104.945 43.2226 104.945 38.5808C104.945 31.1751 104.945 23.7695 104.945 16.3639C104.945 14.6546 104.945 12.9452 104.945 11.2359C104.945 10.6562 102.699 10.6553 102.699 11.2359Z" fill="white"/>
    <path d="M107.59 27.0563C107.59 30.2666 107.59 33.4769 107.59 36.6872C107.59 37.2669 109.836 37.2679 109.836 36.6872C109.836 33.4769 109.836 30.2666 109.836 27.0563C109.836 26.4765 107.59 26.4755 107.59 27.0563Z" fill="white"/>
    <path d="M112.48 14.4039C112.48 18.3306 112.48 22.2574 112.48 26.1842C112.48 32.4517 112.48 38.7194 112.48 44.987C112.48 46.4374 112.48 47.8878 112.48 49.3382C112.48 49.9179 114.726 49.9188 114.726 49.3382C114.726 45.4114 114.726 41.4846 114.726 37.5579C114.726 31.2902 114.726 25.0226 114.726 18.755C114.726 17.3047 114.726 15.8542 114.726 14.4039C114.726 13.8242 112.48 13.8232 112.48 14.4039Z" fill="white"/>
    <path d="M117.446 2.45761C117.446 4.41437 117.446 6.37114 117.446 8.32791C117.446 13.0009 117.446 17.6739 117.446 22.3468C117.446 27.9985 117.446 33.6502 117.446 39.3019C117.446 44.212 117.446 49.1222 117.446 54.0323C117.446 55.6502 117.446 57.2682 117.446 58.886C117.446 59.6421 117.286 60.4316 117.446 61.1856C117.453 61.2179 117.446 61.2516 117.446 61.2841C117.446 61.8638 119.638 61.8648 119.638 61.2841C119.638 59.3273 119.638 57.3706 119.638 55.4138C119.638 50.7408 119.638 46.0679 119.638 41.3949C119.638 35.7432 119.638 30.0916 119.638 24.4399C119.638 19.5297 119.638 14.6196 119.638 9.70945C119.638 8.09152 119.638 6.47358 119.638 4.85571C119.638 4.0997 119.798 3.31013 119.638 2.55615C119.631 2.52384 119.638 2.49017 119.638 2.45767C119.638 1.87787 117.446 1.87694 117.446 2.45761Z" fill="white"/>
    <path d="M122.352 7.73202C122.352 13.1959 122.352 18.6598 122.352 24.1238C122.352 32.7676 122.352 41.4115 122.352 50.0553C122.352 52.0404 122.352 54.0254 122.352 56.0105C122.352 56.5902 124.597 56.5912 124.597 56.0105C124.597 50.5466 124.597 45.0827 124.597 39.6188C124.597 30.9749 124.597 22.331 124.597 13.6872C124.597 11.7022 124.597 9.71715 124.597 7.73208C124.597 7.15228 122.352 7.15135 122.352 7.73202Z" fill="white"/>
    <path d="M127.309 5.02598C127.309 6.81111 127.309 8.59617 127.309 10.3812C127.309 14.6424 127.309 18.9036 127.309 23.1649C127.309 28.3438 127.309 33.5228 127.309 38.7018C127.309 43.1603 127.309 47.6189 127.309 52.0774C127.309 53.5562 127.309 55.035 127.309 56.5138C127.309 57.2066 127.159 57.9317 127.309 58.6225C127.316 58.6529 127.309 58.6848 127.309 58.7154C127.309 59.2951 129.504 59.296 129.504 58.7154C129.504 56.9303 129.504 55.1452 129.504 53.3601C129.504 49.0989 129.504 44.8377 129.504 40.5764C129.504 35.3975 129.504 30.2185 129.504 25.0395C129.504 20.581 129.504 16.1224 129.504 11.6639C129.504 10.1851 129.504 8.70627 129.504 7.22748C129.504 6.53474 129.654 5.80961 129.504 5.11878C129.497 5.08838 129.504 5.0565 129.504 5.02592C129.504 4.44624 127.309 4.44531 127.309 5.02598Z" fill="white"/>
    <path d="M132.215 20.3238C132.215 27.0621 132.215 33.8004 132.215 40.5387C132.215 41.4987 132.215 42.4588 132.215 43.4188C132.215 43.9986 134.461 43.9995 134.461 43.4188C134.461 36.6805 134.461 29.9422 134.461 23.2039C134.461 22.2439 134.461 21.2839 134.461 20.3238C134.461 19.7441 132.215 19.7432 132.215 20.3238Z" fill="white"/>
    <path d="M137.105 22.5143C137.105 27.9842 137.105 33.4541 137.105 38.924C137.105 39.6921 137.105 40.4603 137.105 41.2283C137.105 41.8081 139.351 41.809 139.351 41.2283C139.351 35.7584 139.351 30.2885 139.351 24.8186C139.351 24.0505 139.351 23.2823 139.351 22.5143C139.351 21.9345 137.105 21.9335 137.105 22.5143Z" fill="white"/>
    <path d="M141.996 19.943C141.996 26.8955 141.996 33.8481 141.996 40.8006C141.996 41.8004 141.996 42.8002 141.996 43.7999C141.996 44.3796 144.242 44.3805 144.242 43.7999C144.242 36.8473 144.242 29.8948 144.242 22.9422C144.242 21.9425 144.242 20.9427 144.242 19.943C144.242 19.3632 141.996 19.3623 141.996 19.943Z" fill="white"/>
    <path d="M146.887 25.0084C146.887 29.0119 146.887 33.0154 146.887 37.0189C146.887 37.5907 146.887 38.1624 146.887 38.7343C146.887 39.314 149.133 39.3149 149.133 38.7343C149.133 34.7308 149.133 30.7273 149.133 26.7238C149.133 26.152 149.133 25.5802 149.133 25.0084C149.132 24.4287 146.887 24.4277 146.887 25.0084Z" fill="white"/>
    <path d="M151.777 9.9332C151.777 14.8853 151.777 19.8373 151.777 24.7894C151.777 32.67 151.777 40.5506 151.777 48.4312C151.777 50.2234 151.777 52.0156 151.777 53.8079C151.777 54.3876 154.023 54.3885 154.023 53.8079C154.023 48.8558 154.023 43.9037 154.023 38.9516C154.023 31.0711 154.023 23.1905 154.023 15.3099C154.023 13.5177 154.023 11.7254 154.023 9.9332C154.023 9.35346 151.777 9.35253 151.777 9.9332Z" fill="white"/>
    <path d="M156.668 25.3863C156.668 29.1606 156.668 32.9348 156.668 36.7091C156.668 37.2586 156.668 37.8081 156.668 38.3576C156.668 38.9373 158.914 38.9382 158.914 38.3576C158.914 34.5833 158.914 30.809 158.914 27.0348C158.914 26.4852 158.914 25.9358 158.914 25.3862C158.914 24.8066 156.668 24.8056 156.668 25.3863Z" fill="white"/>
    <path d="M161.625 3.78183C161.625 5.63758 161.625 7.49333 161.625 9.34901C161.625 13.8318 161.625 18.3146 161.625 22.7973C161.625 28.1979 161.625 33.5986 161.625 38.9991C161.625 43.6711 161.625 48.3431 161.625 53.0151C161.625 54.5638 161.625 56.1125 161.625 57.6612C161.625 58.3854 161.467 59.1437 161.625 59.8658C161.631 59.8973 161.625 59.93 161.625 59.9617C161.625 60.5414 163.817 60.5423 163.817 59.9617C163.817 58.1059 163.817 56.2502 163.817 54.3945C163.817 49.9117 163.817 45.4289 163.817 40.9462C163.817 35.5455 163.817 30.1449 163.817 24.7443C163.817 20.0723 163.817 15.4004 163.817 10.7284C163.817 9.17966 163.817 7.63099 163.817 6.08232C163.817 5.35806 163.975 4.59988 163.817 3.87766C163.81 3.84621 163.817 3.81347 163.817 3.78183C163.817 3.20209 161.625 3.20117 161.625 3.78183Z" fill="white"/>
    <path d="M166.606 0.435129C166.606 2.52585 166.606 4.61657 166.606 6.70729C166.606 11.702 166.606 16.6967 166.606 21.6914C166.606 27.7567 166.606 33.822 166.606 39.8873C166.606 45.11 166.606 50.3326 166.606 55.5552C166.606 57.2843 166.606 59.0133 166.606 60.7423C166.606 61.551 166.438 62.394 166.606 63.2005C166.613 63.2352 166.606 63.2713 166.606 63.3061C166.606 63.8858 168.795 63.8867 168.795 63.3061C168.795 61.2154 168.795 59.1246 168.795 57.0339C168.795 52.0392 168.795 47.0445 168.795 42.0498C168.795 35.9845 168.795 29.9192 168.795 23.8539C168.795 18.6313 168.795 13.4086 168.795 8.18596C168.795 6.45693 168.795 4.72791 168.795 2.99889C168.795 2.19023 168.962 1.34722 168.795 0.54066C168.788 0.505998 168.795 0.469977 168.795 0.435129C168.795 -0.144549 166.606 -0.145537 166.606 0.435129Z" fill="white"/>
    <path d="M171.516 11.8746C171.516 16.3758 171.516 20.8769 171.516 25.3781C171.516 32.5556 171.516 39.7331 171.516 46.9105C171.516 48.5622 171.516 50.2139 171.516 51.8656C171.516 52.4453 173.762 52.4463 173.762 51.8656C173.762 47.3644 173.762 42.8633 173.762 38.3622C173.762 31.1847 173.762 24.0071 173.762 16.8296C173.762 15.178 173.762 13.5263 173.762 11.8746C173.761 11.2949 171.516 11.2939 171.516 11.8746Z" fill="white"/>
    <path d="M176.406 7.12657C176.406 12.6946 176.406 18.2625 176.406 23.8305C176.406 32.712 176.406 41.5934 176.406 50.4748C176.406 52.5222 176.406 54.5697 176.406 56.6172C176.406 57.1969 178.652 57.1978 178.652 56.6172C178.652 51.0492 178.652 45.4812 178.652 39.9132C178.652 31.0318 178.652 22.1504 178.652 13.269C178.652 11.2215 178.652 9.17411 178.652 7.12664C178.652 6.54683 176.406 6.54585 176.406 7.12657Z" fill="white"/>
    <path d="M181.297 24.6334C181.297 28.8573 181.297 33.0811 181.297 37.305C181.297 37.9063 181.297 38.5076 181.297 39.1089C181.297 39.6886 183.543 39.6895 183.543 39.1089C183.543 34.885 183.543 30.6611 183.543 26.4372C183.543 25.8359 183.543 25.2346 183.543 24.6334C183.543 24.0537 181.297 24.0527 181.297 24.6334Z" fill="white"/>
    <path d="M186.188 25.9254C186.188 29.8895 186.188 33.8535 186.188 37.8176C186.188 38.3974 188.433 38.3983 188.433 37.8176C188.433 33.8535 188.433 29.8895 188.433 25.9254C188.433 25.3456 186.188 25.3447 186.188 25.9254Z" fill="white"/>
    <path d="M191.078 22.7389C191.078 28.0638 191.078 33.3887 191.078 38.7136C191.078 39.4762 191.078 40.2388 191.078 41.0014C191.078 41.5811 193.324 41.582 193.324 41.0014C193.324 35.6765 193.324 30.3515 193.324 25.0266C193.324 24.2641 193.324 23.5014 193.324 22.7389C193.324 22.1591 191.078 22.1582 191.078 22.7389Z" fill="white"/>
    <path d="M195.969 22.1012C195.969 27.8122 195.969 33.5233 195.969 39.2344C195.969 40.0374 195.969 40.8404 195.969 41.6435C195.969 42.2232 198.215 42.2241 198.215 41.6435C198.215 35.9324 198.215 30.2213 198.215 24.5102C198.215 23.7072 198.215 22.9041 198.215 22.1012C198.215 21.5214 195.969 21.5205 195.969 22.1012Z" fill="white"/>
    <path d="M200.929 2.2115C200.929 4.18532 200.929 6.15907 200.929 8.1329C200.929 12.8464 200.929 17.56 200.929 22.2736C200.929 27.9738 200.929 33.6739 200.929 39.3741C200.929 44.325 200.929 49.2757 200.929 54.2266C200.929 55.857 200.929 57.4874 200.929 59.1179C200.929 59.8766 200.772 60.6674 200.929 61.4241C200.936 61.4586 200.929 61.4943 200.929 61.5289C200.929 62.1087 203.122 62.1096 203.122 61.5289C203.122 59.5551 203.122 57.5814 203.122 55.6075C203.122 50.894 203.122 46.1804 203.122 41.4668C203.122 35.7666 203.122 30.0665 203.122 24.3663C203.122 19.4155 203.122 14.4647 203.122 9.51388C203.122 7.88347 203.122 6.25299 203.122 4.62251C203.122 3.86384 203.279 3.07304 203.122 2.31628C203.115 2.28193 203.122 2.2461 203.122 2.2115C203.122 1.63182 200.929 1.63083 200.929 2.2115Z" fill="white"/>
    <path d="M205.836 17.7096C205.836 20.9038 205.836 24.098 205.836 27.2922C205.836 32.3612 205.836 37.4303 205.836 42.4994C205.836 43.6775 205.836 44.8556 205.836 46.0338C205.836 46.6135 208.082 46.6144 208.082 46.0338C208.082 42.8396 208.082 39.6453 208.082 36.4512C208.082 31.3821 208.082 26.3131 208.082 21.244C208.082 20.0659 208.082 18.8877 208.082 17.7096C208.082 17.1298 205.836 17.1289 205.836 17.7096Z" fill="white"/>
    <path d="M210.727 25.3287C210.727 29.1436 210.727 32.9584 210.727 36.7734C210.727 37.3199 210.727 37.8665 210.727 38.4131C210.727 38.9928 212.972 38.9938 212.972 38.4131C212.972 34.5982 212.972 30.7833 212.972 26.9685C212.972 26.4219 212.972 25.8753 212.972 25.3287C212.972 24.749 210.727 24.748 210.727 25.3287Z" fill="white"/>
    <path d="M215.617 25.0299C215.617 29.0126 215.617 32.9953 215.617 36.9779C215.617 37.5554 215.617 38.133 215.617 38.7105C215.617 39.2902 217.863 39.2911 217.863 38.7105C217.863 34.7278 217.863 30.7451 217.863 26.7624C217.863 26.1849 217.863 25.6074 217.863 25.0299C217.863 24.4502 215.617 24.4492 215.617 25.0299Z" fill="white"/>
    <path d="M220.508 15.9117C220.508 19.5085 220.508 23.1054 220.508 26.7022C220.508 32.4328 220.508 38.1632 220.508 43.8938C220.508 45.2059 220.508 46.518 220.508 47.83C220.508 48.4098 222.754 48.4107 222.754 47.83C222.754 44.2332 222.754 40.6363 222.754 37.0395C222.754 31.309 222.754 25.5785 222.754 19.848C222.754 18.5359 222.754 17.2238 222.754 15.9117C222.754 15.332 220.508 15.331 220.508 15.9117Z" fill="white"/>
    <path d="M225.398 22.8512C225.398 28.1129 225.398 33.3745 225.398 38.6362C225.398 39.3874 225.398 40.1386 225.398 40.8898C225.398 41.4696 227.644 41.4705 227.644 40.8898C227.644 35.6281 227.644 30.3665 227.644 25.1048C227.644 24.3536 227.644 23.6024 227.644 22.8512C227.644 22.2714 225.398 22.2705 225.398 22.8512Z" fill="white"/>
    <path d="M230.289 10.4996C230.289 15.333 230.289 20.1663 230.289 24.9996C230.289 32.6466 230.289 40.2937 230.289 47.9407C230.289 49.7082 230.289 51.4756 230.289 53.243C230.289 53.8228 232.535 53.8237 232.535 53.243C232.535 48.4097 232.535 43.5763 232.535 38.743C232.535 31.096 232.535 23.4489 232.535 15.8018C232.535 14.0345 232.535 12.267 232.535 10.4996C232.535 9.91987 230.289 9.91894 230.289 10.4996Z" fill="white"/>
    <path d="M235.18 16.7682C235.18 20.1785 235.18 23.5887 235.18 26.999C235.18 32.4078 235.18 37.8165 235.18 43.2253C235.18 44.4749 235.18 45.7246 235.18 46.9742C235.18 47.5539 237.426 47.5549 237.426 46.9742C237.426 43.5639 237.426 40.1536 237.426 36.7433C237.426 31.3346 237.426 25.9259 237.426 20.5171C237.426 19.2675 237.426 18.0178 237.426 16.7681C237.425 16.1884 235.18 16.1875 235.18 16.7682Z" fill="white"/>
    <path d="M240.07 19.0015C240.07 21.893 240.07 24.7845 240.07 27.676C240.07 32.2932 240.07 36.9104 240.07 41.5277C240.07 42.599 240.07 43.6704 240.07 44.7417C240.07 45.3215 242.316 45.3224 242.316 44.7417C242.316 41.8502 242.316 38.9587 242.316 36.0672C242.316 31.45 242.316 26.8328 242.316 22.2155C242.316 21.1442 242.316 20.0728 242.316 19.0015C242.316 18.4219 240.07 18.4209 240.07 19.0015Z" fill="white"/>
    <path d="M244.961 14.4967C244.961 18.4212 244.961 22.3458 244.961 26.2703C244.961 32.4959 244.961 38.7214 244.961 44.947C244.961 46.3802 244.961 47.8134 244.961 49.2466C244.961 49.8263 247.207 49.8273 247.207 49.2466C247.207 45.322 247.207 41.3975 247.207 37.4729C247.207 31.2473 247.207 25.0217 247.207 18.7962C247.207 17.363 247.207 15.9299 247.207 14.4966C247.207 13.917 244.961 13.916 244.961 14.4967Z" fill="white"/>
    <path d="M249.852 11.401C249.852 16.0325 249.852 20.6641 249.852 25.2956C249.852 32.6198 249.852 39.944 249.852 47.2682C249.852 48.9598 249.852 50.6515 249.852 52.3432C249.852 52.9229 252.097 52.9238 252.097 52.3432C252.097 47.7116 252.097 43.0801 252.097 38.4485C252.097 31.1243 252.097 23.8002 252.097 16.476C252.097 14.7843 252.097 13.0927 252.097 11.4011C252.097 10.8212 249.852 10.8203 249.852 11.401Z" fill="white"/>
    <path d="M254.742 12.2467C254.742 16.6753 254.742 21.1039 254.742 25.5325C254.742 32.5817 254.742 39.6309 254.742 46.68C254.742 48.2853 254.742 49.8906 254.742 51.4959C254.742 52.0756 256.988 52.0766 256.988 51.4959C256.988 47.0673 256.988 42.6387 256.988 38.2101C256.988 31.1609 256.988 24.1117 256.988 17.0626C256.988 15.4573 256.988 13.852 256.988 12.2467C256.988 11.6669 254.742 11.666 254.742 12.2467Z" fill="white"/>
    <path d="M259.633 22.5943C259.633 28.0096 259.633 33.425 259.633 38.8403C259.633 39.6093 259.633 40.3784 259.633 41.1474C259.633 41.7271 261.879 41.728 261.879 41.1474C261.879 35.732 261.879 30.3167 261.879 24.9014C261.879 24.1324 261.879 23.3633 261.879 22.5943C261.879 22.0146 259.633 22.0137 259.633 22.5943Z" fill="white"/>
    <path d="M264.52 19.1647C264.52 26.5824 264.52 34.0001 264.52 41.4178C264.52 42.4715 264.52 43.5253 264.52 44.5791C264.52 45.1588 266.765 45.1597 266.765 44.5791C266.765 37.1614 266.765 29.7436 266.765 22.326C266.765 21.2722 266.765 20.2184 266.765 19.1647C266.765 18.5849 264.52 18.5839 264.52 19.1647Z" fill="white"/>
    <path d="M269.41 17.3443C269.41 20.615 269.41 23.8856 269.41 27.1562C269.41 32.371 269.41 37.5857 269.41 42.8004C269.41 43.9997 269.41 45.199 269.41 46.3983C269.41 46.978 271.656 46.979 271.656 46.3983C271.656 43.1276 271.656 39.857 271.656 36.5864C271.656 31.3716 271.656 26.1569 271.656 20.9422C271.656 19.7429 271.656 18.5437 271.656 17.3443C271.656 16.7646 269.41 16.7637 269.41 17.3443Z" fill="white"/>
    <path d="M274.301 13.0436C274.301 17.2802 274.301 21.5168 274.301 25.7534C274.301 32.5107 274.301 39.268 274.301 46.0252C274.301 47.5824 274.301 49.1396 274.301 50.6968C274.301 51.2765 276.547 51.2774 276.547 50.6968C276.547 46.4602 276.547 42.2236 276.547 37.987C276.547 31.2297 276.547 24.4724 276.547 17.715C276.547 16.1579 276.547 14.6007 276.547 13.0435C276.547 12.4638 274.301 12.4629 274.301 13.0436Z" fill="white"/>
    <path d="M279.191 22.2027C279.191 27.8387 279.191 33.4747 279.191 39.1107C279.191 39.9204 279.191 40.73 279.191 41.5396C279.191 42.1193 281.437 42.1202 281.437 41.5396C281.437 35.9035 281.437 30.2675 281.437 24.6315C281.437 23.8219 281.437 23.0123 281.437 22.2027C281.437 21.623 279.191 21.622 279.191 22.2027Z" fill="white"/>
    <path d="M284.082 20.7183C284.082 27.2339 284.082 33.7495 284.082 40.2652C284.082 41.1843 284.082 42.1034 284.082 43.0226C284.082 43.6023 286.328 43.6032 286.328 43.0226C286.328 36.507 286.328 29.9914 286.328 23.4758C286.328 22.5566 286.328 21.6375 286.328 20.7184C286.328 20.1386 284.082 20.1377 284.082 20.7183Z" fill="white"/>
    <path d="M288.973 18.0162C288.973 21.1338 288.973 24.2513 288.973 27.3689C288.973 32.3417 288.973 37.3146 288.973 42.2875C288.973 43.4341 288.973 44.5806 288.973 45.7272C288.973 46.3069 291.219 46.3079 291.219 45.7272C291.219 42.6097 291.219 39.4921 291.219 36.3746C291.219 31.4017 291.219 26.4288 291.219 21.4559C291.219 20.3094 291.219 19.1628 291.219 18.0162C291.219 17.4365 288.973 17.4355 288.973 18.0162Z" fill="white"/>
    <path d="M293.863 24.3424C293.863 28.7301 293.863 33.1178 293.863 37.5055C293.863 38.1371 293.863 38.7688 293.863 39.4004C293.863 39.9801 296.109 39.9811 296.109 39.4004C296.109 35.0127 296.109 30.625 296.109 26.2373C296.109 25.6057 296.109 24.9741 296.109 24.3424C296.109 23.7626 293.863 23.7617 293.863 24.3424Z" fill="white"/>
    <path d="M298.754 19.6773C298.754 26.7876 298.754 33.8978 298.754 41.008C298.754 42.0262 298.754 43.0443 298.754 44.0624C298.754 44.6422 301 44.6431 301 44.0624C301 36.9522 301 29.842 301 22.7317C301 21.7136 301 20.6955 301 19.6773C301 19.0976 298.754 19.0967 298.754 19.6773Z" fill="white"/>
    <defs>
        <linearGradient id="paint0_linear_995_8440" x1="1.12294" y1="20.584" x2="1.12294" y2="43.1599" gradientUnits="userSpaceOnUse">
            <stop stop-color="#41069A"/>
            <stop offset="1" stop-color="#7BD4F9"/>
        </linearGradient>
        <linearGradient id="paint1_linear_995_8440" x1="6.01356" y1="26.6084" x2="6.01356" y2="37.1327" gradientUnits="userSpaceOnUse">
            <stop stop-color="#41069A"/>
            <stop offset="1" stop-color="#7BD4F9"/>
        </linearGradient>
        <linearGradient id="paint2_linear_995_8440" x1="10.9042" y1="19.5391" x2="10.9042" y2="44.204" gradientUnits="userSpaceOnUse">
            <stop stop-color="#41069A"/>
            <stop offset="1" stop-color="#7BD4F9"/>
        </linearGradient>
        <linearGradient id="paint3_linear_995_8440" x1="15.7948" y1="21.7725" x2="15.7948" y2="41.9693" gradientUnits="userSpaceOnUse">
            <stop stop-color="#41069A"/>
            <stop offset="1" stop-color="#7BD4F9"/>
        </linearGradient>
        <linearGradient id="paint4_linear_995_8440" x1="20.6854" y1="26.0322" x2="20.6854" y2="37.7108" gradientUnits="userSpaceOnUse">
            <stop stop-color="#41069A"/>
            <stop offset="1" stop-color="#7BD4F9"/>
        </linearGradient>
        <linearGradient id="paint5_linear_995_8440" x1="25.5761" y1="22.3135" x2="25.5761" y2="41.4307" gradientUnits="userSpaceOnUse">
            <stop stop-color="#41069A"/>
            <stop offset="1" stop-color="#7BD4F9"/>
        </linearGradient>
        <linearGradient id="paint6_linear_995_8440" x1="30.4667" y1="9.81738" x2="30.4667" y2="53.9239" gradientUnits="userSpaceOnUse">
            <stop stop-color="#41069A"/>
            <stop offset="1" stop-color="#7BD4F9"/>
        </linearGradient>
        <linearGradient id="paint7_linear_995_8440" x1="35.3573" y1="13.8008" x2="35.3573" y2="49.9422" gradientUnits="userSpaceOnUse">
            <stop stop-color="#41069A"/>
            <stop offset="1" stop-color="#7BD4F9"/>
        </linearGradient>
        <linearGradient id="paint8_linear_995_8440" x1="40.2479" y1="21.0439" x2="40.2479" y2="42.6978" gradientUnits="userSpaceOnUse">
            <stop stop-color="#41069A"/>
            <stop offset="1" stop-color="#7BD4F9"/>
        </linearGradient>
        <linearGradient id="paint9_linear_995_8440" x1="45.1386" y1="15.2783" x2="45.1386" y2="48.4635" gradientUnits="userSpaceOnUse">
            <stop stop-color="#41069A"/>
            <stop offset="1" stop-color="#7BD4F9"/>
        </linearGradient>
    </defs>
</svg>
