<svg width="24" height="24" viewBox="0 0 24 24" fill="none" xmlns="http://www.w3.org/2000/svg">
    <path d="M9.04102 2.30118C8.52539 2.42305 7.98164 2.7418 7.63008 3.13555C7.34414 3.44961 7.12852 3.89024 6.88477 4.62618L6.6832 5.24961H4.87383C3.41133 5.24961 3.01289 5.26368 2.78789 5.31993C1.8457 5.55899 1.0582 6.34649 0.819141 7.28868C0.711328 7.70586 0.711328 19.2934 0.819141 19.7106C1.0582 20.6527 1.8457 21.4402 2.78789 21.6793C3.03164 21.7402 4.16602 21.7496 11.9988 21.7496C21.852 21.7496 21.1488 21.7731 21.7957 21.4543C22.2082 21.2527 22.752 20.709 22.9535 20.2965C23.2676 19.659 23.2488 20.0387 23.2488 13.4996C23.2488 6.96524 23.2629 7.32618 22.9535 6.70274C22.752 6.29024 22.2082 5.74649 21.7957 5.54493C21.2285 5.26368 21.116 5.24961 19.1238 5.24961H17.3145L17.1129 4.62618C17.0004 4.28868 16.8363 3.85743 16.7426 3.6793C16.5223 3.24805 16.0207 2.74649 15.6082 2.54493C14.9988 2.24493 15.027 2.24961 11.9754 2.2543C10.4566 2.25899 9.13477 2.27774 9.04102 2.30118ZM14.8348 3.91368C15.2566 4.1293 15.3645 4.30743 15.702 5.3293C16.0441 6.35118 16.1191 6.51524 16.2973 6.63711C16.4191 6.72149 16.5645 6.72618 18.5848 6.74961C20.727 6.77305 20.741 6.77305 20.9848 6.88555C21.2848 7.0168 21.5191 7.26524 21.6363 7.57461C21.7207 7.79493 21.7254 8.02461 21.7254 13.5231V19.2418L21.6129 19.4856C21.4816 19.7856 21.2332 20.0199 20.9238 20.1371C20.7035 20.2215 20.4176 20.2262 11.9988 20.2262C3.58008 20.2262 3.29414 20.2215 3.07383 20.1371C2.76445 20.0199 2.51602 19.7856 2.38477 19.4856L2.27227 19.2418V13.5231C2.27227 8.02461 2.27695 7.79493 2.36133 7.57461C2.47852 7.26524 2.71289 7.0168 3.01289 6.88555C3.25664 6.77305 3.2707 6.77305 5.41289 6.74961C7.4332 6.72618 7.57852 6.72149 7.70039 6.63711C7.87852 6.51524 7.95352 6.35118 8.29102 5.33399C8.46914 4.79961 8.6332 4.38711 8.71758 4.26993C8.87695 4.04961 9.19102 3.85743 9.47227 3.80118C9.58477 3.77774 10.7754 3.75899 12.1207 3.76368L14.5582 3.77305L14.8348 3.91368Z" fill="#B3B3B3"/>
    <path d="M10.8322 7.5981C8.73686 8.03872 7.08686 9.61841 6.52905 11.7184C6.35092 12.3747 6.3228 13.5512 6.46811 14.245C6.92749 16.4903 8.63374 18.1965 10.879 18.6559C11.5728 18.8012 12.7494 18.7731 13.4056 18.595C15.5197 18.0372 17.0994 16.3731 17.5259 14.2637C17.6478 13.6778 17.6572 12.7215 17.554 12.1122C17.1509 9.81997 15.304 7.9731 13.0119 7.56997C12.4165 7.46685 11.39 7.48091 10.8322 7.5981ZM13.0306 9.16372C13.4947 9.28091 14.2306 9.65591 14.6009 9.96997C16.04 11.184 16.49 13.1715 15.7025 14.8497C14.7134 16.9543 12.1822 17.8215 10.1384 16.7622C9.07436 16.2043 8.29155 15.2106 8.01499 14.0622C7.88842 13.5184 7.88842 12.7309 8.01499 12.1872C8.21655 11.3528 8.74155 10.5137 9.41186 9.95591C9.76811 9.6606 10.5181 9.27622 10.9681 9.15904C11.5822 8.99966 12.4025 8.99966 13.0306 9.16372Z" fill="#B3B3B3"/>
    <path d="M19.0875 8.34375C18.8625 8.48438 18.75 8.69531 18.75 9C18.75 9.46875 19.0312 9.75 19.5 9.75C19.9688 9.75 20.25 9.46875 20.25 9C20.25 8.53125 19.9688 8.25 19.5 8.25C19.3266 8.25 19.1906 8.27812 19.0875 8.34375Z" fill="#B3B3B3"/>
</svg>
