<svg width="22" height="22" viewBox="0 0 22 22" fill="none" xmlns="http://www.w3.org/2000/svg">
    <path d="M14.5517 0.0266972C13.6709 0.185673 12.9146 0.516514 12.3002 1.00633C11.9436 1.29421 1.30511 11.7995 1.27503 11.8983C1.26214 11.937 1.14613 12.1304 1.01293 12.3323C0.566083 13.0026 0.282504 13.6857 0.106342 14.4892C-0.0354473 15.138 -0.0354473 16.3754 0.106342 17.0027C0.385624 18.2617 0.888332 19.2026 1.76485 20.1006C2.64566 21.0072 3.66826 21.5787 4.95726 21.8751C5.44707 21.9869 6.71029 22.0341 7.19581 21.9611C8.20122 21.8021 9.09492 21.4627 9.85973 20.9471C10.0488 20.8182 10.2121 20.7236 10.2206 20.7365C10.2421 20.758 21.9849 9.15707 21.9849 9.1141C21.9849 9.10121 21.7357 8.83482 21.4263 8.52976L20.8677 7.9712L20.5154 8.31923C20.2018 8.61999 15.4454 13.3162 10.8995 17.8105C10.0617 18.6398 9.24101 19.4132 9.08204 19.5249C7.15284 20.8826 4.58774 20.6549 2.94213 18.9835C2.39645 18.4292 2.00546 17.7504 1.76055 16.9512C1.65313 16.5903 1.64454 16.5129 1.64454 15.7481C1.64454 14.979 1.65313 14.9103 1.76485 14.5451C1.99257 13.7932 2.29763 13.2389 2.77026 12.6975C2.92924 12.517 5.34825 10.1066 8.14966 7.33959C11.8749 3.65736 13.3185 2.25666 13.5334 2.11487C15.1188 1.08797 17.1941 1.63364 18.0577 3.30933C18.5948 4.34053 18.4874 5.58656 17.7784 6.53182C17.6796 6.66072 15.2778 9.06684 12.4377 11.8726C6.57279 17.6644 7.04543 17.252 6.32359 17.252C5.99275 17.252 5.90252 17.2348 5.69198 17.1359C4.87562 16.7535 4.54478 15.8384 4.94437 15.0478C5.026 14.8888 5.97556 13.9263 8.9961 10.9359C11.1659 8.79186 13.2197 6.75525 13.5634 6.41581L14.1865 5.80139L13.6279 5.24283C13.3185 4.93347 13.0478 4.68856 13.0221 4.69286C12.9275 4.71864 3.89598 13.6857 3.73271 13.9178C3.32023 14.5064 3.15696 15.0263 3.15696 15.7481C3.15696 16.0876 3.18274 16.3153 3.24719 16.5559C3.82294 18.7386 6.50834 19.6151 8.30005 18.2101C8.42035 18.1156 10.8437 15.7352 13.688 12.9209C17.1597 9.48791 18.9471 7.68762 19.1147 7.4599C19.4412 7.02164 19.7162 6.45448 19.8666 5.90881C19.974 5.51352 19.9869 5.41899 19.9869 4.70575C19.9869 4.08703 19.9697 3.8679 19.9053 3.6101C19.5487 2.2051 18.6034 1.05789 17.2929 0.430582C16.6613 0.129816 16.2317 0.0352898 15.3895 0.0223999C14.9899 0.0138073 14.6118 0.0181026 14.5517 0.0266972Z" fill="#B3B3B3"/>
</svg>

