<svg width="25" height="24" viewBox="0 0 25 24" fill="none" xmlns="http://www.w3.org/2000/svg">
    <g clip-path="url(#clip0_995_4795)">
        <path d="M12.0703 0.0752087C11.3016 0.239271 10.6359 0.618959 10.0078 1.2424C9.33281 1.9174 8.95781 2.6299 8.8125 3.52521C8.78438 3.71271 8.76562 5.49865 8.76562 8.34865C8.76562 12.2486 8.775 12.933 8.84063 13.2658C9.27656 15.5768 11.5406 17.0768 13.8609 16.5986C14.7141 16.4205 15.3422 16.069 16.0078 15.4033C16.6359 14.7705 17.0156 14.0299 17.1562 13.1627C17.2219 12.7596 17.2219 3.92833 17.1562 3.52521C17.0109 2.6299 16.6359 1.9174 15.9609 1.2424C15.3234 0.604897 14.6625 0.234583 13.8656 0.0752087C13.4109 -0.0185413 12.5156 -0.0185413 12.0703 0.0752087ZM13.5469 1.85646C14.1562 1.99708 14.7938 2.48458 15.0938 3.03771C15.1781 3.18302 15.2813 3.46427 15.3328 3.66115C15.4219 4.00333 15.4219 4.18146 15.4125 8.48927C15.3984 12.708 15.3938 12.9752 15.3094 13.1861C14.9578 14.0955 14.2406 14.7096 13.35 14.8596C12.1313 15.0658 10.8797 14.1893 10.6125 12.9424C10.5609 12.6893 10.5469 11.8408 10.5469 8.31583C10.5469 4.2049 10.5516 3.98458 10.6359 3.65177C10.7578 3.1924 10.9594 2.83146 11.2828 2.50802C11.8969 1.89865 12.7172 1.65958 13.5469 1.85646Z" fill="#B3B3B3"/>
        <path d="M6.13162 11.0154C5.89255 11.0904 5.69099 11.2451 5.57849 11.4467C5.46599 11.6389 5.4613 11.6764 5.46599 12.4404C5.47537 13.2654 5.52693 13.7389 5.67693 14.367C6.25349 16.7389 8.03005 18.7545 10.2941 19.6123C10.7019 19.767 11.3769 19.9498 11.6957 19.992C12.1363 20.0529 12.0941 19.9357 12.0941 21.1404V22.2092L11.2363 22.2279C10.3738 22.242 10.3738 22.242 10.1816 22.3779C9.72224 22.6967 9.6613 23.3998 10.0597 23.7748C10.1347 23.8451 10.2566 23.9248 10.3269 23.9482C10.5097 24.0186 15.4597 24.0186 15.6426 23.9482C16.2754 23.7092 16.3597 22.7717 15.7879 22.3779C15.5957 22.242 15.5957 22.242 14.7332 22.2279L13.8754 22.2092V21.1404C13.8754 19.9357 13.8332 20.0529 14.2738 19.992C14.5926 19.9498 15.2676 19.767 15.6754 19.6123C17.9394 18.7545 19.716 16.7389 20.2926 14.367C20.4426 13.7389 20.4941 13.2654 20.5035 12.4404C20.5082 11.6623 20.5082 11.6436 20.3816 11.4373C20.0488 10.8701 19.2519 10.842 18.8676 11.3857L18.7269 11.5826L18.6941 12.5061C18.6754 13.017 18.6332 13.5654 18.5957 13.7342C18.0332 16.2373 15.9707 18.0607 13.4676 18.2764C10.6129 18.5248 8.01599 16.5936 7.3738 13.7342C7.3363 13.5654 7.29412 13.017 7.27537 12.5061L7.24255 11.5826L7.10193 11.3857C6.88162 11.0764 6.45037 10.9123 6.13162 11.0154Z" fill="#B3B3B3"/>
    </g>
    <defs>
        <clipPath id="clip0_995_4795">
            <rect width="24" height="24" fill="white" transform="translate(0.984375)"/>
        </clipPath>
    </defs>
</svg>
