<svg width="13" height="12" viewBox="0 0 13 12" fill="none" xmlns="http://www.w3.org/2000/svg">
    <path d="M2.94938 0.0375004C2.49001 0.147657 2.05876 0.503907 1.84548 0.946876C1.67204 1.30547 1.68376 0.937501 1.68376 6C1.68376 10.2703 1.6861 10.5445 1.72595 10.7133C1.84079 11.2031 2.16657 11.6109 2.62126 11.8359C2.86735 11.9578 3.0572 12 3.36188 12C3.84001 12 4.21501 11.8477 4.54313 11.5195C4.75876 11.3016 4.85954 11.1445 4.96267 10.8563L5.03532 10.6523V6V1.34766L4.96267 1.14375C4.85954 0.85547 4.75876 0.698439 4.54313 0.48047C4.32517 0.262501 4.07907 0.119532 3.79079 0.046876C3.57282 -0.00937462 3.16267 -0.0140619 2.94938 0.0375004Z" fill="#667479"/>
    <path d="M9.2 0.046876C8.91875 0.121876 8.67266 0.264845 8.45703 0.48047C8.24141 0.698439 8.14062 0.85547 8.0375 1.14375L7.96484 1.34766V5.98828V10.6289L8.02813 10.8281C8.11719 11.1047 8.23906 11.3016 8.45703 11.5195C8.78281 11.8477 9.16016 12 9.63828 12C9.94297 12 10.1328 11.9578 10.3789 11.8359C10.8336 11.6109 11.1594 11.2031 11.2742 10.7133C11.3141 10.5445 11.3164 10.2703 11.3164 6C11.3164 1.72969 11.3141 1.45547 11.2742 1.28672C11.1313 0.679688 10.632 0.175782 10.0391 0.0351572C9.82109 -0.0140619 9.41563 -0.00937462 9.2 0.046876Z" fill="#667479"/>
</svg>
