
<svg width="13" height="12" viewBox="0 0 13 12" fill="none" xmlns="http://www.w3.org/2000/svg">
    <path d="M6.125 0.928125C5.66563 0.970313 5.13359 1.08281 4.76562 1.21875C4.48203 1.31953 3.94531 1.59141 3.71094 1.74609C3.10156 2.15391 2.53438 2.73984 2.15703 3.35156C2.02109 3.57188 1.81484 4.00547 1.71875 4.26563C1.54766 4.72969 1.44453 5.28516 1.42109 5.86406L1.40703 6.21094H1.08125C0.722656 6.21094 0.635938 6.23203 0.551563 6.33984C0.514063 6.38672 0.5 6.43828 0.5 6.52734C0.5 6.63281 0.511719 6.66094 0.586719 6.75234C1.08594 7.33828 2.29531 8.70703 2.31641 8.70703C2.36563 8.70703 4.09531 6.71016 4.12813 6.61641C4.16563 6.50625 4.13281 6.38203 4.03906 6.29297L3.96641 6.22266L3.52813 6.21094L3.08984 6.19922L3.09453 5.92969C3.11328 4.59141 3.95703 3.36094 5.21328 2.84297C5.63984 2.66484 6.0125 2.59219 6.5 2.59219C7.30391 2.59219 8.01172 2.84297 8.63984 3.34922C8.75234 3.44063 8.84844 3.51563 8.85313 3.51563C8.87188 3.51563 9.92188 2.27344 9.92188 2.25234C9.92188 2.24063 9.82344 2.15156 9.70625 2.05547C8.99141 1.47891 8.15234 1.10859 7.25 0.972657C7.00625 0.9375 6.32891 0.909376 6.125 0.928125Z" fill="#667479"/>
    <path d="M9.78281 4.75771C9.23906 5.38115 8.89219 5.79834 8.87344 5.8499C8.81953 6.00459 8.90156 6.171 9.06328 6.23193C9.10078 6.246 9.3 6.25771 9.51563 6.25771H9.9V6.31396C9.9 6.41475 9.83203 6.75928 9.77109 6.97256C9.70781 7.19287 9.52734 7.59365 9.40078 7.79287C8.9625 8.49131 8.26172 9.03271 7.48594 9.26709C6.86484 9.45459 6.17578 9.45928 5.55234 9.27881C5.21719 9.18037 4.79063 8.97412 4.53516 8.78428C4.41328 8.69287 4.40859 8.69053 4.36641 8.73271C4.34297 8.7585 4.09688 9.03975 3.82031 9.36318L3.31641 9.94912L3.40078 10.0241C3.53203 10.1437 3.86719 10.3569 4.14609 10.5046C4.90078 10.896 5.62969 11.0718 6.50156 11.0718C7.01016 11.0718 7.31484 11.0366 7.76719 10.9218C9.55547 10.4718 10.9828 9.03506 11.4328 7.23037C11.4914 6.99834 11.557 6.58115 11.5688 6.3749L11.5758 6.26943L11.9391 6.25771C12.1641 6.25068 12.3211 6.23428 12.3539 6.21787C12.4547 6.15928 12.5016 6.07021 12.5016 5.93896C12.5016 5.81475 12.5016 5.8124 12.2625 5.53818C11.2383 4.35928 10.7109 3.76162 10.6875 3.75459C10.6734 3.75225 10.2656 4.20459 9.78281 4.75771Z" fill="#667479"/>
</svg>
