<svg width="16" height="20" viewBox="0 0 16 20" fill="none" xmlns="http://www.w3.org/2000/svg">
<path d="M11.4366 4.5C11.4366 5.41168 11.0744 6.28602 10.4298 6.93068C9.78511 7.57534 8.91077 7.9375 7.99908 7.9375C7.0874 7.9375 6.21306 7.57534 5.5684 6.93068C4.92375 6.28602 4.56158 5.41168 4.56158 4.5C4.56158 3.58832 4.92375 2.71398 5.5684 2.06932C6.21306 1.42466 7.0874 1.0625 7.99908 1.0625C8.91077 1.0625 9.78511 1.42466 10.4298 2.06932C11.0744 2.71398 11.4366 3.58832 11.4366 4.5ZM1.125 17.4415C1.15446 15.6378 1.89164 13.918 3.17758 12.6529C4.46352 11.3878 6.19516 10.6788 7.99908 10.6788C9.803 10.6788 11.5347 11.3878 12.8206 12.6529C14.1065 13.918 14.8437 15.6378 14.8732 17.4415C12.7166 18.4304 10.3716 18.9407 7.99908 18.9375C5.54608 18.9375 3.21775 18.4022 1.125 17.4415Z" stroke="#747688" stroke-width="1.5" stroke-linecap="round" stroke-linejoin="round"/>
</svg>
