<svg width="26" height="23" viewBox="0 0 26 23" fill="none" xmlns="http://www.w3.org/2000/svg">
<path d="M25.9988 6.60798C25.9988 14.0841 18.5623 14.3124 13.4732 22.3494C13.2573 22.6905 12.7417 22.6905 12.5256 22.3494C7.43671 14.3124 0 14.0839 0 6.60798C0 2.49886 3.39106 -0.00195312 6.75961 -0.00195312C9.39898 -0.00195312 11.7107 1.41368 12.9991 3.53448C14.2878 1.41368 16.5993 -0.00195312 19.2387 -0.00195312C22.6077 -0.00195312 25.9988 2.49886 25.9988 6.60798Z" fill="#ED1B3E"/>
<path d="M1.34877 6.62993C1.34346 6.62993 1.33816 6.62968 1.33285 6.62942C1.19353 6.62083 1.08759 6.50074 1.09619 6.36117C1.21856 4.39586 2.30046 2.72916 4.064 1.78835C4.18789 1.72236 4.34035 1.76938 4.40609 1.89226C4.47208 2.01539 4.4253 2.16861 4.30217 2.23435C2.69665 3.09096 1.7121 4.60648 1.60086 6.39277C1.59251 6.52678 1.48101 6.62993 1.34877 6.62993Z" fill="#FF7694"/>
<path d="M1.45057 8.39912C1.32946 8.39912 1.22276 8.31214 1.20178 8.18901C1.17245 8.01759 1.14818 7.84186 1.13023 7.66639C1.11607 7.52758 1.2172 7.40344 1.35626 7.38903C1.49179 7.37614 1.61922 7.47575 1.63363 7.61506C1.65031 7.7789 1.67282 7.9435 1.70037 8.1038C1.72414 8.24135 1.63186 8.37231 1.49406 8.39557C1.4794 8.39785 1.46473 8.39912 1.45057 8.39912Z" fill="#FF7694"/>
<path d="M26 6.6082C26 14.0846 18.5616 14.3122 13.4745 22.3499C13.257 22.6912 12.7413 22.6912 12.5263 22.3499C12.4328 22.2007 12.3367 22.0566 12.2432 21.9124C17.3176 14.302 24.483 13.9455 24.483 6.6082C24.483 2.80299 21.5729 0.378283 18.4705 0.0420092C18.7234 0.0116687 18.9787 -0.000976562 19.2392 -0.000976562C22.607 -0.000976562 26 2.49959 26 6.6082Z" fill="#C1163B"/>
</svg>
