<svg width="20" height="20" viewBox="0 0 20 20" fill="none" xmlns="http://www.w3.org/2000/svg">
<path d="M1.0625 5.1875C1.0625 12.7812 7.21883 18.9375 14.8125 18.9375H16.875C17.422 18.9375 17.9466 18.7202 18.3334 18.3334C18.7202 17.9466 18.9375 17.422 18.9375 16.875V15.6173C18.9375 15.1443 18.6158 14.7318 18.1565 14.6173L14.1021 13.6034C13.6988 13.5026 13.2753 13.6538 13.0268 13.9857L12.1377 15.1709C11.8792 15.5156 11.4328 15.6678 11.0285 15.5193C9.52781 14.9675 8.16497 14.0962 7.03438 12.9656C5.90379 11.835 5.03247 10.4722 4.48075 8.9715C4.33225 8.56725 4.48442 8.12083 4.82908 7.86233L6.01433 6.97317C6.34708 6.72475 6.49742 6.30033 6.39658 5.89792L5.38275 1.8435C5.32696 1.62047 5.19824 1.42248 5.01705 1.28098C4.83585 1.13947 4.61257 1.06258 4.38267 1.0625H3.125C2.57799 1.0625 2.05339 1.2798 1.66659 1.66659C1.2798 2.05339 1.0625 2.57799 1.0625 3.125V5.1875Z" stroke="#747688" stroke-width="1.5" stroke-linecap="round" stroke-linejoin="round"/>
</svg>
