<svg width="18" height="18" viewBox="0 0 18 18" fill="none" xmlns="http://www.w3.org/2000/svg">
<path d="M14.5 4.875V7.625M14.5 7.625V10.375M14.5 7.625H17.25M14.5 7.625H11.75M9.6875 3.84375C9.6875 4.66426 9.36155 5.45117 8.78136 6.03136C8.20117 6.61155 7.41426 6.9375 6.59375 6.9375C5.77324 6.9375 4.98633 6.61155 4.40614 6.03136C3.82595 5.45117 3.5 4.66426 3.5 3.84375C3.5 3.02324 3.82595 2.23633 4.40614 1.65614C4.98633 1.07595 5.77324 0.75 6.59375 0.75C7.41426 0.75 8.20117 1.07595 8.78136 1.65614C9.36155 2.23633 9.6875 3.02324 9.6875 3.84375ZM0.75 15.6321V15.5313C0.75 13.9814 1.36568 12.495 2.46159 11.3991C3.55751 10.3032 5.04389 9.6875 6.59375 9.6875C8.14361 9.6875 9.62999 10.3032 10.7259 11.3991C11.8218 12.495 12.4375 13.9814 12.4375 15.5313V15.6312C10.6734 16.6937 8.65223 17.2535 6.59283 17.25C4.45608 17.25 2.45683 16.6588 0.75 15.6312V15.6321Z" stroke="white" stroke-width="1.5" stroke-linecap="round" stroke-linejoin="round"/>
</svg>
