<svg width="16" height="22" viewBox="0 0 16 22" fill="none" xmlns="http://www.w3.org/2000/svg">
<path d="M6.77734 0.0816422C5.93086 0.23633 5.38516 0.421095 4.65469 0.794924C2.67813 1.80469 1.30742 3.61367 0.817578 5.84375C0.731641 6.24766 0.71875 6.40664 0.71875 7.34766C0.723047 8.525 0.770313 8.86016 1.0668 9.75391C1.49648 11.0516 2.17539 12.1258 4.20352 14.7297C4.80508 15.4988 5.28633 16.1348 5.27773 16.1434C5.26914 16.152 4.98555 16.2164 4.6418 16.2852C2.67383 16.6848 1.31602 17.4066 0.843359 18.3047C0.727344 18.5195 0.71875 18.5797 0.71875 18.9922C0.71875 19.4219 0.723047 19.4563 0.864844 19.7141C1.34609 20.5992 2.76406 21.3383 4.71914 21.7164C5.91367 21.9441 6.31758 21.9785 8.00195 21.9785C9.68633 21.9785 10.0902 21.9441 11.2848 21.7164C13.2484 21.334 14.6578 20.6035 15.1391 19.7141C15.2809 19.4563 15.2852 19.4219 15.2852 18.9922C15.2852 18.5625 15.2809 18.5281 15.1391 18.2703C14.6578 17.3852 13.3172 16.6805 11.3621 16.2852C11.0184 16.2164 10.7348 16.152 10.7262 16.1434C10.7176 16.1348 10.9367 15.8383 11.2117 15.4859C13.5449 12.5168 14.2711 11.4383 14.7738 10.1793C15.0059 9.60352 15.1949 8.89024 15.2637 8.32305C15.341 7.7043 15.298 6.37227 15.1777 5.82227C14.5676 2.95195 12.3676 0.751955 9.48438 0.124611C8.86133 -0.00859261 7.39609 -0.0343723 6.77734 0.0816422ZM8.88281 0.949612C10.825 1.20313 12.5996 2.42344 13.6137 4.19805C13.8715 4.64922 14.1293 5.32383 14.2668 5.90391C14.3742 6.34649 14.3828 6.44961 14.3828 7.32617C14.3785 8.19414 14.3699 8.31016 14.2668 8.74414C14.0434 9.69805 13.6352 10.5875 12.9563 11.623C12.4836 12.3406 11.9895 13.0023 10.5844 14.8027C9.95703 15.6063 9.12773 16.6891 8.74102 17.209C8.35 17.7289 8.01914 18.1543 7.99766 18.1543C7.98047 18.1543 7.7957 17.9223 7.58945 17.6387C7.09961 16.9684 6.16289 15.7438 5.17031 14.4805C4.73203 13.9262 4.18203 13.2086 3.94141 12.8906C2.48047 10.9527 1.90039 9.80547 1.66406 8.3875C1.55234 7.73438 1.59102 6.51406 1.74141 5.88242C2.0293 4.6793 2.61797 3.63086 3.49023 2.76289C4.93398 1.33203 6.85469 0.687502 8.88281 0.949612ZM6.24023 17.3508C6.39062 17.557 6.75586 18.0512 7.04805 18.4551C7.74414 19.4133 7.75273 19.4219 8.00195 19.4219C8.24258 19.4219 8.28984 19.3789 8.86133 18.584C9.08477 18.2746 9.4457 17.7934 9.66484 17.5055L10.0602 16.9855L10.4426 17.0414C12.6855 17.3766 14.4043 18.2145 14.4043 18.9836C14.4043 19.2328 14.327 19.3617 14.0262 19.641C13.0766 20.5176 10.666 21.102 8.00195 21.102C5.81484 21.102 3.87266 20.7324 2.61367 20.075C2.21406 19.8688 1.77148 19.4992 1.65977 19.2887C1.57812 19.1254 1.58242 18.8203 1.67266 18.6914C2.19687 17.9008 3.68359 17.3078 5.93945 16.9813C5.95234 16.977 6.08555 17.1445 6.24023 17.3508Z" fill="#807A7A"/>
<path d="M7.7555 1.79609C7.63948 1.88203 7.57073 2.08828 7.60081 2.24726C7.66526 2.57383 8.12503 2.70273 8.35706 2.45781C8.52464 2.28593 8.52034 1.99804 8.35276 1.83476C8.20667 1.69297 7.91018 1.67578 7.7555 1.79609Z" fill="#807A7A"/>
<path d="M9.41806 2.13984C9.18173 2.38047 9.27196 2.75 9.59853 2.87891C11.1196 3.48047 12.1638 4.64492 12.5591 6.17891C12.6063 6.35938 12.6622 6.7418 12.6837 7.02109C12.7181 7.49375 12.7309 7.54102 12.8384 7.65273C12.9372 7.75586 12.9931 7.77734 13.1563 7.77734C13.3196 7.77734 13.3755 7.75586 13.47 7.65703C13.5774 7.54531 13.586 7.51094 13.586 7.12422C13.586 6.40234 13.3626 5.48281 13.0231 4.80391C12.645 4.04766 11.9575 3.23555 11.2786 2.7543C10.763 2.38477 10.0755 2.05391 9.779 2.02812C9.56845 2.01094 9.53837 2.01953 9.41806 2.13984Z" fill="#807A7A"/>
<path d="M7.24805 4.36562C7.10625 4.4 6.82695 4.50742 6.625 4.60625C6.32852 4.75234 6.18672 4.85977 5.87305 5.17773C5.2457 5.80078 4.99219 6.41094 4.99219 7.30469C4.99219 7.86328 5.06953 8.20703 5.30156 8.67969C5.44766 8.97617 5.55508 9.11797 5.87305 9.43164C6.49609 10.059 7.10625 10.3125 8 10.3125C8.55859 10.3125 8.90234 10.2352 9.375 10.0031C9.67148 9.85703 9.81328 9.74961 10.127 9.43164C10.7543 8.80859 11.0078 8.19844 11.0078 7.30469C11.0078 6.74609 10.9305 6.40234 10.6984 5.92969C10.5523 5.6332 10.4449 5.49141 10.127 5.17773C9.49531 4.5418 8.88945 4.29688 7.97852 4.30117C7.7207 4.30117 7.38984 4.33125 7.24805 4.36562ZM8.87227 5.37969C9.33203 5.59883 9.70586 5.97266 9.9207 6.43242C10.0668 6.7332 10.084 6.81055 10.0969 7.18008C10.127 7.85039 9.94219 8.33594 9.48672 8.79141C9.21602 9.06211 8.85508 9.27695 8.52422 9.36719C8.2707 9.43164 7.67773 9.42305 7.43711 9.35C6.83984 9.16523 6.3457 8.73984 6.075 8.17695C5.91602 7.84609 5.91602 7.8375 5.91602 7.30469C5.91602 6.77187 5.91602 6.76328 6.075 6.43242C6.33711 5.88242 6.83125 5.45273 7.41992 5.25938C7.53164 5.2207 7.75938 5.20352 8.06445 5.21211C8.51133 5.2207 8.5543 5.2293 8.87227 5.37969Z" fill="#807A7A"/>
</svg>
