<svg width="18" height="17" viewBox="0 0 18 17" fill="none" xmlns="http://www.w3.org/2000/svg">
<path d="M4.625 0.619141V2.49414M13.375 0.619141V2.49414M1.5 13.7441V4.36914C1.5 3.87186 1.69754 3.39495 2.04917 3.04332C2.40081 2.69168 2.87772 2.49414 3.375 2.49414H14.625C15.1223 2.49414 15.5992 2.69168 15.9508 3.04332C16.3025 3.39495 16.5 3.87186 16.5 4.36914V13.7441M1.5 13.7441C1.5 14.2414 1.69754 14.7183 2.04917 15.07C2.40081 15.4216 2.87772 15.6191 3.375 15.6191H14.625C15.1223 15.6191 15.5992 15.4216 15.9508 15.07C16.3025 14.7183 16.5 14.2414 16.5 13.7441M1.5 13.7441V7.49414C1.5 6.99686 1.69754 6.51995 2.04917 6.16832C2.40081 5.81668 2.87772 5.61914 3.375 5.61914H14.625C15.1223 5.61914 15.5992 5.81668 15.9508 6.16832C16.3025 6.51995 16.5 6.99686 16.5 7.49414V13.7441" stroke="white" stroke-width="1.25" stroke-linecap="round" stroke-linejoin="round"/>
</svg>
