<svg width="14" height="10" viewBox="0 0 14 10" fill="none" xmlns="http://www.w3.org/2000/svg">
<path d="M3.31226 0.696886C3.06069 0.726642 2.77395 0.802384 2.48721 0.907882C1.93537 1.11617 1.56207 1.12699 1.205 0.948459C1.11573 0.902472 1.01294 0.867306 0.972365 0.867306C0.826291 0.867306 0.815471 0.907882 0.753254 1.6653C0.701858 2.29018 0.699153 2.41461 0.726203 2.78521C0.764074 3.28835 0.858752 3.81043 0.983186 4.22431C1.03458 4.39473 1.08868 4.61113 1.10762 4.70852C1.19148 5.20625 1.40518 5.63636 1.74331 6.00154C1.82988 6.09352 1.8948 6.17467 1.88939 6.17737C1.73249 6.28017 1.416 6.54527 1.25099 6.71839C0.674807 7.31892 0.344787 8.03847 0.258225 8.89327C0.241994 9.03935 0.247405 9.0691 0.296096 9.11779C0.417824 9.23952 0.620705 9.15026 0.620705 8.97172C0.620705 8.74179 0.796535 8.07093 0.912854 7.85452L0.95884 7.76526L1.3105 7.97625L1.66216 8.18725L1.67569 8.6417C1.68921 9.05017 1.69462 9.09886 1.74061 9.13403C1.81635 9.18813 1.93808 9.18001 2.0003 9.11779C2.05169 9.0664 2.0544 9.02853 2.0544 8.56055C2.0544 8.27652 2.04358 8.03847 2.02735 8.00871C2.01112 7.98166 1.80553 7.841 1.56748 7.69763L1.13467 7.43794L1.22123 7.3108C1.35919 7.11333 1.83258 6.65347 2.03276 6.52633L2.21129 6.41001L2.39794 6.50469C2.82264 6.7238 3.20405 6.80766 3.69908 6.78331C4.07239 6.76708 4.39158 6.68322 4.70267 6.52092C4.92719 6.4019 4.91366 6.4019 5.15171 6.56961C5.41681 6.75897 5.97676 7.34597 5.97676 7.43253C5.97676 7.44335 5.80364 7.55696 5.58993 7.6841C5.37894 7.81124 5.17876 7.94109 5.1463 7.97355C5.08679 8.03035 5.08408 8.04929 5.08408 8.54973C5.08408 9.02853 5.08679 9.0664 5.13819 9.11779C5.20852 9.18813 5.33295 9.18813 5.39787 9.11509C5.44386 9.0664 5.45197 9.00148 5.4628 8.62277L5.47632 8.18725L5.82798 7.97625L6.17964 7.76526L6.24186 7.90592C6.35277 8.15479 6.43121 8.428 6.4772 8.73097C6.50425 8.89057 6.53401 9.05017 6.54753 9.08263C6.57188 9.15296 6.67467 9.18542 6.77476 9.16108C6.86132 9.13944 6.88296 9.08263 6.92083 8.78778C6.956 8.50915 7.05609 8.15479 7.15888 7.92756L7.23462 7.76526L7.58628 7.97625L7.93794 8.18725L7.95147 8.6417C7.9677 9.14755 7.97581 9.1719 8.15705 9.1719C8.31395 9.1719 8.33018 9.11779 8.33018 8.55514C8.33018 8.27381 8.31936 8.03847 8.30313 8.00871C8.2869 7.98166 8.08131 7.841 7.84326 7.69763L7.41045 7.43794L7.49701 7.3108C7.63497 7.11063 8.08131 6.67781 8.2869 6.53986L8.47355 6.41542L8.63856 6.50739C9.05243 6.73733 9.62862 6.85094 10.102 6.79413C10.4077 6.75897 10.781 6.64265 11.0271 6.50739L11.1949 6.41542L11.3518 6.52092C11.6439 6.71569 11.9198 6.98078 12.166 7.29457C12.2147 7.35679 12.2525 7.41901 12.2525 7.42983C12.2525 7.44335 12.0767 7.55696 11.8657 7.6841C11.6547 7.81124 11.4545 7.94109 11.4221 7.97355C11.3626 8.03035 11.3599 8.04929 11.3599 8.54973C11.3599 9.02853 11.3626 9.0664 11.414 9.11779C11.5168 9.22059 11.6926 9.1719 11.7251 9.02853C11.7332 8.99607 11.7413 8.79319 11.7467 8.57948L11.7521 8.18725L11.982 8.04929C12.1092 7.97355 12.2688 7.87616 12.3364 7.83829L12.4635 7.76255L12.5582 8.0006C12.6664 8.27922 12.7584 8.62547 12.7827 8.87434C12.8044 9.09886 12.8477 9.1719 12.964 9.1719C13.1371 9.1719 13.1777 9.09074 13.1452 8.81753C13.0451 8.02224 12.7395 7.34326 12.2255 6.78602C12.0551 6.59937 11.7575 6.33968 11.5763 6.21795L11.5086 6.17467L11.6331 6.04212C11.8035 5.86359 11.9063 5.72563 12.0172 5.52545L12.1119 5.35233L12.1416 5.447C12.1876 5.57955 12.358 5.7662 12.5149 5.85277C12.7124 5.95826 12.9532 6.00695 13.3048 6.00695H13.6132L13.5943 5.74186C13.5672 5.30634 13.4725 5.03854 13.2697 4.82213C13.0803 4.61925 12.7665 4.49211 12.4554 4.49211C12.3039 4.49211 12.3012 4.47318 12.4257 4.11881C12.5474 3.76715 12.588 3.51017 12.5636 3.23695C12.5122 2.6229 12.3202 2.17115 11.9306 1.75457C11.533 1.32987 11.0677 1.08101 10.4428 0.956573C10.1101 0.891651 9.50689 0.897061 9.16875 0.967394C7.97581 1.22167 7.19946 2.09 7.12101 3.24777C7.10207 3.55615 7.13183 3.75633 7.26167 4.17021C7.31307 4.33522 7.35635 4.47318 7.35635 4.47588C7.35635 4.48129 7.26167 4.49211 7.14535 4.50023C6.85591 4.52187 6.65844 4.60031 6.4772 4.76532C6.22833 4.99526 6.08767 5.37667 6.08496 5.83653V6.00695H6.39064C6.97493 6.00695 7.36176 5.83653 7.50513 5.52004C7.53218 5.46053 7.56194 5.41184 7.57005 5.41184C7.57817 5.41184 7.64038 5.50381 7.70801 5.61742C7.77293 5.72833 7.90278 5.90146 7.99475 6.00154L8.15976 6.18278L7.95417 6.33427C7.44291 6.71569 6.97764 7.32974 6.77476 7.88698C6.72336 8.02765 6.68008 8.09798 6.68008 8.04117C6.68008 8.02224 6.64221 7.91133 6.59893 7.79772C6.39605 7.26752 5.93618 6.68863 5.42492 6.31263C5.33295 6.245 5.2545 6.18549 5.24909 6.18008C5.24368 6.17467 5.3032 6.10163 5.37894 6.01778C5.72789 5.63636 5.93618 5.21707 6.02004 4.72745C6.04168 4.58949 6.09037 4.38391 6.12554 4.27029C6.30948 3.686 6.40957 3.05842 6.40957 2.51199C6.40957 2.07648 6.37441 1.91688 6.21751 1.67612C6.11201 1.51111 5.81175 1.22979 5.61698 1.11617C5.13278 0.82673 4.48356 0.675245 3.77212 0.68336C3.56383 0.68336 3.35824 0.691476 3.31226 0.696886ZM4.17788 1.05666C5.05974 1.15404 5.74412 1.51382 5.97135 1.99262C6.04168 2.14681 6.04439 2.16845 6.04168 2.55798C6.03898 2.97456 5.9984 3.29106 5.8902 3.73739C5.85774 3.86994 5.82257 3.97544 5.81175 3.97274C5.79822 3.96733 5.63863 3.75092 5.45739 3.49123C5.06785 2.9394 5.09761 2.95563 4.69726 3.08277C4.39158 3.18015 3.98312 3.26671 3.70449 3.29106C3.43669 3.3127 2.98224 3.24777 2.57377 3.12334C2.40065 3.06924 2.20047 3.02055 2.13284 3.01243L2.00841 2.99891L1.65946 3.49935C1.46739 3.77527 1.3078 3.99708 1.30509 3.99438C1.28615 3.97815 1.205 3.61837 1.16172 3.34245C1.08327 2.87988 1.06704 2.41191 1.10762 1.83572L1.14279 1.33799L1.32132 1.38668C1.70274 1.48406 2.17342 1.43537 2.65222 1.24602C3.12831 1.05666 3.61793 0.994445 4.17788 1.05666ZM10.5348 1.35422C10.8243 1.42996 11.2544 1.64366 11.4518 1.80867C11.909 2.19009 12.1606 2.69053 12.1903 3.27753C12.2038 3.53451 12.1984 3.59132 12.1335 3.81855C12.0929 3.95921 12.0497 4.08364 12.0388 4.09446C12.0118 4.12152 11.6304 3.98085 11.3193 3.82937C10.6836 3.51828 10.2481 3.1017 10.0722 2.63102C9.9911 2.41732 9.9424 2.3551 9.85314 2.3551C9.74764 2.3551 9.68813 2.40109 9.65296 2.50929C9.45008 3.13957 8.89283 3.6319 7.99204 3.98356C7.59981 4.13775 7.63768 4.14316 7.57005 3.93216C7.48078 3.65354 7.46996 3.22072 7.543 2.91505C7.64038 2.50929 7.84056 2.16574 8.14082 1.88442C8.41945 1.62743 8.78463 1.44078 9.18228 1.3461C9.47713 1.27577 9.48254 1.27577 9.91265 1.28659C10.221 1.292 10.3698 1.30823 10.5348 1.35422ZM9.93158 3.17203C10.2427 3.64001 10.7702 4.02684 11.4654 4.30005C11.6547 4.37309 11.8414 4.44342 11.8819 4.45424C11.9577 4.47047 11.9577 4.47588 11.9415 4.61113C11.8495 5.27388 11.3869 5.91228 10.7783 6.21795C10.4428 6.38567 10.2508 6.42624 9.81797 6.42354C9.46631 6.42354 9.40409 6.41542 9.20933 6.3505C8.89554 6.245 8.62503 6.0827 8.3924 5.86359C8.01098 5.50111 7.80539 5.10616 7.72154 4.58138L7.7026 4.46777L7.81351 4.43801C7.99475 4.38932 8.51953 4.17291 8.70889 4.06741C9.1417 3.82666 9.53935 3.48582 9.7287 3.19097C9.78551 3.10441 9.8315 3.03137 9.8342 3.03137C9.83691 3.03137 9.88019 3.09629 9.93158 3.17203ZM2.45204 3.48041C2.58459 3.51828 2.83616 3.57238 3.0147 3.60485C3.54489 3.69411 4.1346 3.64813 4.70537 3.46689C4.80276 3.43713 4.89473 3.41008 4.91366 3.41008C4.92989 3.41008 5.10843 3.64542 5.31131 3.93486C5.57911 4.31899 5.6792 4.484 5.6792 4.5408C5.6792 4.77885 5.48444 5.27929 5.28426 5.5525C5.03269 5.89334 4.562 6.22607 4.16706 6.34238C3.4394 6.55609 2.62517 6.3505 2.08415 5.81489C1.79471 5.52545 1.62429 5.23601 1.51338 4.83566C1.416 4.48941 1.41329 4.50023 1.81635 3.92134C2.01382 3.64001 2.18424 3.41008 2.19506 3.41008C2.20588 3.41008 2.3222 3.43984 2.45204 3.48041ZM7.25626 4.93304C7.2752 5.06018 7.23192 5.27388 7.15888 5.37667C7.12642 5.42536 7.04527 5.49569 6.97764 5.53086C6.86132 5.59578 6.50425 5.67694 6.47449 5.64718C6.44474 5.61742 6.52048 5.34151 6.59352 5.20896C6.70443 5.00608 6.91001 4.88976 7.2238 4.84648C7.23462 4.84377 7.24815 4.88435 7.25626 4.93304ZM12.7503 4.91681C12.9829 4.98985 13.1506 5.22248 13.2101 5.55791L13.2291 5.6607L13.0857 5.64177C12.7719 5.59849 12.5826 5.4984 12.4987 5.33339C12.4365 5.21707 12.4013 5.00608 12.4257 4.9114C12.4392 4.85459 12.4527 4.84648 12.5312 4.86C12.5772 4.86812 12.6772 4.89517 12.7503 4.91681Z" fill="#21C033"/>
</svg>
