<svg width="13" height="15" viewBox="0 0 13 15" fill="none" xmlns="http://www.w3.org/2000/svg">
<path d="M8.5816 5.37256L8.34377 11.5589M5.05261 11.5589L4.81478 5.37256M11.6665 3.16609C11.9016 3.20183 12.1353 3.23964 12.369 3.28019M11.6665 3.16609L10.9324 12.7089C10.9025 13.0974 10.7269 13.4603 10.441 13.725C10.155 13.9897 9.77963 14.1367 9.38995 14.1366H4.00643C3.61675 14.1367 3.2414 13.9897 2.95542 13.725C2.66944 13.4603 2.49392 13.0974 2.46396 12.7089L1.72984 3.16609M11.6665 3.16609C10.8732 3.04615 10.0758 2.95513 9.27585 2.8932M1.72984 3.16609C1.49476 3.20115 1.26105 3.23895 1.02734 3.27951M1.72984 3.16609C2.52316 3.04615 3.32059 2.95513 4.12053 2.8932M9.27585 2.8932V2.26357C9.27585 1.45246 8.65034 0.776085 7.83923 0.750652C7.07873 0.726345 6.31765 0.726345 5.55715 0.750652C4.74604 0.776085 4.12053 1.45315 4.12053 2.26357V2.8932M9.27585 2.8932C7.55997 2.76059 5.83641 2.76059 4.12053 2.8932" stroke="#FF0000" stroke-width="1.03106" stroke-linecap="round" stroke-linejoin="round"/>
</svg>
