<svg width="33" height="57" viewBox="0 0 33 57" fill="none" xmlns="http://www.w3.org/2000/svg">
<path d="M15.5983 0.221786C15.0751 0.500107 14.6409 1.01221 14.4962 1.53546C14.4405 1.75811 14.3848 2.90479 14.3848 4.07374C14.3848 6.18897 14.3848 6.21124 14.1399 6.27804C13.9952 6.31144 13.728 6.34483 13.5388 6.34483C12.971 6.34483 10.9893 6.77901 9.83153 7.1464C8.62918 7.52491 6.91473 8.33761 5.95731 8.99444C5.04442 9.61788 3.69735 10.8982 3.02938 11.7776C0.491098 15.1732 0.0791843 19.9269 2.00516 23.6564C2.41707 24.4468 2.75106 24.8698 3.58602 25.7159C5.58993 27.7532 7.97235 28.9444 12.8819 30.3806L14.3292 30.8148L14.3626 37.9509L14.3848 45.0982L13.9729 45.0202C10.7889 44.4636 8.07254 43.2724 5.50086 41.313C4.93309 40.8788 4.28739 40.478 4.0536 40.4112C2.21668 39.8991 0.368637 41.1794 0.168247 43.1054C0.0457858 44.2966 0.479966 45.1204 1.7825 46.1558C5.14461 48.8499 9.20809 50.4753 13.4608 50.8316L14.3626 50.8983L14.4071 53.1472C14.4405 55.2179 14.4628 55.4183 14.6966 55.8525C15.3311 57.0548 17.2348 57.411 18.2479 56.5204C18.9827 55.8747 19.0606 55.563 19.0606 53.0358V50.7982L19.9847 50.7202C24.6493 50.3306 28.735 48.1597 30.828 44.9423C32.8097 41.903 33.3997 37.539 32.2864 34.0655C30.9727 29.9464 27.3434 27.2411 20.5079 25.304L19.0606 24.8921V18.6243C19.0606 15.1732 19.094 12.3566 19.1497 12.3566C19.3946 12.3566 21.1202 12.8241 21.8438 13.0913C23.0462 13.5144 24.627 14.3382 25.885 15.1732C27.0429 15.9525 27.5661 16.1194 28.4456 15.9859C30.4272 15.663 31.6407 13.4921 30.8169 11.7331C30.5163 11.0874 30.0042 10.6198 28.4679 9.58448C25.9407 7.8923 22.8458 6.76788 19.9513 6.47843L19.1163 6.4005L19.0606 4.00694C18.9938 1.51319 18.9382 1.19034 18.4706 0.689365C17.8249 -0.000869751 16.4444 -0.223526 15.5983 0.221786ZM14.3848 17.9118V23.6898L13.5833 23.4337C10.6331 22.4985 8.99657 21.5634 8.25067 20.3944C7.05946 18.513 7.5159 15.8411 9.30829 14.1601C10.4884 13.0691 12.4811 12.223 14.0843 12.145L14.3848 12.1339V17.9118ZM20.519 32.6851C23.3245 33.6536 24.9165 34.8003 25.6401 36.3366C26.2636 37.6614 26.297 39.131 25.7514 40.6784C24.9833 42.8605 22.5675 44.6194 19.7063 45.0648L19.0606 45.165V38.7191C19.0606 33.2751 19.0829 32.2843 19.2165 32.2843C19.3056 32.2843 19.8845 32.4624 20.519 32.6851Z" fill="#7CCDF3"/>
</svg>
