<svg width="15" height="15" viewBox="0 0 15 15" fill="none" xmlns="http://www.w3.org/2000/svg">
<path d="M10.7706 2.27025L11.9302 1.10996C12.1719 0.868227 12.4998 0.732422 12.8416 0.732422C13.1835 0.732422 13.5114 0.868227 13.7531 1.10996C13.9948 1.3517 14.1306 1.67956 14.1306 2.02142C14.1306 2.36328 13.9948 2.69115 13.7531 2.93288L6.45387 10.2321C6.09047 10.5953 5.64233 10.8623 5.14992 11.0089L3.30431 11.5588L3.85421 9.71315C4.00082 9.22074 4.26776 8.7726 4.63095 8.4092L10.7706 2.27025ZM10.7706 2.27025L12.5839 4.08355M11.5528 8.80925V12.0743C11.5528 12.4845 11.3899 12.8779 11.0998 13.1679C10.8098 13.4579 10.4164 13.6209 10.0062 13.6209H2.78878C2.3786 13.6209 1.98522 13.4579 1.69517 13.1679C1.40513 12.8779 1.24219 12.4845 1.24219 12.0743V4.85684C1.24219 4.44666 1.40513 4.05328 1.69517 3.76324C1.98522 3.47319 2.3786 3.31025 2.78878 3.31025H6.05382" stroke="#1D3856" stroke-width="1.03106" stroke-linecap="round" stroke-linejoin="round"/>
</svg>
