<svg width="10" height="13" viewBox="0 0 10 13" fill="none" xmlns="http://www.w3.org/2000/svg">
<path d="M7.08864 3.46268C7.08864 4.03657 6.86066 4.58695 6.45486 4.99276C6.04906 5.39856 5.49867 5.62653 4.92479 5.62653C4.3509 5.62653 3.80051 5.39856 3.39471 4.99276C2.98891 4.58695 2.76093 4.03657 2.76093 3.46268C2.76093 2.88879 2.98891 2.33841 3.39471 1.93261C3.80051 1.5268 4.3509 1.29883 4.92479 1.29883C5.49867 1.29883 6.04906 1.5268 6.45486 1.93261C6.86066 2.33841 7.08864 2.88879 7.08864 3.46268ZM0.597656 11.6092C0.616199 10.4738 1.08025 9.39115 1.88972 8.59479C2.6992 7.79842 3.78925 7.35212 4.92479 7.35212C6.06032 7.35212 7.15037 7.79842 7.95985 8.59479C8.76932 9.39115 9.23337 10.4738 9.25191 11.6092C7.89439 12.2316 6.41822 12.5529 4.92479 12.5509C3.38066 12.5509 1.91501 12.2139 0.597656 11.6092Z" stroke="#1D3856" stroke-width="0.738595" stroke-linecap="round" stroke-linejoin="round"/>
</svg>
