<svg width="23" height="23" viewBox="0 0 23 23" fill="none" xmlns="http://www.w3.org/2000/svg">
<path d="M11.5 23.0002C17.8513 23.0002 23 17.8514 23 11.5001C23 5.14877 17.8513 0 11.5 0C5.14868 0 0 5.14877 0 11.5001C0 17.8514 5.14868 23.0002 11.5 23.0002Z" fill="url(#paint0_linear_995_3727)"/>
<path d="M4.76599 11.7654C5.3532 11.3833 6.13504 11.5425 6.52415 12.1226C6.78592 12.5117 7.06178 12.8973 7.35185 13.2758C7.48981 13.4562 7.63137 13.6366 7.77641 13.817L8.22912 14.3724C8.53333 14.7545 8.79514 15.0905 9.06752 15.3664C9.20194 15.5044 9.33632 15.6176 9.46012 15.7096C9.58393 15.8015 9.69356 15.8475 9.77846 15.8794C9.79968 15.8794 9.82088 15.9005 9.83856 15.897C9.85625 15.897 9.87753 15.9006 9.89522 15.9076C9.93059 15.9006 9.98366 15.9076 9.99073 15.9076C9.99781 15.9076 9.9942 15.9076 10.0013 15.9147C10.0013 15.9147 10.0048 15.9147 10.0084 15.9147H10.0154L10.0261 15.9076C10.0368 15.897 10.0545 15.8935 10.0757 15.8687L10.1075 15.8369C10.1075 15.8369 10.1323 15.8051 10.1429 15.7909C10.242 15.6671 10.355 15.4796 10.4647 15.2815C10.5743 15.087 10.6875 14.8747 10.7972 14.666C11.0236 14.2451 11.2537 13.8206 11.4907 13.3996C11.9718 12.5577 12.4669 11.7371 13.0046 10.927C13.5423 10.1205 14.1154 9.33514 14.7628 8.60644C15.4066 7.87773 16.1211 7.20919 16.9028 6.63967C17.6811 6.07015 18.5301 5.60319 19.4144 5.24945C18.576 5.70578 17.8048 6.26116 17.1186 6.90143C16.4323 7.5417 15.8274 8.25979 15.2968 9.02387C14.7662 9.78795 14.31 10.6051 13.8855 11.4399C13.4645 12.2747 13.0753 13.1343 12.711 13.9974C12.5306 14.429 12.3573 14.8641 12.184 15.3063C12.0956 15.5292 12.0106 15.7484 11.9151 15.9819C11.8195 16.2118 11.7206 16.4524 11.5579 16.7248C11.5366 16.7602 11.5189 16.792 11.4941 16.8274L11.4162 16.937C11.3702 17.0078 11.2996 17.0856 11.2288 17.1634L11.1758 17.22L11.1121 17.2766C11.0696 17.312 11.0237 17.3474 10.9777 17.3827C10.8822 17.4464 10.776 17.5101 10.677 17.5561C10.4647 17.6516 10.2774 17.687 10.0828 17.7259C9.98375 17.7365 9.88458 17.74 9.78554 17.7471C9.68295 17.7542 9.59095 17.7365 9.49191 17.7294C9.10987 17.6834 8.76325 17.5561 8.48026 17.4075C8.19727 17.2554 7.94253 17.0856 7.72321 16.9087C7.28103 16.5585 6.91315 16.18 6.58063 15.8546L6.07127 15.3594C5.89794 15.186 5.72116 15.0127 5.55137 14.8358C5.19055 14.4644 4.83328 14.0788 4.49015 13.6756C3.9843 13.0884 4.11165 12.1898 4.76254 11.7654H4.76599Z" fill="white"/>
<defs>
<linearGradient id="paint0_linear_995_3727" x1="0" y1="11.5001" x2="23" y2="11.5001" gradientUnits="userSpaceOnUse">
<stop stop-color="#BF0AE3"/>
<stop offset="1" stop-color="#FAA2EB"/>
</linearGradient>
</defs>
</svg>
