<svg width="23" height="23" viewBox="0 0 23 23" fill="none" xmlns="http://www.w3.org/2000/svg">
<path d="M11.5 23.0004C17.8513 23.0004 23 17.8516 23 11.5003C23 5.14895 17.8513 0.000183105 11.5 0.000183105C5.14868 0.000183105 0 5.14895 0 11.5003C0 17.8516 5.14868 23.0004 11.5 23.0004Z" fill="url(#paint0_linear_995_3637)"/>
<path d="M4.76599 11.7655C5.3532 11.3835 6.13504 11.5427 6.52415 12.1228C6.78592 12.5119 7.06178 12.8975 7.35185 13.276C7.48981 13.4564 7.63137 13.6368 7.77641 13.8172L8.22912 14.3726C8.53333 14.7546 8.79514 15.0907 9.06752 15.3666C9.20194 15.5045 9.33632 15.6178 9.46012 15.7097C9.58393 15.8017 9.69356 15.8477 9.77846 15.8795C9.79968 15.8795 9.82088 15.9007 9.83856 15.8972C9.85625 15.8972 9.87753 15.9007 9.89522 15.9078C9.93059 15.9007 9.98366 15.9078 9.99073 15.9078C9.99781 15.9078 9.9942 15.9078 10.0013 15.9149C10.0013 15.9149 10.0048 15.9149 10.0084 15.9149H10.0154L10.0261 15.9078C10.0368 15.8972 10.0545 15.8937 10.0757 15.8689L10.1075 15.8371C10.1075 15.8371 10.1323 15.8052 10.1429 15.7911C10.242 15.6673 10.355 15.4798 10.4647 15.2817C10.5743 15.0871 10.6875 14.8749 10.7972 14.6662C11.0236 14.2452 11.2537 13.8208 11.4907 13.3998C11.9718 12.5579 12.4669 11.7372 13.0046 10.9272C13.5423 10.1206 14.1154 9.33533 14.7628 8.60662C15.4066 7.87792 16.1211 7.20937 16.9028 6.63985C17.6811 6.07033 18.5301 5.60337 19.4144 5.24963C18.576 5.70596 17.8048 6.26135 17.1186 6.90161C16.4323 7.54188 15.8274 8.25998 15.2968 9.02405C14.7662 9.78813 14.31 10.6053 13.8855 11.4401C13.4645 12.2749 13.0753 13.1345 12.711 13.9976C12.5306 14.4292 12.3573 14.8643 12.184 15.3065C12.0956 15.5293 12.0106 15.7486 11.9151 15.9821C11.8195 16.212 11.7206 16.4526 11.5579 16.725C11.5366 16.7604 11.5189 16.7922 11.4941 16.8275L11.4162 16.9372C11.3702 17.008 11.2996 17.0858 11.2288 17.1636L11.1758 17.2202L11.1121 17.2768C11.0696 17.3122 11.0237 17.3476 10.9777 17.3829C10.8822 17.4466 10.776 17.5103 10.677 17.5563C10.4647 17.6518 10.2774 17.6871 10.0828 17.726C9.98375 17.7367 9.88458 17.7402 9.78554 17.7473C9.68295 17.7544 9.59095 17.7367 9.49191 17.7296C9.10987 17.6836 8.76325 17.5562 8.48026 17.4077C8.19727 17.2556 7.94253 17.0858 7.72321 16.9089C7.28103 16.5587 6.91315 16.1802 6.58063 15.8547L6.07127 15.3595C5.89794 15.1862 5.72116 15.0128 5.55137 14.836C5.19055 14.4645 4.83328 14.079 4.49015 13.6757C3.9843 13.0885 4.11165 12.19 4.76254 11.7655H4.76599Z" fill="white"/>
<defs>
<linearGradient id="paint0_linear_995_3637" x1="0" y1="11.5003" x2="23" y2="11.5003" gradientUnits="userSpaceOnUse">
<stop stop-color="#731AE8"/>
<stop offset="1" stop-color="#C198F7"/>
</linearGradient>
</defs>
</svg>
