<svg width="24" height="24" viewBox="0 0 24 24" fill="none" xmlns="http://www.w3.org/2000/svg">
    <g clip-path="url(#clip0_995_16437)">
        <path d="M10.3453 0.819923C6.675 1.26524 3.44062 3.18711 1.58437 6.02305C0.496875 7.67774 0 9.35117 0 11.334C0.0046875 13.6449 0.801562 15.7684 2.36719 17.6246C2.76562 18.0934 2.8125 18.248 2.81719 19.0262C2.81719 20.1512 2.48437 20.9855 1.61719 22.0121C1.43906 22.223 1.42969 22.2465 1.42969 22.5559C1.42969 22.8793 1.42969 22.884 1.63594 23.0715L1.8375 23.2637L2.52656 23.2355C3.60469 23.1934 4.47656 22.973 5.50781 22.4762C6.16875 22.1574 6.53437 21.909 7.3875 21.2152C7.49531 21.1262 7.5 21.1262 8.07187 21.2996C10.0875 21.9043 12.4687 22.0168 14.5969 21.609C17.0672 21.1309 19.3828 19.9027 21.0984 18.1543C22.5375 16.6918 23.4281 15.0559 23.8453 13.1012C23.9672 12.5246 23.9719 12.4262 23.9719 11.2965C23.9719 10.1668 23.9672 10.0684 23.8453 9.4918C23.4281 7.53711 22.5375 5.90117 21.0984 4.43867C19.1203 2.42305 16.4812 1.1668 13.5 0.819923C12.7781 0.735548 11.0531 0.735548 10.3453 0.819923ZM7.18594 9.36992C7.69219 9.57149 8.14687 10.0215 8.35312 10.5371C8.50781 10.9215 8.50781 11.6715 8.35312 12.0605C8.14687 12.5715 7.69687 13.0215 7.18125 13.2277C6.79687 13.3824 6.04687 13.3824 5.6625 13.2277C5.14687 13.0215 4.69687 12.5668 4.49531 12.0605C4.35 11.6902 4.32187 11.0668 4.42969 10.7246C4.65937 10.0355 5.07187 9.59492 5.72812 9.34649C6.12187 9.19649 6.77344 9.20586 7.18594 9.36992ZM12.8109 9.36992C13.3172 9.57149 13.7719 10.0215 13.9781 10.5371C14.1328 10.9215 14.1328 11.6715 13.9781 12.0605C13.7719 12.5715 13.3219 13.0215 12.8062 13.2277C12.4219 13.3824 11.6719 13.3824 11.2875 13.2277C10.7719 13.0215 10.3219 12.5668 10.1203 12.0605C9.975 11.6902 9.94687 11.0668 10.0547 10.7246C10.2844 10.0355 10.6969 9.59492 11.3531 9.34649C11.7469 9.19649 12.3984 9.20586 12.8109 9.36992ZM18.4359 9.36992C18.9422 9.57149 19.3969 10.0215 19.6031 10.5371C19.7578 10.9215 19.7578 11.6715 19.6031 12.0605C19.3969 12.5715 18.9469 13.0215 18.4312 13.2277C18.0469 13.3824 17.2969 13.3824 16.9125 13.2277C16.3969 13.0215 15.9469 12.5668 15.7453 12.0605C15.6 11.6902 15.5719 11.0668 15.6797 10.7246C15.9094 10.0355 16.3219 9.59492 16.9781 9.34649C17.3719 9.19649 18.0234 9.20586 18.4359 9.36992Z" fill="url(#paint0_linear_995_16437)"/>
    </g>
    <defs>
        <linearGradient id="paint0_linear_995_16437" x1="11.9859" y1="23.2637" x2="11.9859" y2="0.756641" gradientUnits="userSpaceOnUse">
            <stop stop-color="#89C5E1"/>
            <stop offset="1" stop-color="#CB93F2"/>
        </linearGradient>
        <clipPath id="clip0_995_16437">
            <rect width="24" height="24" fill="white"/>
        </clipPath>
    </defs>
</svg>
