<svg width="20" height="21" viewBox="0 0 20 21" fill="none" xmlns="http://www.w3.org/2000/svg">
    <path d="M18.032 5.5313L12.2777 1.47133C10.7093 0.363153 8.3017 0.423599 6.79321 1.6023L1.78821 5.54137C0.789211 6.32717 0 7.93907 0 9.20844V16.1598C0 18.7287 2.06793 20.8242 4.61538 20.8242H15.3846C17.9321 20.8242 20 18.7388 20 16.1698V9.33941C20 7.97937 19.1309 6.30703 18.032 5.5313ZM10.7493 16.7944C10.7493 17.2075 10.4096 17.55 10 17.55C9.59041 17.55 9.25075 17.2075 9.25075 16.7944V13.7721C9.25075 13.3591 9.59041 13.0166 10 13.0166C10.4096 13.0166 10.7493 13.3591 10.7493 13.7721V16.7944Z" fill="white"/>
</svg>
