<svg width="20" height="21" viewBox="0 0 20 21" fill="none" xmlns="http://www.w3.org/2000/svg">
<path d="M18.032 4.85357L12.2777 0.793598C10.7093 -0.314582 8.3017 -0.254135 6.79321 0.924565L1.78821 4.86364C0.789211 5.64944 0 7.26134 0 8.53071V15.482C0 18.051 2.06793 20.1464 4.61538 20.1464H15.3846C17.9321 20.1464 20 18.0611 20 15.4921V8.66167C20 7.30164 19.1309 5.62929 18.032 4.85357ZM10.7493 16.1167C10.7493 16.5297 10.4096 16.8723 10 16.8723C9.59041 16.8723 9.25075 16.5297 9.25075 16.1167V13.0944C9.25075 12.6813 9.59041 12.3388 10 12.3388C10.4096 12.3388 10.7493 12.6813 10.7493 13.0944V16.1167Z" fill="url(#paint0_linear_207_353)"/>
<defs>
<linearGradient id="paint0_linear_207_353" x1="10" y1="0" x2="10" y2="20.1464" gradientUnits="userSpaceOnUse">
<stop stop-color="#89C5E1"/>
<stop offset="1" stop-color="#CB93F2"/>
</linearGradient>
</defs>
</svg>
