<svg width="24" height="24" viewBox="0 0 24 24" fill="none" xmlns="http://www.w3.org/2000/svg">
    <g clip-path="url(#clip0_995_16425)">
        <path d="M6.85716 0C6.38377 0 6 0.383766 6 0.857156V2.57142H4.28573C1.92628 2.57142 0 4.4977 0 6.85716V8.57142H24V6.85716C24 4.4977 22.0737 2.57142 19.7143 2.57142H18.8571V6C18.8571 6.47339 18.4733 6.85716 18 6.85716C17.848 6.85655 17.6989 6.81548 17.568 6.73828C17.8333 6.58673 17.9978 6.30548 18 6V0.857156C18 0.383766 17.6162 0 17.1428 0C16.6695 0 16.2857 0.383766 16.2857 0.857156V2.57142H8.57142V6C8.57142 6.47339 8.18766 6.85716 7.71427 6.85716C7.5623 6.85655 7.41323 6.81548 7.28236 6.73828C7.54762 6.58673 7.71216 6.30548 7.71427 6V0.857156C7.71427 0.383766 7.33055 0 6.85716 0ZM0 10.2857V19.7143C0 22.0737 1.92628 24 4.28573 24H19.7143C22.0737 24 24 22.0737 24 19.7143V10.2857H0Z" fill="url(#paint0_linear_995_16425)"/>
    </g>
    <defs>
        <linearGradient id="paint0_linear_995_16425" x1="12" y1="0" x2="12" y2="24" gradientUnits="userSpaceOnUse">
            <stop stop-color="#89C5E1"/>
            <stop offset="1" stop-color="#CB93F2"/>
        </linearGradient>
        <clipPath id="clip0_995_16425">
            <rect width="24" height="24" fill="white"/>
        </clipPath>
    </defs>
</svg>
