<svg width="20" height="20" viewBox="0 0 20 20" fill="none" xmlns="http://www.w3.org/2000/svg">
    <path fill-rule="evenodd" clip-rule="evenodd" d="M11.1049 20H8.89543C8.5087 20 8.19604 19.6938 8.16838 19.2883L7.97127 16.4079C7.59802 16.2974 7.23262 16.1556 6.88163 15.9852L4.72768 17.8629C4.43095 18.1216 3.9902 18.1321 3.71024 17.8521L2.14798 16.2899C1.87434 16.0162 1.86965 15.5791 2.13708 15.2724L3.89012 13.262C3.64824 12.8643 3.44574 12.4437 3.28624 12.008L0.711929 11.8317C0.305866 11.8041 0 11.4914 0 11.1047V8.89519C0 8.5087 0.305866 8.19615 0.711695 8.16814L3.02046 8.01017C3.14386 7.45024 3.33452 6.90765 3.58883 6.39272L2.13684 4.72745C1.86942 4.42099 1.87422 3.98352 2.14774 3.71012L3.71 2.14786C3.9902 1.86766 4.43095 1.87832 4.72745 2.13696L6.25326 3.46742C6.80968 3.12417 7.40723 2.86026 8.03338 2.68154L8.16814 0.711812C8.1958 0.305983 8.50846 0 8.89519 0H11.1047C11.4912 0 11.804 0.305866 11.8317 0.711578L11.9666 2.68131C12.5928 2.86026 13.1901 3.12382 13.7464 3.4673L15.2724 2.13673C15.5692 1.87809 16.0097 1.86754 16.2899 2.14762L17.8521 3.70988C18.1258 3.98352 18.1304 4.42088 17.8629 4.72721L16.4111 6.39225C16.6654 6.90671 16.8559 7.44953 16.9794 8.0097L19.2882 8.16768C19.6939 8.19545 19.9999 8.50823 19.9999 8.89472V11.1041C19.9999 11.4908 19.6939 11.8035 19.2882 11.8314L16.7139 12.0075C16.5546 12.4431 16.352 12.8636 16.11 13.2616L17.8629 15.2721C18.1304 15.5788 18.1255 16.0159 17.8521 16.2895L16.2899 17.8518C16.0098 18.1316 15.5689 18.1212 15.2724 17.8627L13.1192 15.9851C12.7683 16.1557 12.4029 16.2973 12.029 16.4079L11.8319 19.2877C11.8036 19.6937 11.4912 19.9996 11.1046 19.9996L11.1049 20ZM6.84577 15.4708C6.93003 15.4708 7.6804 15.8454 8.25498 16.001C8.35155 16.0273 8.42081 16.1116 8.42772 16.2112L8.63608 19.2562C8.64523 19.3894 8.73921 19.5311 8.89543 19.5311H11.1049C11.2611 19.5311 11.3551 19.3896 11.3643 19.2562L11.5726 16.2117C11.5794 16.1121 11.6488 16.0277 11.7454 16.0015C12.195 15.8801 12.6332 15.7105 13.0479 15.4972C13.1333 15.4538 13.237 15.4659 13.309 15.5291L15.5806 17.5097C15.6826 17.5985 15.8475 17.6317 15.9586 17.5205L17.5208 15.9582C17.6315 15.8477 17.5978 15.6812 17.5101 15.5804L15.6425 13.4389C15.5739 13.3605 15.5655 13.2459 15.6219 13.1581C15.9138 12.7041 16.1493 12.2165 16.3225 11.7087C16.353 11.6193 16.4343 11.5568 16.5284 11.5505L19.2562 11.364C19.3894 11.3547 19.5311 11.2607 19.5311 11.1045V8.89507C19.5311 8.73886 19.3896 8.64476 19.2562 8.63573L16.7702 8.46557C16.6643 8.45842 16.5765 8.38084 16.5563 8.27631C16.434 7.64512 16.221 7.03609 15.9231 6.46619C15.8785 6.38064 15.8907 6.27646 15.9541 6.20369L17.5099 4.41935C17.5976 4.31857 17.6314 4.15216 17.5207 4.04142L15.9585 2.47915C15.8487 2.36935 15.6842 2.3997 15.5805 2.49005L13.9226 3.93559C13.8434 4.00438 13.7285 4.01247 13.6407 3.95528C13.037 3.56187 12.3791 3.27077 11.6851 3.09054C11.5875 3.0651 11.5172 2.98038 11.5103 2.87983L11.364 0.743688C11.3549 0.610443 11.261 0.46876 11.1048 0.46876H8.89531C8.73909 0.46876 8.64499 0.610326 8.63597 0.743688L8.48983 2.87959C8.48303 2.98014 8.41249 3.0651 8.31498 3.0903C7.62122 3.27066 6.9632 3.56164 6.35932 3.95505C6.27131 4.01235 6.15634 4.00403 6.07736 3.93536L4.41959 2.49005C4.31751 2.40099 4.15286 2.36794 4.04177 2.47904L2.47951 4.0413C2.369 4.15181 2.40263 4.31845 2.49041 4.41924L4.04645 6.2038C4.10997 6.27658 4.12216 6.38064 4.07751 6.46631C3.7795 7.03667 3.56644 7.64571 3.44421 8.27631C3.42406 8.38073 3.33617 8.45831 3.23023 8.46557L0.743922 8.63573C0.610677 8.64499 0.468994 8.73886 0.468994 8.89507V11.1046C0.468994 11.261 0.610794 11.3549 0.744039 11.3642L3.47187 11.5507C3.56609 11.557 3.64731 11.6195 3.67777 11.7089C3.85098 12.2169 4.08665 12.7046 4.3781 13.1583C4.43435 13.246 4.42615 13.3605 4.35759 13.4391L2.49017 15.5806C2.40228 15.6814 2.36864 15.8481 2.47927 15.9585L4.04153 17.5207C4.15146 17.6304 4.31587 17.6003 4.41947 17.5099L6.69167 15.5288C6.73515 15.4906 6.79022 15.471 6.84565 15.471L6.84577 15.4708Z" fill="url(#paint0_linear_995_16452)"/>
    <path fill-rule="evenodd" clip-rule="evenodd" d="M9.9997 14.3978C7.57457 14.3978 5.60156 12.4247 5.60156 9.99959C5.60156 7.57446 7.57457 5.60156 9.9997 5.60156C12.4248 5.60156 14.398 7.57457 14.398 9.99959C14.398 12.4246 12.4248 14.3978 9.9997 14.3978ZM9.9997 6.07021C7.8331 6.07021 6.07032 7.83286 6.07032 9.99959C6.07032 12.1662 7.83298 13.929 9.9997 13.929C12.1664 13.929 13.9291 12.1663 13.9291 9.99959C13.9291 7.83309 12.1663 6.07021 9.9997 6.07021Z" fill="url(#paint1_linear_995_16452)"/>
    <path fill-rule="evenodd" clip-rule="evenodd" d="M10 7.32789C9.87063 7.32789 9.76562 7.22288 9.76562 7.09351V4.57908C9.76562 4.27052 10.2344 4.27052 10.2344 4.57908V7.09351C10.2344 7.22288 10.1294 7.32789 10 7.32789Z" fill="url(#paint2_linear_995_16452)"/>
    <path fill-rule="evenodd" clip-rule="evenodd" d="M15.4215 10.2344H12.9072C12.5986 10.2344 12.5987 9.76562 12.9072 9.76562H15.4215C15.73 9.76562 15.73 10.2344 15.4215 10.2344Z" fill="url(#paint3_linear_995_16452)"/>
    <path fill-rule="evenodd" clip-rule="evenodd" d="M10 15.6552C9.87063 15.6552 9.76562 15.5501 9.76562 15.4208V12.9062C9.76562 12.5976 10.2344 12.5977 10.2344 12.9062V15.4206C10.2346 15.5501 10.1294 15.6552 10 15.6552Z" fill="url(#paint4_linear_995_16452)"/>
    <path fill-rule="evenodd" clip-rule="evenodd" d="M7.09362 10.2344H4.57908C4.27052 10.2344 4.27052 9.76562 4.57908 9.76562H7.09362C7.40219 9.76562 7.40219 10.2344 7.09362 10.2344Z" fill="url(#paint5_linear_995_16452)"/>
    <path fill-rule="evenodd" clip-rule="evenodd" d="M10.2344 5.60812C12.4735 5.72625 14.2742 7.52687 14.3922 9.76579H15.4207C15.7292 9.76579 15.7292 10.2345 15.4207 10.2345H14.3922C14.274 12.4735 12.4731 14.2741 10.2341 14.392V15.4208C10.2343 15.7296 9.76532 15.7296 9.76532 15.421V14.392C7.52652 14.2736 5.72625 12.4731 5.60812 10.2341H4.57907C4.27051 10.2341 4.27051 9.76532 4.57907 9.76532H5.60812C5.72636 7.5264 7.52675 5.72613 9.76567 5.60812V4.57919C9.76567 4.27063 10.2344 4.27063 10.2344 4.57919V5.60812ZM8.89518 19.5311H11.1047C11.2609 19.5311 11.3549 19.3895 11.364 19.2562L11.5724 16.2117C11.5792 16.1121 11.6486 16.0277 11.7451 16.0015C12.1948 15.8801 12.633 15.7105 13.0477 15.4972C13.133 15.4538 13.2367 15.4659 13.3088 15.5291L15.5804 17.5097C15.6824 17.5985 15.8472 17.6317 15.9583 17.5205L17.5206 15.9582C17.6312 15.8477 17.5976 15.6812 17.5098 15.5804L15.6423 13.4389C15.5736 13.3605 15.5653 13.2459 15.6217 13.1581C15.9136 12.7041 16.149 12.2165 16.3222 11.7087C16.3528 11.6193 16.434 11.5568 16.5281 11.5505L19.256 11.364C19.3892 11.3546 19.5309 11.2607 19.5309 11.1044V8.89506C19.5309 8.73885 19.3893 8.64475 19.256 8.63572L16.77 8.46556C16.6641 8.45841 16.5763 8.38083 16.556 8.2763C16.4338 7.64512 16.2207 7.03608 15.9228 6.46618C15.8783 6.38064 15.8905 6.27645 15.9539 6.20368L17.5097 4.41934C17.5974 4.31856 17.6311 4.15215 17.5205 4.0414L15.9582 2.47914C15.8484 2.36934 15.684 2.39969 15.5803 2.49004L13.9224 3.93558C13.8432 4.00437 13.7282 4.01246 13.6404 3.95527C13.0368 3.56186 12.3789 3.27076 11.6849 3.09053C11.5873 3.0651 11.517 2.98037 11.51 2.87982L11.3638 0.743678C11.3546 0.610433 11.2608 0.46875 11.1046 0.46875H8.89506C8.73885 0.46875 8.64475 0.610316 8.63572 0.743678L8.48959 2.87958C8.48279 2.98013 8.41224 3.06509 8.31474 3.09029C7.62098 3.27065 6.96295 3.56163 6.35907 3.95504C6.27106 4.01234 6.1561 4.00402 6.07711 3.93535L4.41934 2.49004C4.31727 2.40098 4.15262 2.36793 4.04152 2.47903L2.47926 4.04129C2.36875 4.1518 2.40239 4.31844 2.49016 4.41923L4.04621 6.2038C4.10973 6.27657 4.12192 6.38063 4.07727 6.4663C3.77925 7.03666 3.5662 7.6457 3.44397 8.2763C3.42381 8.38072 3.33592 8.4583 3.22998 8.46556L0.743678 8.63572C0.610433 8.64498 0.46875 8.73885 0.46875 8.89506V11.1046C0.46875 11.261 0.61055 11.3549 0.743795 11.3641L3.47163 11.5507C3.56585 11.557 3.64706 11.6195 3.67753 11.7089C3.85074 12.2169 4.08641 12.7046 4.37786 13.1583C4.43411 13.246 4.42591 13.3605 4.35735 13.4391L2.48993 15.5806C2.40203 15.6814 2.3684 15.8481 2.47903 15.9585L4.04129 17.5207C4.15121 17.6304 4.31563 17.6003 4.41923 17.5099L6.69142 15.5288C6.9101 15.3374 7.27491 15.7354 8.25462 16.0011C8.35119 16.0274 8.42045 16.1117 8.42736 16.2114L8.63572 19.2563C8.64486 19.3895 8.73885 19.5312 8.89506 19.5312L8.89518 19.5311Z" fill="url(#paint6_linear_995_16452)"/>
    <defs>
        <linearGradient id="paint0_linear_995_16452" x1="9.99994" y1="0" x2="9.99994" y2="20" gradientUnits="userSpaceOnUse">
            <stop stop-color="#89C5E1"/>
            <stop offset="1" stop-color="#CB93F2"/>
        </linearGradient>
        <linearGradient id="paint1_linear_995_16452" x1="9.99976" y1="5.60156" x2="9.99976" y2="14.3978" gradientUnits="userSpaceOnUse">
            <stop stop-color="#89C5E1"/>
            <stop offset="1" stop-color="#CB93F2"/>
        </linearGradient>
        <linearGradient id="paint2_linear_995_16452" x1="10" y1="4.34766" x2="10" y2="7.32789" gradientUnits="userSpaceOnUse">
            <stop stop-color="#89C5E1"/>
            <stop offset="1" stop-color="#CB93F2"/>
        </linearGradient>
        <linearGradient id="paint3_linear_995_16452" x1="14.1643" y1="9.76562" x2="14.1643" y2="10.2344" gradientUnits="userSpaceOnUse">
            <stop stop-color="#89C5E1"/>
            <stop offset="1" stop-color="#CB93F2"/>
        </linearGradient>
        <linearGradient id="paint4_linear_995_16452" x1="10" y1="12.6748" x2="10" y2="15.6552" gradientUnits="userSpaceOnUse">
            <stop stop-color="#89C5E1"/>
            <stop offset="1" stop-color="#CB93F2"/>
        </linearGradient>
        <linearGradient id="paint5_linear_995_16452" x1="5.83635" y1="9.76562" x2="5.83635" y2="10.2344" gradientUnits="userSpaceOnUse">
            <stop stop-color="#89C5E1"/>
            <stop offset="1" stop-color="#CB93F2"/>
        </linearGradient>
        <linearGradient id="paint6_linear_995_16452" x1="9.99981" y1="0.46875" x2="9.99981" y2="19.5312" gradientUnits="userSpaceOnUse">
            <stop stop-color="#89C5E1"/>
            <stop offset="1" stop-color="#CB93F2"/>
        </linearGradient>
    </defs>
</svg>
