<svg width="14" height="15" viewBox="0 0 14 15" fill="none" xmlns="http://www.w3.org/2000/svg">
<g clip-path="url(#clip0_1467_439)">
<path d="M3.31226 3.61974C3.06069 3.64949 2.77395 3.72524 2.48721 3.83073C1.93537 4.03902 1.56207 4.04984 1.205 3.87131C1.11573 3.82532 1.01294 3.79016 0.972365 3.79016C0.826291 3.79016 0.815471 3.83073 0.753254 4.58816C0.701858 5.21303 0.699153 5.33746 0.726203 5.70806C0.764074 6.2112 0.858752 6.73328 0.983186 7.14716C1.03458 7.31758 1.08868 7.53399 1.10762 7.63137C1.19148 8.1291 1.40518 8.55921 1.74331 8.9244C1.82988 9.01637 1.8948 9.09752 1.88939 9.10023C1.73249 9.20302 1.416 9.46812 1.25099 9.64124C0.674807 10.2418 0.344787 10.9613 0.258225 11.8161C0.241994 11.9622 0.247405 11.992 0.296096 12.0406C0.417824 12.1624 0.620705 12.0731 0.620705 11.8946C0.620705 11.6646 0.796535 10.9938 0.912854 10.7774L0.95884 10.6881L1.3105 10.8991L1.66216 11.1101L1.67569 11.5646C1.68921 11.973 1.69462 12.0217 1.74061 12.0569C1.81635 12.111 1.93808 12.1029 2.0003 12.0406C2.05169 11.9892 2.0544 11.9514 2.0544 11.4834C2.0544 11.1994 2.04358 10.9613 2.02735 10.9316C2.01112 10.9045 1.80553 10.7638 1.56748 10.6205L1.13467 10.3608L1.22123 10.2337C1.35919 10.0362 1.83258 9.57632 2.03276 9.44918L2.21129 9.33286L2.39794 9.42754C2.82264 9.64665 3.20405 9.73051 3.69908 9.70616C4.07239 9.68993 4.39158 9.60608 4.70267 9.44377C4.92719 9.32475 4.91366 9.32475 5.15171 9.49246C5.41681 9.68182 5.97676 10.2688 5.97676 10.3554C5.97676 10.3662 5.80364 10.4798 5.58993 10.607C5.37894 10.7341 5.17876 10.8639 5.1463 10.8964C5.08679 10.9532 5.08408 10.9721 5.08408 11.4726C5.08408 11.9514 5.08679 11.9892 5.13819 12.0406C5.20852 12.111 5.33295 12.111 5.39787 12.0379C5.44386 11.9892 5.45197 11.9243 5.4628 11.5456L5.47632 11.1101L5.82798 10.8991L6.17964 10.6881L6.24186 10.8288C6.35277 11.0776 6.43121 11.3509 6.4772 11.6538C6.50425 11.8134 6.53401 11.973 6.54753 12.0055C6.57188 12.0758 6.67467 12.1083 6.77476 12.0839C6.86132 12.0623 6.88296 12.0055 6.92083 11.7106C6.956 11.432 7.05609 11.0776 7.15888 10.8504L7.23462 10.6881L7.58628 10.8991L7.93794 11.1101L7.95147 11.5646C7.9677 12.0704 7.97581 12.0947 8.15705 12.0947C8.31395 12.0947 8.33018 12.0406 8.33018 11.478C8.33018 11.1967 8.31936 10.9613 8.30313 10.9316C8.2869 10.9045 8.08131 10.7638 7.84326 10.6205L7.41045 10.3608L7.49701 10.2337C7.63497 10.0335 8.08131 9.60067 8.2869 9.46271L8.47355 9.33827L8.63856 9.43025C9.05243 9.66018 9.62862 9.77379 10.102 9.71698C10.4077 9.68182 10.781 9.5655 11.0271 9.43025L11.1949 9.33827L11.3518 9.44377C11.6439 9.63854 11.9198 9.90363 12.166 10.2174C12.2147 10.2796 12.2525 10.3419 12.2525 10.3527C12.2525 10.3662 12.0767 10.4798 11.8657 10.607C11.6547 10.7341 11.4545 10.8639 11.4221 10.8964C11.3626 10.9532 11.3599 10.9721 11.3599 11.4726C11.3599 11.9514 11.3626 11.9892 11.414 12.0406C11.5168 12.1434 11.6926 12.0947 11.7251 11.9514C11.7332 11.9189 11.7413 11.716 11.7467 11.5023L11.7521 11.1101L11.982 10.9721C12.1092 10.8964 12.2688 10.799 12.3364 10.7611L12.4635 10.6854L12.5582 10.9234C12.6664 11.2021 12.7584 11.5483 12.7827 11.7972C12.8044 12.0217 12.8477 12.0947 12.964 12.0947C13.1371 12.0947 13.1777 12.0136 13.1452 11.7404C13.0451 10.9451 12.7395 10.2661 12.2255 9.70887C12.0551 9.52222 11.7575 9.26253 11.5763 9.1408L11.5086 9.09752L11.6331 8.96497C11.8035 8.78644 11.9063 8.64848 12.0172 8.4483L12.1119 8.27518L12.1416 8.36986C12.1876 8.5024 12.358 8.68905 12.5149 8.77562C12.7124 8.88111 12.9532 8.92981 13.3048 8.92981H13.6132L13.5943 8.66471C13.5672 8.22919 13.4725 7.96139 13.2697 7.74498C13.0803 7.5421 12.7665 7.41496 12.4554 7.41496C12.3039 7.41496 12.3012 7.39603 12.4257 7.04166C12.5474 6.69 12.588 6.43302 12.5636 6.15981C12.5122 5.54575 12.3202 5.09401 11.9306 4.67742C11.533 4.25273 11.0677 4.00386 10.4428 3.87943C10.1101 3.8145 9.50689 3.81991 9.16875 3.89025C7.97581 4.14452 7.19946 5.01285 7.12101 6.17063C7.10207 6.47901 7.13183 6.67918 7.26167 7.09306C7.31307 7.25807 7.35635 7.39603 7.35635 7.39873C7.35635 7.40414 7.26167 7.41496 7.14535 7.42308C6.85591 7.44472 6.65844 7.52317 6.4772 7.68818C6.22833 7.91811 6.08767 8.29952 6.08496 8.75939V8.92981H6.39064C6.97493 8.92981 7.36176 8.75939 7.50513 8.44289C7.53218 8.38338 7.56194 8.33469 7.57005 8.33469C7.57817 8.33469 7.64038 8.42666 7.70801 8.54028C7.77293 8.65118 7.90278 8.82431 7.99475 8.9244L8.15976 9.10564L7.95417 9.25712C7.44291 9.63854 6.97764 10.2526 6.77476 10.8098C6.72336 10.9505 6.68008 11.0208 6.68008 10.964C6.68008 10.9451 6.64221 10.8342 6.59893 10.7206C6.39605 10.1904 5.93618 9.61149 5.42492 9.23548C5.33295 9.16785 5.2545 9.10834 5.24909 9.10293C5.24368 9.09752 5.3032 9.02448 5.37894 8.94063C5.72789 8.55921 5.93618 8.13992 6.02004 7.6503C6.04168 7.51235 6.09037 7.30676 6.12554 7.19315C6.30948 6.60885 6.40957 5.98127 6.40957 5.43484C6.40957 4.99933 6.37441 4.83973 6.21751 4.59898C6.11201 4.43397 5.81175 4.15264 5.61698 4.03902C5.13278 3.74958 4.48356 3.5981 3.77212 3.60621C3.56383 3.60621 3.35824 3.61433 3.31226 3.61974ZM4.17788 3.97951C5.05974 4.0769 5.74412 4.43667 5.97135 4.91547C6.04168 5.06966 6.04439 5.0913 6.04168 5.48083C6.03898 5.89741 5.9984 6.21391 5.8902 6.66025C5.85774 6.79279 5.82257 6.89829 5.81175 6.89559C5.79822 6.89018 5.63863 6.67377 5.45739 6.41408C5.06785 5.86225 5.09761 5.87848 4.69726 6.00562C4.39158 6.103 3.98312 6.18956 3.70449 6.21391C3.43669 6.23555 2.98224 6.17063 2.57377 6.04619C2.40065 5.99209 2.20047 5.9434 2.13284 5.93528L2.00841 5.92176L1.65946 6.4222C1.46739 6.69812 1.3078 6.91993 1.30509 6.91723C1.28615 6.901 1.205 6.54122 1.16172 6.2653C1.08327 5.80274 1.06704 5.33476 1.10762 4.75858L1.14279 4.26084L1.32132 4.30953C1.70274 4.40692 2.17342 4.35822 2.65222 4.16887C3.12831 3.97951 3.61793 3.9173 4.17788 3.97951ZM10.5348 4.27707C10.8243 4.35281 11.2544 4.56651 11.4518 4.73152C11.909 5.11294 12.1606 5.61338 12.1903 6.20038C12.2038 6.45736 12.1984 6.51417 12.1335 6.7414C12.0929 6.88206 12.0497 7.0065 12.0388 7.01732C12.0118 7.04437 11.6304 6.9037 11.3193 6.75222C10.6836 6.44113 10.2481 6.02455 10.0722 5.55387C9.9911 5.34017 9.9424 5.27795 9.85314 5.27795C9.74764 5.27795 9.68813 5.32394 9.65296 5.43214C9.45008 6.06242 8.89283 6.55475 7.99204 6.90641C7.59981 7.0606 7.63768 7.06601 7.57005 6.85501C7.48078 6.57639 7.46996 6.14358 7.543 5.8379C7.64038 5.43214 7.84056 5.08859 8.14082 4.80727C8.41945 4.55028 8.78463 4.36363 9.18228 4.26896C9.47713 4.19862 9.48254 4.19862 9.91265 4.20944C10.221 4.21485 10.3698 4.23109 10.5348 4.27707ZM9.93158 6.09488C10.2427 6.56286 10.7702 6.94969 11.4654 7.2229C11.6547 7.29594 11.8414 7.36627 11.8819 7.37709C11.9577 7.39332 11.9577 7.39873 11.9415 7.53399C11.8495 8.19673 11.3869 8.83513 10.7783 9.1408C10.4428 9.30852 10.2508 9.34909 9.81797 9.34639C9.46631 9.34639 9.40409 9.33827 9.20933 9.27335C8.89554 9.16785 8.62503 9.00555 8.3924 8.78644C8.01098 8.42396 7.80539 8.02902 7.72154 7.50423L7.7026 7.39062L7.81351 7.36086C7.99475 7.31217 8.51953 7.09576 8.70889 6.99027C9.1417 6.74951 9.53935 6.40867 9.7287 6.11382C9.78551 6.02726 9.8315 5.95422 9.8342 5.95422C9.83691 5.95422 9.88019 6.01914 9.93158 6.09488ZM2.45204 6.40326C2.58459 6.44113 2.83616 6.49524 3.0147 6.5277C3.54489 6.61696 4.1346 6.57098 4.70537 6.38974C4.80276 6.35998 4.89473 6.33293 4.91366 6.33293C4.92989 6.33293 5.10843 6.56827 5.31131 6.85772C5.57911 7.24184 5.6792 7.40685 5.6792 7.46365C5.6792 7.7017 5.48444 8.20214 5.28426 8.47535C5.03269 8.81619 4.562 9.14892 4.16706 9.26524C3.4394 9.47894 2.62517 9.27335 2.08415 8.73775C1.79471 8.4483 1.62429 8.15886 1.51338 7.75851C1.416 7.41226 1.41329 7.42308 1.81635 6.84419C2.01382 6.56286 2.18424 6.33293 2.19506 6.33293C2.20588 6.33293 2.3222 6.36269 2.45204 6.40326ZM7.25626 7.85589C7.2752 7.98303 7.23192 8.19673 7.15888 8.29952C7.12642 8.34821 7.04527 8.41855 6.97764 8.45371C6.86132 8.51863 6.50425 8.59979 6.47449 8.57003C6.44474 8.54028 6.52048 8.26436 6.59352 8.13181C6.70443 7.92893 6.91001 7.81261 7.2238 7.76933C7.23462 7.76662 7.24815 7.8072 7.25626 7.85589ZM12.7503 7.83966C12.9829 7.9127 13.1506 8.14533 13.2101 8.48076L13.2291 8.58356L13.0857 8.56462C12.7719 8.52134 12.5826 8.42125 12.4987 8.25624C12.4365 8.13992 12.4013 7.92893 12.4257 7.83425C12.4392 7.77744 12.4527 7.76933 12.5312 7.78285C12.5772 7.79097 12.6772 7.81802 12.7503 7.83966Z" fill="#21C033"/>
<path d="M8.74085 8.04565C8.72462 8.06188 8.70568 8.11057 8.69486 8.14844C8.66781 8.25664 8.80036 8.38649 9.06546 8.52174C9.55778 8.7679 10.0988 8.77602 10.583 8.54068C10.8616 8.40542 10.9807 8.29992 10.9807 8.18631C10.9807 7.98343 10.8211 7.95638 10.5749 8.11598C10.3179 8.28369 10.1772 8.32156 9.83099 8.31886C9.49556 8.31886 9.33055 8.27017 9.0871 8.10245C8.94643 8.00507 8.79495 7.98072 8.74085 8.04565Z" fill="#21C033"/>
<path d="M2.5418 8.01611C2.46064 8.04587 2.43359 8.08374 2.43359 8.18112C2.43359 8.28662 2.56073 8.39482 2.82583 8.52467C3.09904 8.65451 3.26946 8.69238 3.56973 8.69238C3.86999 8.69238 4.04041 8.65451 4.31362 8.52467C4.68422 8.34613 4.81406 8.17301 4.67881 8.03775C4.60036 7.95931 4.49216 7.97013 4.34608 8.07562C4.05935 8.28121 3.70769 8.36507 3.37496 8.31097C3.18561 8.28121 2.87182 8.15678 2.78525 8.07833C2.71492 8.01611 2.61483 7.98906 2.5418 8.01611Z" fill="#21C033"/>
</g>
<defs>
<clipPath id="clip0_1467_439">
<rect width="13.85" height="13.85" fill="white" transform="translate(0 0.922852)"/>
</clipPath>
</defs>
</svg>
