<svg width="25" height="24" viewBox="0 0 25 24" fill="none" xmlns="http://www.w3.org/2000/svg">
<path d="M15.24 8.99954L14.894 17.9995M10.106 17.9995L9.76 8.99954M19.728 5.78954C20.07 5.84154 20.41 5.89654 20.75 5.95554M19.728 5.78954L18.66 19.6725C18.6164 20.2378 18.3611 20.7657 17.945 21.1508C17.529 21.5359 16.9829 21.7497 16.416 21.7495H8.584C8.0171 21.7497 7.47102 21.5359 7.05498 21.1508C6.63894 20.7657 6.38359 20.2378 6.34 19.6725L5.272 5.78954M19.728 5.78954C18.5739 5.61506 17.4138 5.48264 16.25 5.39254M5.272 5.78954C4.93 5.84054 4.59 5.89554 4.25 5.95454M5.272 5.78954C6.42613 5.61506 7.58623 5.48264 8.75 5.39254M16.25 5.39254V4.47654C16.25 3.29654 15.34 2.31254 14.16 2.27554C13.0536 2.24018 11.9464 2.24018 10.84 2.27554C9.66 2.31254 8.75 3.29754 8.75 4.47654V5.39254M16.25 5.39254C13.7537 5.19962 11.2463 5.19962 8.75 5.39254" stroke="#FF0000" stroke-width="1.5" stroke-linecap="round" stroke-linejoin="round"/>
</svg>
