<svg width="14" height="14" viewBox="0 0 14 14" fill="none" xmlns="http://www.w3.org/2000/svg">
<g clip-path="url(#clip0_995_7365)">
<path d="M6.17707 0.051219C5.64422 0.148592 5.30071 0.264899 4.84089 0.500218C3.59668 1.13585 2.73384 2.27458 2.42549 3.67838C2.3714 3.93263 2.36328 4.03271 2.36328 4.62506C2.36599 5.36618 2.39574 5.57716 2.58237 6.13976C2.85285 6.95661 3.28021 7.63282 4.55689 9.27194C4.93556 9.7561 5.2385 10.1564 5.23309 10.1618C5.22768 10.1672 5.04916 10.2078 4.83278 10.2511C3.59397 10.5026 2.73925 10.957 2.44172 11.5223C2.36869 11.6576 2.36328 11.6955 2.36328 11.9551C2.36328 12.2256 2.36599 12.2472 2.45525 12.4095C2.75818 12.9667 3.65077 13.4319 4.88147 13.67C5.6334 13.8133 5.88766 13.835 6.94794 13.835C8.00823 13.835 8.26249 13.8133 9.01442 13.67C10.2505 13.4292 11.1377 12.9694 11.4406 12.4095C11.5299 12.2472 11.5326 12.2256 11.5326 11.9551C11.5326 11.6846 11.5299 11.663 11.4406 11.5007C11.1377 10.9435 10.2938 10.4999 9.06311 10.2511C8.84673 10.2078 8.66821 10.1672 8.6628 10.1618C8.65739 10.1564 8.79533 9.96978 8.96844 9.74798C10.4372 7.87896 10.8943 7.20005 11.2107 6.40754C11.3568 6.04509 11.4758 5.59609 11.5191 5.23906C11.5678 4.84956 11.5407 4.01107 11.465 3.66485C11.0809 1.85804 9.69604 0.47317 7.88111 0.0782671C7.48891 -0.00558186 6.56657 -0.0218115 6.17707 0.051219ZM7.50243 0.597591C8.72501 0.757175 9.8421 1.52534 10.4804 2.64243C10.6427 2.92644 10.805 3.35109 10.8916 3.71624C10.9592 3.99484 10.9646 4.05976 10.9646 4.61154C10.9619 5.15791 10.9565 5.23094 10.8916 5.50413C10.7509 6.1046 10.494 6.66449 10.0666 7.31635C9.76907 7.76806 9.45801 8.1846 8.57354 9.31792C8.17864 9.82372 7.65661 10.5053 7.41317 10.8326C7.16703 11.1599 6.95876 11.4277 6.94524 11.4277C6.93442 11.4277 6.81811 11.2816 6.68828 11.1031C6.37993 10.6811 5.79028 9.91027 5.16547 9.11506C4.88958 8.76614 4.54336 8.31443 4.39189 8.11428C3.47226 6.8944 3.10711 6.17222 2.95834 5.27963C2.88802 4.8685 2.91236 4.10033 3.00703 3.70272C3.18825 2.94537 3.55881 2.2854 4.10789 1.73902C5.01671 0.838321 6.22576 0.432598 7.50243 0.597591ZM5.83897 10.9219C5.93364 11.0517 6.16355 11.3628 6.34748 11.617C6.78566 12.2202 6.79107 12.2256 6.94794 12.2256C7.09941 12.2256 7.12917 12.1985 7.48891 11.6982C7.62956 11.5034 7.85676 11.2005 7.99471 11.0192L8.24355 10.692L8.48428 10.7271C9.89619 10.9381 10.9781 11.4655 10.9781 11.9497C10.9781 12.1066 10.9294 12.1877 10.7401 12.3635C10.1423 12.9153 8.62493 13.2832 6.94794 13.2832C5.57119 13.2832 4.34862 13.0506 3.55611 12.6367C3.30456 12.5069 3.02596 12.2743 2.95564 12.1417C2.90424 12.039 2.90695 11.8469 2.96375 11.7658C3.29374 11.2681 4.2296 10.8948 5.64963 10.6893C5.65775 10.6866 5.7416 10.792 5.83897 10.9219Z" fill="#1D3856"/>
<path d="M6.79322 1.12924C6.72019 1.18334 6.67692 1.31317 6.69585 1.41325C6.73642 1.61881 7.02584 1.69996 7.1719 1.54578C7.27739 1.43759 7.27468 1.25637 7.16919 1.15358C7.07723 1.06433 6.8906 1.05351 6.79322 1.12924Z" fill="#1D3856"/>
<path d="M7.84147 1.34679C7.69271 1.49826 7.74951 1.73087 7.95507 1.81202C8.91258 2.19069 9.56985 2.9237 9.81869 3.88932C9.84845 4.00292 9.88361 4.24365 9.89713 4.41946C9.91877 4.71699 9.92689 4.74674 9.99451 4.81707C10.0567 4.88198 10.0919 4.89551 10.1947 4.89551C10.2974 4.89551 10.3326 4.88198 10.3921 4.81977C10.4597 4.74945 10.4651 4.72781 10.4651 4.48438C10.4651 4.02997 10.3245 3.45114 10.1108 3.02377C9.87279 2.54773 9.44002 2.03652 9.01266 1.73358C8.68808 1.50096 8.25531 1.29269 8.06868 1.27646C7.93614 1.26564 7.91721 1.27105 7.84147 1.34679Z" fill="#1D3856"/>
<path d="M6.47472 2.74775C6.38546 2.76938 6.20964 2.837 6.08252 2.89922C5.89589 2.99118 5.80663 3.0588 5.60917 3.25896C5.21427 3.65115 5.05469 4.03524 5.05469 4.59784C5.05469 4.94947 5.10337 5.16585 5.24943 5.46338C5.3414 5.65001 5.40902 5.73927 5.60917 5.93672C6.00137 6.33163 6.38546 6.49121 6.94806 6.49121C7.29969 6.49121 7.51607 6.44252 7.8136 6.29646C8.00023 6.2045 8.08949 6.13688 8.28694 5.93672C8.68185 5.54453 8.84143 5.16044 8.84143 4.59784C8.84143 4.24621 8.79274 4.02983 8.64668 3.7323C8.55472 3.54567 8.4871 3.45641 8.28694 3.25896C7.88934 2.85864 7.50796 2.70447 6.93453 2.70717C6.77225 2.70717 6.56398 2.72611 6.47472 2.74775ZM7.49714 3.38608C7.78655 3.52403 8.02187 3.75935 8.15711 4.04876C8.24908 4.2381 8.25989 4.28679 8.26801 4.5194C8.28694 4.94135 8.17064 5.247 7.88393 5.53371C7.71352 5.70411 7.48632 5.83935 7.27805 5.89615C7.11846 5.93672 6.7452 5.93131 6.59373 5.88533C6.21776 5.76903 5.9067 5.50125 5.7363 5.14692C5.63622 4.93865 5.63622 4.93324 5.63622 4.59784C5.63622 4.26244 5.63622 4.25703 5.7363 4.04876C5.9013 3.70255 6.21235 3.43206 6.58291 3.31035C6.65323 3.286 6.79659 3.27518 6.98863 3.28059C7.26993 3.286 7.29698 3.29141 7.49714 3.38608Z" fill="#1D3856"/>
</g>
<defs>
<clipPath id="clip0_995_7365">
<rect width="13.8487" height="13.8487" fill="white" transform="translate(0.0234375)"/>
</clipPath>
</defs>
</svg>
