<svg width="14" height="15" viewBox="0 0 14 15" fill="none" xmlns="http://www.w3.org/2000/svg">
<path d="M9.11208 4.23514C9.11208 4.80903 8.8841 5.35942 8.4783 5.76522C8.0725 6.17102 7.52211 6.39899 6.94822 6.39899C6.37433 6.39899 5.82395 6.17102 5.41815 5.76522C5.01235 5.35942 4.78437 4.80903 4.78437 4.23514C4.78437 3.66125 5.01235 3.11087 5.41815 2.70507C5.82395 2.29927 6.37433 2.07129 6.94822 2.07129C7.52211 2.07129 8.0725 2.29927 8.4783 2.70507C8.8841 3.11087 9.11208 3.66125 9.11208 4.23514ZM2.62109 12.3816C2.63964 11.2462 3.10368 10.1636 3.91316 9.36725C4.72264 8.57089 5.81268 8.12458 6.94822 8.12458C8.08376 8.12458 9.17381 8.57089 9.98328 9.36725C10.7928 10.1636 11.2568 11.2462 11.2754 12.3816C9.91783 13.0041 8.44165 13.3254 6.94822 13.3233C5.4041 13.3233 3.93845 12.9863 2.62109 12.3816Z" stroke="#1D3856" stroke-width="0.738595" stroke-linecap="round" stroke-linejoin="round"/>
</svg>
