<svg width="18" height="22" viewBox="0 0 18 22" fill="none" xmlns="http://www.w3.org/2000/svg">
<g opacity="0.43">
<path opacity="0.05" fill-rule="evenodd" clip-rule="evenodd" d="M6.17129 15.6437C6.29308 15.437 6.61541 15.4117 6.92535 15.5943C7.23411 15.7766 7.37635 16.043 7.26628 16.2966C7.1676 16.5275 6.82567 16.572 6.4844 16.37C6.15302 16.1715 6.04748 15.8545 6.17129 15.6437Z" fill="#999999"/>
<path opacity="0.05" fill-rule="evenodd" clip-rule="evenodd" d="M6.37167 16.5586C6.87879 16.8617 7.38943 16.7941 7.5377 16.45C7.70071 16.0712 7.48928 15.6738 7.02806 15.4006C6.56651 15.1277 6.08451 15.1666 5.90324 15.4755C5.71845 15.7898 5.8746 16.2627 6.37167 16.5586Z" fill="#999999"/>
<path opacity="0.05" fill-rule="evenodd" clip-rule="evenodd" d="M6.26127 16.747C6.9361 17.1497 7.61561 17.0602 7.81313 16.6024C8.03025 16.0984 7.7488 15.5694 7.13479 15.2068C6.52061 14.8443 5.87913 14.8959 5.63939 15.3055C5.39261 15.7253 5.60153 16.3534 6.26127 16.747Z" fill="#999999"/>
<path opacity="0.05" fill-rule="evenodd" clip-rule="evenodd" d="M6.15134 16.9373C6.9937 17.4399 7.84175 17.3285 8.08769 16.7572C8.3596 16.1283 8.00744 15.4682 7.24181 15.0149C6.47518 14.5627 5.67488 14.627 5.37449 15.1387C5.06807 15.6622 5.32741 16.4459 6.15134 16.9373Z" fill="#999999"/>
<path opacity="0.05" fill-rule="evenodd" clip-rule="evenodd" d="M6.03373 17.1279C7.04462 17.7305 8.06037 17.5963 8.3554 16.9123C8.68008 16.1582 8.25923 15.3665 7.34065 14.8233C6.4214 14.2819 5.46328 14.3572 5.10291 14.9714C4.73434 15.5992 5.04645 16.5392 6.03373 17.1279Z" fill="#999999"/>
<path opacity="0.05" fill-rule="evenodd" clip-rule="evenodd" d="M5.92411 17.3163C7.1027 18.0186 8.28733 17.8625 8.63027 17.065C9.0104 16.186 8.51902 15.2629 7.44798 14.6308C6.37728 13.9975 5.2595 14.0868 4.83832 14.8028C4.40927 15.5338 4.77299 16.6301 5.92411 17.3163Z" fill="#999999"/>
<path opacity="0.05" fill-rule="evenodd" clip-rule="evenodd" d="M5.81382 17.5049C7.16011 18.3071 8.51311 18.1292 8.90564 17.2179C9.33821 16.2136 8.77714 15.1601 7.55482 14.4369C6.33133 13.714 5.05506 13.8162 4.57424 14.6331C4.08421 15.4687 4.49835 16.7209 5.81382 17.5049Z" fill="#999999"/>
<path opacity="0.05" fill-rule="evenodd" clip-rule="evenodd" d="M5.70074 17.6954C7.2134 18.5976 8.73527 18.3977 9.17705 17.3729C9.66374 16.2436 9.03264 15.0581 7.65753 14.2454C6.28158 13.4329 4.84582 13.5464 4.30653 14.4667C3.75434 15.4057 4.22143 16.8138 5.70074 17.6954Z" fill="#999999"/>
<path opacity="0.05" fill-rule="evenodd" clip-rule="evenodd" d="M5.58713 17.8842C7.26849 18.8869 8.9579 18.6646 9.4481 17.526C9.98856 16.2717 9.28844 14.9549 7.76104 14.052C6.23214 13.1487 4.63789 13.2762 4.03762 14.2977C3.42596 15.341 3.94347 16.9053 5.58713 17.8842Z" fill="#999999"/>
<path opacity="0.05" fill-rule="evenodd" clip-rule="evenodd" d="M5.47688 18.0725C7.32594 19.1752 9.18405 18.9296 9.72351 17.6777C10.3182 16.2994 9.54659 14.8509 7.86791 13.8581C6.18738 12.8653 4.43382 13.0053 3.77374 14.1288C3.10009 15.2754 3.67053 16.996 5.47688 18.0725Z" fill="#999999"/>
<path opacity="0.05" fill-rule="evenodd" clip-rule="evenodd" d="M5.36278 18.2625C7.3792 19.4654 9.40618 19.198 9.99489 17.8324C10.6431 16.3288 9.80207 14.7495 7.97026 13.6661C6.13745 12.5838 4.2254 12.7366 3.50568 13.9613C2.77121 15.2121 3.39192 17.0884 5.36278 18.2625Z" fill="#999999"/>
<path opacity="0.05" fill-rule="evenodd" clip-rule="evenodd" d="M5.24917 18.4546C7.43313 19.7563 9.62882 19.4668 10.2656 17.9875C10.9679 16.3588 10.0579 14.6476 8.07344 13.4745C6.08918 12.3018 4.01646 12.468 3.23726 13.795C2.44182 15.1503 3.11547 17.1818 5.24917 18.4546Z" fill="#999999"/>
<path opacity="0.05" fill-rule="evenodd" clip-rule="evenodd" d="M5.14038 18.6433C7.4907 20.0447 9.85509 19.7334 10.5415 18.1404C11.2975 16.3868 10.3165 14.5448 8.18043 13.2812C6.04355 12.0187 3.81251 12.1965 2.97334 13.6255C2.11624 15.0852 2.84166 17.2729 5.14038 18.6433Z" fill="#999999"/>
<path opacity="0.05" fill-rule="evenodd" clip-rule="evenodd" d="M5.026 18.8314C7.54402 20.3323 10.0768 19.9984 10.8126 18.2929C11.6219 16.4139 10.5713 14.4401 8.28318 13.088C5.9935 11.735 3.60381 11.9256 2.70516 13.4566C1.78708 15.0195 2.56411 17.3633 5.026 18.8314Z" fill="#999999"/>
<path opacity="0.05" fill-rule="evenodd" clip-rule="evenodd" d="M4.91247 19.0215C7.5992 20.6227 10.2997 20.2668 11.0837 18.4477C11.9477 16.4437 10.8279 14.3392 8.3866 12.8962C5.94548 11.4536 3.39513 11.6568 2.43667 13.2887C1.45811 14.9562 2.28672 17.4561 4.91247 19.0215Z" fill="#999999"/>
<path opacity="0.05" fill-rule="evenodd" clip-rule="evenodd" d="M4.80206 19.21C7.65632 20.911 10.5257 20.5335 11.3588 18.6007C12.2759 16.4715 11.0869 14.2361 8.49298 12.7027C5.89923 11.1695 3.19056 11.3864 2.17279 13.1204C1.13292 14.8914 2.01196 17.5473 4.80206 19.21Z" fill="#999999"/>
<path opacity="0.05" fill-rule="evenodd" clip-rule="evenodd" d="M4.68816 19.4008C7.71012 21.2017 10.748 20.8023 11.6295 18.7558C12.6016 16.5007 11.3414 14.1341 8.5962 12.5114C5.8495 10.8883 2.98284 11.1168 1.9051 12.9532C0.803067 14.8284 1.73505 17.6402 4.68816 19.4008Z" fill="#999999"/>
<path opacity="0.05" fill-rule="evenodd" clip-rule="evenodd" d="M4.57451 19.5894C7.76384 21.4909 10.9704 21.0686 11.9011 18.9086C12.927 16.5283 11.597 14.0309 8.69901 12.3173C5.79985 10.6048 2.77471 10.8461 1.63599 12.7844C0.474817 14.763 1.45723 17.731 4.57451 19.5894Z" fill="#999999"/>
<path opacity="0.05" fill-rule="evenodd" clip-rule="evenodd" d="M4.46528 19.7798C7.82231 21.7812 11.1966 21.336 12.1767 19.0638C13.2554 16.5585 11.8563 13.9291 8.80589 12.1259C5.75545 10.3227 2.56914 10.5777 1.37228 12.6171C0.148791 14.7014 1.18415 17.824 4.46528 19.7798Z" fill="#999999"/>
<path opacity="0.05" fill-rule="evenodd" clip-rule="evenodd" d="M4.35111 19.9682C7.87567 22.0694 11.4183 21.6024 12.4468 19.2153C13.5808 16.586 12.1107 13.8257 8.90751 11.9319C5.70545 10.0393 2.36099 10.3069 1.10433 12.4483C-0.18015 14.6347 0.90546 17.9149 4.35111 19.9682Z" fill="#999999"/>
<path opacity="0.05" fill-rule="evenodd" clip-rule="evenodd" d="M4.24138 20.1567C7.93363 22.3581 11.6452 21.8693 12.7226 19.3683C13.9097 16.6141 12.3706 13.7216 9.01456 11.7384C5.66004 9.75644 2.15727 10.0352 0.839619 12.279C-0.505503 14.5708 0.63305 18.0059 4.24138 20.1567Z" fill="#999999"/>
<path opacity="0.05" fill-rule="evenodd" clip-rule="evenodd" d="M0.571937 12.1108C1.94805 9.76622 5.6115 9.47488 9.11897 11.5474C12.6264 13.6201 14.2353 16.6436 12.9935 19.5228C11.8677 22.1374 7.98728 22.6478 4.12766 20.3469C0.35515 18.0986 -0.835005 14.5074 0.571937 12.1108Z" fill="#999999"/>
</g>
<path opacity="0.12" fill-rule="evenodd" clip-rule="evenodd" d="M5.91016 15.6288C6.30587 15.9203 6.50004 16.3311 6.34474 16.547C6.18943 16.7628 5.74262 16.7013 5.34691 16.4097C4.95204 16.1181 4.75703 15.7062 4.91333 15.4912C5.0683 15.2753 5.51528 15.3369 5.91016 15.6288Z" fill="black"/>
<path opacity="0.12" fill-rule="evenodd" clip-rule="evenodd" d="M5.91564 15.6214C6.34368 15.9367 6.55377 16.3825 6.38523 16.6162C6.21786 16.8492 5.73386 16.7829 5.30581 16.4667C4.87793 16.1513 4.66685 15.7056 4.83538 15.4726C5.00375 15.2386 5.48759 15.3059 5.91564 15.6214Z" fill="black"/>
<path opacity="0.12" fill-rule="evenodd" clip-rule="evenodd" d="M5.90533 15.6371C6.25782 15.8966 6.43105 16.264 6.29267 16.4552C6.15462 16.6474 5.75589 16.5926 5.40374 16.3332C5.05125 16.0736 4.87802 15.7062 5.0164 15.514C5.15579 15.322 5.55335 15.3768 5.90533 15.6371Z" fill="black"/>
<path fill-rule="evenodd" clip-rule="evenodd" d="M10.3377 7.5293L6.84292 12.6692L5.08935 15.506C4.78176 16.0287 6.09606 16.7453 6.32609 16.3469L8.32475 13.6948L11.8279 8.54237L10.3377 7.5293Z" fill="url(#paint0_linear_995_6767)"/>
<path opacity="0.71" fill-rule="evenodd" clip-rule="evenodd" d="M10.6369 7.25L6.92724 12.5683L5.08203 15.5176C5.09912 15.9766 5.9795 16.4759 6.27687 16.3507L8.35881 13.5861L12.077 8.25453L10.6369 7.25Z" fill="url(#paint1_linear_995_6767)"/>
<path fill-rule="evenodd" clip-rule="evenodd" d="M5.84945 6.27121C7.12672 4.51965 9.91782 4.39752 12.3512 6.07721C14.7845 7.75589 15.6897 10.1087 14.4596 12.2721C13.3437 14.2359 10.3658 14.519 7.69031 12.6557C5.07495 10.8358 4.5437 8.0608 5.84945 6.27121Z" fill="url(#paint2_radial_995_6767)"/>
<path opacity="0.17" fill-rule="evenodd" clip-rule="evenodd" d="M5.43958 8.8825C5.35732 7.9944 5.56088 7.12323 6.06733 6.3876C7.13066 4.84344 9.15194 4.57171 11.1783 5.42462L11.4105 5.53167L10.4363 7.61075C8.73462 6.23598 6.88824 6.79286 5.78905 9.02055C5.65385 9.14284 5.52586 9.19009 5.43958 8.8825Z" fill="url(#paint3_linear_995_6767)"/>
<path opacity="0.22" fill-rule="evenodd" clip-rule="evenodd" d="M12.4355 10.5462C12.7718 8.9766 11.3184 7.23644 10.537 5.52827L10.4141 5.25L10.5447 5.2887C11.1376 5.48739 11.7366 5.78945 12.3162 6.19003C14.4834 7.84978 15.2618 9.59849 14.3719 11.5829C13.299 13.4228 11.554 11.8009 12.4355 10.5462Z" fill="url(#paint4_linear_995_6767)"/>
<path opacity="0.58" fill-rule="evenodd" clip-rule="evenodd" d="M7.81513 12.484C5.32123 10.7473 4.81478 8.10098 6.05972 6.39382C6.13544 6.28978 6.2177 6.19143 6.30415 6.09946L6.40835 6.00195L6.2822 6.35796C5.81077 7.97784 6.52563 9.98991 8.55177 11.4005C10.6253 12.8443 12.89 12.9372 14.2363 11.9157L14.4769 11.7073L14.4695 11.7291C14.4116 11.8587 14.3462 11.9886 14.2734 12.1174C13.2082 13.9911 10.3678 14.261 7.81513 12.484Z" fill="url(#paint5_linear_995_6767)"/>
<path opacity="0.16" fill-rule="evenodd" clip-rule="evenodd" d="M11.4491 7.29459C12.7254 8.16174 13.3578 9.45795 12.8627 10.1879C12.3665 10.917 10.9284 10.8051 9.65213 9.93793C8.3757 9.06961 7.74326 7.77357 8.2395 7.0443C8.73573 6.31469 10.1738 6.4261 11.4491 7.29459Z" fill="black"/>
<path opacity="0.2" fill-rule="evenodd" clip-rule="evenodd" d="M8.05902 7.06179C8.76735 5.93027 10.6342 5.83495 12.2251 6.84785C13.8155 7.86193 14.5317 9.60209 13.8232 10.7334C13.114 11.865 11.2468 11.9605 9.65645 10.9475C8.06556 9.9333 7.34985 8.19331 8.05902 7.06179Z" fill="#F54221"/>
<path opacity="0.16" fill-rule="evenodd" clip-rule="evenodd" d="M11.4303 7.3158C12.6689 8.15748 13.29 9.40544 12.8165 10.1012C12.3432 10.7971 10.9544 10.6787 9.71682 9.837C8.47842 8.99531 7.85703 7.74652 8.33082 7.05059C8.80343 6.35482 10.1921 6.47411 11.4303 7.3158Z" fill="black"/>
<path fill-rule="evenodd" clip-rule="evenodd" d="M13.0341 1.82812L8.42408 7.00221C7.46964 8.81727 11.3107 11.2772 12.641 10.2299L16.3874 4.15985L13.0341 1.82812Z" fill="url(#paint6_linear_995_6767)"/>
<path opacity="0.13" fill-rule="evenodd" clip-rule="evenodd" d="M10.4375 4.70846L11.6975 3.28711L15.3316 5.81618L14.4025 7.31778C13.309 7.0623 11.21 6.78754 10.4375 4.70846Z" fill="#991400"/>
<path fill-rule="evenodd" clip-rule="evenodd" d="M11.1476 1.53082C12.1102 -0.190251 13.9264 -0.00663587 15.6135 1.22021C17.4815 2.1604 18.6994 3.68378 17.3329 5.58779C16.481 6.9361 14.2538 7.20013 12.527 6.10748C10.8001 5.01516 10.3401 2.99271 11.1476 1.53082Z" fill="url(#paint7_linear_995_6767)"/>
<path fill-rule="evenodd" clip-rule="evenodd" d="M11.3835 1.16484C12.2356 -0.184303 14.3291 -0.391705 16.056 0.701113C17.7829 1.79376 18.4929 3.77534 17.6409 5.12448C16.7896 6.47379 14.6965 6.68087 12.9694 5.58838C11.2423 4.49573 10.5321 2.51415 11.3835 1.16484Z" fill="url(#paint8_radial_995_6767)"/>
<path opacity="0.44" fill-rule="evenodd" clip-rule="evenodd" d="M12.7458 5.47262C12.6509 5.40645 12.5581 5.33726 12.4702 5.26823C12.3177 5.14895 12.1767 5.02296 12.045 4.89329C11.4863 4.34312 11.0907 3.67198 11.0054 2.87C10.9873 2.70146 10.9835 2.53477 10.9942 2.37092C11.0085 2.16837 11.0369 1.9685 11.0993 1.77148C11.0852 2.01675 11.0681 2.26018 11.0825 2.50997C11.0937 2.70514 11.1222 2.90384 11.1664 3.09902C11.2179 3.32418 11.2944 3.53912 11.3909 3.73899C11.6067 4.18865 11.9128 4.58252 12.2857 4.94523C12.565 5.21697 12.8815 5.46592 13.209 5.71119C13.2695 5.75676 13.3283 5.803 13.3888 5.84756C13.2695 5.7963 13.1522 5.72911 13.0364 5.65992C12.9388 5.60162 12.8414 5.53813 12.7458 5.47262Z" fill="url(#paint9_linear_995_6767)"/>
<path opacity="0.3" fill-rule="evenodd" clip-rule="evenodd" d="M9.46345 9.52729C9.04697 9.21115 8.67756 8.87592 8.44251 8.45926C8.37818 8.34567 8.3244 8.22355 8.28469 8.09572C8.16624 7.71793 8.20427 7.34567 8.42391 7.00391C8.34902 7.1773 8.312 7.35522 8.3177 7.53984C8.3244 7.76417 8.39074 7.98464 8.48154 8.18082C8.61406 8.46982 8.79768 8.73084 8.9947 8.98465C9.13961 9.17111 9.29776 9.35104 9.46345 9.52729Z" fill="url(#paint10_linear_995_6767)"/>
<path opacity="0.13" fill-rule="evenodd" clip-rule="evenodd" d="M15.7415 5.07919C16.0764 4.38057 16.101 3.63656 15.8633 2.86859C15.6155 2.06862 15.2205 1.45595 14.7557 0.911469C14.4451 0.643584 14.5105 0.385079 15.0605 0.481578C15.4061 0.581093 15.7526 0.734385 16.0831 0.943633C17.5649 1.88098 18.1744 3.58245 17.4436 4.73943C17.2446 5.05372 16.9683 5.29497 16.6416 5.46267C15.5842 5.87446 15.3049 5.73156 15.7415 5.07919Z" fill="url(#paint11_linear_995_6767)"/>
<path opacity="0.39" fill-rule="evenodd" clip-rule="evenodd" d="M13.6673 0.286565C13.0878 1.16427 12.9732 2.111 13.2404 3.08722C13.4817 3.97246 13.8908 4.63321 14.3718 5.22024C14.5252 5.48428 14.5214 5.66421 14.0613 5.60189C13.6966 5.50505 13.3331 5.34338 12.9884 5.1142C11.5475 4.15608 10.9784 2.38073 11.7199 1.15003C12.0985 0.522287 12.7462 0.156729 13.4808 0.0781556C13.7564 0.0763128 13.7847 0.157732 13.6673 0.286565Z" fill="url(#paint12_linear_995_6767)"/>
<defs>
<linearGradient id="paint0_linear_995_6767" x1="7.32151" y1="11.4934" x2="9.29941" y2="12.8382" gradientUnits="userSpaceOnUse">
<stop stop-color="#4A4A4A"/>
<stop offset="0.16" stop-color="#CCCCCC"/>
<stop offset="0.31" stop-color="white"/>
<stop offset="0.57" stop-color="#878787"/>
<stop offset="0.7636" stop-color="white"/>
<stop offset="1" stop-color="#999999"/>
</linearGradient>
<linearGradient id="paint1_linear_995_6767" x1="6.66952" y1="14.0291" x2="7.97831" y2="12.3971" gradientUnits="userSpaceOnUse">
<stop stop-color="white"/>
<stop offset="1" stop-color="#333333"/>
</linearGradient>
<radialGradient id="paint2_radial_995_6767" cx="0" cy="0" r="1" gradientUnits="userSpaceOnUse" gradientTransform="translate(9.28162 8.60999) scale(10.9738 10.9738)">
<stop stop-color="#F54221"/>
<stop offset="1" stop-color="#991400"/>
</radialGradient>
<linearGradient id="paint3_linear_995_6767" x1="9.02202" y1="7.06495" x2="6.94969" y2="7.02357" gradientUnits="userSpaceOnUse">
<stop stop-color="#F0383B"/>
<stop offset="1" stop-color="white"/>
</linearGradient>
<linearGradient id="paint4_linear_995_6767" x1="12.6751" y1="8.869" x2="12.8356" y2="10.9318" gradientUnits="userSpaceOnUse">
<stop stop-color="#991400"/>
<stop offset="1" stop-color="white"/>
</linearGradient>
<linearGradient id="paint5_linear_995_6767" x1="10.6375" y1="8.28008" x2="7.44882" y2="14.5902" gradientUnits="userSpaceOnUse">
<stop stop-color="#F54221"/>
<stop offset="1" stop-color="#991400"/>
</linearGradient>
<linearGradient id="paint6_linear_995_6767" x1="9.5074" y1="4.02391" x2="14.1868" y2="7.88742" gradientUnits="userSpaceOnUse">
<stop stop-color="white"/>
<stop offset="0.32" stop-color="#BD1900"/>
<stop offset="0.6" stop-color="#F54221"/>
<stop offset="1" stop-color="#BD1900"/>
</linearGradient>
<linearGradient id="paint7_linear_995_6767" x1="15.8201" y1="5.14135" x2="11.8683" y2="1.52634" gradientUnits="userSpaceOnUse">
<stop stop-color="#991400"/>
<stop offset="1" stop-color="#BD1900"/>
</linearGradient>
<radialGradient id="paint8_radial_995_6767" cx="0" cy="0" r="1" gradientUnits="userSpaceOnUse" gradientTransform="translate(13.8053 1.82489) scale(6.54949)">
<stop stop-color="#F54221"/>
<stop offset="1" stop-color="#BD1900"/>
</radialGradient>
<linearGradient id="paint9_linear_995_6767" x1="11.9494" y1="3.91902" x2="10.2766" y2="4.54004" gradientUnits="userSpaceOnUse">
<stop offset="0.177" stop-color="#F54221"/>
<stop offset="0.6286" stop-color="white"/>
</linearGradient>
<linearGradient id="paint10_linear_995_6767" x1="9.09048" y1="8.19081" x2="8.04887" y2="8.72114" gradientUnits="userSpaceOnUse">
<stop stop-color="#F54221"/>
<stop offset="1" stop-color="white"/>
</linearGradient>
<linearGradient id="paint11_linear_995_6767" x1="17.5805" y1="1.70844" x2="14.2743" y2="3.89602" gradientUnits="userSpaceOnUse">
<stop stop-color="#F50021"/>
<stop offset="1" stop-color="white"/>
</linearGradient>
<linearGradient id="paint12_linear_995_6767" x1="13.6217" y1="2.9012" x2="11.6684" y2="3.78276" gradientUnits="userSpaceOnUse">
<stop stop-color="#F54221"/>
<stop offset="1" stop-color="#991400"/>
</linearGradient>
</defs>
</svg>
