<svg width="22" height="25" viewBox="0 0 22 25" fill="none" xmlns="http://www.w3.org/2000/svg">
    <g clip-path="url(#clip0_995_15020)">
        <path d="M5.12772 4.86663C4.73855 4.92034 4.29499 5.05706 3.85143 5.24749C2.99778 5.62347 2.42031 5.643 1.86794 5.32073C1.72985 5.23772 1.57084 5.17425 1.50807 5.17425C1.28211 5.17425 1.26537 5.24749 1.16912 6.61468C1.08962 7.74261 1.08543 7.96722 1.12728 8.63616C1.18586 9.54436 1.33232 10.4867 1.52481 11.2338C1.60432 11.5414 1.68801 11.9321 1.7173 12.1078C1.84702 13.0063 2.1776 13.7826 2.70067 14.4418C2.83458 14.6078 2.93501 14.7543 2.92664 14.7592C2.68393 14.9448 2.19434 15.4233 1.93908 15.7358C1.04777 16.8198 0.537254 18.1186 0.403348 19.6616C0.378241 19.9252 0.38661 19.9789 0.461932 20.0668C0.650237 20.2866 0.964079 20.1254 0.964079 19.8032C0.964079 19.3881 1.23608 18.1772 1.41601 17.7866L1.48715 17.6254L2.03114 18.0063L2.57513 18.3871L2.59606 19.2075C2.61698 19.9448 2.62535 20.0326 2.69649 20.0961C2.81365 20.1938 3.00196 20.1791 3.0982 20.0668C3.17771 19.9741 3.1819 19.9057 3.1819 19.061C3.1819 18.5483 3.16516 18.1186 3.14005 18.0649C3.11494 18.016 2.79692 17.7621 2.42867 17.5033L1.75915 17.0346L1.89305 16.8051C2.10646 16.4487 2.83876 15.6186 3.14842 15.3891L3.4246 15.1791L3.71333 15.35C4.37031 15.7455 4.96033 15.8969 5.72611 15.853C6.30358 15.8237 6.79736 15.6723 7.27858 15.3793C7.6259 15.1645 7.60498 15.1645 7.97322 15.4672C8.3833 15.809 9.24951 16.8686 9.24951 17.0248C9.24951 17.0444 8.9817 17.2494 8.65112 17.4789C8.32472 17.7084 8.01506 17.9428 7.96485 18.0014C7.87279 18.1039 7.8686 18.1381 7.8686 19.0414C7.8686 19.9057 7.87279 19.9741 7.95229 20.0668C8.06109 20.1938 8.25358 20.1938 8.35401 20.0619C8.42515 19.9741 8.4377 19.8569 8.45444 19.1733L8.47536 18.3871L9.01936 18.0063L9.56335 17.6254L9.65959 17.8793C9.83116 18.3285 9.95251 18.8217 10.0237 19.3686C10.0655 19.6567 10.1115 19.9448 10.1324 20.0033C10.1701 20.1303 10.3291 20.1889 10.484 20.145C10.6179 20.1059 10.6513 20.0033 10.7099 19.4711C10.7643 18.9682 10.9191 18.3285 11.0782 17.9184L11.1953 17.6254L11.7393 18.0063L12.2833 18.3871L12.3042 19.2075C12.3293 20.1205 12.3419 20.1645 12.6223 20.1645C12.865 20.1645 12.8901 20.0668 12.8901 19.0512C12.8901 18.5434 12.8733 18.1186 12.8482 18.0649C12.8231 18.016 12.5051 17.7621 12.1369 17.5033L11.4673 17.0346L11.6012 16.8051C11.8146 16.4438 12.5051 15.6625 12.8231 15.4135L13.1119 15.1889L13.3671 15.3549C14.0074 15.77 14.8987 15.975 15.631 15.8725C16.1038 15.809 16.6813 15.5991 17.0621 15.3549L17.3215 15.1889L17.5642 15.3793C18.0162 15.7309 18.443 16.2094 18.8238 16.7758C18.8991 16.8881 18.9577 17.0004 18.9577 17.02C18.9577 17.0444 18.6857 17.2494 18.3593 17.4789C18.0329 17.7084 17.7232 17.9428 17.673 18.0014C17.581 18.1039 17.5768 18.1381 17.5768 19.0414C17.5768 19.9057 17.581 19.9741 17.6605 20.0668C17.8195 20.2524 18.0915 20.1645 18.1417 19.9057C18.1542 19.8471 18.1668 19.4809 18.1752 19.0951L18.1835 18.3871L18.5392 18.1381C18.7359 18.0014 18.9828 17.8256 19.0874 17.7573L19.2841 17.6205L19.4305 18.0502C19.5979 18.5532 19.7402 19.1782 19.7779 19.6274C19.8113 20.0326 19.8783 20.1645 20.0582 20.1645C20.326 20.1645 20.3888 20.018 20.3386 19.5248C20.1838 18.0893 19.7109 16.8637 18.9158 15.8578C18.6522 15.5209 18.1919 15.0522 17.9115 14.8325L17.8069 14.7543L17.9994 14.5151C18.263 14.1928 18.4221 13.9438 18.5936 13.5825L18.7401 13.27L18.7861 13.4408C18.8573 13.6801 19.1209 14.017 19.3636 14.1733C19.6691 14.3637 20.0415 14.4516 20.5855 14.4516H21.0625L21.0332 13.9731C20.9914 13.1869 20.8449 12.7035 20.5311 12.3129C20.2382 11.9467 19.7528 11.7172 19.2715 11.7172C19.0372 11.7172 19.033 11.683 19.2255 11.0434C19.4138 10.4086 19.4766 9.94476 19.4389 9.45159C19.3594 8.34319 19.0623 7.52776 18.4597 6.77581C17.8446 6.00921 17.1248 5.55999 16.1582 5.33538C15.6435 5.21819 14.7104 5.22796 14.1873 5.35491C12.3419 5.8139 11.1409 7.38128 11.0196 9.47112C10.9903 10.0278 11.0363 10.3891 11.2372 11.1362C11.3167 11.434 11.3836 11.683 11.3836 11.6879C11.3836 11.6977 11.2372 11.7172 11.0572 11.7319C10.6095 11.7709 10.304 11.9125 10.0237 12.2104C9.63867 12.6254 9.42107 13.3139 9.41689 14.144V14.4516H9.88974C10.7936 14.4516 11.392 14.144 11.6138 13.5727C11.6556 13.4653 11.7017 13.3774 11.7142 13.3774C11.7268 13.3774 11.823 13.5434 11.9276 13.7485C12.0281 13.9487 12.2289 14.2612 12.3712 14.4418L12.6264 14.769L12.3084 15.0424C11.5175 15.7309 10.7978 16.8393 10.484 17.8451C10.4044 18.0991 10.3375 18.226 10.3375 18.1235C10.3375 18.0893 10.2789 17.8891 10.212 17.684C9.89811 16.727 9.18674 15.6821 8.39586 15.0033C8.25358 14.8813 8.13223 14.7739 8.12386 14.7641C8.11549 14.7543 8.20755 14.6225 8.32472 14.4711C8.86453 13.7826 9.18674 13.0258 9.31646 12.142C9.34994 11.893 9.42526 11.5219 9.47966 11.3168C9.76421 10.2621 9.91904 9.12933 9.91904 8.143C9.91904 7.35686 9.86464 7.06878 9.62193 6.63421C9.45873 6.33636 8.99425 5.82854 8.69296 5.62347C7.94392 5.10101 6.93963 4.82757 5.83909 4.84222C5.51688 4.84222 5.19885 4.85686 5.12772 4.86663ZM6.46677 5.51604C7.83094 5.69183 8.88964 6.34124 9.24114 7.2055C9.34994 7.48382 9.35412 7.52288 9.34994 8.22601C9.34575 8.97796 9.28298 9.54925 9.1156 10.3549C9.06539 10.5942 9.01099 10.7846 8.99425 10.7797C8.97333 10.77 8.72644 10.3793 8.44607 9.91058C7.84349 8.91448 7.88952 8.94378 7.27021 9.17327C6.79736 9.34905 6.16549 9.5053 5.73448 9.54925C5.32021 9.58831 4.6172 9.47112 3.98533 9.24651C3.71752 9.14886 3.40786 9.06097 3.30325 9.04632L3.11076 9.0219L2.57095 9.92522C2.27385 10.4233 2.02696 10.8237 2.02277 10.8188C1.99348 10.7895 1.86794 10.1401 1.80099 9.64202C1.67964 8.80706 1.65453 7.96233 1.7173 6.92229L1.7717 6.02386L2.04788 6.11175C2.6379 6.28753 3.36602 6.19964 4.10668 5.85784C4.84317 5.51604 5.60057 5.40374 6.46677 5.51604ZM16.3005 6.05315C16.7482 6.18987 17.4136 6.57561 17.7191 6.87347C18.4262 7.56194 18.8154 8.46526 18.8614 9.52483C18.8824 9.9887 18.874 10.0912 18.7736 10.5014C18.7108 10.7553 18.6438 10.9799 18.6271 10.9994C18.5853 11.0483 17.9952 10.7944 17.514 10.5209C16.5306 9.9594 15.8569 9.20745 15.5849 8.35784C15.4594 7.9721 15.3841 7.85979 15.246 7.85979C15.0828 7.85979 14.9907 7.9428 14.9363 8.13811C14.6225 9.27581 13.7605 10.1645 12.367 10.7992C11.7602 11.0776 11.8188 11.0873 11.7142 10.7065C11.5761 10.2035 11.5594 9.42229 11.6724 8.87054C11.823 8.13811 12.1327 7.518 12.5972 7.01019C13.0282 6.54632 13.5931 6.2094 14.2082 6.03851C14.6643 5.91155 14.6727 5.91155 15.338 5.93108C15.8151 5.94085 16.0452 5.97015 16.3005 6.05315ZM15.3673 9.3344C15.8486 10.1791 16.6645 10.8774 17.74 11.3705C18.0329 11.5024 18.3216 11.6293 18.3844 11.6489C18.5016 11.6782 18.5016 11.6879 18.4765 11.9321C18.3342 13.1283 17.6186 14.2807 16.6771 14.8325C16.1582 15.1352 15.8611 15.2084 15.1916 15.2035C14.6476 15.2035 14.5513 15.1889 14.2501 15.0717C13.7646 14.8813 13.3462 14.5883 12.9863 14.1928C12.3963 13.5385 12.0783 12.8256 11.9485 11.8783L11.9193 11.6733L12.0908 11.6196C12.3712 11.5317 13.183 11.141 13.4759 10.9506C14.1454 10.516 14.7606 9.90081 15.0535 9.36858C15.1414 9.21233 15.2125 9.0805 15.2167 9.0805C15.2209 9.0805 15.2878 9.19769 15.3673 9.3344ZM3.79703 9.89104C4.00207 9.9594 4.39123 10.0571 4.66741 10.1157C5.48759 10.2768 6.39982 10.1938 7.28276 9.86663C7.43341 9.81292 7.57568 9.76409 7.60498 9.76409C7.63008 9.76409 7.90626 10.1889 8.22011 10.7114C8.63438 11.4047 8.78921 11.7026 8.78921 11.8051C8.78921 12.2348 8.48792 13.1381 8.17826 13.6313C7.7891 14.2465 7.06098 14.8471 6.45004 15.0571C5.32439 15.4428 4.06484 15.0717 3.22793 14.1049C2.78018 13.5825 2.51655 13.06 2.34498 12.3373C2.19434 11.7123 2.19016 11.7319 2.81365 10.6869C3.11913 10.1791 3.38275 9.76409 3.39949 9.76409C3.41623 9.76409 3.59617 9.8178 3.79703 9.89104ZM11.2288 12.5131C11.2581 12.7426 11.1911 13.1283 11.0782 13.3139C11.0279 13.4018 10.9024 13.5287 10.7978 13.5922C10.6179 13.7094 10.0655 13.8559 10.0195 13.8022C9.97344 13.7485 10.0906 13.2504 10.2036 13.0112C10.3752 12.645 10.6932 12.435 11.1786 12.3569C11.1953 12.352 11.2162 12.4252 11.2288 12.5131ZM19.7276 12.4838C20.0875 12.6157 20.347 13.0356 20.439 13.641L20.4683 13.8266L20.2465 13.7924C19.7611 13.7143 19.4682 13.5336 19.3385 13.2358C19.2422 13.0258 19.1878 12.645 19.2255 12.4741C19.2464 12.3715 19.2673 12.3569 19.3887 12.3813C19.4598 12.3959 19.6147 12.4448 19.7276 12.4838Z" fill="#747688"/>
        <path d="M13.5257 12.8559C13.5006 12.8852 13.4713 12.9731 13.4546 13.0415C13.4127 13.2368 13.6178 13.4712 14.0278 13.7153C14.7894 14.1597 15.6264 14.1743 16.3754 13.7495C16.8064 13.5054 16.9905 13.3149 16.9905 13.1099C16.9905 12.7436 16.7436 12.6948 16.3628 12.9829C15.9653 13.2856 15.7477 13.354 15.2121 13.3491C14.6932 13.3491 14.4379 13.2612 14.0613 12.9585C13.8437 12.7827 13.6094 12.7388 13.5257 12.8559Z" fill="#747688"/>
        <path d="M3.93691 12.8027C3.81138 12.8564 3.76953 12.9248 3.76953 13.1006C3.76953 13.291 3.96621 13.4863 4.37629 13.7207C4.79893 13.9551 5.06256 14.0234 5.52705 14.0234C5.99153 14.0234 6.25516 13.9551 6.6778 13.7207C7.25109 13.3984 7.45194 13.0859 7.24272 12.8418C7.12136 12.7002 6.95398 12.7197 6.72802 12.9102C6.28445 13.2812 5.74046 13.4326 5.22576 13.335C4.93284 13.2812 4.44743 13.0566 4.31352 12.915C4.20473 12.8027 4.0499 12.7539 3.93691 12.8027Z" fill="#747688"/>
    </g>
    <defs>
        <clipPath id="clip0_995_15020">
            <rect width="21.4249" height="25" fill="white"/>
        </clipPath>
    </defs>
</svg>
