<svg width="22" height="22" viewBox="0 0 22 22" fill="none" xmlns="http://www.w3.org/2000/svg">
    <path d="M2.0625 6.1875C2.0625 13.7812 8.21883 19.9375 15.8125 19.9375H17.875C18.422 19.9375 18.9466 19.7202 19.3334 19.3334C19.7202 18.9466 19.9375 18.422 19.9375 17.875V16.6173C19.9375 16.1443 19.6158 15.7318 19.1565 15.6173L15.1021 14.6034C14.6988 14.5026 14.2753 14.6538 14.0268 14.9857L13.1377 16.1709C12.8792 16.5156 12.4328 16.6678 12.0285 16.5193C10.5278 15.9675 9.16497 15.0962 8.03438 13.9656C6.90379 12.835 6.03247 11.4722 5.48075 9.9715C5.33225 9.56725 5.48442 9.12083 5.82908 8.86233L7.01433 7.97317C7.34708 7.72475 7.49742 7.30033 7.39658 6.89792L6.38275 2.8435C6.32696 2.62047 6.19824 2.42248 6.01705 2.28098C5.83585 2.13947 5.61257 2.06258 5.38267 2.0625H4.125C3.57799 2.0625 3.05339 2.2798 2.66659 2.66659C2.2798 3.05339 2.0625 3.57799 2.0625 4.125V6.1875Z" stroke="#747688" stroke-width="1.5" stroke-linecap="round" stroke-linejoin="round"/>
</svg>
