<svg width="22" height="22" viewBox="0 0 22 22" fill="none" xmlns="http://www.w3.org/2000/svg">
    <path d="M4.52675 17.1907C4.44506 17.1907 4.36672 17.1582 4.30896 17.1004C4.2512 17.0427 4.21875 16.9643 4.21875 16.8827V8.95253C4.21875 8.87084 4.2512 8.7925 4.30896 8.73474C4.36672 8.67698 4.44506 8.64453 4.52675 8.64453C4.60844 8.64453 4.68678 8.67698 4.74454 8.73474C4.8023 8.7925 4.83475 8.87084 4.83475 8.95253V16.8827C4.83475 16.9643 4.8023 17.0427 4.74454 17.1004C4.68678 17.1582 4.60844 17.1907 4.52675 17.1907Z" fill="#807A7A"/>
    <path d="M5.92519 17.1907C5.8435 17.1907 5.76516 17.1582 5.7074 17.1004C5.64964 17.0427 5.61719 16.9643 5.61719 16.8827V8.95253C5.61719 8.87084 5.64964 8.7925 5.7074 8.73474C5.76516 8.67698 5.8435 8.64453 5.92519 8.64453C6.00687 8.64453 6.08522 8.67698 6.14298 8.73474C6.20074 8.7925 6.23319 8.87084 6.23319 8.95253V16.8827C6.23319 16.9643 6.20074 17.0427 6.14298 17.1004C6.08522 17.1582 6.00687 17.1907 5.92519 17.1907Z" fill="#807A7A"/>
    <path d="M5.829 9.23447H4.619C4.10926 9.23447 3.68092 8.83055 3.62262 8.29507L3.54474 7.58381C3.53599 7.50259 3.55986 7.42122 3.6111 7.3576C3.66235 7.29398 3.73676 7.25332 3.81798 7.24457C3.8992 7.23582 3.98057 7.25969 4.04419 7.31093C4.10781 7.36218 4.14847 7.43659 4.15722 7.51781L4.23488 8.22863C4.2593 8.45127 4.4243 8.61891 4.619 8.61891H5.829C6.0237 8.61891 6.18892 8.45127 6.21312 8.22885L6.29012 7.52485C6.2935 7.4839 6.30505 7.44403 6.32407 7.4076C6.3431 7.37118 6.36922 7.33892 6.4009 7.31275C6.43258 7.28657 6.46918 7.267 6.50854 7.25519C6.5479 7.24337 6.58923 7.23956 6.63009 7.24396C6.67095 7.24837 6.71051 7.2609 6.74645 7.28083C6.78239 7.30076 6.81398 7.32769 6.83935 7.36001C6.86473 7.39234 6.88338 7.42942 6.8942 7.46906C6.90503 7.50871 6.90781 7.55012 6.90238 7.59085L6.82538 8.29485C6.76598 8.83055 6.33764 9.23447 5.829 9.23447Z" fill="#807A7A"/>
    <path d="M3.87859 18.5943C3.86979 18.5943 3.86077 18.5943 3.85175 18.5943C3.81144 18.5908 3.77222 18.5794 3.73632 18.5607C3.70042 18.5421 3.66855 18.5165 3.64252 18.4856C3.61649 18.4546 3.59682 18.4188 3.58463 18.3802C3.57244 18.3417 3.56797 18.3011 3.57147 18.2607L3.64803 17.3766C3.66572 17.1573 3.76558 16.9528 3.92761 16.804C4.08965 16.6553 4.3019 16.5732 4.52187 16.5742H5.92371C6.14345 16.5732 6.35547 16.6552 6.51739 16.8037C6.67932 16.9523 6.77921 17.1565 6.79711 17.3755L6.87235 18.244C6.87941 18.3254 6.85385 18.4063 6.80128 18.4688C6.74872 18.5314 6.67346 18.5705 6.59207 18.5775C6.51067 18.5846 6.42981 18.559 6.36726 18.5065C6.30471 18.4539 6.26561 18.3787 6.25855 18.2973L6.18353 17.4285C6.17831 17.3631 6.1486 17.3022 6.10034 17.2578C6.05208 17.2134 5.98884 17.1889 5.92327 17.1891H4.52187C4.45634 17.1889 4.39315 17.2135 4.34493 17.2578C4.29672 17.3022 4.26704 17.3632 4.26183 17.4285L4.18527 18.3129C4.17861 18.3896 4.14342 18.4611 4.08665 18.5132C4.02987 18.5653 3.95564 18.5942 3.87859 18.5943Z" fill="#807A7A"/>
    <path d="M14.5463 17.2016C14.4646 17.2016 14.3863 17.1691 14.3285 17.1114C14.2707 17.0536 14.2383 16.9753 14.2383 16.8936V9.2455C14.2383 9.16381 14.2707 9.08547 14.3285 9.02771C14.3863 8.96995 14.4646 8.9375 14.5463 8.9375C14.628 8.9375 14.7063 8.96995 14.7641 9.02771C14.8218 9.08547 14.8543 9.16381 14.8543 9.2455V16.8936C14.8543 16.9753 14.8218 17.0536 14.7641 17.1114C14.7063 17.1691 14.628 17.2016 14.5463 17.2016Z" fill="#807A7A"/>
    <path d="M15.8939 17.2016C15.8123 17.2016 15.7339 17.1691 15.6761 17.1114C15.6184 17.0536 15.5859 16.9753 15.5859 16.8936V9.2455C15.5859 9.16381 15.6184 9.08547 15.6761 9.02771C15.7339 8.96995 15.8123 8.9375 15.8939 8.9375C15.9756 8.9375 16.054 8.96995 16.1117 9.02771C16.1695 9.08547 16.2019 9.16381 16.2019 9.2455V16.8936C16.2019 16.9753 16.1695 17.0536 16.1117 17.1114C16.054 17.1691 15.9756 17.2016 15.8939 17.2016Z" fill="#807A7A"/>
    <path d="M15.8849 9.21728H14.5522C14.0763 9.21728 13.677 8.82788 13.6236 8.31176L13.5485 7.58994C13.5443 7.54971 13.5481 7.50904 13.5596 7.47027C13.5712 7.4315 13.5902 7.39538 13.6157 7.36397C13.6412 7.33256 13.6726 7.30648 13.7082 7.28721C13.7437 7.26795 13.7828 7.25587 13.823 7.25169C13.8632 7.2475 13.9039 7.25127 13.9426 7.2628C13.9814 7.27432 14.0175 7.29337 14.0489 7.31886C14.0804 7.34434 14.1064 7.37576 14.1257 7.41133C14.145 7.44689 14.157 7.48591 14.1612 7.52614L14.2363 8.24928C14.2583 8.45058 14.3929 8.60238 14.5522 8.60238H15.8849C16.044 8.60238 16.1797 8.45058 16.2009 8.24906L16.2759 7.52724V7.52262V7.51558C16.2838 7.43678 16.3217 7.36406 16.3818 7.31251C16.4419 7.26095 16.5196 7.23452 16.5986 7.23871C16.6777 7.2429 16.7521 7.27739 16.8065 7.33501C16.8608 7.39263 16.8908 7.46895 16.8903 7.54814C16.8903 7.56041 16.8895 7.57268 16.8881 7.58488V7.59324L16.8133 8.31264C16.759 8.82898 16.3599 9.21728 15.8849 9.21728Z" fill="#807A7A"/>
    <path d="M16.562 18.5987C16.4849 18.5986 16.4107 18.5696 16.354 18.5175C16.2973 18.4653 16.2621 18.3938 16.2555 18.3171L16.1787 17.4296C16.1736 17.3642 16.1439 17.3033 16.0957 17.2589C16.0475 17.2145 15.9842 17.19 15.9187 17.1902H14.5164C14.4509 17.19 14.3877 17.2146 14.3395 17.2589C14.2913 17.3033 14.2616 17.3643 14.2564 17.4296L14.1814 18.2984C14.1743 18.3798 14.1352 18.455 14.0726 18.5076C14.0101 18.5601 13.9292 18.5857 13.8478 18.5786C13.7664 18.5716 13.6912 18.5325 13.6386 18.4699C13.5861 18.4074 13.5605 18.3265 13.5676 18.2451L13.6428 17.3763C13.6605 17.1571 13.7603 16.9527 13.9223 16.804C14.0843 16.6552 14.2965 16.5732 14.5164 16.5742H15.9187C16.1386 16.5732 16.3508 16.6552 16.5128 16.804C16.6748 16.9527 16.7746 17.1571 16.7923 17.3763L16.8693 18.264C16.8728 18.3044 16.8683 18.345 16.856 18.3836C16.8438 18.4222 16.824 18.458 16.798 18.4889C16.7719 18.5199 16.7399 18.5454 16.704 18.564C16.668 18.5826 16.6287 18.5939 16.5884 18.5973C16.5799 18.5982 16.5711 18.5987 16.562 18.5987Z" fill="#807A7A"/>
    <path d="M18.12 20.6596H2.33144C2.24975 20.6596 2.17141 20.6271 2.11365 20.5694C2.05589 20.5116 2.02344 20.4333 2.02344 20.3516V19.9294C2.02402 19.4137 2.22913 18.9193 2.59376 18.5547C2.9584 18.1901 3.45279 17.985 3.96846 17.9844H16.4832C16.9988 17.985 17.4932 18.1901 17.8578 18.5547C18.2224 18.9194 18.4274 19.4137 18.428 19.9294V20.3516C18.428 20.4333 18.3955 20.5116 18.3377 20.5694C18.28 20.6271 18.2016 20.6596 18.12 20.6596ZM2.63944 20.0436H17.812V19.9294C17.8116 19.5771 17.6715 19.2393 17.4224 18.9901C17.1733 18.7409 16.8355 18.6008 16.4832 18.6004H3.96846C3.6161 18.6008 3.2783 18.7409 3.02915 18.9901C2.78 19.2392 2.63985 19.577 2.63944 19.9294V20.0436Z" fill="#807A7A"/>
    <path d="M3.59714 6.23095C3.53139 6.23097 3.46737 6.20995 3.41443 6.17096C3.36149 6.13198 3.32241 6.07707 3.30292 6.01428C3.28342 5.95149 3.28453 5.88411 3.30608 5.822C3.32763 5.75988 3.36849 5.7063 3.42268 5.66907L9.31076 1.62723C9.58199 1.44253 9.90254 1.34375 10.2307 1.34375C10.5588 1.34375 10.8794 1.44253 11.1506 1.62723L17.0372 5.66907C17.1035 5.71571 17.1488 5.78664 17.1632 5.86647C17.1776 5.94629 17.1599 6.02857 17.114 6.09543C17.0681 6.1623 16.9976 6.20835 16.9179 6.22359C16.8383 6.23883 16.7558 6.22203 16.6885 6.17683L10.8019 2.13455C10.6334 2.0199 10.4344 1.95859 10.2306 1.95859C10.0268 1.95859 9.82772 2.0199 9.65924 2.13455L3.77116 6.17683C3.71994 6.21201 3.65928 6.23088 3.59714 6.23095Z" fill="#807A7A"/>
    <path d="M18.1436 7.85508H2.30998C2.08778 7.85473 1.87481 7.76622 1.71782 7.60898C1.56083 7.45175 1.47266 7.23863 1.47266 7.01644V6.45104C1.47289 6.22892 1.56123 6.01597 1.71829 5.85891C1.87535 5.70185 2.0883 5.61351 2.31042 5.61328H18.1436C18.3657 5.61351 18.5787 5.70185 18.7357 5.85891C18.8928 6.01597 18.9811 6.22892 18.9814 6.45104V7.01644C18.9814 7.23871 18.8931 7.45189 18.736 7.60914C18.5789 7.76639 18.3659 7.85485 18.1436 7.85508ZM2.30998 6.23016C2.25126 6.23034 2.195 6.25377 2.15352 6.29533C2.11204 6.3369 2.08871 6.3932 2.08866 6.45192V7.01644C2.08871 7.07524 2.1121 7.13161 2.15367 7.17319C2.19525 7.21476 2.25162 7.23814 2.31042 7.2382H18.1436C18.2024 7.23814 18.2588 7.21476 18.3003 7.17319C18.3419 7.13161 18.3653 7.07524 18.3654 7.01644V6.45104C18.3653 6.39224 18.3419 6.33587 18.3003 6.2943C18.2588 6.25272 18.2024 6.22934 18.1436 6.22928L2.30998 6.23016Z" fill="#807A7A"/>
    <path d="M12.5122 12.6003C12.4305 12.6003 12.3522 12.5678 12.2944 12.5101C12.2366 12.4523 12.2042 12.374 12.2042 12.2923V11.2644H8.24881V12.2934C8.24881 12.3751 8.21636 12.4534 8.1586 12.5112C8.10084 12.5689 8.0225 12.6014 7.94081 12.6014C7.85913 12.6014 7.78078 12.5689 7.72302 12.5112C7.66526 12.4534 7.63281 12.3751 7.63281 12.2934V10.9564C7.63281 10.8748 7.66526 10.7964 7.72302 10.7386C7.78078 10.6809 7.85913 10.6484 7.94081 10.6484H12.5122C12.5939 10.6484 12.6722 10.6809 12.73 10.7386C12.7877 10.7964 12.8202 10.8748 12.8202 10.9564V12.2934C12.8199 12.3749 12.7873 12.4529 12.7296 12.5105C12.6719 12.568 12.5937 12.6003 12.5122 12.6003Z" fill="#807A7A"/>
    <path d="M7.97319 13.7906H7.91225C7.59584 13.7902 7.2925 13.6643 7.06877 13.4406C6.84503 13.2168 6.71916 12.9135 6.71875 12.5971V12.2924C6.71875 12.2107 6.7512 12.1323 6.80896 12.0746C6.86672 12.0168 6.94506 11.9844 7.02675 11.9844H8.85891C8.9406 11.9844 9.01894 12.0168 9.0767 12.0746C9.13446 12.1323 9.16691 12.2107 9.16691 12.2924V12.5971C9.1665 12.9135 9.0406 13.2169 8.81681 13.4406C8.59303 13.6644 8.28964 13.7902 7.97319 13.7906ZM7.33519 12.6004C7.33629 12.7529 7.39759 12.8988 7.50575 13.0063C7.61391 13.1139 7.76017 13.1743 7.91269 13.1746H7.97363C8.12619 13.1745 8.27251 13.114 8.38069 13.0065C8.48888 12.8989 8.55014 12.7529 8.55113 12.6004H7.33519Z" fill="#807A7A"/>
    <path d="M12.5435 13.7906H12.4826C12.1662 13.7902 11.8628 13.6643 11.6391 13.4406C11.4153 13.2168 11.2895 12.9135 11.2891 12.5971V12.2924C11.2891 12.2107 11.3215 12.1323 11.3793 12.0746C11.437 12.0168 11.5154 11.9844 11.5971 11.9844H13.429C13.5107 11.9844 13.589 12.0168 13.6468 12.0746C13.7046 12.1323 13.737 12.2107 13.737 12.2924V12.5971C13.7367 12.9135 13.6108 13.2169 13.387 13.4406C13.1633 13.6644 12.8599 13.7902 12.5435 13.7906ZM11.9055 12.6004C11.9065 12.7529 11.9678 12.8989 12.076 13.0064C12.1842 13.114 12.3305 13.1744 12.483 13.1746H12.5439C12.6965 13.1744 12.8428 13.114 12.9509 13.0064C13.0591 12.8989 13.1204 12.7529 13.1214 12.6004H11.9055Z" fill="#807A7A"/>
    <path d="M10.2299 14.5057C10.1482 14.5057 10.0698 14.4732 10.0121 14.4155C9.95432 14.3577 9.92188 14.2794 9.92188 14.1977V10.9564C9.92188 10.8748 9.95432 10.7964 10.0121 10.7386C10.0698 10.6809 10.1482 10.6484 10.2299 10.6484C10.3116 10.6484 10.3899 10.6809 10.4477 10.7386C10.5054 10.7964 10.5379 10.8748 10.5379 10.9564V14.1977C10.5379 14.2794 10.5054 14.3577 10.4477 14.4155C10.3899 14.4732 10.3116 14.5057 10.2299 14.5057Z" fill="#807A7A"/>
    <path d="M10.7038 14.5066H9.74941C9.66772 14.5066 9.58938 14.4742 9.53162 14.4164C9.47386 14.3587 9.44141 14.2803 9.44141 14.1986C9.44141 14.1169 9.47386 14.0386 9.53162 13.9808C9.58938 13.9231 9.66772 13.8906 9.74941 13.8906H10.7038C10.7855 13.8906 10.8638 13.9231 10.9216 13.9808C10.9793 14.0386 11.0118 14.1169 11.0118 14.1986C11.0118 14.2803 10.9793 14.3587 10.9216 14.4164C10.8638 14.4742 10.7855 14.5066 10.7038 14.5066Z" fill="#807A7A"/>
</svg>
