<svg width="25" height="24" viewBox="0 0 25 24" fill="none" xmlns="http://www.w3.org/2000/svg">
    <path d="M19.8701 9.85156C21.0265 11.0164 21.7205 11.9927 21.7256 12C21.7129 12.018 17.4859 18 12.415 18C12.0941 18 11.7826 17.9866 11.4805 17.9609L19.8701 9.85156Z" fill="#979797"/>
    <path d="M12.416 6C13.3117 6 14.1804 6.18864 15.0049 6.49609L12.416 9C10.7023 9.00002 9.31305 10.3426 9.3125 11.999L5.71973 15.4717C3.8823 13.8319 3.10547 12 3.10547 12C3.10547 12 5.64471 6.00003 12.416 6Z" fill="#979797"/>
    <rect opacity="0.3" width="19.3306" height="2.0348" transform="matrix(0.718997 -0.695013 0.718997 0.695013 5.27734 18.4336)" fill="#979797"/>
</svg>
