<svg width="22" height="24" viewBox="0 0 22 24" fill="none" xmlns="http://www.w3.org/2000/svg">
    <path d="M11.5 9V15M14.3333 12H8.66667M20 12C20 13.1819 19.7801 14.3522 19.353 15.4442C18.9258 16.5361 18.2997 17.5282 17.5104 18.364C16.7211 19.1997 15.7841 19.8626 14.7528 20.3149C13.7215 20.7672 12.6162 21 11.5 21C10.3838 21 9.27846 20.7672 8.24719 20.3149C7.21592 19.8626 6.27889 19.1997 5.48959 18.364C4.70029 17.5282 4.07419 16.5361 3.64702 15.4442C3.21986 14.3522 3 13.1819 3 12C3 9.61305 3.89553 7.32387 5.48959 5.63604C7.08365 3.94821 9.24566 3 11.5 3C13.7543 3 15.9163 3.94821 17.5104 5.63604C19.1045 7.32387 20 9.61305 20 12Z" stroke="#BE9DED" stroke-width="1.5" stroke-linecap="round" stroke-linejoin="round"/>
</svg>
