<svg width="22" height="22" viewBox="0 0 22 22" fill="none" xmlns="http://www.w3.org/2000/svg">
    <path d="M9.77734 0.079689C8.93086 0.234377 8.38516 0.419142 7.65469 0.792971C5.67813 1.80274 4.30742 3.61172 3.81758 5.8418C3.73164 6.2457 3.71875 6.40469 3.71875 7.3457C3.72305 8.52305 3.77031 8.8582 4.0668 9.75195C4.49648 11.0496 5.17539 12.1238 7.20352 14.7277C7.80508 15.4969 8.28633 16.1328 8.27773 16.1414C8.26914 16.15 7.98555 16.2145 7.6418 16.2832C5.67383 16.6828 4.31602 17.4047 3.84336 18.3027C3.72734 18.5176 3.71875 18.5777 3.71875 18.9902C3.71875 19.4199 3.72305 19.4543 3.86484 19.7121C4.34609 20.5973 5.76406 21.3363 7.71914 21.7145C8.91367 21.9422 9.31758 21.9766 11.002 21.9766C12.6863 21.9766 13.0902 21.9422 14.2848 21.7145C16.2484 21.332 17.6578 20.6016 18.1391 19.7121C18.2809 19.4543 18.2852 19.4199 18.2852 18.9902C18.2852 18.5605 18.2809 18.5262 18.1391 18.2684C17.6578 17.3832 16.3172 16.6785 14.3621 16.2832C14.0184 16.2145 13.7348 16.15 13.7262 16.1414C13.7176 16.1328 13.9367 15.8363 14.2117 15.484C16.5449 12.5148 17.2711 11.4363 17.7738 10.1773C18.0059 9.60156 18.1949 8.88828 18.2637 8.32109C18.341 7.70234 18.298 6.37031 18.1777 5.82031C17.5676 2.95 15.3676 0.750002 12.4844 0.122658C11.8613 -0.0105457 10.3961 -0.0363255 9.77734 0.079689ZM11.8828 0.947659C13.825 1.20117 15.5996 2.42149 16.6137 4.19609C16.8715 4.64727 17.1293 5.32188 17.2668 5.90195C17.3742 6.34453 17.3828 6.44766 17.3828 7.32422C17.3785 8.19219 17.3699 8.3082 17.2668 8.74219C17.0434 9.69609 16.6352 10.5855 15.9563 11.6211C15.4836 12.3387 14.9895 13.0004 13.5844 14.8008C12.957 15.6043 12.1277 16.6871 11.741 17.207C11.35 17.727 11.0191 18.1523 10.9977 18.1523C10.9805 18.1523 10.7957 17.9203 10.5895 17.6367C10.0996 16.9664 9.16289 15.7418 8.17031 14.4785C7.73203 13.9242 7.18203 13.2066 6.94141 12.8887C5.48047 10.9508 4.90039 9.80352 4.66406 8.38555C4.55234 7.73242 4.59102 6.51211 4.74141 5.88047C5.0293 4.67735 5.61797 3.62891 6.49023 2.76094C7.93398 1.33008 9.85469 0.685549 11.8828 0.947659ZM9.24023 17.3488C9.39062 17.5551 9.75586 18.0492 10.048 18.4531C10.7441 19.4113 10.7527 19.4199 11.002 19.4199C11.2426 19.4199 11.2898 19.377 11.8613 18.582C12.0848 18.2727 12.4457 17.7914 12.6648 17.5035L13.0602 16.9836L13.4426 17.0395C15.6855 17.3746 17.4043 18.2125 17.4043 18.9816C17.4043 19.2309 17.327 19.3598 17.0262 19.6391C16.0766 20.5156 13.666 21.1 11.002 21.1C8.81484 21.1 6.87266 20.7305 5.61367 20.073C5.21406 19.8668 4.77148 19.4973 4.65977 19.2867C4.57812 19.1234 4.58242 18.8184 4.67266 18.6895C5.19687 17.8988 6.68359 17.3059 8.93945 16.9793C8.95234 16.975 9.08555 17.1426 9.24023 17.3488Z" fill="#807A7A"/>
    <path d="M10.7555 1.79292C10.6395 1.87885 10.5707 2.0851 10.6008 2.24409C10.6653 2.57065 11.125 2.69956 11.3571 2.45464C11.5246 2.28276 11.5203 1.99487 11.3528 1.83159C11.2067 1.68979 10.9102 1.6726 10.7555 1.79292Z" fill="#807A7A"/>
    <path d="M12.422 2.13594C12.1856 2.37656 12.2759 2.74609 12.6024 2.875C14.1235 3.47656 15.1677 4.64102 15.563 6.175C15.6102 6.35547 15.6661 6.73789 15.6876 7.01719C15.722 7.48984 15.7349 7.53711 15.8423 7.64883C15.9411 7.75195 15.997 7.77344 16.1602 7.77344C16.3235 7.77344 16.3794 7.75195 16.4739 7.65312C16.5813 7.54141 16.5899 7.50703 16.5899 7.12031C16.5899 6.39844 16.3665 5.47891 16.027 4.8C15.6489 4.04375 14.9614 3.23164 14.2825 2.75039C13.7669 2.38086 13.0794 2.05 12.7829 2.02422C12.5724 2.00703 12.5423 2.01562 12.422 2.13594Z" fill="#807A7A"/>
    <path d="M10.248 4.36562C10.1063 4.4 9.82695 4.50742 9.625 4.60625C9.32852 4.75234 9.18672 4.85977 8.87305 5.17773C8.2457 5.80078 7.99219 6.41094 7.99219 7.30469C7.99219 7.86328 8.06953 8.20703 8.30156 8.67969C8.44766 8.97617 8.55508 9.11797 8.87305 9.43164C9.49609 10.059 10.1063 10.3125 11 10.3125C11.5586 10.3125 11.9023 10.2352 12.375 10.0031C12.6715 9.85703 12.8133 9.74961 13.127 9.43164C13.7543 8.80859 14.0078 8.19844 14.0078 7.30469C14.0078 6.74609 13.9305 6.40234 13.6984 5.92969C13.5523 5.6332 13.4449 5.49141 13.127 5.17773C12.4953 4.5418 11.8895 4.29688 10.9785 4.30117C10.7207 4.30117 10.3898 4.33125 10.248 4.36562ZM11.8723 5.37969C12.332 5.59883 12.7059 5.97266 12.9207 6.43242C13.0668 6.7332 13.084 6.81055 13.0969 7.18008C13.127 7.85039 12.9422 8.33594 12.4867 8.79141C12.216 9.06211 11.8551 9.27695 11.5242 9.36719C11.2707 9.43164 10.6777 9.42305 10.4371 9.35C9.83984 9.16523 9.3457 8.73984 9.075 8.17695C8.91602 7.84609 8.91602 7.8375 8.91602 7.30469C8.91602 6.77187 8.91602 6.76328 9.075 6.43242C9.33711 5.88242 9.83125 5.45273 10.4199 5.25938C10.5316 5.2207 10.7594 5.20352 11.0645 5.21211C11.5113 5.2207 11.5543 5.2293 11.8723 5.37969Z" fill="#807A7A"/>
</svg>
