<svg width="23" height="23" viewBox="0 0 23 23" fill="none" xmlns="http://www.w3.org/2000/svg">
<path d="M18.7272 8.30149C19.5184 8.55567 20.0697 9.31105 20.0697 10.1783V14.0143C20.0697 15.031 19.3116 15.8938 18.2976 15.977C17.9933 16.0012 17.689 16.0235 17.3847 16.0414V18.8079L14.6997 16.1229C13.4879 16.1229 12.2886 16.0737 11.1018 15.977C10.8434 15.9561 10.5921 15.8824 10.3634 15.7604M18.7272 8.30149C18.5889 8.25697 18.446 8.22845 18.3012 8.21646C15.9043 8.01749 13.4951 8.01749 11.0982 8.21646C10.086 8.30059 9.32969 9.16248 9.32969 10.1783V14.0143C9.32969 14.7634 9.74139 15.4284 10.3634 15.7604M18.7272 8.30149V6.62426C18.7272 5.17346 17.6961 3.91599 16.257 3.72893C14.4051 3.48889 12.5396 3.36871 10.6722 3.36914C8.77926 3.36914 6.91498 3.49176 5.08739 3.72893C3.64823 3.91599 2.61719 5.17346 2.61719 6.62426V12.1965C2.61719 13.6473 3.64823 14.9048 5.08739 15.0919C5.6038 15.159 6.1229 15.2172 6.64469 15.2655V19.4791L10.3634 15.7604" stroke="#535353" stroke-width="1.3425" stroke-linecap="round" stroke-linejoin="round"/>
</svg>
