<svg width="29" height="29" viewBox="0 0 29 29" fill="none" xmlns="http://www.w3.org/2000/svg">
<path d="M3.199 1.55054C2.52498 1.7148 1.99256 2.16226 1.68104 2.81929C1.52244 3.15914 1.50545 3.25542 1.50545 3.70855C1.50545 4.17867 1.59608 4.55816 2.64393 8.73824C3.27264 11.2248 3.79373 13.2752 3.81072 13.2865C3.83904 13.3148 5.95174 13.5187 13.3263 14.1927C14.9689 14.3457 16.3113 14.4816 16.3113 14.4986C16.3113 14.5156 14.9689 14.6515 13.3263 14.8044C5.95174 15.4785 3.83904 15.6824 3.81072 15.7107C3.75408 15.7617 1.53377 24.7222 1.49412 25.0394C1.36385 26.1892 2.17947 27.2597 3.3576 27.475C4.12225 27.6166 3.40291 27.9451 15.524 21.8845C24.0031 17.6478 26.6256 16.3111 26.8125 16.1412C27.1297 15.8466 27.3846 15.3595 27.4752 14.8781C27.6055 14.1644 27.3392 13.3375 26.8125 12.856C26.4953 12.5615 4.666 1.6355 4.20154 1.53355C3.83338 1.45425 3.56717 1.45992 3.199 1.55054Z" fill="#FFAD13"/>
</svg>
