<svg width="22" height="22" viewBox="0 0 22 22" fill="none" xmlns="http://www.w3.org/2000/svg">
<g clip-path="url(#clip0_995_11849)">
<path d="M4.09906 13.4247C5.58195 13.4247 6.78406 12.2226 6.78406 10.7397C6.78406 9.2568 5.58195 8.05469 4.09906 8.05469C2.61618 8.05469 1.41406 9.2568 1.41406 10.7397C1.41406 12.2226 2.61618 13.4247 4.09906 13.4247Z" fill="black"/>
<path d="M11.2592 13.4247C12.7421 13.4247 13.9442 12.2226 13.9442 10.7397C13.9442 9.2568 12.7421 8.05469 11.2592 8.05469C9.77633 8.05469 8.57422 9.2568 8.57422 10.7397C8.57422 12.2226 9.77633 13.4247 11.2592 13.4247Z" fill="black"/>
<path d="M18.4194 13.4247C19.9023 13.4247 21.1044 12.2226 21.1044 10.7397C21.1044 9.2568 19.9023 8.05469 18.4194 8.05469C16.9365 8.05469 15.7344 9.2568 15.7344 10.7397C15.7344 12.2226 16.9365 13.4247 18.4194 13.4247Z" fill="black"/>
</g>
<defs>
<clipPath id="clip0_995_11849">
<rect width="21.48" height="21.48" fill="white" transform="translate(0.519531)"/>
</clipPath>
</defs>
</svg>
